G04 #@! TF.GenerationSoftware,KiCad,Pcbnew,9.0.5*
G04 #@! TF.CreationDate,2026-05-14T13:16:54-03:00*
G04 #@! TF.ProjectId,CubeSat_Main,43756265-5361-4745-9f4d-61696e2e6b69,rev?*
G04 #@! TF.SameCoordinates,Original*
G04 #@! TF.FileFunction,Copper,L2,Bot*
G04 #@! TF.FilePolarity,Positive*
%FSLAX46Y46*%
G04 Gerber Fmt 4.6, Leading zero omitted, Abs format (unit mm)*
G04 Created by KiCad (PCBNEW 9.0.5) date 2026-05-14 13:16:54*
%MOMM*%
%LPD*%
G01*
G04 APERTURE LIST*
G04 Aperture macros list*
%AMRoundRect*
0 Rectangle with rounded corners*
0 $1 Rounding radius*
0 $2 $3 $4 $5 $6 $7 $8 $9 X,Y pos of 4 corners*
0 Add a 4 corners polygon primitive as box body*
4,1,4,$2,$3,$4,$5,$6,$7,$8,$9,$2,$3,0*
0 Add four circle primitives for the rounded corners*
1,1,$1+$1,$2,$3*
1,1,$1+$1,$4,$5*
1,1,$1+$1,$6,$7*
1,1,$1+$1,$8,$9*
0 Add four rect primitives between the rounded corners*
20,1,$1+$1,$2,$3,$4,$5,0*
20,1,$1+$1,$4,$5,$6,$7,0*
20,1,$1+$1,$6,$7,$8,$9,0*
20,1,$1+$1,$8,$9,$2,$3,0*%
G04 Aperture macros list end*
G04 #@! TA.AperFunction,ComponentPad*
%ADD10C,1.560000*%
G04 #@! TD*
G04 #@! TA.AperFunction,ComponentPad*
%ADD11C,1.600000*%
G04 #@! TD*
G04 #@! TA.AperFunction,ComponentPad*
%ADD12R,1.800000X1.800000*%
G04 #@! TD*
G04 #@! TA.AperFunction,ComponentPad*
%ADD13C,1.800000*%
G04 #@! TD*
G04 #@! TA.AperFunction,ComponentPad*
%ADD14R,1.560000X1.560000*%
G04 #@! TD*
G04 #@! TA.AperFunction,ComponentPad*
%ADD15R,1.700000X1.700000*%
G04 #@! TD*
G04 #@! TA.AperFunction,ComponentPad*
%ADD16C,1.700000*%
G04 #@! TD*
G04 #@! TA.AperFunction,ComponentPad*
%ADD17RoundRect,0.250000X0.725000X-0.600000X0.725000X0.600000X-0.725000X0.600000X-0.725000X-0.600000X0*%
G04 #@! TD*
G04 #@! TA.AperFunction,ComponentPad*
%ADD18O,1.950000X1.700000*%
G04 #@! TD*
G04 #@! TA.AperFunction,ComponentPad*
%ADD19R,2.000000X2.000000*%
G04 #@! TD*
G04 #@! TA.AperFunction,ComponentPad*
%ADD20C,2.000000*%
G04 #@! TD*
G04 #@! TA.AperFunction,ComponentPad*
%ADD21R,1.905000X2.000000*%
G04 #@! TD*
G04 #@! TA.AperFunction,ComponentPad*
%ADD22O,1.905000X2.000000*%
G04 #@! TD*
G04 APERTURE END LIST*
D10*
G04 #@! TO.P,U4,1,VCC*
G04 #@! TO.N,VIN_5V*
X19185000Y-18665000D03*
G04 #@! TO.P,U4,2,RX*
G04 #@! TO.N,unconnected-(U4-RX-Pad2)*
X19185000Y-16125000D03*
G04 #@! TO.P,U4,3,TX*
G04 #@! TO.N,unconnected-(U4-TX-Pad3)*
X19185000Y-13585000D03*
G04 #@! TO.P,U4,4,GND*
G04 #@! TO.N,GND*
X19185000Y-11045000D03*
G04 #@! TD*
D11*
G04 #@! TO.P,R7,1*
G04 #@! TO.N,Vbat_ADC*
X38410000Y-42365000D03*
G04 #@! TO.P,R7,2*
G04 #@! TO.N,GND*
X46030000Y-42365000D03*
G04 #@! TD*
D12*
G04 #@! TO.P,D3,1,K*
G04 #@! TO.N,GND*
X54770000Y-86780000D03*
D13*
G04 #@! TO.P,D3,2,A*
G04 #@! TO.N,Net-(D3-A)*
X57310000Y-86780000D03*
G04 #@! TD*
G04 #@! TO.P,U1,1,VBAT*
G04 #@! TO.N,unconnected-(U1-VBAT-Pad1)*
X33950000Y-82100000D03*
G04 #@! TO.P,U1,2,PC13*
G04 #@! TO.N,unconnected-(U1-PC13-Pad2)*
X33950000Y-79560000D03*
G04 #@! TO.P,U1,3,PC14*
G04 #@! TO.N,LED_BLUE*
X33950000Y-77020000D03*
G04 #@! TO.P,U1,4,PC15*
G04 #@! TO.N,LED_RED*
X33950000Y-74480000D03*
D14*
G04 #@! TO.P,U1,5V,5V*
G04 #@! TO.N,VIN_5V*
X33950000Y-33840000D03*
D13*
G04 #@! TO.P,U1,5V2,5V*
G04 #@! TO.N,unconnected-(U1-5V-Pad5V2)*
X17750000Y-77020000D03*
G04 #@! TO.P,U1,7,R*
G04 #@! TO.N,unconnected-(U1-R-Pad7)*
X33950000Y-71940000D03*
G04 #@! TO.P,U1,10,PA0*
G04 #@! TO.N,E220_M0*
X33950000Y-69400000D03*
G04 #@! TO.P,U1,11,PA1*
G04 #@! TO.N,E220_M1*
X33950000Y-66860000D03*
G04 #@! TO.P,U1,12,PA2*
G04 #@! TO.N,E220_RX*
X33950000Y-64320000D03*
G04 #@! TO.P,U1,13,PA3*
G04 #@! TO.N,E220_TX*
X33950000Y-61780000D03*
G04 #@! TO.P,U1,14,PA4*
G04 #@! TO.N,E220_AUX*
X33950000Y-59240000D03*
G04 #@! TO.P,U1,15,PA5*
G04 #@! TO.N,unconnected-(U1-PA5-Pad15)*
X33950000Y-56700000D03*
G04 #@! TO.P,U1,16,PA6*
G04 #@! TO.N,unconnected-(U1-PA6-Pad16)*
X33950000Y-54160000D03*
G04 #@! TO.P,U1,17,PA7*
G04 #@! TO.N,unconnected-(U1-PA7-Pad17)*
X33950000Y-51620000D03*
G04 #@! TO.P,U1,18,PB0*
G04 #@! TO.N,Temp_ADC*
X33950000Y-49080000D03*
G04 #@! TO.P,U1,19,PB1*
G04 #@! TO.N,Vbat_ADC*
X33950000Y-46540000D03*
G04 #@! TO.P,U1,20,PB2*
G04 #@! TO.N,unconnected-(U1-PB2-Pad20)*
X33950000Y-44000000D03*
G04 #@! TO.P,U1,21,PB10*
G04 #@! TO.N,unconnected-(U1-PB10-Pad21)*
X33950000Y-41460000D03*
G04 #@! TO.P,U1,23,GND*
G04 #@! TO.N,GND*
X33950000Y-36380000D03*
G04 #@! TO.P,U1,24,3V3*
G04 #@! TO.N,unconnected-(U1-3V3-Pad24)*
X33950000Y-38920000D03*
D12*
G04 #@! TO.P,U1,25,PB12*
G04 #@! TO.N,unconnected-(U1-PB12-Pad25)*
X17750000Y-33840000D03*
D13*
G04 #@! TO.P,U1,26,PB13*
G04 #@! TO.N,M1_PWM1*
X17750000Y-36380000D03*
G04 #@! TO.P,U1,27,PB14*
G04 #@! TO.N,M1_PWM2*
X17750000Y-38920000D03*
G04 #@! TO.P,U1,28,PB15*
G04 #@! TO.N,unconnected-(U1-PB15-Pad28)*
X17750000Y-41460000D03*
G04 #@! TO.P,U1,29,PA8*
G04 #@! TO.N,unconnected-(U1-PA8-Pad29)*
X17750000Y-44000000D03*
G04 #@! TO.P,U1,30,PA9*
G04 #@! TO.N,unconnected-(U1-PA9-Pad30)*
X17750000Y-46540000D03*
G04 #@! TO.P,U1,31,PA10*
G04 #@! TO.N,M2_PWM1*
X17750000Y-49080000D03*
G04 #@! TO.P,U1,32,PA11*
G04 #@! TO.N,M2_PWM2*
X17750000Y-51620000D03*
G04 #@! TO.P,U1,33,PA12*
G04 #@! TO.N,unconnected-(U1-PA12-Pad33)*
X17750000Y-54160000D03*
G04 #@! TO.P,U1,38,PA15*
G04 #@! TO.N,unconnected-(U1-PA15-Pad38)*
X17750000Y-56700000D03*
G04 #@! TO.P,U1,39,PB3*
G04 #@! TO.N,unconnected-(U1-PB3-Pad39)*
X17750000Y-59240000D03*
G04 #@! TO.P,U1,40,PB4*
G04 #@! TO.N,M3_PWM1*
X17750000Y-61780000D03*
G04 #@! TO.P,U1,41,PB5*
G04 #@! TO.N,M3_PWM2*
X17750000Y-64320000D03*
G04 #@! TO.P,U1,42,PB6*
G04 #@! TO.N,BNO055_SCL*
X17750000Y-66860000D03*
G04 #@! TO.P,U1,43,PB7*
G04 #@! TO.N,BNO055_SDA*
X17750000Y-69400000D03*
G04 #@! TO.P,U1,45,PB8*
G04 #@! TO.N,unconnected-(U1-PB8-Pad45)*
X17750000Y-71940000D03*
G04 #@! TO.P,U1,46,PB9*
G04 #@! TO.N,BNO055_INT*
X17750000Y-74480000D03*
G04 #@! TO.P,U1,47,GND*
G04 #@! TO.N,GND*
X17750000Y-79560000D03*
G04 #@! TO.P,U1,48,3V3*
G04 #@! TO.N,STM_3.3V*
X17750000Y-82100000D03*
G04 #@! TD*
D11*
G04 #@! TO.P,R2,1*
G04 #@! TO.N,E220_TX*
X42570000Y-74660000D03*
G04 #@! TO.P,R2,2*
G04 #@! TO.N,STM_3.3V*
X42570000Y-82280000D03*
G04 #@! TD*
D15*
G04 #@! TO.P,U6,1,+V_{S}*
G04 #@! TO.N,5V_E220*
X40340000Y-47890000D03*
D16*
G04 #@! TO.P,U6,2,V_{OUT}*
G04 #@! TO.N,Temp_ADC*
X42880000Y-47890000D03*
G04 #@! TO.P,U6,3,GND*
G04 #@! TO.N,GND*
X45420000Y-47890000D03*
G04 #@! TD*
D17*
G04 #@! TO.P,J1,1,Pin_1*
G04 #@! TO.N,GND*
X11500000Y-30000000D03*
D18*
G04 #@! TO.P,J1,2,Pin_2*
G04 #@! TO.N,VIN_5V*
X11500000Y-27500000D03*
G04 #@! TO.P,J1,3,Pin_3*
G04 #@! TO.N,Vbat_8.4V*
X11500000Y-25000000D03*
G04 #@! TD*
D15*
G04 #@! TO.P,J3,1,Pin_1*
G04 #@! TO.N,VIN_5V*
X60490000Y-42290000D03*
D16*
G04 #@! TO.P,J3,2,Pin_2*
G04 #@! TO.N,5V_E220*
X60490000Y-44830000D03*
G04 #@! TO.P,J3,3,Pin_3*
G04 #@! TO.N,5V_LDO*
X60490000Y-47370000D03*
G04 #@! TD*
D11*
G04 #@! TO.P,R3,1*
G04 #@! TO.N,E220_AUX*
X46320000Y-74660000D03*
G04 #@! TO.P,R3,2*
G04 #@! TO.N,Net-(D1-K)*
X46320000Y-82280000D03*
G04 #@! TD*
G04 #@! TO.P,C5,1*
G04 #@! TO.N,5V_LDO*
X54520000Y-42360000D03*
G04 #@! TO.P,C5,2*
G04 #@! TO.N,GND*
X49520000Y-42360000D03*
G04 #@! TD*
D12*
G04 #@! TO.P,D2,1,K*
G04 #@! TO.N,GND*
X47555000Y-86820000D03*
D13*
G04 #@! TO.P,D2,2,A*
G04 #@! TO.N,Net-(D2-A)*
X50095000Y-86820000D03*
G04 #@! TD*
D11*
G04 #@! TO.P,R5,1*
G04 #@! TO.N,LED_BLUE*
X54880000Y-74640000D03*
G04 #@! TO.P,R5,2*
G04 #@! TO.N,Net-(D3-A)*
X54880000Y-82260000D03*
G04 #@! TD*
D19*
G04 #@! TO.P,C1,1*
G04 #@! TO.N,VIN_5V*
X40442500Y-33010000D03*
D20*
G04 #@! TO.P,C1,2*
G04 #@! TO.N,GND*
X43442500Y-33010000D03*
G04 #@! TD*
D21*
G04 #@! TO.P,U5,1,VI*
G04 #@! TO.N,Vbat_8.4V*
X50500000Y-38630000D03*
D22*
G04 #@! TO.P,U5,2,GND*
G04 #@! TO.N,GND*
X53040000Y-38630000D03*
G04 #@! TO.P,U5,3,VO*
G04 #@! TO.N,5V_LDO*
X55580000Y-38630000D03*
G04 #@! TD*
D20*
G04 #@! TO.P,U2,1,MO*
G04 #@! TO.N,E220_M0*
X39490000Y-69500000D03*
G04 #@! TO.P,U2,2,M1*
G04 #@! TO.N,E220_M1*
X39490000Y-66960000D03*
G04 #@! TO.P,U2,3,RXD*
G04 #@! TO.N,E220_RX*
X39490000Y-64420000D03*
G04 #@! TO.P,U2,4,TXD*
G04 #@! TO.N,E220_TX*
X39490000Y-61880000D03*
G04 #@! TO.P,U2,5,AUX*
G04 #@! TO.N,E220_AUX*
X39490000Y-59340000D03*
G04 #@! TO.P,U2,6,VCC*
G04 #@! TO.N,5V_E220*
X39490000Y-56800000D03*
G04 #@! TO.P,U2,7,GND*
G04 #@! TO.N,GND*
X39490000Y-54260000D03*
G04 #@! TD*
D12*
G04 #@! TO.P,D1,1,K*
G04 #@! TO.N,Net-(D1-K)*
X41645000Y-86830000D03*
D13*
G04 #@! TO.P,D1,2,A*
G04 #@! TO.N,STM_3.3V*
X39105000Y-86830000D03*
G04 #@! TD*
D20*
G04 #@! TO.P,C2,1*
G04 #@! TO.N,GND*
X14830000Y-88410000D03*
G04 #@! TO.P,C2,2*
G04 #@! TO.N,VIN_5V*
X9830000Y-88410000D03*
G04 #@! TD*
G04 #@! TO.P,C3,1*
G04 #@! TO.N,GND*
X54630000Y-47730000D03*
G04 #@! TO.P,C3,2*
G04 #@! TO.N,Vbat_ADC*
X49630000Y-47730000D03*
G04 #@! TD*
G04 #@! TO.P,U3,1,VIN*
G04 #@! TO.N,VIN_5V*
X11410000Y-63250000D03*
G04 #@! TO.P,U3,2,GND*
G04 #@! TO.N,GND*
X11410000Y-65790000D03*
G04 #@! TO.P,U3,3,SCL\u005CRX*
G04 #@! TO.N,BNO055_SCL*
X11410000Y-68330000D03*
G04 #@! TO.P,U3,4,SDA\u005CTX*
G04 #@! TO.N,BNO055_SDA*
X11410000Y-70870000D03*
G04 #@! TO.P,U3,5,ADO*
G04 #@! TO.N,unconnected-(U3-ADO-Pad5)*
X11410000Y-73410000D03*
G04 #@! TO.P,U3,6,INT*
G04 #@! TO.N,BNO055_INT*
X11410000Y-75950000D03*
G04 #@! TO.P,U3,7,BOOT*
G04 #@! TO.N,unconnected-(U3-BOOT-Pad7)*
X11410000Y-78490000D03*
G04 #@! TO.P,U3,8,REST*
G04 #@! TO.N,unconnected-(U3-REST-Pad8)*
X11410000Y-81030000D03*
G04 #@! TD*
G04 #@! TO.P,C4,1*
G04 #@! TO.N,Vbat_8.4V*
X56640000Y-32080000D03*
G04 #@! TO.P,C4,2*
G04 #@! TO.N,GND*
X49140000Y-32080000D03*
G04 #@! TD*
D11*
G04 #@! TO.P,R6,1*
G04 #@! TO.N,Vbat_8.4V*
X46090000Y-38775000D03*
G04 #@! TO.P,R6,2*
G04 #@! TO.N,Vbat_ADC*
X38470000Y-38775000D03*
G04 #@! TD*
D17*
G04 #@! TO.P,J2,1,Pin_1*
G04 #@! TO.N,M3_PWM2*
X11500000Y-55600000D03*
D18*
G04 #@! TO.P,J2,2,Pin_2*
G04 #@! TO.N,M3_PWM1*
X11500000Y-53100000D03*
G04 #@! TO.P,J2,3,Pin_3*
G04 #@! TO.N,GND*
X11500000Y-50600000D03*
G04 #@! TO.P,J2,4,Pin_4*
G04 #@! TO.N,M2_PWM2*
X11500000Y-48100000D03*
G04 #@! TO.P,J2,5,Pin_5*
G04 #@! TO.N,M2_PWM1*
X11500000Y-45600000D03*
G04 #@! TO.P,J2,6,Pin_6*
G04 #@! TO.N,unconnected-(J2-Pin_6-Pad6)*
X11500000Y-43100000D03*
G04 #@! TO.P,J2,7,Pin_7*
G04 #@! TO.N,M1_PWM2*
X11500000Y-40600000D03*
G04 #@! TO.P,J2,8,Pin_8*
G04 #@! TO.N,M1_PWM1*
X11500000Y-38100000D03*
G04 #@! TD*
D11*
G04 #@! TO.P,R4,1*
G04 #@! TO.N,LED_RED*
X51070000Y-74640000D03*
G04 #@! TO.P,R4,2*
G04 #@! TO.N,Net-(D2-A)*
X51070000Y-82260000D03*
G04 #@! TD*
G04 #@! TO.P,R1,1*
G04 #@! TO.N,E220_RX*
X39100000Y-74660000D03*
G04 #@! TO.P,R1,2*
G04 #@! TO.N,STM_3.3V*
X39100000Y-82280000D03*
G04 #@! TD*
M02*
