M48
; DRILL file {KiCad 9.0.5} date 2026-05-14T13:16:58-0300
; FORMAT={-:-/ absolute / metric / decimal}
; #@! TF.CreationDate,2026-05-14T13:16:58-03:00
; #@! TF.GenerationSoftware,Kicad,Pcbnew,9.0.5
; #@! TF.FileFunction,MixedPlating,1,2
FMAT,2
METRIC
; #@! TA.AperFunction,Plated,PTH,ComponentDrill
T1C0.800
; #@! TA.AperFunction,Plated,PTH,ComponentDrill
T2C0.850
; #@! TA.AperFunction,Plated,PTH,ComponentDrill
T3C0.900
; #@! TA.AperFunction,Plated,PTH,ComponentDrill
T4C0.950
; #@! TA.AperFunction,Plated,PTH,ComponentDrill
T5C1.000
; #@! TA.AperFunction,Plated,PTH,ComponentDrill
T6C1.040
; #@! TA.AperFunction,Plated,PTH,ComponentDrill
T7C1.100
%
G90
G05
T1
X38.41Y-42.365
X38.47Y-38.775
X39.1Y-74.66
X39.1Y-82.28
X42.57Y-74.66
X42.57Y-82.28
X46.03Y-42.365
X46.09Y-38.775
X46.32Y-74.66
X46.32Y-82.28
X49.52Y-42.36
X51.07Y-74.64
X51.07Y-82.26
X54.52Y-42.36
X54.88Y-74.64
X54.88Y-82.26
T2
X40.442Y-33.01
X43.442Y-33.01
T3
X39.105Y-86.83
X41.645Y-86.83
X47.555Y-86.82
X50.095Y-86.82
X54.77Y-86.78
X57.31Y-86.78
T4
X11.5Y-25.0
X11.5Y-27.5
X11.5Y-30.0
X11.5Y-38.1
X11.5Y-40.6
X11.5Y-43.1
X11.5Y-45.6
X11.5Y-48.1
X11.5Y-50.6
X11.5Y-53.1
X11.5Y-55.6
T5
X9.83Y-88.41
X14.83Y-88.41
X40.34Y-47.89
X42.88Y-47.89
X45.42Y-47.89
X49.14Y-32.08
X49.63Y-47.73
X54.63Y-47.73
X56.64Y-32.08
X60.49Y-42.29
X60.49Y-44.83
X60.49Y-47.37
T6
X11.41Y-63.25
X11.41Y-65.79
X11.41Y-68.33
X11.41Y-70.87
X11.41Y-73.41
X11.41Y-75.95
X11.41Y-78.49
X11.41Y-81.03
X17.75Y-33.84
X17.75Y-36.38
X17.75Y-38.92
X17.75Y-41.46
X17.75Y-44.0
X17.75Y-46.54
X17.75Y-49.08
X17.75Y-51.62
X17.75Y-54.16
X17.75Y-56.7
X17.75Y-59.24
X17.75Y-61.78
X17.75Y-64.32
X17.75Y-66.86
X17.75Y-69.4
X17.75Y-71.94
X17.75Y-74.48
X17.75Y-77.02
X17.75Y-79.56
X17.75Y-82.1
X19.185Y-11.045
X19.185Y-13.585
X19.185Y-16.125
X19.185Y-18.665
X33.95Y-33.84
X33.95Y-36.38
X33.95Y-38.92
X33.95Y-41.46
X33.95Y-44.0
X33.95Y-46.54
X33.95Y-49.08
X33.95Y-51.62
X33.95Y-54.16
X33.95Y-56.7
X33.95Y-59.24
X33.95Y-61.78
X33.95Y-64.32
X33.95Y-66.86
X33.95Y-69.4
X33.95Y-71.94
X33.95Y-74.48
X33.95Y-77.02
X33.95Y-79.56
X33.95Y-82.1
X39.49Y-54.26
X39.49Y-56.8
X39.49Y-59.34
X39.49Y-61.88
X39.49Y-64.42
X39.49Y-66.96
X39.49Y-69.5
T7
X50.5Y-38.63
X53.04Y-38.63
X55.58Y-38.63
M30
