G04 #@! TF.GenerationSoftware,KiCad,Pcbnew,9.0.5*
G04 #@! TF.CreationDate,2026-05-14T13:16:54-03:00*
G04 #@! TF.ProjectId,CubeSat_Main,43756265-5361-4745-9f4d-61696e2e6b69,rev?*
G04 #@! TF.SameCoordinates,Original*
G04 #@! TF.FileFunction,Copper,L1,Top*
G04 #@! TF.FilePolarity,Positive*
%FSLAX46Y46*%
G04 Gerber Fmt 4.6, Leading zero omitted, Abs format (unit mm)*
G04 Created by KiCad (PCBNEW 9.0.5) date 2026-05-14 13:16:54*
%MOMM*%
%LPD*%
G01*
G04 APERTURE LIST*
G04 Aperture macros list*
%AMRoundRect*
0 Rectangle with rounded corners*
0 $1 Rounding radius*
0 $2 $3 $4 $5 $6 $7 $8 $9 X,Y pos of 4 corners*
0 Add a 4 corners polygon primitive as box body*
4,1,4,$2,$3,$4,$5,$6,$7,$8,$9,$2,$3,0*
0 Add four circle primitives for the rounded corners*
1,1,$1+$1,$2,$3*
1,1,$1+$1,$4,$5*
1,1,$1+$1,$6,$7*
1,1,$1+$1,$8,$9*
0 Add four rect primitives between the rounded corners*
20,1,$1+$1,$2,$3,$4,$5,0*
20,1,$1+$1,$4,$5,$6,$7,0*
20,1,$1+$1,$6,$7,$8,$9,0*
20,1,$1+$1,$8,$9,$2,$3,0*%
G04 Aperture macros list end*
G04 #@! TA.AperFunction,ComponentPad*
%ADD10C,1.560000*%
G04 #@! TD*
G04 #@! TA.AperFunction,ComponentPad*
%ADD11C,1.600000*%
G04 #@! TD*
G04 #@! TA.AperFunction,ComponentPad*
%ADD12R,1.800000X1.800000*%
G04 #@! TD*
G04 #@! TA.AperFunction,ComponentPad*
%ADD13C,1.800000*%
G04 #@! TD*
G04 #@! TA.AperFunction,ComponentPad*
%ADD14R,1.560000X1.560000*%
G04 #@! TD*
G04 #@! TA.AperFunction,ComponentPad*
%ADD15R,1.700000X1.700000*%
G04 #@! TD*
G04 #@! TA.AperFunction,ComponentPad*
%ADD16C,1.700000*%
G04 #@! TD*
G04 #@! TA.AperFunction,ComponentPad*
%ADD17RoundRect,0.250000X0.725000X-0.600000X0.725000X0.600000X-0.725000X0.600000X-0.725000X-0.600000X0*%
G04 #@! TD*
G04 #@! TA.AperFunction,ComponentPad*
%ADD18O,1.950000X1.700000*%
G04 #@! TD*
G04 #@! TA.AperFunction,ComponentPad*
%ADD19R,2.000000X2.000000*%
G04 #@! TD*
G04 #@! TA.AperFunction,ComponentPad*
%ADD20C,2.000000*%
G04 #@! TD*
G04 #@! TA.AperFunction,ComponentPad*
%ADD21R,1.905000X2.000000*%
G04 #@! TD*
G04 #@! TA.AperFunction,ComponentPad*
%ADD22O,1.905000X2.000000*%
G04 #@! TD*
G04 #@! TA.AperFunction,Conductor*
%ADD23C,1.500000*%
G04 #@! TD*
G04 #@! TA.AperFunction,Conductor*
%ADD24C,1.000000*%
G04 #@! TD*
G04 #@! TA.AperFunction,Conductor*
%ADD25C,0.200000*%
G04 #@! TD*
G04 APERTURE END LIST*
D10*
G04 #@! TO.P,U4,1,VCC*
G04 #@! TO.N,VIN_5V*
X19185000Y-18665000D03*
G04 #@! TO.P,U4,2,RX*
G04 #@! TO.N,unconnected-(U4-RX-Pad2)*
X19185000Y-16125000D03*
G04 #@! TO.P,U4,3,TX*
G04 #@! TO.N,unconnected-(U4-TX-Pad3)*
X19185000Y-13585000D03*
G04 #@! TO.P,U4,4,GND*
G04 #@! TO.N,GND*
X19185000Y-11045000D03*
G04 #@! TD*
D11*
G04 #@! TO.P,R7,1*
G04 #@! TO.N,Vbat_ADC*
X38410000Y-42365000D03*
G04 #@! TO.P,R7,2*
G04 #@! TO.N,GND*
X46030000Y-42365000D03*
G04 #@! TD*
D12*
G04 #@! TO.P,D3,1,K*
G04 #@! TO.N,GND*
X54770000Y-86780000D03*
D13*
G04 #@! TO.P,D3,2,A*
G04 #@! TO.N,Net-(D3-A)*
X57310000Y-86780000D03*
G04 #@! TD*
G04 #@! TO.P,U1,1,VBAT*
G04 #@! TO.N,unconnected-(U1-VBAT-Pad1)*
X33950000Y-82100000D03*
G04 #@! TO.P,U1,2,PC13*
G04 #@! TO.N,unconnected-(U1-PC13-Pad2)*
X33950000Y-79560000D03*
G04 #@! TO.P,U1,3,PC14*
G04 #@! TO.N,LED_BLUE*
X33950000Y-77020000D03*
G04 #@! TO.P,U1,4,PC15*
G04 #@! TO.N,LED_RED*
X33950000Y-74480000D03*
D14*
G04 #@! TO.P,U1,5V,5V*
G04 #@! TO.N,VIN_5V*
X33950000Y-33840000D03*
D13*
G04 #@! TO.P,U1,5V2,5V*
G04 #@! TO.N,unconnected-(U1-5V-Pad5V2)*
X17750000Y-77020000D03*
G04 #@! TO.P,U1,7,R*
G04 #@! TO.N,unconnected-(U1-R-Pad7)*
X33950000Y-71940000D03*
G04 #@! TO.P,U1,10,PA0*
G04 #@! TO.N,E220_M0*
X33950000Y-69400000D03*
G04 #@! TO.P,U1,11,PA1*
G04 #@! TO.N,E220_M1*
X33950000Y-66860000D03*
G04 #@! TO.P,U1,12,PA2*
G04 #@! TO.N,E220_RX*
X33950000Y-64320000D03*
G04 #@! TO.P,U1,13,PA3*
G04 #@! TO.N,E220_TX*
X33950000Y-61780000D03*
G04 #@! TO.P,U1,14,PA4*
G04 #@! TO.N,E220_AUX*
X33950000Y-59240000D03*
G04 #@! TO.P,U1,15,PA5*
G04 #@! TO.N,unconnected-(U1-PA5-Pad15)*
X33950000Y-56700000D03*
G04 #@! TO.P,U1,16,PA6*
G04 #@! TO.N,unconnected-(U1-PA6-Pad16)*
X33950000Y-54160000D03*
G04 #@! TO.P,U1,17,PA7*
G04 #@! TO.N,unconnected-(U1-PA7-Pad17)*
X33950000Y-51620000D03*
G04 #@! TO.P,U1,18,PB0*
G04 #@! TO.N,Temp_ADC*
X33950000Y-49080000D03*
G04 #@! TO.P,U1,19,PB1*
G04 #@! TO.N,Vbat_ADC*
X33950000Y-46540000D03*
G04 #@! TO.P,U1,20,PB2*
G04 #@! TO.N,unconnected-(U1-PB2-Pad20)*
X33950000Y-44000000D03*
G04 #@! TO.P,U1,21,PB10*
G04 #@! TO.N,unconnected-(U1-PB10-Pad21)*
X33950000Y-41460000D03*
G04 #@! TO.P,U1,23,GND*
G04 #@! TO.N,GND*
X33950000Y-36380000D03*
G04 #@! TO.P,U1,24,3V3*
G04 #@! TO.N,unconnected-(U1-3V3-Pad24)*
X33950000Y-38920000D03*
D12*
G04 #@! TO.P,U1,25,PB12*
G04 #@! TO.N,unconnected-(U1-PB12-Pad25)*
X17750000Y-33840000D03*
D13*
G04 #@! TO.P,U1,26,PB13*
G04 #@! TO.N,M1_PWM1*
X17750000Y-36380000D03*
G04 #@! TO.P,U1,27,PB14*
G04 #@! TO.N,M1_PWM2*
X17750000Y-38920000D03*
G04 #@! TO.P,U1,28,PB15*
G04 #@! TO.N,unconnected-(U1-PB15-Pad28)*
X17750000Y-41460000D03*
G04 #@! TO.P,U1,29,PA8*
G04 #@! TO.N,unconnected-(U1-PA8-Pad29)*
X17750000Y-44000000D03*
G04 #@! TO.P,U1,30,PA9*
G04 #@! TO.N,unconnected-(U1-PA9-Pad30)*
X17750000Y-46540000D03*
G04 #@! TO.P,U1,31,PA10*
G04 #@! TO.N,M2_PWM1*
X17750000Y-49080000D03*
G04 #@! TO.P,U1,32,PA11*
G04 #@! TO.N,M2_PWM2*
X17750000Y-51620000D03*
G04 #@! TO.P,U1,33,PA12*
G04 #@! TO.N,unconnected-(U1-PA12-Pad33)*
X17750000Y-54160000D03*
G04 #@! TO.P,U1,38,PA15*
G04 #@! TO.N,unconnected-(U1-PA15-Pad38)*
X17750000Y-56700000D03*
G04 #@! TO.P,U1,39,PB3*
G04 #@! TO.N,unconnected-(U1-PB3-Pad39)*
X17750000Y-59240000D03*
G04 #@! TO.P,U1,40,PB4*
G04 #@! TO.N,M3_PWM1*
X17750000Y-61780000D03*
G04 #@! TO.P,U1,41,PB5*
G04 #@! TO.N,M3_PWM2*
X17750000Y-64320000D03*
G04 #@! TO.P,U1,42,PB6*
G04 #@! TO.N,BNO055_SCL*
X17750000Y-66860000D03*
G04 #@! TO.P,U1,43,PB7*
G04 #@! TO.N,BNO055_SDA*
X17750000Y-69400000D03*
G04 #@! TO.P,U1,45,PB8*
G04 #@! TO.N,unconnected-(U1-PB8-Pad45)*
X17750000Y-71940000D03*
G04 #@! TO.P,U1,46,PB9*
G04 #@! TO.N,BNO055_INT*
X17750000Y-74480000D03*
G04 #@! TO.P,U1,47,GND*
G04 #@! TO.N,GND*
X17750000Y-79560000D03*
G04 #@! TO.P,U1,48,3V3*
G04 #@! TO.N,STM_3.3V*
X17750000Y-82100000D03*
G04 #@! TD*
D11*
G04 #@! TO.P,R2,1*
G04 #@! TO.N,E220_TX*
X42570000Y-74660000D03*
G04 #@! TO.P,R2,2*
G04 #@! TO.N,STM_3.3V*
X42570000Y-82280000D03*
G04 #@! TD*
D15*
G04 #@! TO.P,U6,1,+V_{S}*
G04 #@! TO.N,5V_E220*
X40340000Y-47890000D03*
D16*
G04 #@! TO.P,U6,2,V_{OUT}*
G04 #@! TO.N,Temp_ADC*
X42880000Y-47890000D03*
G04 #@! TO.P,U6,3,GND*
G04 #@! TO.N,GND*
X45420000Y-47890000D03*
G04 #@! TD*
D17*
G04 #@! TO.P,J1,1,Pin_1*
G04 #@! TO.N,GND*
X11500000Y-30000000D03*
D18*
G04 #@! TO.P,J1,2,Pin_2*
G04 #@! TO.N,VIN_5V*
X11500000Y-27500000D03*
G04 #@! TO.P,J1,3,Pin_3*
G04 #@! TO.N,Vbat_8.4V*
X11500000Y-25000000D03*
G04 #@! TD*
D15*
G04 #@! TO.P,J3,1,Pin_1*
G04 #@! TO.N,VIN_5V*
X60490000Y-42290000D03*
D16*
G04 #@! TO.P,J3,2,Pin_2*
G04 #@! TO.N,5V_E220*
X60490000Y-44830000D03*
G04 #@! TO.P,J3,3,Pin_3*
G04 #@! TO.N,5V_LDO*
X60490000Y-47370000D03*
G04 #@! TD*
D11*
G04 #@! TO.P,R3,1*
G04 #@! TO.N,E220_AUX*
X46320000Y-74660000D03*
G04 #@! TO.P,R3,2*
G04 #@! TO.N,Net-(D1-K)*
X46320000Y-82280000D03*
G04 #@! TD*
G04 #@! TO.P,C5,1*
G04 #@! TO.N,5V_LDO*
X54520000Y-42360000D03*
G04 #@! TO.P,C5,2*
G04 #@! TO.N,GND*
X49520000Y-42360000D03*
G04 #@! TD*
D12*
G04 #@! TO.P,D2,1,K*
G04 #@! TO.N,GND*
X47555000Y-86820000D03*
D13*
G04 #@! TO.P,D2,2,A*
G04 #@! TO.N,Net-(D2-A)*
X50095000Y-86820000D03*
G04 #@! TD*
D11*
G04 #@! TO.P,R5,1*
G04 #@! TO.N,LED_BLUE*
X54880000Y-74640000D03*
G04 #@! TO.P,R5,2*
G04 #@! TO.N,Net-(D3-A)*
X54880000Y-82260000D03*
G04 #@! TD*
D19*
G04 #@! TO.P,C1,1*
G04 #@! TO.N,VIN_5V*
X40442500Y-33010000D03*
D20*
G04 #@! TO.P,C1,2*
G04 #@! TO.N,GND*
X43442500Y-33010000D03*
G04 #@! TD*
D21*
G04 #@! TO.P,U5,1,VI*
G04 #@! TO.N,Vbat_8.4V*
X50500000Y-38630000D03*
D22*
G04 #@! TO.P,U5,2,GND*
G04 #@! TO.N,GND*
X53040000Y-38630000D03*
G04 #@! TO.P,U5,3,VO*
G04 #@! TO.N,5V_LDO*
X55580000Y-38630000D03*
G04 #@! TD*
D20*
G04 #@! TO.P,U2,1,MO*
G04 #@! TO.N,E220_M0*
X39490000Y-69500000D03*
G04 #@! TO.P,U2,2,M1*
G04 #@! TO.N,E220_M1*
X39490000Y-66960000D03*
G04 #@! TO.P,U2,3,RXD*
G04 #@! TO.N,E220_RX*
X39490000Y-64420000D03*
G04 #@! TO.P,U2,4,TXD*
G04 #@! TO.N,E220_TX*
X39490000Y-61880000D03*
G04 #@! TO.P,U2,5,AUX*
G04 #@! TO.N,E220_AUX*
X39490000Y-59340000D03*
G04 #@! TO.P,U2,6,VCC*
G04 #@! TO.N,5V_E220*
X39490000Y-56800000D03*
G04 #@! TO.P,U2,7,GND*
G04 #@! TO.N,GND*
X39490000Y-54260000D03*
G04 #@! TD*
D12*
G04 #@! TO.P,D1,1,K*
G04 #@! TO.N,Net-(D1-K)*
X41645000Y-86830000D03*
D13*
G04 #@! TO.P,D1,2,A*
G04 #@! TO.N,STM_3.3V*
X39105000Y-86830000D03*
G04 #@! TD*
D20*
G04 #@! TO.P,C2,1*
G04 #@! TO.N,GND*
X14830000Y-88410000D03*
G04 #@! TO.P,C2,2*
G04 #@! TO.N,VIN_5V*
X9830000Y-88410000D03*
G04 #@! TD*
G04 #@! TO.P,C3,1*
G04 #@! TO.N,GND*
X54630000Y-47730000D03*
G04 #@! TO.P,C3,2*
G04 #@! TO.N,Vbat_ADC*
X49630000Y-47730000D03*
G04 #@! TD*
G04 #@! TO.P,U3,1,VIN*
G04 #@! TO.N,VIN_5V*
X11410000Y-63250000D03*
G04 #@! TO.P,U3,2,GND*
G04 #@! TO.N,GND*
X11410000Y-65790000D03*
G04 #@! TO.P,U3,3,SCL\u005CRX*
G04 #@! TO.N,BNO055_SCL*
X11410000Y-68330000D03*
G04 #@! TO.P,U3,4,SDA\u005CTX*
G04 #@! TO.N,BNO055_SDA*
X11410000Y-70870000D03*
G04 #@! TO.P,U3,5,ADO*
G04 #@! TO.N,unconnected-(U3-ADO-Pad5)*
X11410000Y-73410000D03*
G04 #@! TO.P,U3,6,INT*
G04 #@! TO.N,BNO055_INT*
X11410000Y-75950000D03*
G04 #@! TO.P,U3,7,BOOT*
G04 #@! TO.N,unconnected-(U3-BOOT-Pad7)*
X11410000Y-78490000D03*
G04 #@! TO.P,U3,8,REST*
G04 #@! TO.N,unconnected-(U3-REST-Pad8)*
X11410000Y-81030000D03*
G04 #@! TD*
G04 #@! TO.P,C4,1*
G04 #@! TO.N,Vbat_8.4V*
X56640000Y-32080000D03*
G04 #@! TO.P,C4,2*
G04 #@! TO.N,GND*
X49140000Y-32080000D03*
G04 #@! TD*
D11*
G04 #@! TO.P,R6,1*
G04 #@! TO.N,Vbat_8.4V*
X46090000Y-38775000D03*
G04 #@! TO.P,R6,2*
G04 #@! TO.N,Vbat_ADC*
X38470000Y-38775000D03*
G04 #@! TD*
D17*
G04 #@! TO.P,J2,1,Pin_1*
G04 #@! TO.N,M3_PWM2*
X11500000Y-55600000D03*
D18*
G04 #@! TO.P,J2,2,Pin_2*
G04 #@! TO.N,M3_PWM1*
X11500000Y-53100000D03*
G04 #@! TO.P,J2,3,Pin_3*
G04 #@! TO.N,GND*
X11500000Y-50600000D03*
G04 #@! TO.P,J2,4,Pin_4*
G04 #@! TO.N,M2_PWM2*
X11500000Y-48100000D03*
G04 #@! TO.P,J2,5,Pin_5*
G04 #@! TO.N,M2_PWM1*
X11500000Y-45600000D03*
G04 #@! TO.P,J2,6,Pin_6*
G04 #@! TO.N,unconnected-(J2-Pin_6-Pad6)*
X11500000Y-43100000D03*
G04 #@! TO.P,J2,7,Pin_7*
G04 #@! TO.N,M1_PWM2*
X11500000Y-40600000D03*
G04 #@! TO.P,J2,8,Pin_8*
G04 #@! TO.N,M1_PWM1*
X11500000Y-38100000D03*
G04 #@! TD*
D11*
G04 #@! TO.P,R4,1*
G04 #@! TO.N,LED_RED*
X51070000Y-74640000D03*
G04 #@! TO.P,R4,2*
G04 #@! TO.N,Net-(D2-A)*
X51070000Y-82260000D03*
G04 #@! TD*
G04 #@! TO.P,R1,1*
G04 #@! TO.N,E220_RX*
X39100000Y-74660000D03*
G04 #@! TO.P,R1,2*
G04 #@! TO.N,STM_3.3V*
X39100000Y-82280000D03*
G04 #@! TD*
D23*
G04 #@! TO.N,VIN_5V*
X10130000Y-27540000D02*
X5740000Y-31930000D01*
X4230000Y-67590000D02*
X8570000Y-63250000D01*
X33950000Y-33840000D02*
X33920000Y-33840000D01*
X60490000Y-29240000D02*
X60490000Y-42290000D01*
X27580000Y-27500000D02*
X10780000Y-27500000D01*
X33920000Y-33840000D02*
X27580000Y-27500000D01*
X36830000Y-33840000D02*
X37660000Y-33010000D01*
X5740000Y-31930000D02*
X5740000Y-57580000D01*
X7140000Y-23860000D02*
X7140000Y-20980000D01*
X7140000Y-20980000D02*
X9390000Y-18730000D01*
X37660000Y-33010000D02*
X40442500Y-33010000D01*
X10780000Y-27500000D02*
X7140000Y-23860000D01*
X4230000Y-82810000D02*
X4230000Y-67590000D01*
X5740000Y-57580000D02*
X11410000Y-63250000D01*
X11310000Y-27500000D02*
X11270000Y-27540000D01*
X33920000Y-33810000D02*
X33950000Y-33840000D01*
X9830000Y-88410000D02*
X4230000Y-82810000D01*
X33950000Y-33840000D02*
X36830000Y-33840000D01*
X9390000Y-18730000D02*
X49980000Y-18730000D01*
X8570000Y-63250000D02*
X11410000Y-63250000D01*
X49980000Y-18730000D02*
X60490000Y-29240000D01*
X11270000Y-27540000D02*
X10130000Y-27540000D01*
G04 #@! TO.N,Vbat_8.4V*
X50500000Y-36770000D02*
X50500000Y-38630000D01*
X50500000Y-38630000D02*
X50370000Y-38760000D01*
X46105000Y-38760000D02*
X46090000Y-38775000D01*
X55190000Y-32080000D02*
X50500000Y-36770000D01*
X50370000Y-38760000D02*
X46105000Y-38760000D01*
X49630000Y-25000000D02*
X56640000Y-32010000D01*
X11310000Y-25000000D02*
X49630000Y-25000000D01*
X56640000Y-32080000D02*
X55190000Y-32080000D01*
X56640000Y-32010000D02*
X56640000Y-32080000D01*
G04 #@! TO.N,Vbat_ADC*
X38410000Y-42365000D02*
X38410000Y-42760000D01*
D24*
X42305000Y-42365000D02*
X45160000Y-45220000D01*
X49780000Y-47880000D02*
X49780000Y-47900000D01*
X38410000Y-42365000D02*
X42305000Y-42365000D01*
X33950000Y-46540000D02*
X34445000Y-46540000D01*
X45160000Y-45220000D02*
X47120000Y-45220000D01*
D23*
X38410000Y-42760000D02*
X34630000Y-46540000D01*
D24*
X47120000Y-45220000D02*
X49780000Y-47880000D01*
D23*
X38470000Y-39035000D02*
X38470000Y-42305000D01*
X34630000Y-46540000D02*
X33950000Y-46540000D01*
G04 #@! TO.N,M1_PWM1*
X11580000Y-38040000D02*
X13240000Y-36380000D01*
X13240000Y-36380000D02*
X17750000Y-36380000D01*
D25*
X11380000Y-38260000D02*
X11320000Y-38260000D01*
D23*
X11332500Y-38040000D02*
X11580000Y-38040000D01*
D25*
G04 #@! TO.N,M2_PWM1*
X17750000Y-48980000D02*
X17750000Y-48980061D01*
D23*
X11392500Y-45540000D02*
X13180000Y-45540000D01*
X13180000Y-45540000D02*
X16720000Y-49080000D01*
X16720000Y-49080000D02*
X17750000Y-49080000D01*
D24*
X11392500Y-45540000D02*
X11332500Y-45600000D01*
X12260000Y-45540000D02*
X11392500Y-45540000D01*
D25*
X17682439Y-49020000D02*
X17660000Y-48997561D01*
D23*
G04 #@! TO.N,BNO055_INT*
X15589939Y-74380061D02*
X17750000Y-74380061D01*
X14030000Y-75940000D02*
X15589939Y-74380061D01*
X11620000Y-75940000D02*
X14030000Y-75940000D01*
X11610000Y-75930000D02*
X11620000Y-75940000D01*
G04 #@! TO.N,STM_3.3V*
X42560000Y-82290000D02*
X42570000Y-82280000D01*
X17750000Y-82100000D02*
X21760000Y-86110000D01*
D24*
X39105000Y-86820000D02*
X39095000Y-86830000D01*
D23*
X38700000Y-82290000D02*
X42560000Y-82290000D01*
D24*
X42710000Y-82030000D02*
X42750000Y-81990000D01*
D23*
X21760000Y-86110000D02*
X34880000Y-86110000D01*
X34880000Y-86110000D02*
X38700000Y-82290000D01*
D25*
X38820000Y-82510000D02*
X38940000Y-82390000D01*
D24*
X39105000Y-82285000D02*
X39105000Y-86820000D01*
X39100000Y-82280000D02*
X39080000Y-82300000D01*
X39100000Y-82280000D02*
X39105000Y-82285000D01*
D23*
G04 #@! TO.N,M3_PWM2*
X16560000Y-64320000D02*
X17750000Y-64320000D01*
D25*
X17732500Y-64237561D02*
X17750000Y-64220061D01*
D23*
X11500000Y-59260000D02*
X16560000Y-64320000D01*
D25*
X17660000Y-64237561D02*
X17732500Y-64237561D01*
D23*
X11500000Y-55600000D02*
X11500000Y-59260000D01*
G04 #@! TO.N,M2_PWM2*
X11392500Y-48040000D02*
X11332500Y-48100000D01*
X17750000Y-51620000D02*
X15810000Y-51620000D01*
X15810000Y-51620000D02*
X12230000Y-48040000D01*
X12230000Y-48040000D02*
X11392500Y-48040000D01*
D24*
G04 #@! TO.N,unconnected-(U1-PB3-Pad39)*
X17660000Y-59050061D02*
X17750000Y-59140061D01*
D23*
G04 #@! TO.N,M3_PWM1*
X17190000Y-61780000D02*
X17750000Y-61780000D01*
X14700000Y-54470000D02*
X14700000Y-59290000D01*
X14700000Y-59290000D02*
X17190000Y-61780000D01*
X11332500Y-53100000D02*
X11392500Y-53040000D01*
X11392500Y-53040000D02*
X13270000Y-53040000D01*
D24*
X17732500Y-61697561D02*
X17660000Y-61697561D01*
D23*
X13270000Y-53040000D02*
X14700000Y-54470000D01*
D24*
X17750000Y-61680061D02*
X17732500Y-61697561D01*
D23*
G04 #@! TO.N,M1_PWM2*
X11362500Y-40570000D02*
X14540000Y-40570000D01*
X11332500Y-40540000D02*
X11362500Y-40570000D01*
X14540000Y-40570000D02*
X16190000Y-38920000D01*
X16190000Y-38920000D02*
X17750000Y-38920000D01*
D24*
G04 #@! TO.N,LED_RED*
X35117500Y-74397500D02*
X34032500Y-74397500D01*
X37590000Y-76870000D02*
X35117500Y-74397500D01*
X48840000Y-76870000D02*
X37590000Y-76870000D01*
X51070000Y-74640000D02*
X48840000Y-76870000D01*
X34032500Y-74397500D02*
X33950000Y-74480000D01*
G04 #@! TO.N,LED_BLUE*
X34450000Y-77020000D02*
X33950000Y-77020000D01*
X54880000Y-74640000D02*
X54870000Y-74650000D01*
X36750000Y-79320000D02*
X34450000Y-77020000D01*
X54870000Y-77130000D02*
X52680000Y-79320000D01*
X54870000Y-74650000D02*
X54870000Y-77130000D01*
X52680000Y-79320000D02*
X36750000Y-79320000D01*
G04 #@! TO.N,5V_LDO*
X54520000Y-42360000D02*
X55580000Y-41300000D01*
X59520000Y-47370000D02*
X54520000Y-42370000D01*
X54520000Y-42370000D02*
X54520000Y-42360000D01*
X55580000Y-41300000D02*
X55580000Y-38630000D01*
X60490000Y-47370000D02*
X59520000Y-47370000D01*
D23*
G04 #@! TO.N,BNO055_SCL*
X11640000Y-68340000D02*
X14140000Y-68340000D01*
X15702439Y-66777561D02*
X17660000Y-66777561D01*
X11610000Y-68310000D02*
X11640000Y-68340000D01*
X14140000Y-68340000D02*
X15702439Y-66777561D01*
G04 #@! TO.N,GND*
X41300000Y-36380000D02*
X43442500Y-34237500D01*
X49140000Y-32080000D02*
X44372500Y-32080000D01*
X19290000Y-10940000D02*
X19185000Y-11045000D01*
X51480000Y-90030000D02*
X54730000Y-86780000D01*
X69330000Y-85490000D02*
X69330000Y-32030000D01*
D24*
X42870000Y-52380000D02*
X45510000Y-49740000D01*
D23*
X43442500Y-33010000D02*
X43550000Y-33117500D01*
D24*
X54410000Y-86780000D02*
X54770000Y-86780000D01*
D23*
X7710000Y-81450000D02*
X16390000Y-90130000D01*
X43680000Y-54260000D02*
X43690000Y-54250000D01*
D24*
X49520000Y-42360000D02*
X50980000Y-42360000D01*
D23*
X48240000Y-10940000D02*
X19290000Y-10940000D01*
X56730000Y-90240000D02*
X64580000Y-90240000D01*
X49215000Y-42365000D02*
X46030000Y-42365000D01*
D24*
X45510000Y-47980000D02*
X45420000Y-47890000D01*
D23*
X8300000Y-33270000D02*
X11510000Y-30060000D01*
D24*
X41130000Y-52380000D02*
X42870000Y-52380000D01*
D23*
X43690000Y-54250000D02*
X48110000Y-54250000D01*
X33932500Y-36297500D02*
X33860000Y-36297500D01*
X54580000Y-47730000D02*
X49215000Y-42365000D01*
X11410000Y-65790000D02*
X10250000Y-65790000D01*
D24*
X50980000Y-42360000D02*
X53040000Y-40300000D01*
D23*
X48110000Y-54250000D02*
X54630000Y-47730000D01*
X20500000Y-30060000D02*
X26830000Y-36390000D01*
X48900000Y-90030000D02*
X51480000Y-90030000D01*
X43550000Y-33117500D02*
X43550000Y-39885000D01*
D24*
X39490000Y-54020000D02*
X41130000Y-52380000D01*
D23*
X33940000Y-36390000D02*
X33950000Y-36380000D01*
X44372500Y-32080000D02*
X43442500Y-33010000D01*
D24*
X39490000Y-54260000D02*
X39490000Y-54020000D01*
D23*
X44100000Y-90130000D02*
X47410000Y-86820000D01*
D24*
X53040000Y-40300000D02*
X53040000Y-38630000D01*
D23*
X54770000Y-88280000D02*
X56730000Y-90240000D01*
X54730000Y-86780000D02*
X54770000Y-86780000D01*
X39490000Y-54260000D02*
X43680000Y-54260000D01*
X8300000Y-49050000D02*
X8300000Y-33270000D01*
X54630000Y-47730000D02*
X54580000Y-47730000D01*
D24*
X45510000Y-49740000D02*
X45510000Y-47980000D01*
D23*
X54770000Y-86780000D02*
X54770000Y-88280000D01*
X11370000Y-50540000D02*
X9790000Y-50540000D01*
X14830000Y-88410000D02*
X14730000Y-88310000D01*
X64580000Y-90240000D02*
X69330000Y-85490000D01*
X7710000Y-68330000D02*
X7710000Y-81450000D01*
X69330000Y-32030000D02*
X48240000Y-10940000D01*
X43442500Y-34237500D02*
X43442500Y-33010000D01*
X9790000Y-50540000D02*
X8300000Y-49050000D01*
X47410000Y-86820000D02*
X47555000Y-86820000D01*
D24*
X54900000Y-48000000D02*
X54630000Y-47730000D01*
D23*
X26830000Y-36390000D02*
X33940000Y-36390000D01*
X43550000Y-39885000D02*
X46030000Y-42365000D01*
X16370000Y-79560000D02*
X17750000Y-79560000D01*
X47555000Y-86820000D02*
X47555000Y-88685000D01*
X11510000Y-30060000D02*
X20500000Y-30060000D01*
X10250000Y-65790000D02*
X7710000Y-68330000D01*
X33950000Y-36380000D02*
X41300000Y-36380000D01*
X16390000Y-90130000D02*
X44100000Y-90130000D01*
X14730000Y-88310000D02*
X14730000Y-81200000D01*
X47555000Y-88685000D02*
X48900000Y-90030000D01*
X14730000Y-81200000D02*
X16370000Y-79560000D01*
G04 #@! TO.N,BNO055_SDA*
X11610000Y-70850000D02*
X11650000Y-70890000D01*
X11650000Y-70890000D02*
X14760000Y-70890000D01*
X11610000Y-70930000D02*
X11610000Y-70850000D01*
X14760000Y-70890000D02*
X16332439Y-69317561D01*
X16332439Y-69317561D02*
X17660000Y-69317561D01*
D24*
G04 #@! TO.N,unconnected-(U4-TX-Pad3)*
X19185000Y-13585000D02*
X19190000Y-13590000D01*
G04 #@! TO.N,E220_M0*
X33860000Y-69317500D02*
X34042500Y-69500000D01*
D23*
X34042500Y-69500000D02*
X39490000Y-69500000D01*
G04 #@! TO.N,E220_AUX*
X33950000Y-59240000D02*
X34050000Y-59340000D01*
X49910000Y-70960000D02*
X46320000Y-74550000D01*
X34050000Y-59340000D02*
X44100000Y-59340000D01*
X44100000Y-59340000D02*
X49910000Y-65150000D01*
X46320000Y-74550000D02*
X46320000Y-74660000D01*
X49910000Y-65150000D02*
X49910000Y-70960000D01*
D24*
G04 #@! TO.N,E220_M1*
X33860000Y-66777500D02*
X33927500Y-66710000D01*
X39240000Y-66710000D02*
X39490000Y-66960000D01*
D23*
X33927500Y-66710000D02*
X39240000Y-66710000D01*
G04 #@! TO.N,E220_TX*
X46160000Y-65130000D02*
X42910000Y-61880000D01*
D24*
X42750000Y-74370000D02*
X42750000Y-74480000D01*
D23*
X42570000Y-74560000D02*
X46160000Y-70970000D01*
X39430000Y-61820000D02*
X33982500Y-61820000D01*
X46160000Y-70970000D02*
X46160000Y-65130000D01*
X42910000Y-61880000D02*
X39490000Y-61880000D01*
X42570000Y-74660000D02*
X42570000Y-74560000D01*
D24*
X42750000Y-74480000D02*
X42570000Y-74660000D01*
X33982500Y-61820000D02*
X33860000Y-61697500D01*
G04 #@! TO.N,E220_RX*
X39280000Y-74580000D02*
X39280000Y-74560000D01*
D23*
X39100000Y-74550000D02*
X43110000Y-70540000D01*
X43110000Y-70540000D02*
X43110000Y-66570000D01*
X39100000Y-74660000D02*
X39100000Y-74550000D01*
X39400000Y-64330000D02*
X34030000Y-64330000D01*
D24*
X39490000Y-64420000D02*
X39400000Y-64330000D01*
D23*
X43110000Y-66570000D02*
X40860000Y-64320000D01*
X40860000Y-64320000D02*
X39450000Y-64320000D01*
D25*
G04 #@! TO.N,Net-(D1-K)*
X46110000Y-82390000D02*
X46160000Y-82390000D01*
D24*
X46320000Y-82280000D02*
X46300000Y-82280000D01*
X46300000Y-82280000D02*
X42145000Y-86435000D01*
X42145000Y-86435000D02*
X42040000Y-86435000D01*
X42040000Y-86435000D02*
X41645000Y-86830000D01*
G04 #@! TO.N,Net-(D2-A)*
X51060000Y-85855000D02*
X50095000Y-86820000D01*
X51070000Y-82260000D02*
X51060000Y-82270000D01*
X51060000Y-82270000D02*
X51060000Y-85855000D01*
G04 #@! TO.N,Net-(D3-A)*
X57310000Y-86780000D02*
X56950000Y-86780000D01*
X57310000Y-84690000D02*
X57310000Y-86780000D01*
X54880000Y-82260000D02*
X57310000Y-84690000D01*
D25*
X54910000Y-82120000D02*
X54910000Y-82180000D01*
X54910000Y-82180000D02*
X54700000Y-82390000D01*
D24*
G04 #@! TO.N,Temp_ADC*
X33950000Y-49080000D02*
X35340000Y-49080000D01*
X35340000Y-49080000D02*
X39190000Y-45230000D01*
X42060000Y-45230000D02*
X42970000Y-46140000D01*
X42970000Y-46140000D02*
X42970000Y-47800000D01*
X42970000Y-47800000D02*
X42880000Y-47890000D01*
X39190000Y-45230000D02*
X42060000Y-45230000D01*
D23*
G04 #@! TO.N,5V_E220*
X60860000Y-56800000D02*
X39490000Y-56800000D01*
X36760000Y-55280000D02*
X38280000Y-56800000D01*
X36760000Y-51470000D02*
X36760000Y-55280000D01*
X65170000Y-47760000D02*
X65170000Y-52490000D01*
X40340000Y-47890000D02*
X36760000Y-51470000D01*
X60520000Y-44800000D02*
X62210000Y-44800000D01*
X65170000Y-52490000D02*
X60860000Y-56800000D01*
X60490000Y-44830000D02*
X60520000Y-44800000D01*
X62210000Y-44800000D02*
X65170000Y-47760000D01*
X38280000Y-56800000D02*
X39490000Y-56800000D01*
D24*
G04 #@! TO.N,unconnected-(U3-ADO-Pad5)*
X11610000Y-73390000D02*
X11620000Y-73380000D01*
D25*
G04 #@! TO.N,unconnected-(U1-PA8-Pad29)*
X17750000Y-43900061D02*
X17750000Y-43900000D01*
X17732500Y-43917561D02*
X17750000Y-43900061D01*
G04 #@! TD*
M02*
