%TF.GenerationSoftware,KiCad,Pcbnew,9.0.5*%
%TF.CreationDate,2026-05-14T14:25:31-03:00*%
%TF.ProjectId,CubeSat_Battery,43756265-5361-4745-9f42-617474657279,rev?*%
%TF.SameCoordinates,Original*%
%TF.FileFunction,Drillmap*%
%TF.FilePolarity,Positive*%
%FSLAX45Y45*%
G04 Gerber Fmt 4.5, Leading zero omitted, Abs format (unit mm)*
G04 Created by KiCad (PCBNEW 9.0.5) date 2026-05-14 14:25:31*
%MOMM*%
%LPD*%
G01*
G04 APERTURE LIST*
%ADD10C,0.200000*%
%ADD11C,0.100000*%
%ADD12C,0.104000*%
%ADD13C,0.320000*%
%ADD14C,0.350000*%
G04 APERTURE END LIST*
D10*
X9200000Y0D02*
X0Y0D01*
X9200000Y-5900000D02*
X8830000Y-5900000D01*
X9200000Y-2100000D02*
X8830000Y-2100000D01*
X575000Y-400000D02*
G75*
G02*
X225000Y-400000I-175000J0D01*
G01*
X225000Y-400000D02*
G75*
G02*
X575000Y-400000I175000J0D01*
G01*
X9200000Y-9200000D02*
X0Y-9200000D01*
X8975000Y-400000D02*
G75*
G02*
X8625000Y-400000I-175000J0D01*
G01*
X8625000Y-400000D02*
G75*
G02*
X8975000Y-400000I175000J0D01*
G01*
X9200000Y0D02*
X9200000Y-2100000D01*
X8830000Y-5900000D02*
X8830000Y-2100000D01*
X9200000Y-5900000D02*
X9200000Y-9200000D01*
X0Y0D02*
X0Y-9200000D01*
D11*
X8850000Y-1450000D02*
X8950000Y-1550000D01*
X8950000Y-1450000D02*
X8850000Y-1550000D01*
X8850000Y-1700000D02*
X8950000Y-1800000D01*
X8950000Y-1700000D02*
X8850000Y-1800000D01*
X8850000Y-6250000D02*
X8950000Y-6350000D01*
X8950000Y-6250000D02*
X8850000Y-6350000D01*
X8850000Y-6500000D02*
X8950000Y-6600000D01*
X8950000Y-6500000D02*
X8850000Y-6600000D01*
D12*
X1652000Y-450000D02*
G75*
G02*
X1548000Y-450000I-52000J0D01*
G01*
X1548000Y-450000D02*
G75*
G02*
X1652000Y-450000I52000J0D01*
G01*
D11*
X1652000Y-473000D02*
X1652000Y-427000D01*
X1548000Y-427000D02*
G75*
G02*
X1652000Y-427000I52000J0D01*
G01*
X1548000Y-427000D02*
X1548000Y-473000D01*
X1548000Y-473000D02*
G75*
G03*
X1652000Y-473000I52000J0D01*
G01*
D12*
X1652000Y-8750000D02*
G75*
G02*
X1548000Y-8750000I-52000J0D01*
G01*
X1548000Y-8750000D02*
G75*
G02*
X1652000Y-8750000I52000J0D01*
G01*
D11*
X1652000Y-8773000D02*
X1652000Y-8727000D01*
X1548000Y-8727000D02*
G75*
G02*
X1652000Y-8727000I52000J0D01*
G01*
X1548000Y-8727000D02*
X1548000Y-8773000D01*
X1548000Y-8773000D02*
G75*
G03*
X1652000Y-8773000I52000J0D01*
G01*
D12*
X3652000Y-450000D02*
G75*
G02*
X3548000Y-450000I-52000J0D01*
G01*
X3548000Y-450000D02*
G75*
G02*
X3652000Y-450000I52000J0D01*
G01*
D11*
X3652000Y-473000D02*
X3652000Y-427000D01*
X3548000Y-427000D02*
G75*
G02*
X3652000Y-427000I52000J0D01*
G01*
X3548000Y-427000D02*
X3548000Y-473000D01*
X3548000Y-473000D02*
G75*
G03*
X3652000Y-473000I52000J0D01*
G01*
D12*
X3652000Y-8750000D02*
G75*
G02*
X3548000Y-8750000I-52000J0D01*
G01*
X3548000Y-8750000D02*
G75*
G02*
X3652000Y-8750000I52000J0D01*
G01*
D11*
X3652000Y-8773000D02*
X3652000Y-8727000D01*
X3548000Y-8727000D02*
G75*
G02*
X3652000Y-8727000I52000J0D01*
G01*
X3548000Y-8727000D02*
X3548000Y-8773000D01*
X3548000Y-8773000D02*
G75*
G03*
X3652000Y-8773000I52000J0D01*
G01*
D12*
X5652000Y-450000D02*
G75*
G02*
X5548000Y-450000I-52000J0D01*
G01*
X5548000Y-450000D02*
G75*
G02*
X5652000Y-450000I52000J0D01*
G01*
D11*
X5652000Y-473000D02*
X5652000Y-427000D01*
X5548000Y-427000D02*
G75*
G02*
X5652000Y-427000I52000J0D01*
G01*
X5548000Y-427000D02*
X5548000Y-473000D01*
X5548000Y-473000D02*
G75*
G03*
X5652000Y-473000I52000J0D01*
G01*
D12*
X5652000Y-8750000D02*
G75*
G02*
X5548000Y-8750000I-52000J0D01*
G01*
X5548000Y-8750000D02*
G75*
G02*
X5652000Y-8750000I52000J0D01*
G01*
D11*
X5652000Y-8773000D02*
X5652000Y-8727000D01*
X5548000Y-8727000D02*
G75*
G02*
X5652000Y-8727000I52000J0D01*
G01*
X5548000Y-8727000D02*
X5548000Y-8773000D01*
X5548000Y-8773000D02*
G75*
G03*
X5652000Y-8773000I52000J0D01*
G01*
D12*
X7652000Y-447000D02*
G75*
G02*
X7548000Y-447000I-52000J0D01*
G01*
X7548000Y-447000D02*
G75*
G02*
X7652000Y-447000I52000J0D01*
G01*
D11*
X7652000Y-470000D02*
X7652000Y-424000D01*
X7548000Y-424000D02*
G75*
G02*
X7652000Y-424000I52000J0D01*
G01*
X7548000Y-424000D02*
X7548000Y-470000D01*
X7548000Y-470000D02*
G75*
G03*
X7652000Y-470000I52000J0D01*
G01*
D12*
X7652000Y-8750000D02*
G75*
G02*
X7548000Y-8750000I-52000J0D01*
G01*
X7548000Y-8750000D02*
G75*
G02*
X7652000Y-8750000I52000J0D01*
G01*
D11*
X7652000Y-8773000D02*
X7652000Y-8727000D01*
X7548000Y-8727000D02*
G75*
G02*
X7652000Y-8727000I52000J0D01*
G01*
X7548000Y-8727000D02*
X7548000Y-8773000D01*
X7548000Y-8773000D02*
G75*
G03*
X7652000Y-8773000I52000J0D01*
G01*
D13*
X2609000Y-1677000D02*
X2609000Y-1997000D01*
X2449000Y-1837000D02*
X2769000Y-1837000D01*
X6591000Y-1677000D02*
X6591000Y-1997000D01*
X6431000Y-1837000D02*
X6751000Y-1837000D01*
D14*
X523745Y-523745D02*
X523745Y-276255D01*
X276255Y-276255D01*
X276255Y-523745D01*
X523745Y-523745D01*
X523745Y-8923745D02*
X523745Y-8676255D01*
X276255Y-8676255D01*
X276255Y-8923745D01*
X523745Y-8923745D01*
X2732745Y-7486745D02*
X2732745Y-7239255D01*
X2485255Y-7239255D01*
X2485255Y-7486745D01*
X2732745Y-7486745D01*
X6714745Y-7486745D02*
X6714745Y-7239255D01*
X6467255Y-7239255D01*
X6467255Y-7486745D01*
X6714745Y-7486745D01*
X8923745Y-523745D02*
X8923745Y-276255D01*
X8676255Y-276255D01*
X8676255Y-523745D01*
X8923745Y-523745D01*
X8923745Y-8923745D02*
X8923745Y-8676255D01*
X8676255Y-8676255D01*
X8676255Y-8923745D01*
X8923745Y-8923745D01*
D10*
X250777Y-9521484D02*
X250777Y-9321484D01*
X250777Y-9321484D02*
X298396Y-9321484D01*
X298396Y-9321484D02*
X326967Y-9331008D01*
X326967Y-9331008D02*
X346015Y-9350055D01*
X346015Y-9350055D02*
X355539Y-9369103D01*
X355539Y-9369103D02*
X365062Y-9407198D01*
X365062Y-9407198D02*
X365062Y-9435770D01*
X365062Y-9435770D02*
X355539Y-9473865D01*
X355539Y-9473865D02*
X346015Y-9492912D01*
X346015Y-9492912D02*
X326967Y-9511960D01*
X326967Y-9511960D02*
X298396Y-9521484D01*
X298396Y-9521484D02*
X250777Y-9521484D01*
X450777Y-9521484D02*
X450777Y-9388150D01*
X450777Y-9426246D02*
X460301Y-9407198D01*
X460301Y-9407198D02*
X469824Y-9397674D01*
X469824Y-9397674D02*
X488872Y-9388150D01*
X488872Y-9388150D02*
X507920Y-9388150D01*
X574586Y-9521484D02*
X574586Y-9388150D01*
X574586Y-9321484D02*
X565063Y-9331008D01*
X565063Y-9331008D02*
X574586Y-9340531D01*
X574586Y-9340531D02*
X584110Y-9331008D01*
X584110Y-9331008D02*
X574586Y-9321484D01*
X574586Y-9321484D02*
X574586Y-9340531D01*
X698396Y-9521484D02*
X679348Y-9511960D01*
X679348Y-9511960D02*
X669824Y-9492912D01*
X669824Y-9492912D02*
X669824Y-9321484D01*
X803158Y-9521484D02*
X784110Y-9511960D01*
X784110Y-9511960D02*
X774586Y-9492912D01*
X774586Y-9492912D02*
X774586Y-9321484D01*
X1031729Y-9521484D02*
X1031729Y-9321484D01*
X1031729Y-9321484D02*
X1098396Y-9464341D01*
X1098396Y-9464341D02*
X1165063Y-9321484D01*
X1165063Y-9321484D02*
X1165063Y-9521484D01*
X1346015Y-9521484D02*
X1346015Y-9416722D01*
X1346015Y-9416722D02*
X1336491Y-9397674D01*
X1336491Y-9397674D02*
X1317444Y-9388150D01*
X1317444Y-9388150D02*
X1279348Y-9388150D01*
X1279348Y-9388150D02*
X1260301Y-9397674D01*
X1346015Y-9511960D02*
X1326967Y-9521484D01*
X1326967Y-9521484D02*
X1279348Y-9521484D01*
X1279348Y-9521484D02*
X1260301Y-9511960D01*
X1260301Y-9511960D02*
X1250777Y-9492912D01*
X1250777Y-9492912D02*
X1250777Y-9473865D01*
X1250777Y-9473865D02*
X1260301Y-9454817D01*
X1260301Y-9454817D02*
X1279348Y-9445293D01*
X1279348Y-9445293D02*
X1326967Y-9445293D01*
X1326967Y-9445293D02*
X1346015Y-9435770D01*
X1441253Y-9388150D02*
X1441253Y-9588150D01*
X1441253Y-9397674D02*
X1460301Y-9388150D01*
X1460301Y-9388150D02*
X1498396Y-9388150D01*
X1498396Y-9388150D02*
X1517443Y-9397674D01*
X1517443Y-9397674D02*
X1526967Y-9407198D01*
X1526967Y-9407198D02*
X1536491Y-9426246D01*
X1536491Y-9426246D02*
X1536491Y-9483389D01*
X1536491Y-9483389D02*
X1526967Y-9502436D01*
X1526967Y-9502436D02*
X1517443Y-9511960D01*
X1517443Y-9511960D02*
X1498396Y-9521484D01*
X1498396Y-9521484D02*
X1460301Y-9521484D01*
X1460301Y-9521484D02*
X1441253Y-9511960D01*
X1622205Y-9502436D02*
X1631729Y-9511960D01*
X1631729Y-9511960D02*
X1622205Y-9521484D01*
X1622205Y-9521484D02*
X1612682Y-9511960D01*
X1612682Y-9511960D02*
X1622205Y-9502436D01*
X1622205Y-9502436D02*
X1622205Y-9521484D01*
X1622205Y-9397674D02*
X1631729Y-9407198D01*
X1631729Y-9407198D02*
X1622205Y-9416722D01*
X1622205Y-9416722D02*
X1612682Y-9407198D01*
X1612682Y-9407198D02*
X1622205Y-9397674D01*
X1622205Y-9397674D02*
X1622205Y-9416722D01*
D11*
X-110000Y-9800000D02*
X-10000Y-9900000D01*
X-10000Y-9800000D02*
X-110000Y-9900000D01*
D10*
X355539Y-9941484D02*
X241253Y-9941484D01*
X298396Y-9941484D02*
X298396Y-9741484D01*
X298396Y-9741484D02*
X279348Y-9770055D01*
X279348Y-9770055D02*
X260301Y-9789103D01*
X260301Y-9789103D02*
X241253Y-9798627D01*
X441253Y-9922436D02*
X450777Y-9931960D01*
X450777Y-9931960D02*
X441253Y-9941484D01*
X441253Y-9941484D02*
X431729Y-9931960D01*
X431729Y-9931960D02*
X441253Y-9922436D01*
X441253Y-9922436D02*
X441253Y-9941484D01*
X574586Y-9741484D02*
X593634Y-9741484D01*
X593634Y-9741484D02*
X612682Y-9751008D01*
X612682Y-9751008D02*
X622205Y-9760531D01*
X622205Y-9760531D02*
X631729Y-9779579D01*
X631729Y-9779579D02*
X641253Y-9817674D01*
X641253Y-9817674D02*
X641253Y-9865293D01*
X641253Y-9865293D02*
X631729Y-9903389D01*
X631729Y-9903389D02*
X622205Y-9922436D01*
X622205Y-9922436D02*
X612682Y-9931960D01*
X612682Y-9931960D02*
X593634Y-9941484D01*
X593634Y-9941484D02*
X574586Y-9941484D01*
X574586Y-9941484D02*
X555539Y-9931960D01*
X555539Y-9931960D02*
X546015Y-9922436D01*
X546015Y-9922436D02*
X536491Y-9903389D01*
X536491Y-9903389D02*
X526967Y-9865293D01*
X526967Y-9865293D02*
X526967Y-9817674D01*
X526967Y-9817674D02*
X536491Y-9779579D01*
X536491Y-9779579D02*
X546015Y-9760531D01*
X546015Y-9760531D02*
X555539Y-9751008D01*
X555539Y-9751008D02*
X574586Y-9741484D01*
X765062Y-9741484D02*
X784110Y-9741484D01*
X784110Y-9741484D02*
X803158Y-9751008D01*
X803158Y-9751008D02*
X812682Y-9760531D01*
X812682Y-9760531D02*
X822205Y-9779579D01*
X822205Y-9779579D02*
X831729Y-9817674D01*
X831729Y-9817674D02*
X831729Y-9865293D01*
X831729Y-9865293D02*
X822205Y-9903389D01*
X822205Y-9903389D02*
X812682Y-9922436D01*
X812682Y-9922436D02*
X803158Y-9931960D01*
X803158Y-9931960D02*
X784110Y-9941484D01*
X784110Y-9941484D02*
X765062Y-9941484D01*
X765062Y-9941484D02*
X746015Y-9931960D01*
X746015Y-9931960D02*
X736491Y-9922436D01*
X736491Y-9922436D02*
X726967Y-9903389D01*
X726967Y-9903389D02*
X717443Y-9865293D01*
X717443Y-9865293D02*
X717443Y-9817674D01*
X717443Y-9817674D02*
X726967Y-9779579D01*
X726967Y-9779579D02*
X736491Y-9760531D01*
X736491Y-9760531D02*
X746015Y-9751008D01*
X746015Y-9751008D02*
X765062Y-9741484D01*
X955539Y-9741484D02*
X974586Y-9741484D01*
X974586Y-9741484D02*
X993634Y-9751008D01*
X993634Y-9751008D02*
X1003158Y-9760531D01*
X1003158Y-9760531D02*
X1012682Y-9779579D01*
X1012682Y-9779579D02*
X1022205Y-9817674D01*
X1022205Y-9817674D02*
X1022205Y-9865293D01*
X1022205Y-9865293D02*
X1012682Y-9903389D01*
X1012682Y-9903389D02*
X1003158Y-9922436D01*
X1003158Y-9922436D02*
X993634Y-9931960D01*
X993634Y-9931960D02*
X974586Y-9941484D01*
X974586Y-9941484D02*
X955539Y-9941484D01*
X955539Y-9941484D02*
X936491Y-9931960D01*
X936491Y-9931960D02*
X926967Y-9922436D01*
X926967Y-9922436D02*
X917443Y-9903389D01*
X917443Y-9903389D02*
X907920Y-9865293D01*
X907920Y-9865293D02*
X907920Y-9817674D01*
X907920Y-9817674D02*
X917443Y-9779579D01*
X917443Y-9779579D02*
X926967Y-9760531D01*
X926967Y-9760531D02*
X936491Y-9751008D01*
X936491Y-9751008D02*
X955539Y-9741484D01*
X1107920Y-9941484D02*
X1107920Y-9808150D01*
X1107920Y-9827198D02*
X1117444Y-9817674D01*
X1117444Y-9817674D02*
X1136491Y-9808150D01*
X1136491Y-9808150D02*
X1165063Y-9808150D01*
X1165063Y-9808150D02*
X1184110Y-9817674D01*
X1184110Y-9817674D02*
X1193634Y-9836722D01*
X1193634Y-9836722D02*
X1193634Y-9941484D01*
X1193634Y-9836722D02*
X1203158Y-9817674D01*
X1203158Y-9817674D02*
X1222205Y-9808150D01*
X1222205Y-9808150D02*
X1250777Y-9808150D01*
X1250777Y-9808150D02*
X1269825Y-9817674D01*
X1269825Y-9817674D02*
X1279348Y-9836722D01*
X1279348Y-9836722D02*
X1279348Y-9941484D01*
X1374586Y-9941484D02*
X1374586Y-9808150D01*
X1374586Y-9827198D02*
X1384110Y-9817674D01*
X1384110Y-9817674D02*
X1403158Y-9808150D01*
X1403158Y-9808150D02*
X1431729Y-9808150D01*
X1431729Y-9808150D02*
X1450777Y-9817674D01*
X1450777Y-9817674D02*
X1460301Y-9836722D01*
X1460301Y-9836722D02*
X1460301Y-9941484D01*
X1460301Y-9836722D02*
X1469824Y-9817674D01*
X1469824Y-9817674D02*
X1488872Y-9808150D01*
X1488872Y-9808150D02*
X1517443Y-9808150D01*
X1517443Y-9808150D02*
X1536491Y-9817674D01*
X1536491Y-9817674D02*
X1546015Y-9836722D01*
X1546015Y-9836722D02*
X1546015Y-9941484D01*
X1936491Y-9731960D02*
X1765063Y-9989103D01*
X2193634Y-9741484D02*
X2212682Y-9741484D01*
X2212682Y-9741484D02*
X2231729Y-9751008D01*
X2231729Y-9751008D02*
X2241253Y-9760531D01*
X2241253Y-9760531D02*
X2250777Y-9779579D01*
X2250777Y-9779579D02*
X2260301Y-9817674D01*
X2260301Y-9817674D02*
X2260301Y-9865293D01*
X2260301Y-9865293D02*
X2250777Y-9903389D01*
X2250777Y-9903389D02*
X2241253Y-9922436D01*
X2241253Y-9922436D02*
X2231729Y-9931960D01*
X2231729Y-9931960D02*
X2212682Y-9941484D01*
X2212682Y-9941484D02*
X2193634Y-9941484D01*
X2193634Y-9941484D02*
X2174587Y-9931960D01*
X2174587Y-9931960D02*
X2165063Y-9922436D01*
X2165063Y-9922436D02*
X2155539Y-9903389D01*
X2155539Y-9903389D02*
X2146015Y-9865293D01*
X2146015Y-9865293D02*
X2146015Y-9817674D01*
X2146015Y-9817674D02*
X2155539Y-9779579D01*
X2155539Y-9779579D02*
X2165063Y-9760531D01*
X2165063Y-9760531D02*
X2174587Y-9751008D01*
X2174587Y-9751008D02*
X2193634Y-9741484D01*
X2346015Y-9922436D02*
X2355539Y-9931960D01*
X2355539Y-9931960D02*
X2346015Y-9941484D01*
X2346015Y-9941484D02*
X2336491Y-9931960D01*
X2336491Y-9931960D02*
X2346015Y-9922436D01*
X2346015Y-9922436D02*
X2346015Y-9941484D01*
X2479348Y-9741484D02*
X2498396Y-9741484D01*
X2498396Y-9741484D02*
X2517444Y-9751008D01*
X2517444Y-9751008D02*
X2526968Y-9760531D01*
X2526968Y-9760531D02*
X2536491Y-9779579D01*
X2536491Y-9779579D02*
X2546015Y-9817674D01*
X2546015Y-9817674D02*
X2546015Y-9865293D01*
X2546015Y-9865293D02*
X2536491Y-9903389D01*
X2536491Y-9903389D02*
X2526968Y-9922436D01*
X2526968Y-9922436D02*
X2517444Y-9931960D01*
X2517444Y-9931960D02*
X2498396Y-9941484D01*
X2498396Y-9941484D02*
X2479348Y-9941484D01*
X2479348Y-9941484D02*
X2460301Y-9931960D01*
X2460301Y-9931960D02*
X2450777Y-9922436D01*
X2450777Y-9922436D02*
X2441253Y-9903389D01*
X2441253Y-9903389D02*
X2431729Y-9865293D01*
X2431729Y-9865293D02*
X2431729Y-9817674D01*
X2431729Y-9817674D02*
X2441253Y-9779579D01*
X2441253Y-9779579D02*
X2450777Y-9760531D01*
X2450777Y-9760531D02*
X2460301Y-9751008D01*
X2460301Y-9751008D02*
X2479348Y-9741484D01*
X2612682Y-9741484D02*
X2736491Y-9741484D01*
X2736491Y-9741484D02*
X2669825Y-9817674D01*
X2669825Y-9817674D02*
X2698396Y-9817674D01*
X2698396Y-9817674D02*
X2717444Y-9827198D01*
X2717444Y-9827198D02*
X2726968Y-9836722D01*
X2726968Y-9836722D02*
X2736491Y-9855770D01*
X2736491Y-9855770D02*
X2736491Y-9903389D01*
X2736491Y-9903389D02*
X2726968Y-9922436D01*
X2726968Y-9922436D02*
X2717444Y-9931960D01*
X2717444Y-9931960D02*
X2698396Y-9941484D01*
X2698396Y-9941484D02*
X2641253Y-9941484D01*
X2641253Y-9941484D02*
X2622206Y-9931960D01*
X2622206Y-9931960D02*
X2612682Y-9922436D01*
X2831729Y-9941484D02*
X2869825Y-9941484D01*
X2869825Y-9941484D02*
X2888872Y-9931960D01*
X2888872Y-9931960D02*
X2898396Y-9922436D01*
X2898396Y-9922436D02*
X2917444Y-9893865D01*
X2917444Y-9893865D02*
X2926967Y-9855770D01*
X2926967Y-9855770D02*
X2926967Y-9779579D01*
X2926967Y-9779579D02*
X2917444Y-9760531D01*
X2917444Y-9760531D02*
X2907920Y-9751008D01*
X2907920Y-9751008D02*
X2888872Y-9741484D01*
X2888872Y-9741484D02*
X2850777Y-9741484D01*
X2850777Y-9741484D02*
X2831729Y-9751008D01*
X2831729Y-9751008D02*
X2822206Y-9760531D01*
X2822206Y-9760531D02*
X2812682Y-9779579D01*
X2812682Y-9779579D02*
X2812682Y-9827198D01*
X2812682Y-9827198D02*
X2822206Y-9846246D01*
X2822206Y-9846246D02*
X2831729Y-9855770D01*
X2831729Y-9855770D02*
X2850777Y-9865293D01*
X2850777Y-9865293D02*
X2888872Y-9865293D01*
X2888872Y-9865293D02*
X2907920Y-9855770D01*
X2907920Y-9855770D02*
X2917444Y-9846246D01*
X2917444Y-9846246D02*
X2926967Y-9827198D01*
X3098396Y-9808150D02*
X3098396Y-9941484D01*
X3050777Y-9731960D02*
X3003158Y-9874817D01*
X3003158Y-9874817D02*
X3126967Y-9874817D01*
X3193634Y-9741484D02*
X3193634Y-9779579D01*
X3269825Y-9741484D02*
X3269825Y-9779579D01*
X3565063Y-10017674D02*
X3555539Y-10008150D01*
X3555539Y-10008150D02*
X3536491Y-9979579D01*
X3536491Y-9979579D02*
X3526968Y-9960531D01*
X3526968Y-9960531D02*
X3517444Y-9931960D01*
X3517444Y-9931960D02*
X3507920Y-9884341D01*
X3507920Y-9884341D02*
X3507920Y-9846246D01*
X3507920Y-9846246D02*
X3517444Y-9798627D01*
X3517444Y-9798627D02*
X3526968Y-9770055D01*
X3526968Y-9770055D02*
X3536491Y-9751008D01*
X3536491Y-9751008D02*
X3555539Y-9722436D01*
X3555539Y-9722436D02*
X3565063Y-9712912D01*
X3726968Y-9808150D02*
X3726968Y-9941484D01*
X3679348Y-9731960D02*
X3631729Y-9874817D01*
X3631729Y-9874817D02*
X3755539Y-9874817D01*
X3984110Y-9941484D02*
X3984110Y-9741484D01*
X4069825Y-9941484D02*
X4069825Y-9836722D01*
X4069825Y-9836722D02*
X4060301Y-9817674D01*
X4060301Y-9817674D02*
X4041253Y-9808150D01*
X4041253Y-9808150D02*
X4012682Y-9808150D01*
X4012682Y-9808150D02*
X3993634Y-9817674D01*
X3993634Y-9817674D02*
X3984110Y-9827198D01*
X4193634Y-9941484D02*
X4174587Y-9931960D01*
X4174587Y-9931960D02*
X4165063Y-9922436D01*
X4165063Y-9922436D02*
X4155539Y-9903389D01*
X4155539Y-9903389D02*
X4155539Y-9846246D01*
X4155539Y-9846246D02*
X4165063Y-9827198D01*
X4165063Y-9827198D02*
X4174587Y-9817674D01*
X4174587Y-9817674D02*
X4193634Y-9808150D01*
X4193634Y-9808150D02*
X4222206Y-9808150D01*
X4222206Y-9808150D02*
X4241253Y-9817674D01*
X4241253Y-9817674D02*
X4250777Y-9827198D01*
X4250777Y-9827198D02*
X4260301Y-9846246D01*
X4260301Y-9846246D02*
X4260301Y-9903389D01*
X4260301Y-9903389D02*
X4250777Y-9922436D01*
X4250777Y-9922436D02*
X4241253Y-9931960D01*
X4241253Y-9931960D02*
X4222206Y-9941484D01*
X4222206Y-9941484D02*
X4193634Y-9941484D01*
X4374587Y-9941484D02*
X4355539Y-9931960D01*
X4355539Y-9931960D02*
X4346015Y-9912912D01*
X4346015Y-9912912D02*
X4346015Y-9741484D01*
X4526968Y-9931960D02*
X4507920Y-9941484D01*
X4507920Y-9941484D02*
X4469825Y-9941484D01*
X4469825Y-9941484D02*
X4450777Y-9931960D01*
X4450777Y-9931960D02*
X4441253Y-9912912D01*
X4441253Y-9912912D02*
X4441253Y-9836722D01*
X4441253Y-9836722D02*
X4450777Y-9817674D01*
X4450777Y-9817674D02*
X4469825Y-9808150D01*
X4469825Y-9808150D02*
X4507920Y-9808150D01*
X4507920Y-9808150D02*
X4526968Y-9817674D01*
X4526968Y-9817674D02*
X4536492Y-9836722D01*
X4536492Y-9836722D02*
X4536492Y-9855770D01*
X4536492Y-9855770D02*
X4441253Y-9874817D01*
X4612682Y-9931960D02*
X4631730Y-9941484D01*
X4631730Y-9941484D02*
X4669825Y-9941484D01*
X4669825Y-9941484D02*
X4688873Y-9931960D01*
X4688873Y-9931960D02*
X4698396Y-9912912D01*
X4698396Y-9912912D02*
X4698396Y-9903389D01*
X4698396Y-9903389D02*
X4688873Y-9884341D01*
X4688873Y-9884341D02*
X4669825Y-9874817D01*
X4669825Y-9874817D02*
X4641253Y-9874817D01*
X4641253Y-9874817D02*
X4622206Y-9865293D01*
X4622206Y-9865293D02*
X4612682Y-9846246D01*
X4612682Y-9846246D02*
X4612682Y-9836722D01*
X4612682Y-9836722D02*
X4622206Y-9817674D01*
X4622206Y-9817674D02*
X4641253Y-9808150D01*
X4641253Y-9808150D02*
X4669825Y-9808150D01*
X4669825Y-9808150D02*
X4688873Y-9817674D01*
X4765063Y-10017674D02*
X4774587Y-10008150D01*
X4774587Y-10008150D02*
X4793634Y-9979579D01*
X4793634Y-9979579D02*
X4803158Y-9960531D01*
X4803158Y-9960531D02*
X4812682Y-9931960D01*
X4812682Y-9931960D02*
X4822206Y-9884341D01*
X4822206Y-9884341D02*
X4822206Y-9846246D01*
X4822206Y-9846246D02*
X4812682Y-9798627D01*
X4812682Y-9798627D02*
X4803158Y-9770055D01*
X4803158Y-9770055D02*
X4793634Y-9751008D01*
X4793634Y-9751008D02*
X4774587Y-9722436D01*
X4774587Y-9722436D02*
X4765063Y-9712912D01*
D12*
X-10000Y-10114000D02*
G75*
G02*
X-114000Y-10114000I-52000J0D01*
G01*
X-114000Y-10114000D02*
G75*
G02*
X-10000Y-10114000I52000J0D01*
G01*
D10*
X355539Y-10205484D02*
X241253Y-10205484D01*
X298396Y-10205484D02*
X298396Y-10005484D01*
X298396Y-10005484D02*
X279348Y-10034055D01*
X279348Y-10034055D02*
X260301Y-10053103D01*
X260301Y-10053103D02*
X241253Y-10062627D01*
X441253Y-10186436D02*
X450777Y-10195960D01*
X450777Y-10195960D02*
X441253Y-10205484D01*
X441253Y-10205484D02*
X431729Y-10195960D01*
X431729Y-10195960D02*
X441253Y-10186436D01*
X441253Y-10186436D02*
X441253Y-10205484D01*
X574586Y-10005484D02*
X593634Y-10005484D01*
X593634Y-10005484D02*
X612682Y-10015008D01*
X612682Y-10015008D02*
X622205Y-10024531D01*
X622205Y-10024531D02*
X631729Y-10043579D01*
X631729Y-10043579D02*
X641253Y-10081674D01*
X641253Y-10081674D02*
X641253Y-10129293D01*
X641253Y-10129293D02*
X631729Y-10167389D01*
X631729Y-10167389D02*
X622205Y-10186436D01*
X622205Y-10186436D02*
X612682Y-10195960D01*
X612682Y-10195960D02*
X593634Y-10205484D01*
X593634Y-10205484D02*
X574586Y-10205484D01*
X574586Y-10205484D02*
X555539Y-10195960D01*
X555539Y-10195960D02*
X546015Y-10186436D01*
X546015Y-10186436D02*
X536491Y-10167389D01*
X536491Y-10167389D02*
X526967Y-10129293D01*
X526967Y-10129293D02*
X526967Y-10081674D01*
X526967Y-10081674D02*
X536491Y-10043579D01*
X536491Y-10043579D02*
X546015Y-10024531D01*
X546015Y-10024531D02*
X555539Y-10015008D01*
X555539Y-10015008D02*
X574586Y-10005484D01*
X812682Y-10072150D02*
X812682Y-10205484D01*
X765062Y-9995960D02*
X717443Y-10138817D01*
X717443Y-10138817D02*
X841253Y-10138817D01*
X955539Y-10005484D02*
X974586Y-10005484D01*
X974586Y-10005484D02*
X993634Y-10015008D01*
X993634Y-10015008D02*
X1003158Y-10024531D01*
X1003158Y-10024531D02*
X1012682Y-10043579D01*
X1012682Y-10043579D02*
X1022205Y-10081674D01*
X1022205Y-10081674D02*
X1022205Y-10129293D01*
X1022205Y-10129293D02*
X1012682Y-10167389D01*
X1012682Y-10167389D02*
X1003158Y-10186436D01*
X1003158Y-10186436D02*
X993634Y-10195960D01*
X993634Y-10195960D02*
X974586Y-10205484D01*
X974586Y-10205484D02*
X955539Y-10205484D01*
X955539Y-10205484D02*
X936491Y-10195960D01*
X936491Y-10195960D02*
X926967Y-10186436D01*
X926967Y-10186436D02*
X917443Y-10167389D01*
X917443Y-10167389D02*
X907920Y-10129293D01*
X907920Y-10129293D02*
X907920Y-10081674D01*
X907920Y-10081674D02*
X917443Y-10043579D01*
X917443Y-10043579D02*
X926967Y-10024531D01*
X926967Y-10024531D02*
X936491Y-10015008D01*
X936491Y-10015008D02*
X955539Y-10005484D01*
X1107920Y-10205484D02*
X1107920Y-10072150D01*
X1107920Y-10091198D02*
X1117444Y-10081674D01*
X1117444Y-10081674D02*
X1136491Y-10072150D01*
X1136491Y-10072150D02*
X1165063Y-10072150D01*
X1165063Y-10072150D02*
X1184110Y-10081674D01*
X1184110Y-10081674D02*
X1193634Y-10100722D01*
X1193634Y-10100722D02*
X1193634Y-10205484D01*
X1193634Y-10100722D02*
X1203158Y-10081674D01*
X1203158Y-10081674D02*
X1222205Y-10072150D01*
X1222205Y-10072150D02*
X1250777Y-10072150D01*
X1250777Y-10072150D02*
X1269825Y-10081674D01*
X1269825Y-10081674D02*
X1279348Y-10100722D01*
X1279348Y-10100722D02*
X1279348Y-10205484D01*
X1374586Y-10205484D02*
X1374586Y-10072150D01*
X1374586Y-10091198D02*
X1384110Y-10081674D01*
X1384110Y-10081674D02*
X1403158Y-10072150D01*
X1403158Y-10072150D02*
X1431729Y-10072150D01*
X1431729Y-10072150D02*
X1450777Y-10081674D01*
X1450777Y-10081674D02*
X1460301Y-10100722D01*
X1460301Y-10100722D02*
X1460301Y-10205484D01*
X1460301Y-10100722D02*
X1469824Y-10081674D01*
X1469824Y-10081674D02*
X1488872Y-10072150D01*
X1488872Y-10072150D02*
X1517443Y-10072150D01*
X1517443Y-10072150D02*
X1536491Y-10081674D01*
X1536491Y-10081674D02*
X1546015Y-10100722D01*
X1546015Y-10100722D02*
X1546015Y-10205484D01*
X1936491Y-9995960D02*
X1765063Y-10253103D01*
X2193634Y-10005484D02*
X2212682Y-10005484D01*
X2212682Y-10005484D02*
X2231729Y-10015008D01*
X2231729Y-10015008D02*
X2241253Y-10024531D01*
X2241253Y-10024531D02*
X2250777Y-10043579D01*
X2250777Y-10043579D02*
X2260301Y-10081674D01*
X2260301Y-10081674D02*
X2260301Y-10129293D01*
X2260301Y-10129293D02*
X2250777Y-10167389D01*
X2250777Y-10167389D02*
X2241253Y-10186436D01*
X2241253Y-10186436D02*
X2231729Y-10195960D01*
X2231729Y-10195960D02*
X2212682Y-10205484D01*
X2212682Y-10205484D02*
X2193634Y-10205484D01*
X2193634Y-10205484D02*
X2174587Y-10195960D01*
X2174587Y-10195960D02*
X2165063Y-10186436D01*
X2165063Y-10186436D02*
X2155539Y-10167389D01*
X2155539Y-10167389D02*
X2146015Y-10129293D01*
X2146015Y-10129293D02*
X2146015Y-10081674D01*
X2146015Y-10081674D02*
X2155539Y-10043579D01*
X2155539Y-10043579D02*
X2165063Y-10024531D01*
X2165063Y-10024531D02*
X2174587Y-10015008D01*
X2174587Y-10015008D02*
X2193634Y-10005484D01*
X2346015Y-10186436D02*
X2355539Y-10195960D01*
X2355539Y-10195960D02*
X2346015Y-10205484D01*
X2346015Y-10205484D02*
X2336491Y-10195960D01*
X2336491Y-10195960D02*
X2346015Y-10186436D01*
X2346015Y-10186436D02*
X2346015Y-10205484D01*
X2479348Y-10005484D02*
X2498396Y-10005484D01*
X2498396Y-10005484D02*
X2517444Y-10015008D01*
X2517444Y-10015008D02*
X2526968Y-10024531D01*
X2526968Y-10024531D02*
X2536491Y-10043579D01*
X2536491Y-10043579D02*
X2546015Y-10081674D01*
X2546015Y-10081674D02*
X2546015Y-10129293D01*
X2546015Y-10129293D02*
X2536491Y-10167389D01*
X2536491Y-10167389D02*
X2526968Y-10186436D01*
X2526968Y-10186436D02*
X2517444Y-10195960D01*
X2517444Y-10195960D02*
X2498396Y-10205484D01*
X2498396Y-10205484D02*
X2479348Y-10205484D01*
X2479348Y-10205484D02*
X2460301Y-10195960D01*
X2460301Y-10195960D02*
X2450777Y-10186436D01*
X2450777Y-10186436D02*
X2441253Y-10167389D01*
X2441253Y-10167389D02*
X2431729Y-10129293D01*
X2431729Y-10129293D02*
X2431729Y-10081674D01*
X2431729Y-10081674D02*
X2441253Y-10043579D01*
X2441253Y-10043579D02*
X2450777Y-10024531D01*
X2450777Y-10024531D02*
X2460301Y-10015008D01*
X2460301Y-10015008D02*
X2479348Y-10005484D01*
X2717444Y-10072150D02*
X2717444Y-10205484D01*
X2669825Y-9995960D02*
X2622206Y-10138817D01*
X2622206Y-10138817D02*
X2746015Y-10138817D01*
X2860301Y-10005484D02*
X2879348Y-10005484D01*
X2879348Y-10005484D02*
X2898396Y-10015008D01*
X2898396Y-10015008D02*
X2907920Y-10024531D01*
X2907920Y-10024531D02*
X2917444Y-10043579D01*
X2917444Y-10043579D02*
X2926967Y-10081674D01*
X2926967Y-10081674D02*
X2926967Y-10129293D01*
X2926967Y-10129293D02*
X2917444Y-10167389D01*
X2917444Y-10167389D02*
X2907920Y-10186436D01*
X2907920Y-10186436D02*
X2898396Y-10195960D01*
X2898396Y-10195960D02*
X2879348Y-10205484D01*
X2879348Y-10205484D02*
X2860301Y-10205484D01*
X2860301Y-10205484D02*
X2841253Y-10195960D01*
X2841253Y-10195960D02*
X2831729Y-10186436D01*
X2831729Y-10186436D02*
X2822206Y-10167389D01*
X2822206Y-10167389D02*
X2812682Y-10129293D01*
X2812682Y-10129293D02*
X2812682Y-10081674D01*
X2812682Y-10081674D02*
X2822206Y-10043579D01*
X2822206Y-10043579D02*
X2831729Y-10024531D01*
X2831729Y-10024531D02*
X2841253Y-10015008D01*
X2841253Y-10015008D02*
X2860301Y-10005484D01*
X3022206Y-10205484D02*
X3060301Y-10205484D01*
X3060301Y-10205484D02*
X3079348Y-10195960D01*
X3079348Y-10195960D02*
X3088872Y-10186436D01*
X3088872Y-10186436D02*
X3107920Y-10157865D01*
X3107920Y-10157865D02*
X3117444Y-10119770D01*
X3117444Y-10119770D02*
X3117444Y-10043579D01*
X3117444Y-10043579D02*
X3107920Y-10024531D01*
X3107920Y-10024531D02*
X3098396Y-10015008D01*
X3098396Y-10015008D02*
X3079348Y-10005484D01*
X3079348Y-10005484D02*
X3041253Y-10005484D01*
X3041253Y-10005484D02*
X3022206Y-10015008D01*
X3022206Y-10015008D02*
X3012682Y-10024531D01*
X3012682Y-10024531D02*
X3003158Y-10043579D01*
X3003158Y-10043579D02*
X3003158Y-10091198D01*
X3003158Y-10091198D02*
X3012682Y-10110246D01*
X3012682Y-10110246D02*
X3022206Y-10119770D01*
X3022206Y-10119770D02*
X3041253Y-10129293D01*
X3041253Y-10129293D02*
X3079348Y-10129293D01*
X3079348Y-10129293D02*
X3098396Y-10119770D01*
X3098396Y-10119770D02*
X3107920Y-10110246D01*
X3107920Y-10110246D02*
X3117444Y-10091198D01*
X3193634Y-10005484D02*
X3193634Y-10043579D01*
X3269825Y-10005484D02*
X3269825Y-10043579D01*
X3565063Y-10281674D02*
X3555539Y-10272150D01*
X3555539Y-10272150D02*
X3536491Y-10243579D01*
X3536491Y-10243579D02*
X3526968Y-10224531D01*
X3526968Y-10224531D02*
X3517444Y-10195960D01*
X3517444Y-10195960D02*
X3507920Y-10148341D01*
X3507920Y-10148341D02*
X3507920Y-10110246D01*
X3507920Y-10110246D02*
X3517444Y-10062627D01*
X3517444Y-10062627D02*
X3526968Y-10034055D01*
X3526968Y-10034055D02*
X3536491Y-10015008D01*
X3536491Y-10015008D02*
X3555539Y-9986436D01*
X3555539Y-9986436D02*
X3565063Y-9976912D01*
X3679348Y-10005484D02*
X3698396Y-10005484D01*
X3698396Y-10005484D02*
X3717444Y-10015008D01*
X3717444Y-10015008D02*
X3726968Y-10024531D01*
X3726968Y-10024531D02*
X3736491Y-10043579D01*
X3736491Y-10043579D02*
X3746015Y-10081674D01*
X3746015Y-10081674D02*
X3746015Y-10129293D01*
X3746015Y-10129293D02*
X3736491Y-10167389D01*
X3736491Y-10167389D02*
X3726968Y-10186436D01*
X3726968Y-10186436D02*
X3717444Y-10195960D01*
X3717444Y-10195960D02*
X3698396Y-10205484D01*
X3698396Y-10205484D02*
X3679348Y-10205484D01*
X3679348Y-10205484D02*
X3660301Y-10195960D01*
X3660301Y-10195960D02*
X3650777Y-10186436D01*
X3650777Y-10186436D02*
X3641253Y-10167389D01*
X3641253Y-10167389D02*
X3631729Y-10129293D01*
X3631729Y-10129293D02*
X3631729Y-10081674D01*
X3631729Y-10081674D02*
X3641253Y-10043579D01*
X3641253Y-10043579D02*
X3650777Y-10024531D01*
X3650777Y-10024531D02*
X3660301Y-10015008D01*
X3660301Y-10015008D02*
X3679348Y-10005484D01*
X3984110Y-10205484D02*
X3984110Y-10005484D01*
X4069825Y-10205484D02*
X4069825Y-10100722D01*
X4069825Y-10100722D02*
X4060301Y-10081674D01*
X4060301Y-10081674D02*
X4041253Y-10072150D01*
X4041253Y-10072150D02*
X4012682Y-10072150D01*
X4012682Y-10072150D02*
X3993634Y-10081674D01*
X3993634Y-10081674D02*
X3984110Y-10091198D01*
X4193634Y-10205484D02*
X4174587Y-10195960D01*
X4174587Y-10195960D02*
X4165063Y-10186436D01*
X4165063Y-10186436D02*
X4155539Y-10167389D01*
X4155539Y-10167389D02*
X4155539Y-10110246D01*
X4155539Y-10110246D02*
X4165063Y-10091198D01*
X4165063Y-10091198D02*
X4174587Y-10081674D01*
X4174587Y-10081674D02*
X4193634Y-10072150D01*
X4193634Y-10072150D02*
X4222206Y-10072150D01*
X4222206Y-10072150D02*
X4241253Y-10081674D01*
X4241253Y-10081674D02*
X4250777Y-10091198D01*
X4250777Y-10091198D02*
X4260301Y-10110246D01*
X4260301Y-10110246D02*
X4260301Y-10167389D01*
X4260301Y-10167389D02*
X4250777Y-10186436D01*
X4250777Y-10186436D02*
X4241253Y-10195960D01*
X4241253Y-10195960D02*
X4222206Y-10205484D01*
X4222206Y-10205484D02*
X4193634Y-10205484D01*
X4374587Y-10205484D02*
X4355539Y-10195960D01*
X4355539Y-10195960D02*
X4346015Y-10176912D01*
X4346015Y-10176912D02*
X4346015Y-10005484D01*
X4526968Y-10195960D02*
X4507920Y-10205484D01*
X4507920Y-10205484D02*
X4469825Y-10205484D01*
X4469825Y-10205484D02*
X4450777Y-10195960D01*
X4450777Y-10195960D02*
X4441253Y-10176912D01*
X4441253Y-10176912D02*
X4441253Y-10100722D01*
X4441253Y-10100722D02*
X4450777Y-10081674D01*
X4450777Y-10081674D02*
X4469825Y-10072150D01*
X4469825Y-10072150D02*
X4507920Y-10072150D01*
X4507920Y-10072150D02*
X4526968Y-10081674D01*
X4526968Y-10081674D02*
X4536492Y-10100722D01*
X4536492Y-10100722D02*
X4536492Y-10119770D01*
X4536492Y-10119770D02*
X4441253Y-10138817D01*
X4612682Y-10195960D02*
X4631730Y-10205484D01*
X4631730Y-10205484D02*
X4669825Y-10205484D01*
X4669825Y-10205484D02*
X4688873Y-10195960D01*
X4688873Y-10195960D02*
X4698396Y-10176912D01*
X4698396Y-10176912D02*
X4698396Y-10167389D01*
X4698396Y-10167389D02*
X4688873Y-10148341D01*
X4688873Y-10148341D02*
X4669825Y-10138817D01*
X4669825Y-10138817D02*
X4641253Y-10138817D01*
X4641253Y-10138817D02*
X4622206Y-10129293D01*
X4622206Y-10129293D02*
X4612682Y-10110246D01*
X4612682Y-10110246D02*
X4612682Y-10100722D01*
X4612682Y-10100722D02*
X4622206Y-10081674D01*
X4622206Y-10081674D02*
X4641253Y-10072150D01*
X4641253Y-10072150D02*
X4669825Y-10072150D01*
X4669825Y-10072150D02*
X4688873Y-10081674D01*
X4936492Y-10129293D02*
X5088873Y-10129293D01*
X5012682Y-10205484D02*
X5012682Y-10053103D01*
X5365063Y-10091198D02*
X5346015Y-10081674D01*
X5346015Y-10081674D02*
X5336492Y-10072150D01*
X5336492Y-10072150D02*
X5326968Y-10053103D01*
X5326968Y-10053103D02*
X5326968Y-10043579D01*
X5326968Y-10043579D02*
X5336492Y-10024531D01*
X5336492Y-10024531D02*
X5346015Y-10015008D01*
X5346015Y-10015008D02*
X5365063Y-10005484D01*
X5365063Y-10005484D02*
X5403158Y-10005484D01*
X5403158Y-10005484D02*
X5422206Y-10015008D01*
X5422206Y-10015008D02*
X5431730Y-10024531D01*
X5431730Y-10024531D02*
X5441254Y-10043579D01*
X5441254Y-10043579D02*
X5441254Y-10053103D01*
X5441254Y-10053103D02*
X5431730Y-10072150D01*
X5431730Y-10072150D02*
X5422206Y-10081674D01*
X5422206Y-10081674D02*
X5403158Y-10091198D01*
X5403158Y-10091198D02*
X5365063Y-10091198D01*
X5365063Y-10091198D02*
X5346015Y-10100722D01*
X5346015Y-10100722D02*
X5336492Y-10110246D01*
X5336492Y-10110246D02*
X5326968Y-10129293D01*
X5326968Y-10129293D02*
X5326968Y-10167389D01*
X5326968Y-10167389D02*
X5336492Y-10186436D01*
X5336492Y-10186436D02*
X5346015Y-10195960D01*
X5346015Y-10195960D02*
X5365063Y-10205484D01*
X5365063Y-10205484D02*
X5403158Y-10205484D01*
X5403158Y-10205484D02*
X5422206Y-10195960D01*
X5422206Y-10195960D02*
X5431730Y-10186436D01*
X5431730Y-10186436D02*
X5441254Y-10167389D01*
X5441254Y-10167389D02*
X5441254Y-10129293D01*
X5441254Y-10129293D02*
X5431730Y-10110246D01*
X5431730Y-10110246D02*
X5422206Y-10100722D01*
X5422206Y-10100722D02*
X5403158Y-10091198D01*
X5669825Y-10195960D02*
X5688873Y-10205484D01*
X5688873Y-10205484D02*
X5726968Y-10205484D01*
X5726968Y-10205484D02*
X5746015Y-10195960D01*
X5746015Y-10195960D02*
X5755539Y-10176912D01*
X5755539Y-10176912D02*
X5755539Y-10167389D01*
X5755539Y-10167389D02*
X5746015Y-10148341D01*
X5746015Y-10148341D02*
X5726968Y-10138817D01*
X5726968Y-10138817D02*
X5698396Y-10138817D01*
X5698396Y-10138817D02*
X5679349Y-10129293D01*
X5679349Y-10129293D02*
X5669825Y-10110246D01*
X5669825Y-10110246D02*
X5669825Y-10100722D01*
X5669825Y-10100722D02*
X5679349Y-10081674D01*
X5679349Y-10081674D02*
X5698396Y-10072150D01*
X5698396Y-10072150D02*
X5726968Y-10072150D01*
X5726968Y-10072150D02*
X5746015Y-10081674D01*
X5869825Y-10205484D02*
X5850777Y-10195960D01*
X5850777Y-10195960D02*
X5841254Y-10176912D01*
X5841254Y-10176912D02*
X5841254Y-10005484D01*
X5974587Y-10205484D02*
X5955539Y-10195960D01*
X5955539Y-10195960D02*
X5946015Y-10186436D01*
X5946015Y-10186436D02*
X5936492Y-10167389D01*
X5936492Y-10167389D02*
X5936492Y-10110246D01*
X5936492Y-10110246D02*
X5946015Y-10091198D01*
X5946015Y-10091198D02*
X5955539Y-10081674D01*
X5955539Y-10081674D02*
X5974587Y-10072150D01*
X5974587Y-10072150D02*
X6003158Y-10072150D01*
X6003158Y-10072150D02*
X6022206Y-10081674D01*
X6022206Y-10081674D02*
X6031730Y-10091198D01*
X6031730Y-10091198D02*
X6041254Y-10110246D01*
X6041254Y-10110246D02*
X6041254Y-10167389D01*
X6041254Y-10167389D02*
X6031730Y-10186436D01*
X6031730Y-10186436D02*
X6022206Y-10195960D01*
X6022206Y-10195960D02*
X6003158Y-10205484D01*
X6003158Y-10205484D02*
X5974587Y-10205484D01*
X6098396Y-10072150D02*
X6174587Y-10072150D01*
X6126968Y-10005484D02*
X6126968Y-10176912D01*
X6126968Y-10176912D02*
X6136492Y-10195960D01*
X6136492Y-10195960D02*
X6155539Y-10205484D01*
X6155539Y-10205484D02*
X6174587Y-10205484D01*
X6231730Y-10195960D02*
X6250777Y-10205484D01*
X6250777Y-10205484D02*
X6288873Y-10205484D01*
X6288873Y-10205484D02*
X6307920Y-10195960D01*
X6307920Y-10195960D02*
X6317444Y-10176912D01*
X6317444Y-10176912D02*
X6317444Y-10167389D01*
X6317444Y-10167389D02*
X6307920Y-10148341D01*
X6307920Y-10148341D02*
X6288873Y-10138817D01*
X6288873Y-10138817D02*
X6260301Y-10138817D01*
X6260301Y-10138817D02*
X6241254Y-10129293D01*
X6241254Y-10129293D02*
X6231730Y-10110246D01*
X6231730Y-10110246D02*
X6231730Y-10100722D01*
X6231730Y-10100722D02*
X6241254Y-10081674D01*
X6241254Y-10081674D02*
X6260301Y-10072150D01*
X6260301Y-10072150D02*
X6288873Y-10072150D01*
X6288873Y-10072150D02*
X6307920Y-10081674D01*
X6384111Y-10281674D02*
X6393635Y-10272150D01*
X6393635Y-10272150D02*
X6412682Y-10243579D01*
X6412682Y-10243579D02*
X6422206Y-10224531D01*
X6422206Y-10224531D02*
X6431730Y-10195960D01*
X6431730Y-10195960D02*
X6441254Y-10148341D01*
X6441254Y-10148341D02*
X6441254Y-10110246D01*
X6441254Y-10110246D02*
X6431730Y-10062627D01*
X6431730Y-10062627D02*
X6422206Y-10034055D01*
X6422206Y-10034055D02*
X6412682Y-10015008D01*
X6412682Y-10015008D02*
X6393635Y-9986436D01*
X6393635Y-9986436D02*
X6384111Y-9976912D01*
X-110000Y-10278000D02*
X-110000Y-10478000D01*
X-210000Y-10378000D02*
X-10000Y-10378000D01*
X231729Y-10269484D02*
X355539Y-10269484D01*
X355539Y-10269484D02*
X288872Y-10345674D01*
X288872Y-10345674D02*
X317444Y-10345674D01*
X317444Y-10345674D02*
X336491Y-10355198D01*
X336491Y-10355198D02*
X346015Y-10364722D01*
X346015Y-10364722D02*
X355539Y-10383770D01*
X355539Y-10383770D02*
X355539Y-10431389D01*
X355539Y-10431389D02*
X346015Y-10450436D01*
X346015Y-10450436D02*
X336491Y-10459960D01*
X336491Y-10459960D02*
X317444Y-10469484D01*
X317444Y-10469484D02*
X260301Y-10469484D01*
X260301Y-10469484D02*
X241253Y-10459960D01*
X241253Y-10459960D02*
X231729Y-10450436D01*
X441253Y-10450436D02*
X450777Y-10459960D01*
X450777Y-10459960D02*
X441253Y-10469484D01*
X441253Y-10469484D02*
X431729Y-10459960D01*
X431729Y-10459960D02*
X441253Y-10450436D01*
X441253Y-10450436D02*
X441253Y-10469484D01*
X526967Y-10288531D02*
X536491Y-10279008D01*
X536491Y-10279008D02*
X555539Y-10269484D01*
X555539Y-10269484D02*
X603158Y-10269484D01*
X603158Y-10269484D02*
X622205Y-10279008D01*
X622205Y-10279008D02*
X631729Y-10288531D01*
X631729Y-10288531D02*
X641253Y-10307579D01*
X641253Y-10307579D02*
X641253Y-10326627D01*
X641253Y-10326627D02*
X631729Y-10355198D01*
X631729Y-10355198D02*
X517443Y-10469484D01*
X517443Y-10469484D02*
X641253Y-10469484D01*
X765062Y-10269484D02*
X784110Y-10269484D01*
X784110Y-10269484D02*
X803158Y-10279008D01*
X803158Y-10279008D02*
X812682Y-10288531D01*
X812682Y-10288531D02*
X822205Y-10307579D01*
X822205Y-10307579D02*
X831729Y-10345674D01*
X831729Y-10345674D02*
X831729Y-10393293D01*
X831729Y-10393293D02*
X822205Y-10431389D01*
X822205Y-10431389D02*
X812682Y-10450436D01*
X812682Y-10450436D02*
X803158Y-10459960D01*
X803158Y-10459960D02*
X784110Y-10469484D01*
X784110Y-10469484D02*
X765062Y-10469484D01*
X765062Y-10469484D02*
X746015Y-10459960D01*
X746015Y-10459960D02*
X736491Y-10450436D01*
X736491Y-10450436D02*
X726967Y-10431389D01*
X726967Y-10431389D02*
X717443Y-10393293D01*
X717443Y-10393293D02*
X717443Y-10345674D01*
X717443Y-10345674D02*
X726967Y-10307579D01*
X726967Y-10307579D02*
X736491Y-10288531D01*
X736491Y-10288531D02*
X746015Y-10279008D01*
X746015Y-10279008D02*
X765062Y-10269484D01*
X955539Y-10269484D02*
X974586Y-10269484D01*
X974586Y-10269484D02*
X993634Y-10279008D01*
X993634Y-10279008D02*
X1003158Y-10288531D01*
X1003158Y-10288531D02*
X1012682Y-10307579D01*
X1012682Y-10307579D02*
X1022205Y-10345674D01*
X1022205Y-10345674D02*
X1022205Y-10393293D01*
X1022205Y-10393293D02*
X1012682Y-10431389D01*
X1012682Y-10431389D02*
X1003158Y-10450436D01*
X1003158Y-10450436D02*
X993634Y-10459960D01*
X993634Y-10459960D02*
X974586Y-10469484D01*
X974586Y-10469484D02*
X955539Y-10469484D01*
X955539Y-10469484D02*
X936491Y-10459960D01*
X936491Y-10459960D02*
X926967Y-10450436D01*
X926967Y-10450436D02*
X917443Y-10431389D01*
X917443Y-10431389D02*
X907920Y-10393293D01*
X907920Y-10393293D02*
X907920Y-10345674D01*
X907920Y-10345674D02*
X917443Y-10307579D01*
X917443Y-10307579D02*
X926967Y-10288531D01*
X926967Y-10288531D02*
X936491Y-10279008D01*
X936491Y-10279008D02*
X955539Y-10269484D01*
X1107920Y-10469484D02*
X1107920Y-10336150D01*
X1107920Y-10355198D02*
X1117444Y-10345674D01*
X1117444Y-10345674D02*
X1136491Y-10336150D01*
X1136491Y-10336150D02*
X1165063Y-10336150D01*
X1165063Y-10336150D02*
X1184110Y-10345674D01*
X1184110Y-10345674D02*
X1193634Y-10364722D01*
X1193634Y-10364722D02*
X1193634Y-10469484D01*
X1193634Y-10364722D02*
X1203158Y-10345674D01*
X1203158Y-10345674D02*
X1222205Y-10336150D01*
X1222205Y-10336150D02*
X1250777Y-10336150D01*
X1250777Y-10336150D02*
X1269825Y-10345674D01*
X1269825Y-10345674D02*
X1279348Y-10364722D01*
X1279348Y-10364722D02*
X1279348Y-10469484D01*
X1374586Y-10469484D02*
X1374586Y-10336150D01*
X1374586Y-10355198D02*
X1384110Y-10345674D01*
X1384110Y-10345674D02*
X1403158Y-10336150D01*
X1403158Y-10336150D02*
X1431729Y-10336150D01*
X1431729Y-10336150D02*
X1450777Y-10345674D01*
X1450777Y-10345674D02*
X1460301Y-10364722D01*
X1460301Y-10364722D02*
X1460301Y-10469484D01*
X1460301Y-10364722D02*
X1469824Y-10345674D01*
X1469824Y-10345674D02*
X1488872Y-10336150D01*
X1488872Y-10336150D02*
X1517443Y-10336150D01*
X1517443Y-10336150D02*
X1536491Y-10345674D01*
X1536491Y-10345674D02*
X1546015Y-10364722D01*
X1546015Y-10364722D02*
X1546015Y-10469484D01*
X1936491Y-10259960D02*
X1765063Y-10517103D01*
X2193634Y-10269484D02*
X2212682Y-10269484D01*
X2212682Y-10269484D02*
X2231729Y-10279008D01*
X2231729Y-10279008D02*
X2241253Y-10288531D01*
X2241253Y-10288531D02*
X2250777Y-10307579D01*
X2250777Y-10307579D02*
X2260301Y-10345674D01*
X2260301Y-10345674D02*
X2260301Y-10393293D01*
X2260301Y-10393293D02*
X2250777Y-10431389D01*
X2250777Y-10431389D02*
X2241253Y-10450436D01*
X2241253Y-10450436D02*
X2231729Y-10459960D01*
X2231729Y-10459960D02*
X2212682Y-10469484D01*
X2212682Y-10469484D02*
X2193634Y-10469484D01*
X2193634Y-10469484D02*
X2174587Y-10459960D01*
X2174587Y-10459960D02*
X2165063Y-10450436D01*
X2165063Y-10450436D02*
X2155539Y-10431389D01*
X2155539Y-10431389D02*
X2146015Y-10393293D01*
X2146015Y-10393293D02*
X2146015Y-10345674D01*
X2146015Y-10345674D02*
X2155539Y-10307579D01*
X2155539Y-10307579D02*
X2165063Y-10288531D01*
X2165063Y-10288531D02*
X2174587Y-10279008D01*
X2174587Y-10279008D02*
X2193634Y-10269484D01*
X2346015Y-10450436D02*
X2355539Y-10459960D01*
X2355539Y-10459960D02*
X2346015Y-10469484D01*
X2346015Y-10469484D02*
X2336491Y-10459960D01*
X2336491Y-10459960D02*
X2346015Y-10450436D01*
X2346015Y-10450436D02*
X2346015Y-10469484D01*
X2546015Y-10469484D02*
X2431729Y-10469484D01*
X2488872Y-10469484D02*
X2488872Y-10269484D01*
X2488872Y-10269484D02*
X2469825Y-10298055D01*
X2469825Y-10298055D02*
X2450777Y-10317103D01*
X2450777Y-10317103D02*
X2431729Y-10326627D01*
X2622206Y-10288531D02*
X2631729Y-10279008D01*
X2631729Y-10279008D02*
X2650777Y-10269484D01*
X2650777Y-10269484D02*
X2698396Y-10269484D01*
X2698396Y-10269484D02*
X2717444Y-10279008D01*
X2717444Y-10279008D02*
X2726968Y-10288531D01*
X2726968Y-10288531D02*
X2736491Y-10307579D01*
X2736491Y-10307579D02*
X2736491Y-10326627D01*
X2736491Y-10326627D02*
X2726968Y-10355198D01*
X2726968Y-10355198D02*
X2612682Y-10469484D01*
X2612682Y-10469484D02*
X2736491Y-10469484D01*
X2907920Y-10269484D02*
X2869825Y-10269484D01*
X2869825Y-10269484D02*
X2850777Y-10279008D01*
X2850777Y-10279008D02*
X2841253Y-10288531D01*
X2841253Y-10288531D02*
X2822206Y-10317103D01*
X2822206Y-10317103D02*
X2812682Y-10355198D01*
X2812682Y-10355198D02*
X2812682Y-10431389D01*
X2812682Y-10431389D02*
X2822206Y-10450436D01*
X2822206Y-10450436D02*
X2831729Y-10459960D01*
X2831729Y-10459960D02*
X2850777Y-10469484D01*
X2850777Y-10469484D02*
X2888872Y-10469484D01*
X2888872Y-10469484D02*
X2907920Y-10459960D01*
X2907920Y-10459960D02*
X2917444Y-10450436D01*
X2917444Y-10450436D02*
X2926967Y-10431389D01*
X2926967Y-10431389D02*
X2926967Y-10383770D01*
X2926967Y-10383770D02*
X2917444Y-10364722D01*
X2917444Y-10364722D02*
X2907920Y-10355198D01*
X2907920Y-10355198D02*
X2888872Y-10345674D01*
X2888872Y-10345674D02*
X2850777Y-10345674D01*
X2850777Y-10345674D02*
X2831729Y-10355198D01*
X2831729Y-10355198D02*
X2822206Y-10364722D01*
X2822206Y-10364722D02*
X2812682Y-10383770D01*
X3050777Y-10269484D02*
X3069825Y-10269484D01*
X3069825Y-10269484D02*
X3088872Y-10279008D01*
X3088872Y-10279008D02*
X3098396Y-10288531D01*
X3098396Y-10288531D02*
X3107920Y-10307579D01*
X3107920Y-10307579D02*
X3117444Y-10345674D01*
X3117444Y-10345674D02*
X3117444Y-10393293D01*
X3117444Y-10393293D02*
X3107920Y-10431389D01*
X3107920Y-10431389D02*
X3098396Y-10450436D01*
X3098396Y-10450436D02*
X3088872Y-10459960D01*
X3088872Y-10459960D02*
X3069825Y-10469484D01*
X3069825Y-10469484D02*
X3050777Y-10469484D01*
X3050777Y-10469484D02*
X3031729Y-10459960D01*
X3031729Y-10459960D02*
X3022206Y-10450436D01*
X3022206Y-10450436D02*
X3012682Y-10431389D01*
X3012682Y-10431389D02*
X3003158Y-10393293D01*
X3003158Y-10393293D02*
X3003158Y-10345674D01*
X3003158Y-10345674D02*
X3012682Y-10307579D01*
X3012682Y-10307579D02*
X3022206Y-10288531D01*
X3022206Y-10288531D02*
X3031729Y-10279008D01*
X3031729Y-10279008D02*
X3050777Y-10269484D01*
X3193634Y-10269484D02*
X3193634Y-10307579D01*
X3269825Y-10269484D02*
X3269825Y-10307579D01*
X3565063Y-10545674D02*
X3555539Y-10536150D01*
X3555539Y-10536150D02*
X3536491Y-10507579D01*
X3536491Y-10507579D02*
X3526968Y-10488531D01*
X3526968Y-10488531D02*
X3517444Y-10459960D01*
X3517444Y-10459960D02*
X3507920Y-10412341D01*
X3507920Y-10412341D02*
X3507920Y-10374246D01*
X3507920Y-10374246D02*
X3517444Y-10326627D01*
X3517444Y-10326627D02*
X3526968Y-10298055D01*
X3526968Y-10298055D02*
X3536491Y-10279008D01*
X3536491Y-10279008D02*
X3555539Y-10250436D01*
X3555539Y-10250436D02*
X3565063Y-10240912D01*
X3631729Y-10288531D02*
X3641253Y-10279008D01*
X3641253Y-10279008D02*
X3660301Y-10269484D01*
X3660301Y-10269484D02*
X3707920Y-10269484D01*
X3707920Y-10269484D02*
X3726968Y-10279008D01*
X3726968Y-10279008D02*
X3736491Y-10288531D01*
X3736491Y-10288531D02*
X3746015Y-10307579D01*
X3746015Y-10307579D02*
X3746015Y-10326627D01*
X3746015Y-10326627D02*
X3736491Y-10355198D01*
X3736491Y-10355198D02*
X3622206Y-10469484D01*
X3622206Y-10469484D02*
X3746015Y-10469484D01*
X3984110Y-10469484D02*
X3984110Y-10269484D01*
X4069825Y-10469484D02*
X4069825Y-10364722D01*
X4069825Y-10364722D02*
X4060301Y-10345674D01*
X4060301Y-10345674D02*
X4041253Y-10336150D01*
X4041253Y-10336150D02*
X4012682Y-10336150D01*
X4012682Y-10336150D02*
X3993634Y-10345674D01*
X3993634Y-10345674D02*
X3984110Y-10355198D01*
X4193634Y-10469484D02*
X4174587Y-10459960D01*
X4174587Y-10459960D02*
X4165063Y-10450436D01*
X4165063Y-10450436D02*
X4155539Y-10431389D01*
X4155539Y-10431389D02*
X4155539Y-10374246D01*
X4155539Y-10374246D02*
X4165063Y-10355198D01*
X4165063Y-10355198D02*
X4174587Y-10345674D01*
X4174587Y-10345674D02*
X4193634Y-10336150D01*
X4193634Y-10336150D02*
X4222206Y-10336150D01*
X4222206Y-10336150D02*
X4241253Y-10345674D01*
X4241253Y-10345674D02*
X4250777Y-10355198D01*
X4250777Y-10355198D02*
X4260301Y-10374246D01*
X4260301Y-10374246D02*
X4260301Y-10431389D01*
X4260301Y-10431389D02*
X4250777Y-10450436D01*
X4250777Y-10450436D02*
X4241253Y-10459960D01*
X4241253Y-10459960D02*
X4222206Y-10469484D01*
X4222206Y-10469484D02*
X4193634Y-10469484D01*
X4374587Y-10469484D02*
X4355539Y-10459960D01*
X4355539Y-10459960D02*
X4346015Y-10440912D01*
X4346015Y-10440912D02*
X4346015Y-10269484D01*
X4526968Y-10459960D02*
X4507920Y-10469484D01*
X4507920Y-10469484D02*
X4469825Y-10469484D01*
X4469825Y-10469484D02*
X4450777Y-10459960D01*
X4450777Y-10459960D02*
X4441253Y-10440912D01*
X4441253Y-10440912D02*
X4441253Y-10364722D01*
X4441253Y-10364722D02*
X4450777Y-10345674D01*
X4450777Y-10345674D02*
X4469825Y-10336150D01*
X4469825Y-10336150D02*
X4507920Y-10336150D01*
X4507920Y-10336150D02*
X4526968Y-10345674D01*
X4526968Y-10345674D02*
X4536492Y-10364722D01*
X4536492Y-10364722D02*
X4536492Y-10383770D01*
X4536492Y-10383770D02*
X4441253Y-10402817D01*
X4612682Y-10459960D02*
X4631730Y-10469484D01*
X4631730Y-10469484D02*
X4669825Y-10469484D01*
X4669825Y-10469484D02*
X4688873Y-10459960D01*
X4688873Y-10459960D02*
X4698396Y-10440912D01*
X4698396Y-10440912D02*
X4698396Y-10431389D01*
X4698396Y-10431389D02*
X4688873Y-10412341D01*
X4688873Y-10412341D02*
X4669825Y-10402817D01*
X4669825Y-10402817D02*
X4641253Y-10402817D01*
X4641253Y-10402817D02*
X4622206Y-10393293D01*
X4622206Y-10393293D02*
X4612682Y-10374246D01*
X4612682Y-10374246D02*
X4612682Y-10364722D01*
X4612682Y-10364722D02*
X4622206Y-10345674D01*
X4622206Y-10345674D02*
X4641253Y-10336150D01*
X4641253Y-10336150D02*
X4669825Y-10336150D01*
X4669825Y-10336150D02*
X4688873Y-10345674D01*
X4765063Y-10545674D02*
X4774587Y-10536150D01*
X4774587Y-10536150D02*
X4793634Y-10507579D01*
X4793634Y-10507579D02*
X4803158Y-10488531D01*
X4803158Y-10488531D02*
X4812682Y-10459960D01*
X4812682Y-10459960D02*
X4822206Y-10412341D01*
X4822206Y-10412341D02*
X4822206Y-10374246D01*
X4822206Y-10374246D02*
X4812682Y-10326627D01*
X4812682Y-10326627D02*
X4803158Y-10298055D01*
X4803158Y-10298055D02*
X4793634Y-10279008D01*
X4793634Y-10279008D02*
X4774587Y-10250436D01*
X4774587Y-10250436D02*
X4765063Y-10240912D01*
X-39289Y-10768711D02*
X-39289Y-10627289D01*
X-180711Y-10627289D01*
X-180711Y-10768711D01*
X-39289Y-10768711D01*
X231729Y-10589484D02*
X355539Y-10589484D01*
X355539Y-10589484D02*
X288872Y-10665674D01*
X288872Y-10665674D02*
X317444Y-10665674D01*
X317444Y-10665674D02*
X336491Y-10675198D01*
X336491Y-10675198D02*
X346015Y-10684722D01*
X346015Y-10684722D02*
X355539Y-10703770D01*
X355539Y-10703770D02*
X355539Y-10751389D01*
X355539Y-10751389D02*
X346015Y-10770436D01*
X346015Y-10770436D02*
X336491Y-10779960D01*
X336491Y-10779960D02*
X317444Y-10789484D01*
X317444Y-10789484D02*
X260301Y-10789484D01*
X260301Y-10789484D02*
X241253Y-10779960D01*
X241253Y-10779960D02*
X231729Y-10770436D01*
X441253Y-10770436D02*
X450777Y-10779960D01*
X450777Y-10779960D02*
X441253Y-10789484D01*
X441253Y-10789484D02*
X431729Y-10779960D01*
X431729Y-10779960D02*
X441253Y-10770436D01*
X441253Y-10770436D02*
X441253Y-10789484D01*
X631729Y-10589484D02*
X536491Y-10589484D01*
X536491Y-10589484D02*
X526967Y-10684722D01*
X526967Y-10684722D02*
X536491Y-10675198D01*
X536491Y-10675198D02*
X555539Y-10665674D01*
X555539Y-10665674D02*
X603158Y-10665674D01*
X603158Y-10665674D02*
X622205Y-10675198D01*
X622205Y-10675198D02*
X631729Y-10684722D01*
X631729Y-10684722D02*
X641253Y-10703770D01*
X641253Y-10703770D02*
X641253Y-10751389D01*
X641253Y-10751389D02*
X631729Y-10770436D01*
X631729Y-10770436D02*
X622205Y-10779960D01*
X622205Y-10779960D02*
X603158Y-10789484D01*
X603158Y-10789484D02*
X555539Y-10789484D01*
X555539Y-10789484D02*
X536491Y-10779960D01*
X536491Y-10779960D02*
X526967Y-10770436D01*
X765062Y-10589484D02*
X784110Y-10589484D01*
X784110Y-10589484D02*
X803158Y-10599008D01*
X803158Y-10599008D02*
X812682Y-10608531D01*
X812682Y-10608531D02*
X822205Y-10627579D01*
X822205Y-10627579D02*
X831729Y-10665674D01*
X831729Y-10665674D02*
X831729Y-10713293D01*
X831729Y-10713293D02*
X822205Y-10751389D01*
X822205Y-10751389D02*
X812682Y-10770436D01*
X812682Y-10770436D02*
X803158Y-10779960D01*
X803158Y-10779960D02*
X784110Y-10789484D01*
X784110Y-10789484D02*
X765062Y-10789484D01*
X765062Y-10789484D02*
X746015Y-10779960D01*
X746015Y-10779960D02*
X736491Y-10770436D01*
X736491Y-10770436D02*
X726967Y-10751389D01*
X726967Y-10751389D02*
X717443Y-10713293D01*
X717443Y-10713293D02*
X717443Y-10665674D01*
X717443Y-10665674D02*
X726967Y-10627579D01*
X726967Y-10627579D02*
X736491Y-10608531D01*
X736491Y-10608531D02*
X746015Y-10599008D01*
X746015Y-10599008D02*
X765062Y-10589484D01*
X955539Y-10589484D02*
X974586Y-10589484D01*
X974586Y-10589484D02*
X993634Y-10599008D01*
X993634Y-10599008D02*
X1003158Y-10608531D01*
X1003158Y-10608531D02*
X1012682Y-10627579D01*
X1012682Y-10627579D02*
X1022205Y-10665674D01*
X1022205Y-10665674D02*
X1022205Y-10713293D01*
X1022205Y-10713293D02*
X1012682Y-10751389D01*
X1012682Y-10751389D02*
X1003158Y-10770436D01*
X1003158Y-10770436D02*
X993634Y-10779960D01*
X993634Y-10779960D02*
X974586Y-10789484D01*
X974586Y-10789484D02*
X955539Y-10789484D01*
X955539Y-10789484D02*
X936491Y-10779960D01*
X936491Y-10779960D02*
X926967Y-10770436D01*
X926967Y-10770436D02*
X917443Y-10751389D01*
X917443Y-10751389D02*
X907920Y-10713293D01*
X907920Y-10713293D02*
X907920Y-10665674D01*
X907920Y-10665674D02*
X917443Y-10627579D01*
X917443Y-10627579D02*
X926967Y-10608531D01*
X926967Y-10608531D02*
X936491Y-10599008D01*
X936491Y-10599008D02*
X955539Y-10589484D01*
X1107920Y-10789484D02*
X1107920Y-10656150D01*
X1107920Y-10675198D02*
X1117444Y-10665674D01*
X1117444Y-10665674D02*
X1136491Y-10656150D01*
X1136491Y-10656150D02*
X1165063Y-10656150D01*
X1165063Y-10656150D02*
X1184110Y-10665674D01*
X1184110Y-10665674D02*
X1193634Y-10684722D01*
X1193634Y-10684722D02*
X1193634Y-10789484D01*
X1193634Y-10684722D02*
X1203158Y-10665674D01*
X1203158Y-10665674D02*
X1222205Y-10656150D01*
X1222205Y-10656150D02*
X1250777Y-10656150D01*
X1250777Y-10656150D02*
X1269825Y-10665674D01*
X1269825Y-10665674D02*
X1279348Y-10684722D01*
X1279348Y-10684722D02*
X1279348Y-10789484D01*
X1374586Y-10789484D02*
X1374586Y-10656150D01*
X1374586Y-10675198D02*
X1384110Y-10665674D01*
X1384110Y-10665674D02*
X1403158Y-10656150D01*
X1403158Y-10656150D02*
X1431729Y-10656150D01*
X1431729Y-10656150D02*
X1450777Y-10665674D01*
X1450777Y-10665674D02*
X1460301Y-10684722D01*
X1460301Y-10684722D02*
X1460301Y-10789484D01*
X1460301Y-10684722D02*
X1469824Y-10665674D01*
X1469824Y-10665674D02*
X1488872Y-10656150D01*
X1488872Y-10656150D02*
X1517443Y-10656150D01*
X1517443Y-10656150D02*
X1536491Y-10665674D01*
X1536491Y-10665674D02*
X1546015Y-10684722D01*
X1546015Y-10684722D02*
X1546015Y-10789484D01*
X1936491Y-10579960D02*
X1765063Y-10837103D01*
X2193634Y-10589484D02*
X2212682Y-10589484D01*
X2212682Y-10589484D02*
X2231729Y-10599008D01*
X2231729Y-10599008D02*
X2241253Y-10608531D01*
X2241253Y-10608531D02*
X2250777Y-10627579D01*
X2250777Y-10627579D02*
X2260301Y-10665674D01*
X2260301Y-10665674D02*
X2260301Y-10713293D01*
X2260301Y-10713293D02*
X2250777Y-10751389D01*
X2250777Y-10751389D02*
X2241253Y-10770436D01*
X2241253Y-10770436D02*
X2231729Y-10779960D01*
X2231729Y-10779960D02*
X2212682Y-10789484D01*
X2212682Y-10789484D02*
X2193634Y-10789484D01*
X2193634Y-10789484D02*
X2174587Y-10779960D01*
X2174587Y-10779960D02*
X2165063Y-10770436D01*
X2165063Y-10770436D02*
X2155539Y-10751389D01*
X2155539Y-10751389D02*
X2146015Y-10713293D01*
X2146015Y-10713293D02*
X2146015Y-10665674D01*
X2146015Y-10665674D02*
X2155539Y-10627579D01*
X2155539Y-10627579D02*
X2165063Y-10608531D01*
X2165063Y-10608531D02*
X2174587Y-10599008D01*
X2174587Y-10599008D02*
X2193634Y-10589484D01*
X2346015Y-10770436D02*
X2355539Y-10779960D01*
X2355539Y-10779960D02*
X2346015Y-10789484D01*
X2346015Y-10789484D02*
X2336491Y-10779960D01*
X2336491Y-10779960D02*
X2346015Y-10770436D01*
X2346015Y-10770436D02*
X2346015Y-10789484D01*
X2546015Y-10789484D02*
X2431729Y-10789484D01*
X2488872Y-10789484D02*
X2488872Y-10589484D01*
X2488872Y-10589484D02*
X2469825Y-10618055D01*
X2469825Y-10618055D02*
X2450777Y-10637103D01*
X2450777Y-10637103D02*
X2431729Y-10646627D01*
X2612682Y-10589484D02*
X2736491Y-10589484D01*
X2736491Y-10589484D02*
X2669825Y-10665674D01*
X2669825Y-10665674D02*
X2698396Y-10665674D01*
X2698396Y-10665674D02*
X2717444Y-10675198D01*
X2717444Y-10675198D02*
X2726968Y-10684722D01*
X2726968Y-10684722D02*
X2736491Y-10703770D01*
X2736491Y-10703770D02*
X2736491Y-10751389D01*
X2736491Y-10751389D02*
X2726968Y-10770436D01*
X2726968Y-10770436D02*
X2717444Y-10779960D01*
X2717444Y-10779960D02*
X2698396Y-10789484D01*
X2698396Y-10789484D02*
X2641253Y-10789484D01*
X2641253Y-10789484D02*
X2622206Y-10779960D01*
X2622206Y-10779960D02*
X2612682Y-10770436D01*
X2803158Y-10589484D02*
X2936491Y-10589484D01*
X2936491Y-10589484D02*
X2850777Y-10789484D01*
X3041253Y-10675198D02*
X3022206Y-10665674D01*
X3022206Y-10665674D02*
X3012682Y-10656150D01*
X3012682Y-10656150D02*
X3003158Y-10637103D01*
X3003158Y-10637103D02*
X3003158Y-10627579D01*
X3003158Y-10627579D02*
X3012682Y-10608531D01*
X3012682Y-10608531D02*
X3022206Y-10599008D01*
X3022206Y-10599008D02*
X3041253Y-10589484D01*
X3041253Y-10589484D02*
X3079348Y-10589484D01*
X3079348Y-10589484D02*
X3098396Y-10599008D01*
X3098396Y-10599008D02*
X3107920Y-10608531D01*
X3107920Y-10608531D02*
X3117444Y-10627579D01*
X3117444Y-10627579D02*
X3117444Y-10637103D01*
X3117444Y-10637103D02*
X3107920Y-10656150D01*
X3107920Y-10656150D02*
X3098396Y-10665674D01*
X3098396Y-10665674D02*
X3079348Y-10675198D01*
X3079348Y-10675198D02*
X3041253Y-10675198D01*
X3041253Y-10675198D02*
X3022206Y-10684722D01*
X3022206Y-10684722D02*
X3012682Y-10694246D01*
X3012682Y-10694246D02*
X3003158Y-10713293D01*
X3003158Y-10713293D02*
X3003158Y-10751389D01*
X3003158Y-10751389D02*
X3012682Y-10770436D01*
X3012682Y-10770436D02*
X3022206Y-10779960D01*
X3022206Y-10779960D02*
X3041253Y-10789484D01*
X3041253Y-10789484D02*
X3079348Y-10789484D01*
X3079348Y-10789484D02*
X3098396Y-10779960D01*
X3098396Y-10779960D02*
X3107920Y-10770436D01*
X3107920Y-10770436D02*
X3117444Y-10751389D01*
X3117444Y-10751389D02*
X3117444Y-10713293D01*
X3117444Y-10713293D02*
X3107920Y-10694246D01*
X3107920Y-10694246D02*
X3098396Y-10684722D01*
X3098396Y-10684722D02*
X3079348Y-10675198D01*
X3193634Y-10589484D02*
X3193634Y-10627579D01*
X3269825Y-10589484D02*
X3269825Y-10627579D01*
X3565063Y-10865674D02*
X3555539Y-10856150D01*
X3555539Y-10856150D02*
X3536491Y-10827579D01*
X3536491Y-10827579D02*
X3526968Y-10808531D01*
X3526968Y-10808531D02*
X3517444Y-10779960D01*
X3517444Y-10779960D02*
X3507920Y-10732341D01*
X3507920Y-10732341D02*
X3507920Y-10694246D01*
X3507920Y-10694246D02*
X3517444Y-10646627D01*
X3517444Y-10646627D02*
X3526968Y-10618055D01*
X3526968Y-10618055D02*
X3536491Y-10599008D01*
X3536491Y-10599008D02*
X3555539Y-10570436D01*
X3555539Y-10570436D02*
X3565063Y-10560912D01*
X3726968Y-10589484D02*
X3688872Y-10589484D01*
X3688872Y-10589484D02*
X3669825Y-10599008D01*
X3669825Y-10599008D02*
X3660301Y-10608531D01*
X3660301Y-10608531D02*
X3641253Y-10637103D01*
X3641253Y-10637103D02*
X3631729Y-10675198D01*
X3631729Y-10675198D02*
X3631729Y-10751389D01*
X3631729Y-10751389D02*
X3641253Y-10770436D01*
X3641253Y-10770436D02*
X3650777Y-10779960D01*
X3650777Y-10779960D02*
X3669825Y-10789484D01*
X3669825Y-10789484D02*
X3707920Y-10789484D01*
X3707920Y-10789484D02*
X3726968Y-10779960D01*
X3726968Y-10779960D02*
X3736491Y-10770436D01*
X3736491Y-10770436D02*
X3746015Y-10751389D01*
X3746015Y-10751389D02*
X3746015Y-10703770D01*
X3746015Y-10703770D02*
X3736491Y-10684722D01*
X3736491Y-10684722D02*
X3726968Y-10675198D01*
X3726968Y-10675198D02*
X3707920Y-10665674D01*
X3707920Y-10665674D02*
X3669825Y-10665674D01*
X3669825Y-10665674D02*
X3650777Y-10675198D01*
X3650777Y-10675198D02*
X3641253Y-10684722D01*
X3641253Y-10684722D02*
X3631729Y-10703770D01*
X3984110Y-10789484D02*
X3984110Y-10589484D01*
X4069825Y-10789484D02*
X4069825Y-10684722D01*
X4069825Y-10684722D02*
X4060301Y-10665674D01*
X4060301Y-10665674D02*
X4041253Y-10656150D01*
X4041253Y-10656150D02*
X4012682Y-10656150D01*
X4012682Y-10656150D02*
X3993634Y-10665674D01*
X3993634Y-10665674D02*
X3984110Y-10675198D01*
X4193634Y-10789484D02*
X4174587Y-10779960D01*
X4174587Y-10779960D02*
X4165063Y-10770436D01*
X4165063Y-10770436D02*
X4155539Y-10751389D01*
X4155539Y-10751389D02*
X4155539Y-10694246D01*
X4155539Y-10694246D02*
X4165063Y-10675198D01*
X4165063Y-10675198D02*
X4174587Y-10665674D01*
X4174587Y-10665674D02*
X4193634Y-10656150D01*
X4193634Y-10656150D02*
X4222206Y-10656150D01*
X4222206Y-10656150D02*
X4241253Y-10665674D01*
X4241253Y-10665674D02*
X4250777Y-10675198D01*
X4250777Y-10675198D02*
X4260301Y-10694246D01*
X4260301Y-10694246D02*
X4260301Y-10751389D01*
X4260301Y-10751389D02*
X4250777Y-10770436D01*
X4250777Y-10770436D02*
X4241253Y-10779960D01*
X4241253Y-10779960D02*
X4222206Y-10789484D01*
X4222206Y-10789484D02*
X4193634Y-10789484D01*
X4374587Y-10789484D02*
X4355539Y-10779960D01*
X4355539Y-10779960D02*
X4346015Y-10760912D01*
X4346015Y-10760912D02*
X4346015Y-10589484D01*
X4526968Y-10779960D02*
X4507920Y-10789484D01*
X4507920Y-10789484D02*
X4469825Y-10789484D01*
X4469825Y-10789484D02*
X4450777Y-10779960D01*
X4450777Y-10779960D02*
X4441253Y-10760912D01*
X4441253Y-10760912D02*
X4441253Y-10684722D01*
X4441253Y-10684722D02*
X4450777Y-10665674D01*
X4450777Y-10665674D02*
X4469825Y-10656150D01*
X4469825Y-10656150D02*
X4507920Y-10656150D01*
X4507920Y-10656150D02*
X4526968Y-10665674D01*
X4526968Y-10665674D02*
X4536492Y-10684722D01*
X4536492Y-10684722D02*
X4536492Y-10703770D01*
X4536492Y-10703770D02*
X4441253Y-10722817D01*
X4612682Y-10779960D02*
X4631730Y-10789484D01*
X4631730Y-10789484D02*
X4669825Y-10789484D01*
X4669825Y-10789484D02*
X4688873Y-10779960D01*
X4688873Y-10779960D02*
X4698396Y-10760912D01*
X4698396Y-10760912D02*
X4698396Y-10751389D01*
X4698396Y-10751389D02*
X4688873Y-10732341D01*
X4688873Y-10732341D02*
X4669825Y-10722817D01*
X4669825Y-10722817D02*
X4641253Y-10722817D01*
X4641253Y-10722817D02*
X4622206Y-10713293D01*
X4622206Y-10713293D02*
X4612682Y-10694246D01*
X4612682Y-10694246D02*
X4612682Y-10684722D01*
X4612682Y-10684722D02*
X4622206Y-10665674D01*
X4622206Y-10665674D02*
X4641253Y-10656150D01*
X4641253Y-10656150D02*
X4669825Y-10656150D01*
X4669825Y-10656150D02*
X4688873Y-10665674D01*
X4765063Y-10865674D02*
X4774587Y-10856150D01*
X4774587Y-10856150D02*
X4793634Y-10827579D01*
X4793634Y-10827579D02*
X4803158Y-10808531D01*
X4803158Y-10808531D02*
X4812682Y-10779960D01*
X4812682Y-10779960D02*
X4822206Y-10732341D01*
X4822206Y-10732341D02*
X4822206Y-10694246D01*
X4822206Y-10694246D02*
X4812682Y-10646627D01*
X4812682Y-10646627D02*
X4803158Y-10618055D01*
X4803158Y-10618055D02*
X4793634Y-10599008D01*
X4793634Y-10599008D02*
X4774587Y-10570436D01*
X4774587Y-10570436D02*
X4765063Y-10560912D01*
M02*
