M48
; DRILL file {KiCad 9.0.5} date 2026-05-14T14:06:04-0300
; FORMAT={-:-/ absolute / metric / decimal}
; #@! TF.CreationDate,2026-05-14T14:06:04-03:00
; #@! TF.GenerationSoftware,Kicad,Pcbnew,9.0.5
; #@! TF.FileFunction,MixedPlating,1,2
FMAT,2
METRIC
; #@! TA.AperFunction,Plated,PTH,ComponentDrill
T1C1.000
; #@! TA.AperFunction,Plated,PTH,ComponentDrill
T2C1.040
%
G90
G05
T1
X89.0Y-15.0
X89.0Y-17.5
X89.0Y-63.0
X89.0Y-65.5
T2
G00X16.0Y-4.73
M15
G01X16.0Y-4.27
M16
G05
G00X16.0Y-87.73
M15
G01X16.0Y-87.27
M16
G05
G00X36.0Y-4.73
M15
G01X36.0Y-4.27
M16
G05
G00X36.0Y-87.73
M15
G01X36.0Y-87.27
M16
G05
G00X56.0Y-4.73
M15
G01X56.0Y-4.27
M16
G05
G00X56.0Y-87.73
M15
G01X56.0Y-87.27
M16
G05
G00X76.0Y-4.7
M15
G01X76.0Y-4.24
M16
G05
G00X76.0Y-87.73
M15
G01X76.0Y-87.27
M16
G05
M30
