M48
; DRILL file {KiCad 9.0.5} date 2026-05-14T14:25:31-0300
; FORMAT={-:-/ absolute / metric / decimal}
; #@! TF.CreationDate,2026-05-14T14:25:31-03:00
; #@! TF.GenerationSoftware,Kicad,Pcbnew,9.0.5
; #@! TF.FileFunction,MixedPlating,1,2
FMAT,2
METRIC
; #@! TA.AperFunction,Plated,PTH,ComponentDrill
T1C1.000
; #@! TA.AperFunction,Plated,PTH,ComponentDrill
T2C1.040
; #@! TA.AperFunction,Plated,PTH,ComponentDrill
T3C3.200
; #@! TA.AperFunction,Plated,PTH,ComponentDrill
T4C3.500
%
G90
G05
T1
X89.0Y-15.0
X89.0Y-17.5
X89.0Y-63.0
X89.0Y-65.5
T3
X26.09Y-18.37
X65.91Y-18.37
T4
X4.0Y-4.0
X4.0Y-88.0
X26.09Y-73.63
X65.91Y-73.63
X88.0Y-4.0
X88.0Y-88.0
T2
G00X16.0Y-4.73
M15
G01X16.0Y-4.27
M16
G05
G00X16.0Y-87.73
M15
G01X16.0Y-87.27
M16
G05
G00X36.0Y-4.73
M15
G01X36.0Y-4.27
M16
G05
G00X36.0Y-87.73
M15
G01X36.0Y-87.27
M16
G05
G00X56.0Y-4.73
M15
G01X56.0Y-4.27
M16
G05
G00X56.0Y-87.73
M15
G01X56.0Y-87.27
M16
G05
G00X76.0Y-4.7
M15
G01X76.0Y-4.24
M16
G05
G00X76.0Y-87.73
M15
G01X76.0Y-87.27
M16
G05
M30
