%TF.GenerationSoftware,KiCad,Pcbnew,9.0.5*%
%TF.CreationDate,2026-05-12T15:39:51-03:00*%
%TF.ProjectId,CubeSat_Battery,43756265-5361-4745-9f42-617474657279,rev?*%
%TF.SameCoordinates,Original*%
%TF.FileFunction,Copper,L2,Bot*%
%TF.FilePolarity,Positive*%
%FSLAX46Y46*%
G04 Gerber Fmt 4.6, Leading zero omitted, Abs format (unit mm)*
G04 Created by KiCad (PCBNEW 9.0.5) date 2026-05-12 15:39:51*
%MOMM*%
%LPD*%
G01*
G04 APERTURE LIST*
G04 Aperture macros list*
%AMRoundRect*
0 Rectangle with rounded corners*
0 $1 Rounding radius*
0 $2 $3 $4 $5 $6 $7 $8 $9 X,Y pos of 4 corners*
0 Add a 4 corners polygon primitive as box body*
4,1,4,$2,$3,$4,$5,$6,$7,$8,$9,$2,$3,0*
0 Add four circle primitives for the rounded corners*
1,1,$1+$1,$2,$3*
1,1,$1+$1,$4,$5*
1,1,$1+$1,$6,$7*
1,1,$1+$1,$8,$9*
0 Add four rect primitives between the rounded corners*
20,1,$1+$1,$2,$3,$4,$5,0*
20,1,$1+$1,$4,$5,$6,$7,0*
20,1,$1+$1,$6,$7,$8,$9,0*
20,1,$1+$1,$8,$9,$2,$3,0*%
G04 Aperture macros list end*
%TA.AperFunction,ComponentPad*%
%ADD10O,3.000000X3.000000*%
%TD*%
%TA.AperFunction,ComponentPad*%
%ADD11RoundRect,0.264706X0.635294X-0.635294X0.635294X0.635294X-0.635294X0.635294X-0.635294X-0.635294X0*%
%TD*%
%TA.AperFunction,ComponentPad*%
%ADD12O,2.000000X2.000000*%
%TD*%
%TA.AperFunction,Conductor*%
%ADD13C,1.000000*%
%TD*%
%TA.AperFunction,Conductor*%
%ADD14C,2.500000*%
%TD*%
%TA.AperFunction,Conductor*%
%ADD15C,2.000000*%
%TD*%
%TA.AperFunction,Conductor*%
%ADD16C,1.500000*%
%TD*%
%TA.AperFunction,Conductor*%
%ADD17C,0.500000*%
%TD*%
%TA.AperFunction,Conductor*%
%ADD18C,0.200000*%
%TD*%
G04 APERTURE END LIST*
D10*
%TO.P,U1,1,P1*%
%TO.N,Vcell_4.2V*%
X75230000Y-4470000D03*
%TO.P,U1,2,P2*%
X55230000Y-4500000D03*
%TO.P,U1,3,P3*%
X35230000Y-4500000D03*
%TO.P,U1,4,P4*%
X15230000Y-4500000D03*
%TO.P,U1,5,P5*%
%TO.N,GND*%
X75230000Y-87500000D03*
%TO.P,U1,6,P6*%
X55230000Y-87500000D03*
%TO.P,U1,7,P7*%
%TO.N,Vbat_8.4V*%
X35230000Y-87500000D03*
%TO.P,U1,8,P8*%
X15230000Y-87500000D03*
%TD*%
D11*
%TO.P,J2,1,Pin_1*%
%TO.N,Vbat_8.4V*%
X89090000Y-66140000D03*
D12*
%TO.P,J2,2,Pin_2*%
%TO.N,GND*%
X89090000Y-63640000D03*
%TD*%
D11*
%TO.P,J1,1,Pin_1*%
%TO.N,GND*%
X89180000Y-16680000D03*
D12*
%TO.P,J1,2,Pin_2*%
%TO.N,Vbat_8.4V*%
X89180000Y-14180000D03*
%TD*%
D13*
%TO.N,Vcell_4.2V*%
X15460000Y-4510000D02*
X15390000Y-4580000D01*
D14*
X75190000Y-4510000D02*
X15460000Y-4510000D01*
D15*
X75230000Y-4470000D02*
X75190000Y-4510000D01*
D16*
%TO.N,Vbat_8.4V*%
X83030000Y-88600000D02*
X83030000Y-76590000D01*
X35260000Y-87450000D02*
X72340000Y-50370000D01*
X80881000Y-90749000D02*
X83030000Y-88600000D01*
X86820000Y-11820000D02*
X89180000Y-14180000D01*
X39530000Y-87500000D02*
X42779000Y-90749000D01*
X35230000Y-87500000D02*
X35270000Y-87540000D01*
X89060000Y-70560000D02*
X89060000Y-66170000D01*
X72340000Y-20250000D02*
X80770000Y-11820000D01*
X83030000Y-76590000D02*
X89060000Y-70560000D01*
X72340000Y-50370000D02*
X72340000Y-20250000D01*
X80770000Y-11820000D02*
X86820000Y-11820000D01*
X42779000Y-90749000D02*
X80881000Y-90749000D01*
D14*
X15450000Y-87520000D02*
X35110000Y-87520000D01*
D16*
X89060000Y-66170000D02*
X89090000Y-66140000D01*
X35230000Y-87500000D02*
X39530000Y-87500000D01*
D14*
%TO.N,GND*%
X75150000Y-87580000D02*
X55390000Y-87580000D01*
D16*
X81330000Y-54230000D02*
X81330000Y-21010000D01*
X75230000Y-87500000D02*
X75190000Y-87460000D01*
X84510000Y-63640000D02*
X78050000Y-70100000D01*
X89090000Y-63640000D02*
X84510000Y-63640000D01*
X85660000Y-16680000D02*
X89180000Y-16680000D01*
X75190000Y-87460000D02*
X75190000Y-60370000D01*
X78050000Y-70100000D02*
X78050000Y-84750000D01*
X81330000Y-21010000D02*
X85660000Y-16680000D01*
X75300000Y-87500000D02*
X75230000Y-87500000D01*
D17*
X89340000Y-16330000D02*
X89330000Y-16320000D01*
D18*
X75230000Y-87500000D02*
X75130000Y-87500000D01*
D16*
X75190000Y-60370000D02*
X81330000Y-54230000D01*
X78050000Y-84750000D02*
X75300000Y-87500000D01*
%TD*%
M02*
