M48
; DRILL file {KiCad 9.0.5} date 2026-05-25T01:42:56-0300
; FORMAT={-:-/ absolute / metric / decimal}
; #@! TF.CreationDate,2026-05-25T01:42:56-03:00
; #@! TF.GenerationSoftware,Kicad,Pcbnew,9.0.5
; #@! TF.FileFunction,MixedPlating,1,2
FMAT,2
METRIC
; #@! TA.AperFunction,Plated,PTH,ComponentDrill
T1C0.800
; #@! TA.AperFunction,Plated,PTH,ComponentDrill
T2C0.850
; #@! TA.AperFunction,Plated,PTH,ComponentDrill
T3C0.900
; #@! TA.AperFunction,Plated,PTH,ComponentDrill
T4C0.950
; #@! TA.AperFunction,Plated,PTH,ComponentDrill
T5C1.000
; #@! TA.AperFunction,Plated,PTH,ComponentDrill
T6C1.040
; #@! TA.AperFunction,Plated,PTH,ComponentDrill
T7C3.500
%
G90
G05
T1
X37.12Y17.36
X37.12Y9.74
X40.93Y17.36
X40.93Y9.74
X45.68Y17.34
X45.68Y9.72
X45.85Y52.88
X45.91Y49.29
X49.43Y17.34
X49.43Y9.72
X52.9Y17.34
X52.9Y9.72
X53.47Y52.88
X53.53Y49.29
T2
X48.557Y58.99
X51.557Y58.99
T3
X34.69Y5.22
X37.23Y5.22
X41.905Y5.18
X44.445Y5.18
X50.355Y5.17
X52.895Y5.17
T4
X80.0Y67.0
X80.0Y64.5
X80.0Y62.0
X80.0Y53.9
X80.0Y51.4
X80.0Y48.9
X80.0Y46.4
X80.0Y43.9
X80.0Y41.4
X80.0Y38.9
X80.0Y36.4
T5
X37.37Y44.27
X42.37Y44.27
X46.58Y44.11
X49.12Y44.11
X51.66Y44.11
X76.26Y3.29
X81.26Y3.29
T6
X52.51Y37.74
X52.51Y35.2
X52.51Y32.66
X52.51Y30.12
X52.51Y27.58
X52.51Y25.04
X52.51Y22.5
X58.05Y58.16
X58.05Y55.62
X58.05Y53.08
X58.05Y50.54
X58.05Y48.0
X58.05Y45.46
X58.05Y42.92
X58.05Y40.38
X58.05Y37.84
X58.05Y35.3
X58.05Y32.76
X58.05Y30.22
X58.05Y27.68
X58.05Y25.14
X58.05Y22.6
X58.05Y20.06
X58.05Y17.52
X58.05Y14.98
X58.05Y12.44
X58.05Y9.9
X72.815Y80.955
X72.815Y78.415
X72.815Y75.875
X72.815Y73.335
X74.25Y58.16
X74.25Y55.62
X74.25Y53.08
X74.25Y50.54
X74.25Y48.0
X74.25Y45.46
X74.25Y42.92
X74.25Y40.38
X74.25Y37.84
X74.25Y35.3
X74.25Y32.76
X74.25Y30.22
X74.25Y27.68
X74.25Y25.14
X74.25Y22.6
X74.25Y20.06
X74.25Y17.52
X74.25Y14.98
X74.25Y12.44
X74.25Y9.9
X79.97Y28.82
X79.97Y26.28
X79.97Y23.74
X79.97Y21.2
X79.97Y18.66
X79.97Y16.12
X79.97Y13.58
X79.97Y11.04
T7
X4.0Y88.0
X4.0Y4.0
X88.0Y88.0
X88.0Y4.0
M30
