%TF.GenerationSoftware,KiCad,Pcbnew,9.0.5*%
%TF.CreationDate,2026-05-18T10:47:57-03:00*%
%TF.ProjectId,CubeSat_Main,43756265-5361-4745-9f4d-61696e2e6b69,rev?*%
%TF.SameCoordinates,Original*%
%TF.FileFunction,Drillmap*%
%TF.FilePolarity,Positive*%
%FSLAX45Y45*%
G04 Gerber Fmt 4.5, Leading zero omitted, Abs format (unit mm)*
G04 Created by KiCad (PCBNEW 9.0.5) date 2026-05-18 10:47:57*
%MOMM*%
%LPD*%
G01*
G04 APERTURE LIST*
%ADD10C,0.100000*%
%ADD11C,0.050000*%
%ADD12C,0.200000*%
%ADD13C,0.104000*%
%ADD14C,0.110000*%
G04 APERTURE END LIST*
D10*
X0Y0D02*
X0Y-9200000D01*
X9200000Y-9200000D02*
X0Y-9200000D01*
X9200000Y-5900000D02*
X8800000Y-5900000D01*
X9200000Y0D02*
X9200000Y-2100000D01*
X9200000Y0D02*
X0Y0D01*
D11*
X8975000Y-8800000D02*
G75*
G02*
X8625000Y-8800000I-175000J0D01*
G01*
X8625000Y-8800000D02*
G75*
G02*
X8975000Y-8800000I175000J0D01*
G01*
X8975000Y-400000D02*
G75*
G02*
X8625000Y-400000I-175000J0D01*
G01*
X8625000Y-400000D02*
G75*
G02*
X8975000Y-400000I175000J0D01*
G01*
X575000Y-400000D02*
G75*
G02*
X225000Y-400000I-175000J0D01*
G01*
X225000Y-400000D02*
G75*
G02*
X575000Y-400000I175000J0D01*
G01*
X575000Y-8800000D02*
G75*
G02*
X225000Y-8800000I-175000J0D01*
G01*
X225000Y-8800000D02*
G75*
G02*
X575000Y-8800000I175000J0D01*
G01*
D10*
X9200000Y-2100000D02*
X8800000Y-2100000D01*
X8800000Y-5900000D02*
X8800000Y-2100000D01*
X9200000Y-5900000D02*
X9200000Y-9200000D01*
D12*
D10*
X3672000Y-7424000D02*
X3752000Y-7504000D01*
X3752000Y-7424000D02*
X3672000Y-7504000D01*
X3672000Y-8186000D02*
X3752000Y-8266000D01*
X3752000Y-8186000D02*
X3672000Y-8266000D01*
X3708000Y-4196000D02*
X3788000Y-4276000D01*
X3788000Y-4196000D02*
X3708000Y-4276000D01*
X4053000Y-7424000D02*
X4133000Y-7504000D01*
X4133000Y-7424000D02*
X4053000Y-7504000D01*
X4053000Y-8186000D02*
X4133000Y-8266000D01*
X4133000Y-8186000D02*
X4053000Y-8266000D01*
X4208000Y-4196000D02*
X4288000Y-4276000D01*
X4288000Y-4196000D02*
X4208000Y-4276000D01*
X4528000Y-7426000D02*
X4608000Y-7506000D01*
X4608000Y-7426000D02*
X4528000Y-7506000D01*
X4528000Y-8188000D02*
X4608000Y-8268000D01*
X4608000Y-8188000D02*
X4528000Y-8268000D01*
X4551000Y-3837500D02*
X4631000Y-3917500D01*
X4631000Y-3837500D02*
X4551000Y-3917500D01*
X4557000Y-4196500D02*
X4637000Y-4276500D01*
X4637000Y-4196500D02*
X4557000Y-4276500D01*
X4903000Y-7426000D02*
X4983000Y-7506000D01*
X4983000Y-7426000D02*
X4903000Y-7506000D01*
X4903000Y-8188000D02*
X4983000Y-8268000D01*
X4983000Y-8188000D02*
X4903000Y-8268000D01*
X5250000Y-7426000D02*
X5330000Y-7506000D01*
X5330000Y-7426000D02*
X5250000Y-7506000D01*
X5250000Y-8188000D02*
X5330000Y-8268000D01*
X5330000Y-8188000D02*
X5250000Y-8268000D01*
X5313000Y-3837500D02*
X5393000Y-3917500D01*
X5393000Y-3837500D02*
X5313000Y-3917500D01*
X5319000Y-4196500D02*
X5399000Y-4276500D01*
X5399000Y-4196500D02*
X5319000Y-4276500D01*
X4898250Y-3301000D02*
G75*
G02*
X4813250Y-3301000I-42500J0D01*
G01*
X4813250Y-3301000D02*
G75*
G02*
X4898250Y-3301000I42500J0D01*
G01*
X5198250Y-3301000D02*
G75*
G02*
X5113250Y-3301000I-42500J0D01*
G01*
X5113250Y-3301000D02*
G75*
G02*
X5198250Y-3301000I42500J0D01*
G01*
X3469000Y-8633000D02*
X3469000Y-8723000D01*
X3424000Y-8678000D02*
X3514000Y-8678000D01*
X3723000Y-8633000D02*
X3723000Y-8723000D01*
X3678000Y-8678000D02*
X3768000Y-8678000D01*
X4190500Y-8637000D02*
X4190500Y-8727000D01*
X4145500Y-8682000D02*
X4235500Y-8682000D01*
X4444500Y-8637000D02*
X4444500Y-8727000D01*
X4399500Y-8682000D02*
X4489500Y-8682000D01*
X5035500Y-8638000D02*
X5035500Y-8728000D01*
X4990500Y-8683000D02*
X5080500Y-8683000D01*
X5289500Y-8638000D02*
X5289500Y-8728000D01*
X5244500Y-8683000D02*
X5334500Y-8683000D01*
X8033588Y-2533588D02*
X8033588Y-2466412D01*
X7966412Y-2466412D01*
X7966412Y-2533588D01*
X8033588Y-2533588D01*
X8033588Y-2783588D02*
X8033588Y-2716412D01*
X7966412Y-2716412D01*
X7966412Y-2783588D01*
X8033588Y-2783588D01*
X8033588Y-3033588D02*
X8033588Y-2966412D01*
X7966412Y-2966412D01*
X7966412Y-3033588D01*
X8033588Y-3033588D01*
X8033588Y-3843588D02*
X8033588Y-3776412D01*
X7966412Y-3776412D01*
X7966412Y-3843588D01*
X8033588Y-3843588D01*
X8033588Y-4093588D02*
X8033588Y-4026412D01*
X7966412Y-4026412D01*
X7966412Y-4093588D01*
X8033588Y-4093588D01*
X8033588Y-4343588D02*
X8033588Y-4276412D01*
X7966412Y-4276412D01*
X7966412Y-4343588D01*
X8033588Y-4343588D01*
X8033588Y-4593588D02*
X8033588Y-4526412D01*
X7966412Y-4526412D01*
X7966412Y-4593588D01*
X8033588Y-4593588D01*
X8033588Y-4843588D02*
X8033588Y-4776412D01*
X7966412Y-4776412D01*
X7966412Y-4843588D01*
X8033588Y-4843588D01*
X8033588Y-5093588D02*
X8033588Y-5026412D01*
X7966412Y-5026412D01*
X7966412Y-5093588D01*
X8033588Y-5093588D01*
X8033588Y-5343588D02*
X8033588Y-5276412D01*
X7966412Y-5276412D01*
X7966412Y-5343588D01*
X8033588Y-5343588D01*
X8033588Y-5593588D02*
X8033588Y-5526412D01*
X7966412Y-5526412D01*
X7966412Y-5593588D01*
X8033588Y-5593588D01*
X3151000Y-4279000D02*
X3201000Y-4229000D01*
X3151000Y-4179000D01*
X3101000Y-4229000D01*
X3151000Y-4279000D01*
X3151000Y-4533000D02*
X3201000Y-4483000D01*
X3151000Y-4433000D01*
X3101000Y-4483000D01*
X3151000Y-4533000D01*
X3151000Y-4787000D02*
X3201000Y-4737000D01*
X3151000Y-4687000D01*
X3101000Y-4737000D01*
X3151000Y-4787000D01*
X3536000Y-3258000D02*
X3586000Y-3208000D01*
X3536000Y-3158000D01*
X3486000Y-3208000D01*
X3536000Y-3258000D01*
X3737000Y-4823000D02*
X3787000Y-4773000D01*
X3737000Y-4723000D01*
X3687000Y-4773000D01*
X3737000Y-4823000D01*
X4237000Y-4823000D02*
X4287000Y-4773000D01*
X4237000Y-4723000D01*
X4187000Y-4773000D01*
X4237000Y-4823000D01*
X4286000Y-3258000D02*
X4336000Y-3208000D01*
X4286000Y-3158000D01*
X4236000Y-3208000D01*
X4286000Y-3258000D01*
X4658000Y-4839000D02*
X4708000Y-4789000D01*
X4658000Y-4739000D01*
X4608000Y-4789000D01*
X4658000Y-4839000D01*
X4912000Y-4839000D02*
X4962000Y-4789000D01*
X4912000Y-4739000D01*
X4862000Y-4789000D01*
X4912000Y-4839000D01*
X5166000Y-4839000D02*
X5216000Y-4789000D01*
X5166000Y-4739000D01*
X5116000Y-4789000D01*
X5166000Y-4839000D01*
X7717000Y-8891000D02*
X7767000Y-8841000D01*
X7717000Y-8791000D01*
X7667000Y-8841000D01*
X7717000Y-8891000D01*
X8217000Y-8891000D02*
X8267000Y-8841000D01*
X8217000Y-8791000D01*
X8167000Y-8841000D01*
X8217000Y-8891000D01*
D13*
X5199000Y-5374000D02*
X5303000Y-5478000D01*
X5303000Y-5374000D02*
X5199000Y-5478000D01*
X5303000Y-5426000D02*
G75*
G02*
X5199000Y-5426000I-52000J0D01*
G01*
X5199000Y-5426000D02*
G75*
G02*
X5303000Y-5426000I52000J0D01*
G01*
X5199000Y-5628000D02*
X5303000Y-5732000D01*
X5303000Y-5628000D02*
X5199000Y-5732000D01*
X5303000Y-5680000D02*
G75*
G02*
X5199000Y-5680000I-52000J0D01*
G01*
X5199000Y-5680000D02*
G75*
G02*
X5303000Y-5680000I52000J0D01*
G01*
X5199000Y-5882000D02*
X5303000Y-5986000D01*
X5303000Y-5882000D02*
X5199000Y-5986000D01*
X5303000Y-5934000D02*
G75*
G02*
X5199000Y-5934000I-52000J0D01*
G01*
X5199000Y-5934000D02*
G75*
G02*
X5303000Y-5934000I52000J0D01*
G01*
X5199000Y-6136000D02*
X5303000Y-6240000D01*
X5303000Y-6136000D02*
X5199000Y-6240000D01*
X5303000Y-6188000D02*
G75*
G02*
X5199000Y-6188000I-52000J0D01*
G01*
X5199000Y-6188000D02*
G75*
G02*
X5303000Y-6188000I52000J0D01*
G01*
X5199000Y-6390000D02*
X5303000Y-6494000D01*
X5303000Y-6390000D02*
X5199000Y-6494000D01*
X5303000Y-6442000D02*
G75*
G02*
X5199000Y-6442000I-52000J0D01*
G01*
X5199000Y-6442000D02*
G75*
G02*
X5303000Y-6442000I52000J0D01*
G01*
X5199000Y-6644000D02*
X5303000Y-6748000D01*
X5303000Y-6644000D02*
X5199000Y-6748000D01*
X5303000Y-6696000D02*
G75*
G02*
X5199000Y-6696000I-52000J0D01*
G01*
X5199000Y-6696000D02*
G75*
G02*
X5303000Y-6696000I52000J0D01*
G01*
X5199000Y-6898000D02*
X5303000Y-7002000D01*
X5303000Y-6898000D02*
X5199000Y-7002000D01*
X5303000Y-6950000D02*
G75*
G02*
X5199000Y-6950000I-52000J0D01*
G01*
X5199000Y-6950000D02*
G75*
G02*
X5303000Y-6950000I52000J0D01*
G01*
X5753000Y-3332000D02*
X5857000Y-3436000D01*
X5857000Y-3332000D02*
X5753000Y-3436000D01*
X5857000Y-3384000D02*
G75*
G02*
X5753000Y-3384000I-52000J0D01*
G01*
X5753000Y-3384000D02*
G75*
G02*
X5857000Y-3384000I52000J0D01*
G01*
X5753000Y-3586000D02*
X5857000Y-3690000D01*
X5857000Y-3586000D02*
X5753000Y-3690000D01*
X5857000Y-3638000D02*
G75*
G02*
X5753000Y-3638000I-52000J0D01*
G01*
X5753000Y-3638000D02*
G75*
G02*
X5857000Y-3638000I52000J0D01*
G01*
X5753000Y-3840000D02*
X5857000Y-3944000D01*
X5857000Y-3840000D02*
X5753000Y-3944000D01*
X5857000Y-3892000D02*
G75*
G02*
X5753000Y-3892000I-52000J0D01*
G01*
X5753000Y-3892000D02*
G75*
G02*
X5857000Y-3892000I52000J0D01*
G01*
X5753000Y-4094000D02*
X5857000Y-4198000D01*
X5857000Y-4094000D02*
X5753000Y-4198000D01*
X5857000Y-4146000D02*
G75*
G02*
X5753000Y-4146000I-52000J0D01*
G01*
X5753000Y-4146000D02*
G75*
G02*
X5857000Y-4146000I52000J0D01*
G01*
X5753000Y-4348000D02*
X5857000Y-4452000D01*
X5857000Y-4348000D02*
X5753000Y-4452000D01*
X5857000Y-4400000D02*
G75*
G02*
X5753000Y-4400000I-52000J0D01*
G01*
X5753000Y-4400000D02*
G75*
G02*
X5857000Y-4400000I52000J0D01*
G01*
X5753000Y-4602000D02*
X5857000Y-4706000D01*
X5857000Y-4602000D02*
X5753000Y-4706000D01*
X5857000Y-4654000D02*
G75*
G02*
X5753000Y-4654000I-52000J0D01*
G01*
X5753000Y-4654000D02*
G75*
G02*
X5857000Y-4654000I52000J0D01*
G01*
X5753000Y-4856000D02*
X5857000Y-4960000D01*
X5857000Y-4856000D02*
X5753000Y-4960000D01*
X5857000Y-4908000D02*
G75*
G02*
X5753000Y-4908000I-52000J0D01*
G01*
X5753000Y-4908000D02*
G75*
G02*
X5857000Y-4908000I52000J0D01*
G01*
X5753000Y-5110000D02*
X5857000Y-5214000D01*
X5857000Y-5110000D02*
X5753000Y-5214000D01*
X5857000Y-5162000D02*
G75*
G02*
X5753000Y-5162000I-52000J0D01*
G01*
X5753000Y-5162000D02*
G75*
G02*
X5857000Y-5162000I52000J0D01*
G01*
X5753000Y-5364000D02*
X5857000Y-5468000D01*
X5857000Y-5364000D02*
X5753000Y-5468000D01*
X5857000Y-5416000D02*
G75*
G02*
X5753000Y-5416000I-52000J0D01*
G01*
X5753000Y-5416000D02*
G75*
G02*
X5857000Y-5416000I52000J0D01*
G01*
X5753000Y-5618000D02*
X5857000Y-5722000D01*
X5857000Y-5618000D02*
X5753000Y-5722000D01*
X5857000Y-5670000D02*
G75*
G02*
X5753000Y-5670000I-52000J0D01*
G01*
X5753000Y-5670000D02*
G75*
G02*
X5857000Y-5670000I52000J0D01*
G01*
X5753000Y-5872000D02*
X5857000Y-5976000D01*
X5857000Y-5872000D02*
X5753000Y-5976000D01*
X5857000Y-5924000D02*
G75*
G02*
X5753000Y-5924000I-52000J0D01*
G01*
X5753000Y-5924000D02*
G75*
G02*
X5857000Y-5924000I52000J0D01*
G01*
X5753000Y-6126000D02*
X5857000Y-6230000D01*
X5857000Y-6126000D02*
X5753000Y-6230000D01*
X5857000Y-6178000D02*
G75*
G02*
X5753000Y-6178000I-52000J0D01*
G01*
X5753000Y-6178000D02*
G75*
G02*
X5857000Y-6178000I52000J0D01*
G01*
X5753000Y-6380000D02*
X5857000Y-6484000D01*
X5857000Y-6380000D02*
X5753000Y-6484000D01*
X5857000Y-6432000D02*
G75*
G02*
X5753000Y-6432000I-52000J0D01*
G01*
X5753000Y-6432000D02*
G75*
G02*
X5857000Y-6432000I52000J0D01*
G01*
X5753000Y-6634000D02*
X5857000Y-6738000D01*
X5857000Y-6634000D02*
X5753000Y-6738000D01*
X5857000Y-6686000D02*
G75*
G02*
X5753000Y-6686000I-52000J0D01*
G01*
X5753000Y-6686000D02*
G75*
G02*
X5857000Y-6686000I52000J0D01*
G01*
X5753000Y-6888000D02*
X5857000Y-6992000D01*
X5857000Y-6888000D02*
X5753000Y-6992000D01*
X5857000Y-6940000D02*
G75*
G02*
X5753000Y-6940000I-52000J0D01*
G01*
X5753000Y-6940000D02*
G75*
G02*
X5857000Y-6940000I52000J0D01*
G01*
X5753000Y-7142000D02*
X5857000Y-7246000D01*
X5857000Y-7142000D02*
X5753000Y-7246000D01*
X5857000Y-7194000D02*
G75*
G02*
X5753000Y-7194000I-52000J0D01*
G01*
X5753000Y-7194000D02*
G75*
G02*
X5857000Y-7194000I52000J0D01*
G01*
X5753000Y-7396000D02*
X5857000Y-7500000D01*
X5857000Y-7396000D02*
X5753000Y-7500000D01*
X5857000Y-7448000D02*
G75*
G02*
X5753000Y-7448000I-52000J0D01*
G01*
X5753000Y-7448000D02*
G75*
G02*
X5857000Y-7448000I52000J0D01*
G01*
X5753000Y-7650000D02*
X5857000Y-7754000D01*
X5857000Y-7650000D02*
X5753000Y-7754000D01*
X5857000Y-7702000D02*
G75*
G02*
X5753000Y-7702000I-52000J0D01*
G01*
X5753000Y-7702000D02*
G75*
G02*
X5857000Y-7702000I52000J0D01*
G01*
X5753000Y-7904000D02*
X5857000Y-8008000D01*
X5857000Y-7904000D02*
X5753000Y-8008000D01*
X5857000Y-7956000D02*
G75*
G02*
X5753000Y-7956000I-52000J0D01*
G01*
X5753000Y-7956000D02*
G75*
G02*
X5857000Y-7956000I52000J0D01*
G01*
X5753000Y-8158000D02*
X5857000Y-8262000D01*
X5857000Y-8158000D02*
X5753000Y-8262000D01*
X5857000Y-8210000D02*
G75*
G02*
X5753000Y-8210000I-52000J0D01*
G01*
X5753000Y-8210000D02*
G75*
G02*
X5857000Y-8210000I52000J0D01*
G01*
X7229500Y-1052500D02*
X7333500Y-1156500D01*
X7333500Y-1052500D02*
X7229500Y-1156500D01*
X7333500Y-1104500D02*
G75*
G02*
X7229500Y-1104500I-52000J0D01*
G01*
X7229500Y-1104500D02*
G75*
G02*
X7333500Y-1104500I52000J0D01*
G01*
X7229500Y-1306500D02*
X7333500Y-1410500D01*
X7333500Y-1306500D02*
X7229500Y-1410500D01*
X7333500Y-1358500D02*
G75*
G02*
X7229500Y-1358500I-52000J0D01*
G01*
X7229500Y-1358500D02*
G75*
G02*
X7333500Y-1358500I52000J0D01*
G01*
X7229500Y-1560500D02*
X7333500Y-1664500D01*
X7333500Y-1560500D02*
X7229500Y-1664500D01*
X7333500Y-1612500D02*
G75*
G02*
X7229500Y-1612500I-52000J0D01*
G01*
X7229500Y-1612500D02*
G75*
G02*
X7333500Y-1612500I52000J0D01*
G01*
X7229500Y-1814500D02*
X7333500Y-1918500D01*
X7333500Y-1814500D02*
X7229500Y-1918500D01*
X7333500Y-1866500D02*
G75*
G02*
X7229500Y-1866500I-52000J0D01*
G01*
X7229500Y-1866500D02*
G75*
G02*
X7333500Y-1866500I52000J0D01*
G01*
X7373000Y-3332000D02*
X7477000Y-3436000D01*
X7477000Y-3332000D02*
X7373000Y-3436000D01*
X7477000Y-3384000D02*
G75*
G02*
X7373000Y-3384000I-52000J0D01*
G01*
X7373000Y-3384000D02*
G75*
G02*
X7477000Y-3384000I52000J0D01*
G01*
X7373000Y-3586000D02*
X7477000Y-3690000D01*
X7477000Y-3586000D02*
X7373000Y-3690000D01*
X7477000Y-3638000D02*
G75*
G02*
X7373000Y-3638000I-52000J0D01*
G01*
X7373000Y-3638000D02*
G75*
G02*
X7477000Y-3638000I52000J0D01*
G01*
X7373000Y-3840000D02*
X7477000Y-3944000D01*
X7477000Y-3840000D02*
X7373000Y-3944000D01*
X7477000Y-3892000D02*
G75*
G02*
X7373000Y-3892000I-52000J0D01*
G01*
X7373000Y-3892000D02*
G75*
G02*
X7477000Y-3892000I52000J0D01*
G01*
X7373000Y-4094000D02*
X7477000Y-4198000D01*
X7477000Y-4094000D02*
X7373000Y-4198000D01*
X7477000Y-4146000D02*
G75*
G02*
X7373000Y-4146000I-52000J0D01*
G01*
X7373000Y-4146000D02*
G75*
G02*
X7477000Y-4146000I52000J0D01*
G01*
X7373000Y-4348000D02*
X7477000Y-4452000D01*
X7477000Y-4348000D02*
X7373000Y-4452000D01*
X7477000Y-4400000D02*
G75*
G02*
X7373000Y-4400000I-52000J0D01*
G01*
X7373000Y-4400000D02*
G75*
G02*
X7477000Y-4400000I52000J0D01*
G01*
X7373000Y-4602000D02*
X7477000Y-4706000D01*
X7477000Y-4602000D02*
X7373000Y-4706000D01*
X7477000Y-4654000D02*
G75*
G02*
X7373000Y-4654000I-52000J0D01*
G01*
X7373000Y-4654000D02*
G75*
G02*
X7477000Y-4654000I52000J0D01*
G01*
X7373000Y-4856000D02*
X7477000Y-4960000D01*
X7477000Y-4856000D02*
X7373000Y-4960000D01*
X7477000Y-4908000D02*
G75*
G02*
X7373000Y-4908000I-52000J0D01*
G01*
X7373000Y-4908000D02*
G75*
G02*
X7477000Y-4908000I52000J0D01*
G01*
X7373000Y-5110000D02*
X7477000Y-5214000D01*
X7477000Y-5110000D02*
X7373000Y-5214000D01*
X7477000Y-5162000D02*
G75*
G02*
X7373000Y-5162000I-52000J0D01*
G01*
X7373000Y-5162000D02*
G75*
G02*
X7477000Y-5162000I52000J0D01*
G01*
X7373000Y-5364000D02*
X7477000Y-5468000D01*
X7477000Y-5364000D02*
X7373000Y-5468000D01*
X7477000Y-5416000D02*
G75*
G02*
X7373000Y-5416000I-52000J0D01*
G01*
X7373000Y-5416000D02*
G75*
G02*
X7477000Y-5416000I52000J0D01*
G01*
X7373000Y-5618000D02*
X7477000Y-5722000D01*
X7477000Y-5618000D02*
X7373000Y-5722000D01*
X7477000Y-5670000D02*
G75*
G02*
X7373000Y-5670000I-52000J0D01*
G01*
X7373000Y-5670000D02*
G75*
G02*
X7477000Y-5670000I52000J0D01*
G01*
X7373000Y-5872000D02*
X7477000Y-5976000D01*
X7477000Y-5872000D02*
X7373000Y-5976000D01*
X7477000Y-5924000D02*
G75*
G02*
X7373000Y-5924000I-52000J0D01*
G01*
X7373000Y-5924000D02*
G75*
G02*
X7477000Y-5924000I52000J0D01*
G01*
X7373000Y-6126000D02*
X7477000Y-6230000D01*
X7477000Y-6126000D02*
X7373000Y-6230000D01*
X7477000Y-6178000D02*
G75*
G02*
X7373000Y-6178000I-52000J0D01*
G01*
X7373000Y-6178000D02*
G75*
G02*
X7477000Y-6178000I52000J0D01*
G01*
X7373000Y-6380000D02*
X7477000Y-6484000D01*
X7477000Y-6380000D02*
X7373000Y-6484000D01*
X7477000Y-6432000D02*
G75*
G02*
X7373000Y-6432000I-52000J0D01*
G01*
X7373000Y-6432000D02*
G75*
G02*
X7477000Y-6432000I52000J0D01*
G01*
X7373000Y-6634000D02*
X7477000Y-6738000D01*
X7477000Y-6634000D02*
X7373000Y-6738000D01*
X7477000Y-6686000D02*
G75*
G02*
X7373000Y-6686000I-52000J0D01*
G01*
X7373000Y-6686000D02*
G75*
G02*
X7477000Y-6686000I52000J0D01*
G01*
X7373000Y-6888000D02*
X7477000Y-6992000D01*
X7477000Y-6888000D02*
X7373000Y-6992000D01*
X7477000Y-6940000D02*
G75*
G02*
X7373000Y-6940000I-52000J0D01*
G01*
X7373000Y-6940000D02*
G75*
G02*
X7477000Y-6940000I52000J0D01*
G01*
X7373000Y-7142000D02*
X7477000Y-7246000D01*
X7477000Y-7142000D02*
X7373000Y-7246000D01*
X7477000Y-7194000D02*
G75*
G02*
X7373000Y-7194000I-52000J0D01*
G01*
X7373000Y-7194000D02*
G75*
G02*
X7477000Y-7194000I52000J0D01*
G01*
X7373000Y-7396000D02*
X7477000Y-7500000D01*
X7477000Y-7396000D02*
X7373000Y-7500000D01*
X7477000Y-7448000D02*
G75*
G02*
X7373000Y-7448000I-52000J0D01*
G01*
X7373000Y-7448000D02*
G75*
G02*
X7477000Y-7448000I52000J0D01*
G01*
X7373000Y-7650000D02*
X7477000Y-7754000D01*
X7477000Y-7650000D02*
X7373000Y-7754000D01*
X7477000Y-7702000D02*
G75*
G02*
X7373000Y-7702000I-52000J0D01*
G01*
X7373000Y-7702000D02*
G75*
G02*
X7477000Y-7702000I52000J0D01*
G01*
X7373000Y-7904000D02*
X7477000Y-8008000D01*
X7477000Y-7904000D02*
X7373000Y-8008000D01*
X7477000Y-7956000D02*
G75*
G02*
X7373000Y-7956000I-52000J0D01*
G01*
X7373000Y-7956000D02*
G75*
G02*
X7477000Y-7956000I52000J0D01*
G01*
X7373000Y-8158000D02*
X7477000Y-8262000D01*
X7477000Y-8158000D02*
X7373000Y-8262000D01*
X7477000Y-8210000D02*
G75*
G02*
X7373000Y-8210000I-52000J0D01*
G01*
X7373000Y-8210000D02*
G75*
G02*
X7477000Y-8210000I52000J0D01*
G01*
X7968000Y-6273000D02*
X8072000Y-6377000D01*
X8072000Y-6273000D02*
X7968000Y-6377000D01*
X8072000Y-6325000D02*
G75*
G02*
X7968000Y-6325000I-52000J0D01*
G01*
X7968000Y-6325000D02*
G75*
G02*
X8072000Y-6325000I52000J0D01*
G01*
X7968000Y-6527000D02*
X8072000Y-6631000D01*
X8072000Y-6527000D02*
X7968000Y-6631000D01*
X8072000Y-6579000D02*
G75*
G02*
X7968000Y-6579000I-52000J0D01*
G01*
X7968000Y-6579000D02*
G75*
G02*
X8072000Y-6579000I52000J0D01*
G01*
X7968000Y-6781000D02*
X8072000Y-6885000D01*
X8072000Y-6781000D02*
X7968000Y-6885000D01*
X8072000Y-6833000D02*
G75*
G02*
X7968000Y-6833000I-52000J0D01*
G01*
X7968000Y-6833000D02*
G75*
G02*
X8072000Y-6833000I52000J0D01*
G01*
X7968000Y-7035000D02*
X8072000Y-7139000D01*
X8072000Y-7035000D02*
X7968000Y-7139000D01*
X8072000Y-7087000D02*
G75*
G02*
X7968000Y-7087000I-52000J0D01*
G01*
X7968000Y-7087000D02*
G75*
G02*
X8072000Y-7087000I52000J0D01*
G01*
X7968000Y-7289000D02*
X8072000Y-7393000D01*
X8072000Y-7289000D02*
X7968000Y-7393000D01*
X8072000Y-7341000D02*
G75*
G02*
X7968000Y-7341000I-52000J0D01*
G01*
X7968000Y-7341000D02*
G75*
G02*
X8072000Y-7341000I52000J0D01*
G01*
X7968000Y-7543000D02*
X8072000Y-7647000D01*
X8072000Y-7543000D02*
X7968000Y-7647000D01*
X8072000Y-7595000D02*
G75*
G02*
X7968000Y-7595000I-52000J0D01*
G01*
X7968000Y-7595000D02*
G75*
G02*
X8072000Y-7595000I52000J0D01*
G01*
X7968000Y-7797000D02*
X8072000Y-7901000D01*
X8072000Y-7797000D02*
X7968000Y-7901000D01*
X8072000Y-7849000D02*
G75*
G02*
X7968000Y-7849000I-52000J0D01*
G01*
X7968000Y-7849000D02*
G75*
G02*
X8072000Y-7849000I52000J0D01*
G01*
X7968000Y-8051000D02*
X8072000Y-8155000D01*
X8072000Y-8051000D02*
X7968000Y-8155000D01*
X8072000Y-8103000D02*
G75*
G02*
X7968000Y-8103000I-52000J0D01*
G01*
X7968000Y-8103000D02*
G75*
G02*
X8072000Y-8103000I52000J0D01*
G01*
D14*
X3587000Y-3808000D02*
X3697000Y-3918000D01*
X3697000Y-3808000D02*
X3587000Y-3918000D01*
X3642000Y-3808000D02*
X3642000Y-3918000D01*
X3587000Y-3863000D02*
X3697000Y-3863000D01*
X3841000Y-3808000D02*
X3951000Y-3918000D01*
X3951000Y-3808000D02*
X3841000Y-3918000D01*
X3896000Y-3808000D02*
X3896000Y-3918000D01*
X3841000Y-3863000D02*
X3951000Y-3863000D01*
X4095000Y-3808000D02*
X4205000Y-3918000D01*
X4205000Y-3808000D02*
X4095000Y-3918000D01*
X4150000Y-3808000D02*
X4150000Y-3918000D01*
X4095000Y-3863000D02*
X4205000Y-3863000D01*
D12*
X255777Y-9516484D02*
X255777Y-9316484D01*
X255777Y-9316484D02*
X303396Y-9316484D01*
X303396Y-9316484D02*
X331967Y-9326008D01*
X331967Y-9326008D02*
X351015Y-9345055D01*
X351015Y-9345055D02*
X360539Y-9364103D01*
X360539Y-9364103D02*
X370062Y-9402198D01*
X370062Y-9402198D02*
X370062Y-9430770D01*
X370062Y-9430770D02*
X360539Y-9468865D01*
X360539Y-9468865D02*
X351015Y-9487912D01*
X351015Y-9487912D02*
X331967Y-9506960D01*
X331967Y-9506960D02*
X303396Y-9516484D01*
X303396Y-9516484D02*
X255777Y-9516484D01*
X455777Y-9516484D02*
X455777Y-9383150D01*
X455777Y-9421246D02*
X465301Y-9402198D01*
X465301Y-9402198D02*
X474824Y-9392674D01*
X474824Y-9392674D02*
X493872Y-9383150D01*
X493872Y-9383150D02*
X512920Y-9383150D01*
X579586Y-9516484D02*
X579586Y-9383150D01*
X579586Y-9316484D02*
X570063Y-9326008D01*
X570063Y-9326008D02*
X579586Y-9335531D01*
X579586Y-9335531D02*
X589110Y-9326008D01*
X589110Y-9326008D02*
X579586Y-9316484D01*
X579586Y-9316484D02*
X579586Y-9335531D01*
X703396Y-9516484D02*
X684348Y-9506960D01*
X684348Y-9506960D02*
X674824Y-9487912D01*
X674824Y-9487912D02*
X674824Y-9316484D01*
X808158Y-9516484D02*
X789110Y-9506960D01*
X789110Y-9506960D02*
X779586Y-9487912D01*
X779586Y-9487912D02*
X779586Y-9316484D01*
X1036729Y-9516484D02*
X1036729Y-9316484D01*
X1036729Y-9316484D02*
X1103396Y-9459341D01*
X1103396Y-9459341D02*
X1170063Y-9316484D01*
X1170063Y-9316484D02*
X1170063Y-9516484D01*
X1351015Y-9516484D02*
X1351015Y-9411722D01*
X1351015Y-9411722D02*
X1341491Y-9392674D01*
X1341491Y-9392674D02*
X1322444Y-9383150D01*
X1322444Y-9383150D02*
X1284348Y-9383150D01*
X1284348Y-9383150D02*
X1265301Y-9392674D01*
X1351015Y-9506960D02*
X1331967Y-9516484D01*
X1331967Y-9516484D02*
X1284348Y-9516484D01*
X1284348Y-9516484D02*
X1265301Y-9506960D01*
X1265301Y-9506960D02*
X1255777Y-9487912D01*
X1255777Y-9487912D02*
X1255777Y-9468865D01*
X1255777Y-9468865D02*
X1265301Y-9449817D01*
X1265301Y-9449817D02*
X1284348Y-9440293D01*
X1284348Y-9440293D02*
X1331967Y-9440293D01*
X1331967Y-9440293D02*
X1351015Y-9430770D01*
X1446253Y-9383150D02*
X1446253Y-9583150D01*
X1446253Y-9392674D02*
X1465301Y-9383150D01*
X1465301Y-9383150D02*
X1503396Y-9383150D01*
X1503396Y-9383150D02*
X1522443Y-9392674D01*
X1522443Y-9392674D02*
X1531967Y-9402198D01*
X1531967Y-9402198D02*
X1541491Y-9421246D01*
X1541491Y-9421246D02*
X1541491Y-9478389D01*
X1541491Y-9478389D02*
X1531967Y-9497436D01*
X1531967Y-9497436D02*
X1522443Y-9506960D01*
X1522443Y-9506960D02*
X1503396Y-9516484D01*
X1503396Y-9516484D02*
X1465301Y-9516484D01*
X1465301Y-9516484D02*
X1446253Y-9506960D01*
X1627205Y-9497436D02*
X1636729Y-9506960D01*
X1636729Y-9506960D02*
X1627205Y-9516484D01*
X1627205Y-9516484D02*
X1617682Y-9506960D01*
X1617682Y-9506960D02*
X1627205Y-9497436D01*
X1627205Y-9497436D02*
X1627205Y-9516484D01*
X1627205Y-9392674D02*
X1636729Y-9402198D01*
X1636729Y-9402198D02*
X1627205Y-9411722D01*
X1627205Y-9411722D02*
X1617682Y-9402198D01*
X1617682Y-9402198D02*
X1627205Y-9392674D01*
X1627205Y-9392674D02*
X1627205Y-9411722D01*
D10*
X-85000Y-9805000D02*
X-5000Y-9885000D01*
X-5000Y-9805000D02*
X-85000Y-9885000D01*
D12*
X293872Y-9736484D02*
X312920Y-9736484D01*
X312920Y-9736484D02*
X331967Y-9746008D01*
X331967Y-9746008D02*
X341491Y-9755531D01*
X341491Y-9755531D02*
X351015Y-9774579D01*
X351015Y-9774579D02*
X360539Y-9812674D01*
X360539Y-9812674D02*
X360539Y-9860293D01*
X360539Y-9860293D02*
X351015Y-9898389D01*
X351015Y-9898389D02*
X341491Y-9917436D01*
X341491Y-9917436D02*
X331967Y-9926960D01*
X331967Y-9926960D02*
X312920Y-9936484D01*
X312920Y-9936484D02*
X293872Y-9936484D01*
X293872Y-9936484D02*
X274824Y-9926960D01*
X274824Y-9926960D02*
X265301Y-9917436D01*
X265301Y-9917436D02*
X255777Y-9898389D01*
X255777Y-9898389D02*
X246253Y-9860293D01*
X246253Y-9860293D02*
X246253Y-9812674D01*
X246253Y-9812674D02*
X255777Y-9774579D01*
X255777Y-9774579D02*
X265301Y-9755531D01*
X265301Y-9755531D02*
X274824Y-9746008D01*
X274824Y-9746008D02*
X293872Y-9736484D01*
X446253Y-9917436D02*
X455777Y-9926960D01*
X455777Y-9926960D02*
X446253Y-9936484D01*
X446253Y-9936484D02*
X436729Y-9926960D01*
X436729Y-9926960D02*
X446253Y-9917436D01*
X446253Y-9917436D02*
X446253Y-9936484D01*
X570063Y-9822198D02*
X551015Y-9812674D01*
X551015Y-9812674D02*
X541491Y-9803150D01*
X541491Y-9803150D02*
X531967Y-9784103D01*
X531967Y-9784103D02*
X531967Y-9774579D01*
X531967Y-9774579D02*
X541491Y-9755531D01*
X541491Y-9755531D02*
X551015Y-9746008D01*
X551015Y-9746008D02*
X570063Y-9736484D01*
X570063Y-9736484D02*
X608158Y-9736484D01*
X608158Y-9736484D02*
X627205Y-9746008D01*
X627205Y-9746008D02*
X636729Y-9755531D01*
X636729Y-9755531D02*
X646253Y-9774579D01*
X646253Y-9774579D02*
X646253Y-9784103D01*
X646253Y-9784103D02*
X636729Y-9803150D01*
X636729Y-9803150D02*
X627205Y-9812674D01*
X627205Y-9812674D02*
X608158Y-9822198D01*
X608158Y-9822198D02*
X570063Y-9822198D01*
X570063Y-9822198D02*
X551015Y-9831722D01*
X551015Y-9831722D02*
X541491Y-9841246D01*
X541491Y-9841246D02*
X531967Y-9860293D01*
X531967Y-9860293D02*
X531967Y-9898389D01*
X531967Y-9898389D02*
X541491Y-9917436D01*
X541491Y-9917436D02*
X551015Y-9926960D01*
X551015Y-9926960D02*
X570063Y-9936484D01*
X570063Y-9936484D02*
X608158Y-9936484D01*
X608158Y-9936484D02*
X627205Y-9926960D01*
X627205Y-9926960D02*
X636729Y-9917436D01*
X636729Y-9917436D02*
X646253Y-9898389D01*
X646253Y-9898389D02*
X646253Y-9860293D01*
X646253Y-9860293D02*
X636729Y-9841246D01*
X636729Y-9841246D02*
X627205Y-9831722D01*
X627205Y-9831722D02*
X608158Y-9822198D01*
X770062Y-9736484D02*
X789110Y-9736484D01*
X789110Y-9736484D02*
X808158Y-9746008D01*
X808158Y-9746008D02*
X817682Y-9755531D01*
X817682Y-9755531D02*
X827205Y-9774579D01*
X827205Y-9774579D02*
X836729Y-9812674D01*
X836729Y-9812674D02*
X836729Y-9860293D01*
X836729Y-9860293D02*
X827205Y-9898389D01*
X827205Y-9898389D02*
X817682Y-9917436D01*
X817682Y-9917436D02*
X808158Y-9926960D01*
X808158Y-9926960D02*
X789110Y-9936484D01*
X789110Y-9936484D02*
X770062Y-9936484D01*
X770062Y-9936484D02*
X751015Y-9926960D01*
X751015Y-9926960D02*
X741491Y-9917436D01*
X741491Y-9917436D02*
X731967Y-9898389D01*
X731967Y-9898389D02*
X722443Y-9860293D01*
X722443Y-9860293D02*
X722443Y-9812674D01*
X722443Y-9812674D02*
X731967Y-9774579D01*
X731967Y-9774579D02*
X741491Y-9755531D01*
X741491Y-9755531D02*
X751015Y-9746008D01*
X751015Y-9746008D02*
X770062Y-9736484D01*
X960539Y-9736484D02*
X979586Y-9736484D01*
X979586Y-9736484D02*
X998634Y-9746008D01*
X998634Y-9746008D02*
X1008158Y-9755531D01*
X1008158Y-9755531D02*
X1017682Y-9774579D01*
X1017682Y-9774579D02*
X1027205Y-9812674D01*
X1027205Y-9812674D02*
X1027205Y-9860293D01*
X1027205Y-9860293D02*
X1017682Y-9898389D01*
X1017682Y-9898389D02*
X1008158Y-9917436D01*
X1008158Y-9917436D02*
X998634Y-9926960D01*
X998634Y-9926960D02*
X979586Y-9936484D01*
X979586Y-9936484D02*
X960539Y-9936484D01*
X960539Y-9936484D02*
X941491Y-9926960D01*
X941491Y-9926960D02*
X931967Y-9917436D01*
X931967Y-9917436D02*
X922443Y-9898389D01*
X922443Y-9898389D02*
X912920Y-9860293D01*
X912920Y-9860293D02*
X912920Y-9812674D01*
X912920Y-9812674D02*
X922443Y-9774579D01*
X922443Y-9774579D02*
X931967Y-9755531D01*
X931967Y-9755531D02*
X941491Y-9746008D01*
X941491Y-9746008D02*
X960539Y-9736484D01*
X1112920Y-9936484D02*
X1112920Y-9803150D01*
X1112920Y-9822198D02*
X1122444Y-9812674D01*
X1122444Y-9812674D02*
X1141491Y-9803150D01*
X1141491Y-9803150D02*
X1170063Y-9803150D01*
X1170063Y-9803150D02*
X1189110Y-9812674D01*
X1189110Y-9812674D02*
X1198634Y-9831722D01*
X1198634Y-9831722D02*
X1198634Y-9936484D01*
X1198634Y-9831722D02*
X1208158Y-9812674D01*
X1208158Y-9812674D02*
X1227205Y-9803150D01*
X1227205Y-9803150D02*
X1255777Y-9803150D01*
X1255777Y-9803150D02*
X1274825Y-9812674D01*
X1274825Y-9812674D02*
X1284348Y-9831722D01*
X1284348Y-9831722D02*
X1284348Y-9936484D01*
X1379586Y-9936484D02*
X1379586Y-9803150D01*
X1379586Y-9822198D02*
X1389110Y-9812674D01*
X1389110Y-9812674D02*
X1408158Y-9803150D01*
X1408158Y-9803150D02*
X1436729Y-9803150D01*
X1436729Y-9803150D02*
X1455777Y-9812674D01*
X1455777Y-9812674D02*
X1465301Y-9831722D01*
X1465301Y-9831722D02*
X1465301Y-9936484D01*
X1465301Y-9831722D02*
X1474824Y-9812674D01*
X1474824Y-9812674D02*
X1493872Y-9803150D01*
X1493872Y-9803150D02*
X1522443Y-9803150D01*
X1522443Y-9803150D02*
X1541491Y-9812674D01*
X1541491Y-9812674D02*
X1551015Y-9831722D01*
X1551015Y-9831722D02*
X1551015Y-9936484D01*
X1941491Y-9726960D02*
X1770063Y-9984103D01*
X2198634Y-9736484D02*
X2217682Y-9736484D01*
X2217682Y-9736484D02*
X2236729Y-9746008D01*
X2236729Y-9746008D02*
X2246253Y-9755531D01*
X2246253Y-9755531D02*
X2255777Y-9774579D01*
X2255777Y-9774579D02*
X2265301Y-9812674D01*
X2265301Y-9812674D02*
X2265301Y-9860293D01*
X2265301Y-9860293D02*
X2255777Y-9898389D01*
X2255777Y-9898389D02*
X2246253Y-9917436D01*
X2246253Y-9917436D02*
X2236729Y-9926960D01*
X2236729Y-9926960D02*
X2217682Y-9936484D01*
X2217682Y-9936484D02*
X2198634Y-9936484D01*
X2198634Y-9936484D02*
X2179587Y-9926960D01*
X2179587Y-9926960D02*
X2170063Y-9917436D01*
X2170063Y-9917436D02*
X2160539Y-9898389D01*
X2160539Y-9898389D02*
X2151015Y-9860293D01*
X2151015Y-9860293D02*
X2151015Y-9812674D01*
X2151015Y-9812674D02*
X2160539Y-9774579D01*
X2160539Y-9774579D02*
X2170063Y-9755531D01*
X2170063Y-9755531D02*
X2179587Y-9746008D01*
X2179587Y-9746008D02*
X2198634Y-9736484D01*
X2351015Y-9917436D02*
X2360539Y-9926960D01*
X2360539Y-9926960D02*
X2351015Y-9936484D01*
X2351015Y-9936484D02*
X2341491Y-9926960D01*
X2341491Y-9926960D02*
X2351015Y-9917436D01*
X2351015Y-9917436D02*
X2351015Y-9936484D01*
X2484348Y-9736484D02*
X2503396Y-9736484D01*
X2503396Y-9736484D02*
X2522444Y-9746008D01*
X2522444Y-9746008D02*
X2531968Y-9755531D01*
X2531968Y-9755531D02*
X2541491Y-9774579D01*
X2541491Y-9774579D02*
X2551015Y-9812674D01*
X2551015Y-9812674D02*
X2551015Y-9860293D01*
X2551015Y-9860293D02*
X2541491Y-9898389D01*
X2541491Y-9898389D02*
X2531968Y-9917436D01*
X2531968Y-9917436D02*
X2522444Y-9926960D01*
X2522444Y-9926960D02*
X2503396Y-9936484D01*
X2503396Y-9936484D02*
X2484348Y-9936484D01*
X2484348Y-9936484D02*
X2465301Y-9926960D01*
X2465301Y-9926960D02*
X2455777Y-9917436D01*
X2455777Y-9917436D02*
X2446253Y-9898389D01*
X2446253Y-9898389D02*
X2436729Y-9860293D01*
X2436729Y-9860293D02*
X2436729Y-9812674D01*
X2436729Y-9812674D02*
X2446253Y-9774579D01*
X2446253Y-9774579D02*
X2455777Y-9755531D01*
X2455777Y-9755531D02*
X2465301Y-9746008D01*
X2465301Y-9746008D02*
X2484348Y-9736484D01*
X2617682Y-9736484D02*
X2741491Y-9736484D01*
X2741491Y-9736484D02*
X2674825Y-9812674D01*
X2674825Y-9812674D02*
X2703396Y-9812674D01*
X2703396Y-9812674D02*
X2722444Y-9822198D01*
X2722444Y-9822198D02*
X2731968Y-9831722D01*
X2731968Y-9831722D02*
X2741491Y-9850770D01*
X2741491Y-9850770D02*
X2741491Y-9898389D01*
X2741491Y-9898389D02*
X2731968Y-9917436D01*
X2731968Y-9917436D02*
X2722444Y-9926960D01*
X2722444Y-9926960D02*
X2703396Y-9936484D01*
X2703396Y-9936484D02*
X2646253Y-9936484D01*
X2646253Y-9936484D02*
X2627206Y-9926960D01*
X2627206Y-9926960D02*
X2617682Y-9917436D01*
X2931967Y-9936484D02*
X2817682Y-9936484D01*
X2874825Y-9936484D02*
X2874825Y-9736484D01*
X2874825Y-9736484D02*
X2855777Y-9765055D01*
X2855777Y-9765055D02*
X2836729Y-9784103D01*
X2836729Y-9784103D02*
X2817682Y-9793627D01*
X3112920Y-9736484D02*
X3017682Y-9736484D01*
X3017682Y-9736484D02*
X3008158Y-9831722D01*
X3008158Y-9831722D02*
X3017682Y-9822198D01*
X3017682Y-9822198D02*
X3036729Y-9812674D01*
X3036729Y-9812674D02*
X3084348Y-9812674D01*
X3084348Y-9812674D02*
X3103396Y-9822198D01*
X3103396Y-9822198D02*
X3112920Y-9831722D01*
X3112920Y-9831722D02*
X3122444Y-9850770D01*
X3122444Y-9850770D02*
X3122444Y-9898389D01*
X3122444Y-9898389D02*
X3112920Y-9917436D01*
X3112920Y-9917436D02*
X3103396Y-9926960D01*
X3103396Y-9926960D02*
X3084348Y-9936484D01*
X3084348Y-9936484D02*
X3036729Y-9936484D01*
X3036729Y-9936484D02*
X3017682Y-9926960D01*
X3017682Y-9926960D02*
X3008158Y-9917436D01*
X3198634Y-9736484D02*
X3198634Y-9774579D01*
X3274825Y-9736484D02*
X3274825Y-9774579D01*
X3570063Y-10012674D02*
X3560539Y-10003150D01*
X3560539Y-10003150D02*
X3541491Y-9974579D01*
X3541491Y-9974579D02*
X3531968Y-9955531D01*
X3531968Y-9955531D02*
X3522444Y-9926960D01*
X3522444Y-9926960D02*
X3512920Y-9879341D01*
X3512920Y-9879341D02*
X3512920Y-9841246D01*
X3512920Y-9841246D02*
X3522444Y-9793627D01*
X3522444Y-9793627D02*
X3531968Y-9765055D01*
X3531968Y-9765055D02*
X3541491Y-9746008D01*
X3541491Y-9746008D02*
X3560539Y-9717436D01*
X3560539Y-9717436D02*
X3570063Y-9707912D01*
X3751015Y-9936484D02*
X3636729Y-9936484D01*
X3693872Y-9936484D02*
X3693872Y-9736484D01*
X3693872Y-9736484D02*
X3674825Y-9765055D01*
X3674825Y-9765055D02*
X3655777Y-9784103D01*
X3655777Y-9784103D02*
X3636729Y-9793627D01*
X3922444Y-9736484D02*
X3884348Y-9736484D01*
X3884348Y-9736484D02*
X3865301Y-9746008D01*
X3865301Y-9746008D02*
X3855777Y-9755531D01*
X3855777Y-9755531D02*
X3836729Y-9784103D01*
X3836729Y-9784103D02*
X3827206Y-9822198D01*
X3827206Y-9822198D02*
X3827206Y-9898389D01*
X3827206Y-9898389D02*
X3836729Y-9917436D01*
X3836729Y-9917436D02*
X3846253Y-9926960D01*
X3846253Y-9926960D02*
X3865301Y-9936484D01*
X3865301Y-9936484D02*
X3903396Y-9936484D01*
X3903396Y-9936484D02*
X3922444Y-9926960D01*
X3922444Y-9926960D02*
X3931968Y-9917436D01*
X3931968Y-9917436D02*
X3941491Y-9898389D01*
X3941491Y-9898389D02*
X3941491Y-9850770D01*
X3941491Y-9850770D02*
X3931968Y-9831722D01*
X3931968Y-9831722D02*
X3922444Y-9822198D01*
X3922444Y-9822198D02*
X3903396Y-9812674D01*
X3903396Y-9812674D02*
X3865301Y-9812674D01*
X3865301Y-9812674D02*
X3846253Y-9822198D01*
X3846253Y-9822198D02*
X3836729Y-9831722D01*
X3836729Y-9831722D02*
X3827206Y-9850770D01*
X4179587Y-9936484D02*
X4179587Y-9736484D01*
X4265301Y-9936484D02*
X4265301Y-9831722D01*
X4265301Y-9831722D02*
X4255777Y-9812674D01*
X4255777Y-9812674D02*
X4236730Y-9803150D01*
X4236730Y-9803150D02*
X4208158Y-9803150D01*
X4208158Y-9803150D02*
X4189110Y-9812674D01*
X4189110Y-9812674D02*
X4179587Y-9822198D01*
X4389111Y-9936484D02*
X4370063Y-9926960D01*
X4370063Y-9926960D02*
X4360539Y-9917436D01*
X4360539Y-9917436D02*
X4351015Y-9898389D01*
X4351015Y-9898389D02*
X4351015Y-9841246D01*
X4351015Y-9841246D02*
X4360539Y-9822198D01*
X4360539Y-9822198D02*
X4370063Y-9812674D01*
X4370063Y-9812674D02*
X4389111Y-9803150D01*
X4389111Y-9803150D02*
X4417682Y-9803150D01*
X4417682Y-9803150D02*
X4436730Y-9812674D01*
X4436730Y-9812674D02*
X4446253Y-9822198D01*
X4446253Y-9822198D02*
X4455777Y-9841246D01*
X4455777Y-9841246D02*
X4455777Y-9898389D01*
X4455777Y-9898389D02*
X4446253Y-9917436D01*
X4446253Y-9917436D02*
X4436730Y-9926960D01*
X4436730Y-9926960D02*
X4417682Y-9936484D01*
X4417682Y-9936484D02*
X4389111Y-9936484D01*
X4570063Y-9936484D02*
X4551015Y-9926960D01*
X4551015Y-9926960D02*
X4541492Y-9907912D01*
X4541492Y-9907912D02*
X4541492Y-9736484D01*
X4722444Y-9926960D02*
X4703396Y-9936484D01*
X4703396Y-9936484D02*
X4665301Y-9936484D01*
X4665301Y-9936484D02*
X4646253Y-9926960D01*
X4646253Y-9926960D02*
X4636730Y-9907912D01*
X4636730Y-9907912D02*
X4636730Y-9831722D01*
X4636730Y-9831722D02*
X4646253Y-9812674D01*
X4646253Y-9812674D02*
X4665301Y-9803150D01*
X4665301Y-9803150D02*
X4703396Y-9803150D01*
X4703396Y-9803150D02*
X4722444Y-9812674D01*
X4722444Y-9812674D02*
X4731968Y-9831722D01*
X4731968Y-9831722D02*
X4731968Y-9850770D01*
X4731968Y-9850770D02*
X4636730Y-9869817D01*
X4808158Y-9926960D02*
X4827206Y-9936484D01*
X4827206Y-9936484D02*
X4865301Y-9936484D01*
X4865301Y-9936484D02*
X4884349Y-9926960D01*
X4884349Y-9926960D02*
X4893873Y-9907912D01*
X4893873Y-9907912D02*
X4893873Y-9898389D01*
X4893873Y-9898389D02*
X4884349Y-9879341D01*
X4884349Y-9879341D02*
X4865301Y-9869817D01*
X4865301Y-9869817D02*
X4836730Y-9869817D01*
X4836730Y-9869817D02*
X4817682Y-9860293D01*
X4817682Y-9860293D02*
X4808158Y-9841246D01*
X4808158Y-9841246D02*
X4808158Y-9831722D01*
X4808158Y-9831722D02*
X4817682Y-9812674D01*
X4817682Y-9812674D02*
X4836730Y-9803150D01*
X4836730Y-9803150D02*
X4865301Y-9803150D01*
X4865301Y-9803150D02*
X4884349Y-9812674D01*
X4960539Y-10012674D02*
X4970063Y-10003150D01*
X4970063Y-10003150D02*
X4989111Y-9974579D01*
X4989111Y-9974579D02*
X4998634Y-9955531D01*
X4998634Y-9955531D02*
X5008158Y-9926960D01*
X5008158Y-9926960D02*
X5017682Y-9879341D01*
X5017682Y-9879341D02*
X5017682Y-9841246D01*
X5017682Y-9841246D02*
X5008158Y-9793627D01*
X5008158Y-9793627D02*
X4998634Y-9765055D01*
X4998634Y-9765055D02*
X4989111Y-9746008D01*
X4989111Y-9746008D02*
X4970063Y-9717436D01*
X4970063Y-9717436D02*
X4960539Y-9707912D01*
D10*
X-5000Y-10109000D02*
G75*
G02*
X-90000Y-10109000I-42500J0D01*
G01*
X-90000Y-10109000D02*
G75*
G02*
X-5000Y-10109000I42500J0D01*
G01*
D12*
X293872Y-10000484D02*
X312920Y-10000484D01*
X312920Y-10000484D02*
X331967Y-10010008D01*
X331967Y-10010008D02*
X341491Y-10019531D01*
X341491Y-10019531D02*
X351015Y-10038579D01*
X351015Y-10038579D02*
X360539Y-10076674D01*
X360539Y-10076674D02*
X360539Y-10124293D01*
X360539Y-10124293D02*
X351015Y-10162389D01*
X351015Y-10162389D02*
X341491Y-10181436D01*
X341491Y-10181436D02*
X331967Y-10190960D01*
X331967Y-10190960D02*
X312920Y-10200484D01*
X312920Y-10200484D02*
X293872Y-10200484D01*
X293872Y-10200484D02*
X274824Y-10190960D01*
X274824Y-10190960D02*
X265301Y-10181436D01*
X265301Y-10181436D02*
X255777Y-10162389D01*
X255777Y-10162389D02*
X246253Y-10124293D01*
X246253Y-10124293D02*
X246253Y-10076674D01*
X246253Y-10076674D02*
X255777Y-10038579D01*
X255777Y-10038579D02*
X265301Y-10019531D01*
X265301Y-10019531D02*
X274824Y-10010008D01*
X274824Y-10010008D02*
X293872Y-10000484D01*
X446253Y-10181436D02*
X455777Y-10190960D01*
X455777Y-10190960D02*
X446253Y-10200484D01*
X446253Y-10200484D02*
X436729Y-10190960D01*
X436729Y-10190960D02*
X446253Y-10181436D01*
X446253Y-10181436D02*
X446253Y-10200484D01*
X570063Y-10086198D02*
X551015Y-10076674D01*
X551015Y-10076674D02*
X541491Y-10067150D01*
X541491Y-10067150D02*
X531967Y-10048103D01*
X531967Y-10048103D02*
X531967Y-10038579D01*
X531967Y-10038579D02*
X541491Y-10019531D01*
X541491Y-10019531D02*
X551015Y-10010008D01*
X551015Y-10010008D02*
X570063Y-10000484D01*
X570063Y-10000484D02*
X608158Y-10000484D01*
X608158Y-10000484D02*
X627205Y-10010008D01*
X627205Y-10010008D02*
X636729Y-10019531D01*
X636729Y-10019531D02*
X646253Y-10038579D01*
X646253Y-10038579D02*
X646253Y-10048103D01*
X646253Y-10048103D02*
X636729Y-10067150D01*
X636729Y-10067150D02*
X627205Y-10076674D01*
X627205Y-10076674D02*
X608158Y-10086198D01*
X608158Y-10086198D02*
X570063Y-10086198D01*
X570063Y-10086198D02*
X551015Y-10095722D01*
X551015Y-10095722D02*
X541491Y-10105246D01*
X541491Y-10105246D02*
X531967Y-10124293D01*
X531967Y-10124293D02*
X531967Y-10162389D01*
X531967Y-10162389D02*
X541491Y-10181436D01*
X541491Y-10181436D02*
X551015Y-10190960D01*
X551015Y-10190960D02*
X570063Y-10200484D01*
X570063Y-10200484D02*
X608158Y-10200484D01*
X608158Y-10200484D02*
X627205Y-10190960D01*
X627205Y-10190960D02*
X636729Y-10181436D01*
X636729Y-10181436D02*
X646253Y-10162389D01*
X646253Y-10162389D02*
X646253Y-10124293D01*
X646253Y-10124293D02*
X636729Y-10105246D01*
X636729Y-10105246D02*
X627205Y-10095722D01*
X627205Y-10095722D02*
X608158Y-10086198D01*
X827205Y-10000484D02*
X731967Y-10000484D01*
X731967Y-10000484D02*
X722443Y-10095722D01*
X722443Y-10095722D02*
X731967Y-10086198D01*
X731967Y-10086198D02*
X751015Y-10076674D01*
X751015Y-10076674D02*
X798634Y-10076674D01*
X798634Y-10076674D02*
X817682Y-10086198D01*
X817682Y-10086198D02*
X827205Y-10095722D01*
X827205Y-10095722D02*
X836729Y-10114770D01*
X836729Y-10114770D02*
X836729Y-10162389D01*
X836729Y-10162389D02*
X827205Y-10181436D01*
X827205Y-10181436D02*
X817682Y-10190960D01*
X817682Y-10190960D02*
X798634Y-10200484D01*
X798634Y-10200484D02*
X751015Y-10200484D01*
X751015Y-10200484D02*
X731967Y-10190960D01*
X731967Y-10190960D02*
X722443Y-10181436D01*
X960539Y-10000484D02*
X979586Y-10000484D01*
X979586Y-10000484D02*
X998634Y-10010008D01*
X998634Y-10010008D02*
X1008158Y-10019531D01*
X1008158Y-10019531D02*
X1017682Y-10038579D01*
X1017682Y-10038579D02*
X1027205Y-10076674D01*
X1027205Y-10076674D02*
X1027205Y-10124293D01*
X1027205Y-10124293D02*
X1017682Y-10162389D01*
X1017682Y-10162389D02*
X1008158Y-10181436D01*
X1008158Y-10181436D02*
X998634Y-10190960D01*
X998634Y-10190960D02*
X979586Y-10200484D01*
X979586Y-10200484D02*
X960539Y-10200484D01*
X960539Y-10200484D02*
X941491Y-10190960D01*
X941491Y-10190960D02*
X931967Y-10181436D01*
X931967Y-10181436D02*
X922443Y-10162389D01*
X922443Y-10162389D02*
X912920Y-10124293D01*
X912920Y-10124293D02*
X912920Y-10076674D01*
X912920Y-10076674D02*
X922443Y-10038579D01*
X922443Y-10038579D02*
X931967Y-10019531D01*
X931967Y-10019531D02*
X941491Y-10010008D01*
X941491Y-10010008D02*
X960539Y-10000484D01*
X1112920Y-10200484D02*
X1112920Y-10067150D01*
X1112920Y-10086198D02*
X1122444Y-10076674D01*
X1122444Y-10076674D02*
X1141491Y-10067150D01*
X1141491Y-10067150D02*
X1170063Y-10067150D01*
X1170063Y-10067150D02*
X1189110Y-10076674D01*
X1189110Y-10076674D02*
X1198634Y-10095722D01*
X1198634Y-10095722D02*
X1198634Y-10200484D01*
X1198634Y-10095722D02*
X1208158Y-10076674D01*
X1208158Y-10076674D02*
X1227205Y-10067150D01*
X1227205Y-10067150D02*
X1255777Y-10067150D01*
X1255777Y-10067150D02*
X1274825Y-10076674D01*
X1274825Y-10076674D02*
X1284348Y-10095722D01*
X1284348Y-10095722D02*
X1284348Y-10200484D01*
X1379586Y-10200484D02*
X1379586Y-10067150D01*
X1379586Y-10086198D02*
X1389110Y-10076674D01*
X1389110Y-10076674D02*
X1408158Y-10067150D01*
X1408158Y-10067150D02*
X1436729Y-10067150D01*
X1436729Y-10067150D02*
X1455777Y-10076674D01*
X1455777Y-10076674D02*
X1465301Y-10095722D01*
X1465301Y-10095722D02*
X1465301Y-10200484D01*
X1465301Y-10095722D02*
X1474824Y-10076674D01*
X1474824Y-10076674D02*
X1493872Y-10067150D01*
X1493872Y-10067150D02*
X1522443Y-10067150D01*
X1522443Y-10067150D02*
X1541491Y-10076674D01*
X1541491Y-10076674D02*
X1551015Y-10095722D01*
X1551015Y-10095722D02*
X1551015Y-10200484D01*
X1941491Y-9990960D02*
X1770063Y-10248103D01*
X2198634Y-10000484D02*
X2217682Y-10000484D01*
X2217682Y-10000484D02*
X2236729Y-10010008D01*
X2236729Y-10010008D02*
X2246253Y-10019531D01*
X2246253Y-10019531D02*
X2255777Y-10038579D01*
X2255777Y-10038579D02*
X2265301Y-10076674D01*
X2265301Y-10076674D02*
X2265301Y-10124293D01*
X2265301Y-10124293D02*
X2255777Y-10162389D01*
X2255777Y-10162389D02*
X2246253Y-10181436D01*
X2246253Y-10181436D02*
X2236729Y-10190960D01*
X2236729Y-10190960D02*
X2217682Y-10200484D01*
X2217682Y-10200484D02*
X2198634Y-10200484D01*
X2198634Y-10200484D02*
X2179587Y-10190960D01*
X2179587Y-10190960D02*
X2170063Y-10181436D01*
X2170063Y-10181436D02*
X2160539Y-10162389D01*
X2160539Y-10162389D02*
X2151015Y-10124293D01*
X2151015Y-10124293D02*
X2151015Y-10076674D01*
X2151015Y-10076674D02*
X2160539Y-10038579D01*
X2160539Y-10038579D02*
X2170063Y-10019531D01*
X2170063Y-10019531D02*
X2179587Y-10010008D01*
X2179587Y-10010008D02*
X2198634Y-10000484D01*
X2351015Y-10181436D02*
X2360539Y-10190960D01*
X2360539Y-10190960D02*
X2351015Y-10200484D01*
X2351015Y-10200484D02*
X2341491Y-10190960D01*
X2341491Y-10190960D02*
X2351015Y-10181436D01*
X2351015Y-10181436D02*
X2351015Y-10200484D01*
X2484348Y-10000484D02*
X2503396Y-10000484D01*
X2503396Y-10000484D02*
X2522444Y-10010008D01*
X2522444Y-10010008D02*
X2531968Y-10019531D01*
X2531968Y-10019531D02*
X2541491Y-10038579D01*
X2541491Y-10038579D02*
X2551015Y-10076674D01*
X2551015Y-10076674D02*
X2551015Y-10124293D01*
X2551015Y-10124293D02*
X2541491Y-10162389D01*
X2541491Y-10162389D02*
X2531968Y-10181436D01*
X2531968Y-10181436D02*
X2522444Y-10190960D01*
X2522444Y-10190960D02*
X2503396Y-10200484D01*
X2503396Y-10200484D02*
X2484348Y-10200484D01*
X2484348Y-10200484D02*
X2465301Y-10190960D01*
X2465301Y-10190960D02*
X2455777Y-10181436D01*
X2455777Y-10181436D02*
X2446253Y-10162389D01*
X2446253Y-10162389D02*
X2436729Y-10124293D01*
X2436729Y-10124293D02*
X2436729Y-10076674D01*
X2436729Y-10076674D02*
X2446253Y-10038579D01*
X2446253Y-10038579D02*
X2455777Y-10019531D01*
X2455777Y-10019531D02*
X2465301Y-10010008D01*
X2465301Y-10010008D02*
X2484348Y-10000484D01*
X2617682Y-10000484D02*
X2741491Y-10000484D01*
X2741491Y-10000484D02*
X2674825Y-10076674D01*
X2674825Y-10076674D02*
X2703396Y-10076674D01*
X2703396Y-10076674D02*
X2722444Y-10086198D01*
X2722444Y-10086198D02*
X2731968Y-10095722D01*
X2731968Y-10095722D02*
X2741491Y-10114770D01*
X2741491Y-10114770D02*
X2741491Y-10162389D01*
X2741491Y-10162389D02*
X2731968Y-10181436D01*
X2731968Y-10181436D02*
X2722444Y-10190960D01*
X2722444Y-10190960D02*
X2703396Y-10200484D01*
X2703396Y-10200484D02*
X2646253Y-10200484D01*
X2646253Y-10200484D02*
X2627206Y-10190960D01*
X2627206Y-10190960D02*
X2617682Y-10181436D01*
X2808158Y-10000484D02*
X2931967Y-10000484D01*
X2931967Y-10000484D02*
X2865301Y-10076674D01*
X2865301Y-10076674D02*
X2893872Y-10076674D01*
X2893872Y-10076674D02*
X2912920Y-10086198D01*
X2912920Y-10086198D02*
X2922444Y-10095722D01*
X2922444Y-10095722D02*
X2931967Y-10114770D01*
X2931967Y-10114770D02*
X2931967Y-10162389D01*
X2931967Y-10162389D02*
X2922444Y-10181436D01*
X2922444Y-10181436D02*
X2912920Y-10190960D01*
X2912920Y-10190960D02*
X2893872Y-10200484D01*
X2893872Y-10200484D02*
X2836729Y-10200484D01*
X2836729Y-10200484D02*
X2817682Y-10190960D01*
X2817682Y-10190960D02*
X2808158Y-10181436D01*
X3112920Y-10000484D02*
X3017682Y-10000484D01*
X3017682Y-10000484D02*
X3008158Y-10095722D01*
X3008158Y-10095722D02*
X3017682Y-10086198D01*
X3017682Y-10086198D02*
X3036729Y-10076674D01*
X3036729Y-10076674D02*
X3084348Y-10076674D01*
X3084348Y-10076674D02*
X3103396Y-10086198D01*
X3103396Y-10086198D02*
X3112920Y-10095722D01*
X3112920Y-10095722D02*
X3122444Y-10114770D01*
X3122444Y-10114770D02*
X3122444Y-10162389D01*
X3122444Y-10162389D02*
X3112920Y-10181436D01*
X3112920Y-10181436D02*
X3103396Y-10190960D01*
X3103396Y-10190960D02*
X3084348Y-10200484D01*
X3084348Y-10200484D02*
X3036729Y-10200484D01*
X3036729Y-10200484D02*
X3017682Y-10190960D01*
X3017682Y-10190960D02*
X3008158Y-10181436D01*
X3198634Y-10000484D02*
X3198634Y-10038579D01*
X3274825Y-10000484D02*
X3274825Y-10038579D01*
X3570063Y-10276674D02*
X3560539Y-10267150D01*
X3560539Y-10267150D02*
X3541491Y-10238579D01*
X3541491Y-10238579D02*
X3531968Y-10219531D01*
X3531968Y-10219531D02*
X3522444Y-10190960D01*
X3522444Y-10190960D02*
X3512920Y-10143341D01*
X3512920Y-10143341D02*
X3512920Y-10105246D01*
X3512920Y-10105246D02*
X3522444Y-10057627D01*
X3522444Y-10057627D02*
X3531968Y-10029055D01*
X3531968Y-10029055D02*
X3541491Y-10010008D01*
X3541491Y-10010008D02*
X3560539Y-9981436D01*
X3560539Y-9981436D02*
X3570063Y-9971912D01*
X3636729Y-10019531D02*
X3646253Y-10010008D01*
X3646253Y-10010008D02*
X3665301Y-10000484D01*
X3665301Y-10000484D02*
X3712920Y-10000484D01*
X3712920Y-10000484D02*
X3731968Y-10010008D01*
X3731968Y-10010008D02*
X3741491Y-10019531D01*
X3741491Y-10019531D02*
X3751015Y-10038579D01*
X3751015Y-10038579D02*
X3751015Y-10057627D01*
X3751015Y-10057627D02*
X3741491Y-10086198D01*
X3741491Y-10086198D02*
X3627206Y-10200484D01*
X3627206Y-10200484D02*
X3751015Y-10200484D01*
X3989110Y-10200484D02*
X3989110Y-10000484D01*
X4074825Y-10200484D02*
X4074825Y-10095722D01*
X4074825Y-10095722D02*
X4065301Y-10076674D01*
X4065301Y-10076674D02*
X4046253Y-10067150D01*
X4046253Y-10067150D02*
X4017682Y-10067150D01*
X4017682Y-10067150D02*
X3998634Y-10076674D01*
X3998634Y-10076674D02*
X3989110Y-10086198D01*
X4198634Y-10200484D02*
X4179587Y-10190960D01*
X4179587Y-10190960D02*
X4170063Y-10181436D01*
X4170063Y-10181436D02*
X4160539Y-10162389D01*
X4160539Y-10162389D02*
X4160539Y-10105246D01*
X4160539Y-10105246D02*
X4170063Y-10086198D01*
X4170063Y-10086198D02*
X4179587Y-10076674D01*
X4179587Y-10076674D02*
X4198634Y-10067150D01*
X4198634Y-10067150D02*
X4227206Y-10067150D01*
X4227206Y-10067150D02*
X4246253Y-10076674D01*
X4246253Y-10076674D02*
X4255777Y-10086198D01*
X4255777Y-10086198D02*
X4265301Y-10105246D01*
X4265301Y-10105246D02*
X4265301Y-10162389D01*
X4265301Y-10162389D02*
X4255777Y-10181436D01*
X4255777Y-10181436D02*
X4246253Y-10190960D01*
X4246253Y-10190960D02*
X4227206Y-10200484D01*
X4227206Y-10200484D02*
X4198634Y-10200484D01*
X4379587Y-10200484D02*
X4360539Y-10190960D01*
X4360539Y-10190960D02*
X4351015Y-10171912D01*
X4351015Y-10171912D02*
X4351015Y-10000484D01*
X4531968Y-10190960D02*
X4512920Y-10200484D01*
X4512920Y-10200484D02*
X4474825Y-10200484D01*
X4474825Y-10200484D02*
X4455777Y-10190960D01*
X4455777Y-10190960D02*
X4446253Y-10171912D01*
X4446253Y-10171912D02*
X4446253Y-10095722D01*
X4446253Y-10095722D02*
X4455777Y-10076674D01*
X4455777Y-10076674D02*
X4474825Y-10067150D01*
X4474825Y-10067150D02*
X4512920Y-10067150D01*
X4512920Y-10067150D02*
X4531968Y-10076674D01*
X4531968Y-10076674D02*
X4541492Y-10095722D01*
X4541492Y-10095722D02*
X4541492Y-10114770D01*
X4541492Y-10114770D02*
X4446253Y-10133817D01*
X4617682Y-10190960D02*
X4636730Y-10200484D01*
X4636730Y-10200484D02*
X4674825Y-10200484D01*
X4674825Y-10200484D02*
X4693873Y-10190960D01*
X4693873Y-10190960D02*
X4703396Y-10171912D01*
X4703396Y-10171912D02*
X4703396Y-10162389D01*
X4703396Y-10162389D02*
X4693873Y-10143341D01*
X4693873Y-10143341D02*
X4674825Y-10133817D01*
X4674825Y-10133817D02*
X4646253Y-10133817D01*
X4646253Y-10133817D02*
X4627206Y-10124293D01*
X4627206Y-10124293D02*
X4617682Y-10105246D01*
X4617682Y-10105246D02*
X4617682Y-10095722D01*
X4617682Y-10095722D02*
X4627206Y-10076674D01*
X4627206Y-10076674D02*
X4646253Y-10067150D01*
X4646253Y-10067150D02*
X4674825Y-10067150D01*
X4674825Y-10067150D02*
X4693873Y-10076674D01*
X4770063Y-10276674D02*
X4779587Y-10267150D01*
X4779587Y-10267150D02*
X4798634Y-10238579D01*
X4798634Y-10238579D02*
X4808158Y-10219531D01*
X4808158Y-10219531D02*
X4817682Y-10190960D01*
X4817682Y-10190960D02*
X4827206Y-10143341D01*
X4827206Y-10143341D02*
X4827206Y-10105246D01*
X4827206Y-10105246D02*
X4817682Y-10057627D01*
X4817682Y-10057627D02*
X4808158Y-10029055D01*
X4808158Y-10029055D02*
X4798634Y-10010008D01*
X4798634Y-10010008D02*
X4779587Y-9981436D01*
X4779587Y-9981436D02*
X4770063Y-9971912D01*
D10*
X-50000Y-10328000D02*
X-50000Y-10418000D01*
X-95000Y-10373000D02*
X-5000Y-10373000D01*
D12*
X293872Y-10264484D02*
X312920Y-10264484D01*
X312920Y-10264484D02*
X331967Y-10274008D01*
X331967Y-10274008D02*
X341491Y-10283531D01*
X341491Y-10283531D02*
X351015Y-10302579D01*
X351015Y-10302579D02*
X360539Y-10340674D01*
X360539Y-10340674D02*
X360539Y-10388293D01*
X360539Y-10388293D02*
X351015Y-10426389D01*
X351015Y-10426389D02*
X341491Y-10445436D01*
X341491Y-10445436D02*
X331967Y-10454960D01*
X331967Y-10454960D02*
X312920Y-10464484D01*
X312920Y-10464484D02*
X293872Y-10464484D01*
X293872Y-10464484D02*
X274824Y-10454960D01*
X274824Y-10454960D02*
X265301Y-10445436D01*
X265301Y-10445436D02*
X255777Y-10426389D01*
X255777Y-10426389D02*
X246253Y-10388293D01*
X246253Y-10388293D02*
X246253Y-10340674D01*
X246253Y-10340674D02*
X255777Y-10302579D01*
X255777Y-10302579D02*
X265301Y-10283531D01*
X265301Y-10283531D02*
X274824Y-10274008D01*
X274824Y-10274008D02*
X293872Y-10264484D01*
X446253Y-10445436D02*
X455777Y-10454960D01*
X455777Y-10454960D02*
X446253Y-10464484D01*
X446253Y-10464484D02*
X436729Y-10454960D01*
X436729Y-10454960D02*
X446253Y-10445436D01*
X446253Y-10445436D02*
X446253Y-10464484D01*
X551015Y-10464484D02*
X589110Y-10464484D01*
X589110Y-10464484D02*
X608158Y-10454960D01*
X608158Y-10454960D02*
X617682Y-10445436D01*
X617682Y-10445436D02*
X636729Y-10416865D01*
X636729Y-10416865D02*
X646253Y-10378770D01*
X646253Y-10378770D02*
X646253Y-10302579D01*
X646253Y-10302579D02*
X636729Y-10283531D01*
X636729Y-10283531D02*
X627205Y-10274008D01*
X627205Y-10274008D02*
X608158Y-10264484D01*
X608158Y-10264484D02*
X570063Y-10264484D01*
X570063Y-10264484D02*
X551015Y-10274008D01*
X551015Y-10274008D02*
X541491Y-10283531D01*
X541491Y-10283531D02*
X531967Y-10302579D01*
X531967Y-10302579D02*
X531967Y-10350198D01*
X531967Y-10350198D02*
X541491Y-10369246D01*
X541491Y-10369246D02*
X551015Y-10378770D01*
X551015Y-10378770D02*
X570063Y-10388293D01*
X570063Y-10388293D02*
X608158Y-10388293D01*
X608158Y-10388293D02*
X627205Y-10378770D01*
X627205Y-10378770D02*
X636729Y-10369246D01*
X636729Y-10369246D02*
X646253Y-10350198D01*
X770062Y-10264484D02*
X789110Y-10264484D01*
X789110Y-10264484D02*
X808158Y-10274008D01*
X808158Y-10274008D02*
X817682Y-10283531D01*
X817682Y-10283531D02*
X827205Y-10302579D01*
X827205Y-10302579D02*
X836729Y-10340674D01*
X836729Y-10340674D02*
X836729Y-10388293D01*
X836729Y-10388293D02*
X827205Y-10426389D01*
X827205Y-10426389D02*
X817682Y-10445436D01*
X817682Y-10445436D02*
X808158Y-10454960D01*
X808158Y-10454960D02*
X789110Y-10464484D01*
X789110Y-10464484D02*
X770062Y-10464484D01*
X770062Y-10464484D02*
X751015Y-10454960D01*
X751015Y-10454960D02*
X741491Y-10445436D01*
X741491Y-10445436D02*
X731967Y-10426389D01*
X731967Y-10426389D02*
X722443Y-10388293D01*
X722443Y-10388293D02*
X722443Y-10340674D01*
X722443Y-10340674D02*
X731967Y-10302579D01*
X731967Y-10302579D02*
X741491Y-10283531D01*
X741491Y-10283531D02*
X751015Y-10274008D01*
X751015Y-10274008D02*
X770062Y-10264484D01*
X960539Y-10264484D02*
X979586Y-10264484D01*
X979586Y-10264484D02*
X998634Y-10274008D01*
X998634Y-10274008D02*
X1008158Y-10283531D01*
X1008158Y-10283531D02*
X1017682Y-10302579D01*
X1017682Y-10302579D02*
X1027205Y-10340674D01*
X1027205Y-10340674D02*
X1027205Y-10388293D01*
X1027205Y-10388293D02*
X1017682Y-10426389D01*
X1017682Y-10426389D02*
X1008158Y-10445436D01*
X1008158Y-10445436D02*
X998634Y-10454960D01*
X998634Y-10454960D02*
X979586Y-10464484D01*
X979586Y-10464484D02*
X960539Y-10464484D01*
X960539Y-10464484D02*
X941491Y-10454960D01*
X941491Y-10454960D02*
X931967Y-10445436D01*
X931967Y-10445436D02*
X922443Y-10426389D01*
X922443Y-10426389D02*
X912920Y-10388293D01*
X912920Y-10388293D02*
X912920Y-10340674D01*
X912920Y-10340674D02*
X922443Y-10302579D01*
X922443Y-10302579D02*
X931967Y-10283531D01*
X931967Y-10283531D02*
X941491Y-10274008D01*
X941491Y-10274008D02*
X960539Y-10264484D01*
X1112920Y-10464484D02*
X1112920Y-10331150D01*
X1112920Y-10350198D02*
X1122444Y-10340674D01*
X1122444Y-10340674D02*
X1141491Y-10331150D01*
X1141491Y-10331150D02*
X1170063Y-10331150D01*
X1170063Y-10331150D02*
X1189110Y-10340674D01*
X1189110Y-10340674D02*
X1198634Y-10359722D01*
X1198634Y-10359722D02*
X1198634Y-10464484D01*
X1198634Y-10359722D02*
X1208158Y-10340674D01*
X1208158Y-10340674D02*
X1227205Y-10331150D01*
X1227205Y-10331150D02*
X1255777Y-10331150D01*
X1255777Y-10331150D02*
X1274825Y-10340674D01*
X1274825Y-10340674D02*
X1284348Y-10359722D01*
X1284348Y-10359722D02*
X1284348Y-10464484D01*
X1379586Y-10464484D02*
X1379586Y-10331150D01*
X1379586Y-10350198D02*
X1389110Y-10340674D01*
X1389110Y-10340674D02*
X1408158Y-10331150D01*
X1408158Y-10331150D02*
X1436729Y-10331150D01*
X1436729Y-10331150D02*
X1455777Y-10340674D01*
X1455777Y-10340674D02*
X1465301Y-10359722D01*
X1465301Y-10359722D02*
X1465301Y-10464484D01*
X1465301Y-10359722D02*
X1474824Y-10340674D01*
X1474824Y-10340674D02*
X1493872Y-10331150D01*
X1493872Y-10331150D02*
X1522443Y-10331150D01*
X1522443Y-10331150D02*
X1541491Y-10340674D01*
X1541491Y-10340674D02*
X1551015Y-10359722D01*
X1551015Y-10359722D02*
X1551015Y-10464484D01*
X1941491Y-10254960D02*
X1770063Y-10512103D01*
X2198634Y-10264484D02*
X2217682Y-10264484D01*
X2217682Y-10264484D02*
X2236729Y-10274008D01*
X2236729Y-10274008D02*
X2246253Y-10283531D01*
X2246253Y-10283531D02*
X2255777Y-10302579D01*
X2255777Y-10302579D02*
X2265301Y-10340674D01*
X2265301Y-10340674D02*
X2265301Y-10388293D01*
X2265301Y-10388293D02*
X2255777Y-10426389D01*
X2255777Y-10426389D02*
X2246253Y-10445436D01*
X2246253Y-10445436D02*
X2236729Y-10454960D01*
X2236729Y-10454960D02*
X2217682Y-10464484D01*
X2217682Y-10464484D02*
X2198634Y-10464484D01*
X2198634Y-10464484D02*
X2179587Y-10454960D01*
X2179587Y-10454960D02*
X2170063Y-10445436D01*
X2170063Y-10445436D02*
X2160539Y-10426389D01*
X2160539Y-10426389D02*
X2151015Y-10388293D01*
X2151015Y-10388293D02*
X2151015Y-10340674D01*
X2151015Y-10340674D02*
X2160539Y-10302579D01*
X2160539Y-10302579D02*
X2170063Y-10283531D01*
X2170063Y-10283531D02*
X2179587Y-10274008D01*
X2179587Y-10274008D02*
X2198634Y-10264484D01*
X2351015Y-10445436D02*
X2360539Y-10454960D01*
X2360539Y-10454960D02*
X2351015Y-10464484D01*
X2351015Y-10464484D02*
X2341491Y-10454960D01*
X2341491Y-10454960D02*
X2351015Y-10445436D01*
X2351015Y-10445436D02*
X2351015Y-10464484D01*
X2484348Y-10264484D02*
X2503396Y-10264484D01*
X2503396Y-10264484D02*
X2522444Y-10274008D01*
X2522444Y-10274008D02*
X2531968Y-10283531D01*
X2531968Y-10283531D02*
X2541491Y-10302579D01*
X2541491Y-10302579D02*
X2551015Y-10340674D01*
X2551015Y-10340674D02*
X2551015Y-10388293D01*
X2551015Y-10388293D02*
X2541491Y-10426389D01*
X2541491Y-10426389D02*
X2531968Y-10445436D01*
X2531968Y-10445436D02*
X2522444Y-10454960D01*
X2522444Y-10454960D02*
X2503396Y-10464484D01*
X2503396Y-10464484D02*
X2484348Y-10464484D01*
X2484348Y-10464484D02*
X2465301Y-10454960D01*
X2465301Y-10454960D02*
X2455777Y-10445436D01*
X2455777Y-10445436D02*
X2446253Y-10426389D01*
X2446253Y-10426389D02*
X2436729Y-10388293D01*
X2436729Y-10388293D02*
X2436729Y-10340674D01*
X2436729Y-10340674D02*
X2446253Y-10302579D01*
X2446253Y-10302579D02*
X2455777Y-10283531D01*
X2455777Y-10283531D02*
X2465301Y-10274008D01*
X2465301Y-10274008D02*
X2484348Y-10264484D01*
X2617682Y-10264484D02*
X2741491Y-10264484D01*
X2741491Y-10264484D02*
X2674825Y-10340674D01*
X2674825Y-10340674D02*
X2703396Y-10340674D01*
X2703396Y-10340674D02*
X2722444Y-10350198D01*
X2722444Y-10350198D02*
X2731968Y-10359722D01*
X2731968Y-10359722D02*
X2741491Y-10378770D01*
X2741491Y-10378770D02*
X2741491Y-10426389D01*
X2741491Y-10426389D02*
X2731968Y-10445436D01*
X2731968Y-10445436D02*
X2722444Y-10454960D01*
X2722444Y-10454960D02*
X2703396Y-10464484D01*
X2703396Y-10464484D02*
X2646253Y-10464484D01*
X2646253Y-10464484D02*
X2627206Y-10454960D01*
X2627206Y-10454960D02*
X2617682Y-10445436D01*
X2922444Y-10264484D02*
X2827206Y-10264484D01*
X2827206Y-10264484D02*
X2817682Y-10359722D01*
X2817682Y-10359722D02*
X2827206Y-10350198D01*
X2827206Y-10350198D02*
X2846253Y-10340674D01*
X2846253Y-10340674D02*
X2893872Y-10340674D01*
X2893872Y-10340674D02*
X2912920Y-10350198D01*
X2912920Y-10350198D02*
X2922444Y-10359722D01*
X2922444Y-10359722D02*
X2931967Y-10378770D01*
X2931967Y-10378770D02*
X2931967Y-10426389D01*
X2931967Y-10426389D02*
X2922444Y-10445436D01*
X2922444Y-10445436D02*
X2912920Y-10454960D01*
X2912920Y-10454960D02*
X2893872Y-10464484D01*
X2893872Y-10464484D02*
X2846253Y-10464484D01*
X2846253Y-10464484D02*
X2827206Y-10454960D01*
X2827206Y-10454960D02*
X2817682Y-10445436D01*
X3103396Y-10331150D02*
X3103396Y-10464484D01*
X3055777Y-10254960D02*
X3008158Y-10397817D01*
X3008158Y-10397817D02*
X3131967Y-10397817D01*
X3198634Y-10264484D02*
X3198634Y-10302579D01*
X3274825Y-10264484D02*
X3274825Y-10302579D01*
X3570063Y-10540674D02*
X3560539Y-10531150D01*
X3560539Y-10531150D02*
X3541491Y-10502579D01*
X3541491Y-10502579D02*
X3531968Y-10483531D01*
X3531968Y-10483531D02*
X3522444Y-10454960D01*
X3522444Y-10454960D02*
X3512920Y-10407341D01*
X3512920Y-10407341D02*
X3512920Y-10369246D01*
X3512920Y-10369246D02*
X3522444Y-10321627D01*
X3522444Y-10321627D02*
X3531968Y-10293055D01*
X3531968Y-10293055D02*
X3541491Y-10274008D01*
X3541491Y-10274008D02*
X3560539Y-10245436D01*
X3560539Y-10245436D02*
X3570063Y-10235912D01*
X3731968Y-10264484D02*
X3693872Y-10264484D01*
X3693872Y-10264484D02*
X3674825Y-10274008D01*
X3674825Y-10274008D02*
X3665301Y-10283531D01*
X3665301Y-10283531D02*
X3646253Y-10312103D01*
X3646253Y-10312103D02*
X3636729Y-10350198D01*
X3636729Y-10350198D02*
X3636729Y-10426389D01*
X3636729Y-10426389D02*
X3646253Y-10445436D01*
X3646253Y-10445436D02*
X3655777Y-10454960D01*
X3655777Y-10454960D02*
X3674825Y-10464484D01*
X3674825Y-10464484D02*
X3712920Y-10464484D01*
X3712920Y-10464484D02*
X3731968Y-10454960D01*
X3731968Y-10454960D02*
X3741491Y-10445436D01*
X3741491Y-10445436D02*
X3751015Y-10426389D01*
X3751015Y-10426389D02*
X3751015Y-10378770D01*
X3751015Y-10378770D02*
X3741491Y-10359722D01*
X3741491Y-10359722D02*
X3731968Y-10350198D01*
X3731968Y-10350198D02*
X3712920Y-10340674D01*
X3712920Y-10340674D02*
X3674825Y-10340674D01*
X3674825Y-10340674D02*
X3655777Y-10350198D01*
X3655777Y-10350198D02*
X3646253Y-10359722D01*
X3646253Y-10359722D02*
X3636729Y-10378770D01*
X3989110Y-10464484D02*
X3989110Y-10264484D01*
X4074825Y-10464484D02*
X4074825Y-10359722D01*
X4074825Y-10359722D02*
X4065301Y-10340674D01*
X4065301Y-10340674D02*
X4046253Y-10331150D01*
X4046253Y-10331150D02*
X4017682Y-10331150D01*
X4017682Y-10331150D02*
X3998634Y-10340674D01*
X3998634Y-10340674D02*
X3989110Y-10350198D01*
X4198634Y-10464484D02*
X4179587Y-10454960D01*
X4179587Y-10454960D02*
X4170063Y-10445436D01*
X4170063Y-10445436D02*
X4160539Y-10426389D01*
X4160539Y-10426389D02*
X4160539Y-10369246D01*
X4160539Y-10369246D02*
X4170063Y-10350198D01*
X4170063Y-10350198D02*
X4179587Y-10340674D01*
X4179587Y-10340674D02*
X4198634Y-10331150D01*
X4198634Y-10331150D02*
X4227206Y-10331150D01*
X4227206Y-10331150D02*
X4246253Y-10340674D01*
X4246253Y-10340674D02*
X4255777Y-10350198D01*
X4255777Y-10350198D02*
X4265301Y-10369246D01*
X4265301Y-10369246D02*
X4265301Y-10426389D01*
X4265301Y-10426389D02*
X4255777Y-10445436D01*
X4255777Y-10445436D02*
X4246253Y-10454960D01*
X4246253Y-10454960D02*
X4227206Y-10464484D01*
X4227206Y-10464484D02*
X4198634Y-10464484D01*
X4379587Y-10464484D02*
X4360539Y-10454960D01*
X4360539Y-10454960D02*
X4351015Y-10435912D01*
X4351015Y-10435912D02*
X4351015Y-10264484D01*
X4531968Y-10454960D02*
X4512920Y-10464484D01*
X4512920Y-10464484D02*
X4474825Y-10464484D01*
X4474825Y-10464484D02*
X4455777Y-10454960D01*
X4455777Y-10454960D02*
X4446253Y-10435912D01*
X4446253Y-10435912D02*
X4446253Y-10359722D01*
X4446253Y-10359722D02*
X4455777Y-10340674D01*
X4455777Y-10340674D02*
X4474825Y-10331150D01*
X4474825Y-10331150D02*
X4512920Y-10331150D01*
X4512920Y-10331150D02*
X4531968Y-10340674D01*
X4531968Y-10340674D02*
X4541492Y-10359722D01*
X4541492Y-10359722D02*
X4541492Y-10378770D01*
X4541492Y-10378770D02*
X4446253Y-10397817D01*
X4617682Y-10454960D02*
X4636730Y-10464484D01*
X4636730Y-10464484D02*
X4674825Y-10464484D01*
X4674825Y-10464484D02*
X4693873Y-10454960D01*
X4693873Y-10454960D02*
X4703396Y-10435912D01*
X4703396Y-10435912D02*
X4703396Y-10426389D01*
X4703396Y-10426389D02*
X4693873Y-10407341D01*
X4693873Y-10407341D02*
X4674825Y-10397817D01*
X4674825Y-10397817D02*
X4646253Y-10397817D01*
X4646253Y-10397817D02*
X4627206Y-10388293D01*
X4627206Y-10388293D02*
X4617682Y-10369246D01*
X4617682Y-10369246D02*
X4617682Y-10359722D01*
X4617682Y-10359722D02*
X4627206Y-10340674D01*
X4627206Y-10340674D02*
X4646253Y-10331150D01*
X4646253Y-10331150D02*
X4674825Y-10331150D01*
X4674825Y-10331150D02*
X4693873Y-10340674D01*
X4770063Y-10540674D02*
X4779587Y-10531150D01*
X4779587Y-10531150D02*
X4798634Y-10502579D01*
X4798634Y-10502579D02*
X4808158Y-10483531D01*
X4808158Y-10483531D02*
X4817682Y-10454960D01*
X4817682Y-10454960D02*
X4827206Y-10407341D01*
X4827206Y-10407341D02*
X4827206Y-10369246D01*
X4827206Y-10369246D02*
X4817682Y-10321627D01*
X4817682Y-10321627D02*
X4808158Y-10293055D01*
X4808158Y-10293055D02*
X4798634Y-10274008D01*
X4798634Y-10274008D02*
X4779587Y-10245436D01*
X4779587Y-10245436D02*
X4770063Y-10235912D01*
D10*
X-18912Y-10670588D02*
X-18912Y-10603412D01*
X-86088Y-10603412D01*
X-86088Y-10670588D01*
X-18912Y-10670588D01*
D12*
X293872Y-10528484D02*
X312920Y-10528484D01*
X312920Y-10528484D02*
X331967Y-10538008D01*
X331967Y-10538008D02*
X341491Y-10547531D01*
X341491Y-10547531D02*
X351015Y-10566579D01*
X351015Y-10566579D02*
X360539Y-10604674D01*
X360539Y-10604674D02*
X360539Y-10652293D01*
X360539Y-10652293D02*
X351015Y-10690389D01*
X351015Y-10690389D02*
X341491Y-10709436D01*
X341491Y-10709436D02*
X331967Y-10718960D01*
X331967Y-10718960D02*
X312920Y-10728484D01*
X312920Y-10728484D02*
X293872Y-10728484D01*
X293872Y-10728484D02*
X274824Y-10718960D01*
X274824Y-10718960D02*
X265301Y-10709436D01*
X265301Y-10709436D02*
X255777Y-10690389D01*
X255777Y-10690389D02*
X246253Y-10652293D01*
X246253Y-10652293D02*
X246253Y-10604674D01*
X246253Y-10604674D02*
X255777Y-10566579D01*
X255777Y-10566579D02*
X265301Y-10547531D01*
X265301Y-10547531D02*
X274824Y-10538008D01*
X274824Y-10538008D02*
X293872Y-10528484D01*
X446253Y-10709436D02*
X455777Y-10718960D01*
X455777Y-10718960D02*
X446253Y-10728484D01*
X446253Y-10728484D02*
X436729Y-10718960D01*
X436729Y-10718960D02*
X446253Y-10709436D01*
X446253Y-10709436D02*
X446253Y-10728484D01*
X551015Y-10728484D02*
X589110Y-10728484D01*
X589110Y-10728484D02*
X608158Y-10718960D01*
X608158Y-10718960D02*
X617682Y-10709436D01*
X617682Y-10709436D02*
X636729Y-10680865D01*
X636729Y-10680865D02*
X646253Y-10642770D01*
X646253Y-10642770D02*
X646253Y-10566579D01*
X646253Y-10566579D02*
X636729Y-10547531D01*
X636729Y-10547531D02*
X627205Y-10538008D01*
X627205Y-10538008D02*
X608158Y-10528484D01*
X608158Y-10528484D02*
X570063Y-10528484D01*
X570063Y-10528484D02*
X551015Y-10538008D01*
X551015Y-10538008D02*
X541491Y-10547531D01*
X541491Y-10547531D02*
X531967Y-10566579D01*
X531967Y-10566579D02*
X531967Y-10614198D01*
X531967Y-10614198D02*
X541491Y-10633246D01*
X541491Y-10633246D02*
X551015Y-10642770D01*
X551015Y-10642770D02*
X570063Y-10652293D01*
X570063Y-10652293D02*
X608158Y-10652293D01*
X608158Y-10652293D02*
X627205Y-10642770D01*
X627205Y-10642770D02*
X636729Y-10633246D01*
X636729Y-10633246D02*
X646253Y-10614198D01*
X827205Y-10528484D02*
X731967Y-10528484D01*
X731967Y-10528484D02*
X722443Y-10623722D01*
X722443Y-10623722D02*
X731967Y-10614198D01*
X731967Y-10614198D02*
X751015Y-10604674D01*
X751015Y-10604674D02*
X798634Y-10604674D01*
X798634Y-10604674D02*
X817682Y-10614198D01*
X817682Y-10614198D02*
X827205Y-10623722D01*
X827205Y-10623722D02*
X836729Y-10642770D01*
X836729Y-10642770D02*
X836729Y-10690389D01*
X836729Y-10690389D02*
X827205Y-10709436D01*
X827205Y-10709436D02*
X817682Y-10718960D01*
X817682Y-10718960D02*
X798634Y-10728484D01*
X798634Y-10728484D02*
X751015Y-10728484D01*
X751015Y-10728484D02*
X731967Y-10718960D01*
X731967Y-10718960D02*
X722443Y-10709436D01*
X960539Y-10528484D02*
X979586Y-10528484D01*
X979586Y-10528484D02*
X998634Y-10538008D01*
X998634Y-10538008D02*
X1008158Y-10547531D01*
X1008158Y-10547531D02*
X1017682Y-10566579D01*
X1017682Y-10566579D02*
X1027205Y-10604674D01*
X1027205Y-10604674D02*
X1027205Y-10652293D01*
X1027205Y-10652293D02*
X1017682Y-10690389D01*
X1017682Y-10690389D02*
X1008158Y-10709436D01*
X1008158Y-10709436D02*
X998634Y-10718960D01*
X998634Y-10718960D02*
X979586Y-10728484D01*
X979586Y-10728484D02*
X960539Y-10728484D01*
X960539Y-10728484D02*
X941491Y-10718960D01*
X941491Y-10718960D02*
X931967Y-10709436D01*
X931967Y-10709436D02*
X922443Y-10690389D01*
X922443Y-10690389D02*
X912920Y-10652293D01*
X912920Y-10652293D02*
X912920Y-10604674D01*
X912920Y-10604674D02*
X922443Y-10566579D01*
X922443Y-10566579D02*
X931967Y-10547531D01*
X931967Y-10547531D02*
X941491Y-10538008D01*
X941491Y-10538008D02*
X960539Y-10528484D01*
X1112920Y-10728484D02*
X1112920Y-10595150D01*
X1112920Y-10614198D02*
X1122444Y-10604674D01*
X1122444Y-10604674D02*
X1141491Y-10595150D01*
X1141491Y-10595150D02*
X1170063Y-10595150D01*
X1170063Y-10595150D02*
X1189110Y-10604674D01*
X1189110Y-10604674D02*
X1198634Y-10623722D01*
X1198634Y-10623722D02*
X1198634Y-10728484D01*
X1198634Y-10623722D02*
X1208158Y-10604674D01*
X1208158Y-10604674D02*
X1227205Y-10595150D01*
X1227205Y-10595150D02*
X1255777Y-10595150D01*
X1255777Y-10595150D02*
X1274825Y-10604674D01*
X1274825Y-10604674D02*
X1284348Y-10623722D01*
X1284348Y-10623722D02*
X1284348Y-10728484D01*
X1379586Y-10728484D02*
X1379586Y-10595150D01*
X1379586Y-10614198D02*
X1389110Y-10604674D01*
X1389110Y-10604674D02*
X1408158Y-10595150D01*
X1408158Y-10595150D02*
X1436729Y-10595150D01*
X1436729Y-10595150D02*
X1455777Y-10604674D01*
X1455777Y-10604674D02*
X1465301Y-10623722D01*
X1465301Y-10623722D02*
X1465301Y-10728484D01*
X1465301Y-10623722D02*
X1474824Y-10604674D01*
X1474824Y-10604674D02*
X1493872Y-10595150D01*
X1493872Y-10595150D02*
X1522443Y-10595150D01*
X1522443Y-10595150D02*
X1541491Y-10604674D01*
X1541491Y-10604674D02*
X1551015Y-10623722D01*
X1551015Y-10623722D02*
X1551015Y-10728484D01*
X1941491Y-10518960D02*
X1770063Y-10776103D01*
X2198634Y-10528484D02*
X2217682Y-10528484D01*
X2217682Y-10528484D02*
X2236729Y-10538008D01*
X2236729Y-10538008D02*
X2246253Y-10547531D01*
X2246253Y-10547531D02*
X2255777Y-10566579D01*
X2255777Y-10566579D02*
X2265301Y-10604674D01*
X2265301Y-10604674D02*
X2265301Y-10652293D01*
X2265301Y-10652293D02*
X2255777Y-10690389D01*
X2255777Y-10690389D02*
X2246253Y-10709436D01*
X2246253Y-10709436D02*
X2236729Y-10718960D01*
X2236729Y-10718960D02*
X2217682Y-10728484D01*
X2217682Y-10728484D02*
X2198634Y-10728484D01*
X2198634Y-10728484D02*
X2179587Y-10718960D01*
X2179587Y-10718960D02*
X2170063Y-10709436D01*
X2170063Y-10709436D02*
X2160539Y-10690389D01*
X2160539Y-10690389D02*
X2151015Y-10652293D01*
X2151015Y-10652293D02*
X2151015Y-10604674D01*
X2151015Y-10604674D02*
X2160539Y-10566579D01*
X2160539Y-10566579D02*
X2170063Y-10547531D01*
X2170063Y-10547531D02*
X2179587Y-10538008D01*
X2179587Y-10538008D02*
X2198634Y-10528484D01*
X2351015Y-10709436D02*
X2360539Y-10718960D01*
X2360539Y-10718960D02*
X2351015Y-10728484D01*
X2351015Y-10728484D02*
X2341491Y-10718960D01*
X2341491Y-10718960D02*
X2351015Y-10709436D01*
X2351015Y-10709436D02*
X2351015Y-10728484D01*
X2484348Y-10528484D02*
X2503396Y-10528484D01*
X2503396Y-10528484D02*
X2522444Y-10538008D01*
X2522444Y-10538008D02*
X2531968Y-10547531D01*
X2531968Y-10547531D02*
X2541491Y-10566579D01*
X2541491Y-10566579D02*
X2551015Y-10604674D01*
X2551015Y-10604674D02*
X2551015Y-10652293D01*
X2551015Y-10652293D02*
X2541491Y-10690389D01*
X2541491Y-10690389D02*
X2531968Y-10709436D01*
X2531968Y-10709436D02*
X2522444Y-10718960D01*
X2522444Y-10718960D02*
X2503396Y-10728484D01*
X2503396Y-10728484D02*
X2484348Y-10728484D01*
X2484348Y-10728484D02*
X2465301Y-10718960D01*
X2465301Y-10718960D02*
X2455777Y-10709436D01*
X2455777Y-10709436D02*
X2446253Y-10690389D01*
X2446253Y-10690389D02*
X2436729Y-10652293D01*
X2436729Y-10652293D02*
X2436729Y-10604674D01*
X2436729Y-10604674D02*
X2446253Y-10566579D01*
X2446253Y-10566579D02*
X2455777Y-10547531D01*
X2455777Y-10547531D02*
X2465301Y-10538008D01*
X2465301Y-10538008D02*
X2484348Y-10528484D01*
X2617682Y-10528484D02*
X2741491Y-10528484D01*
X2741491Y-10528484D02*
X2674825Y-10604674D01*
X2674825Y-10604674D02*
X2703396Y-10604674D01*
X2703396Y-10604674D02*
X2722444Y-10614198D01*
X2722444Y-10614198D02*
X2731968Y-10623722D01*
X2731968Y-10623722D02*
X2741491Y-10642770D01*
X2741491Y-10642770D02*
X2741491Y-10690389D01*
X2741491Y-10690389D02*
X2731968Y-10709436D01*
X2731968Y-10709436D02*
X2722444Y-10718960D01*
X2722444Y-10718960D02*
X2703396Y-10728484D01*
X2703396Y-10728484D02*
X2646253Y-10728484D01*
X2646253Y-10728484D02*
X2627206Y-10718960D01*
X2627206Y-10718960D02*
X2617682Y-10709436D01*
X2808158Y-10528484D02*
X2941491Y-10528484D01*
X2941491Y-10528484D02*
X2855777Y-10728484D01*
X3103396Y-10595150D02*
X3103396Y-10728484D01*
X3055777Y-10518960D02*
X3008158Y-10661817D01*
X3008158Y-10661817D02*
X3131967Y-10661817D01*
X3198634Y-10528484D02*
X3198634Y-10566579D01*
X3274825Y-10528484D02*
X3274825Y-10566579D01*
X3570063Y-10804674D02*
X3560539Y-10795150D01*
X3560539Y-10795150D02*
X3541491Y-10766579D01*
X3541491Y-10766579D02*
X3531968Y-10747531D01*
X3531968Y-10747531D02*
X3522444Y-10718960D01*
X3522444Y-10718960D02*
X3512920Y-10671341D01*
X3512920Y-10671341D02*
X3512920Y-10633246D01*
X3512920Y-10633246D02*
X3522444Y-10585627D01*
X3522444Y-10585627D02*
X3531968Y-10557055D01*
X3531968Y-10557055D02*
X3541491Y-10538008D01*
X3541491Y-10538008D02*
X3560539Y-10509436D01*
X3560539Y-10509436D02*
X3570063Y-10499912D01*
X3751015Y-10728484D02*
X3636729Y-10728484D01*
X3693872Y-10728484D02*
X3693872Y-10528484D01*
X3693872Y-10528484D02*
X3674825Y-10557055D01*
X3674825Y-10557055D02*
X3655777Y-10576103D01*
X3655777Y-10576103D02*
X3636729Y-10585627D01*
X3941491Y-10728484D02*
X3827206Y-10728484D01*
X3884348Y-10728484D02*
X3884348Y-10528484D01*
X3884348Y-10528484D02*
X3865301Y-10557055D01*
X3865301Y-10557055D02*
X3846253Y-10576103D01*
X3846253Y-10576103D02*
X3827206Y-10585627D01*
X4179587Y-10728484D02*
X4179587Y-10528484D01*
X4265301Y-10728484D02*
X4265301Y-10623722D01*
X4265301Y-10623722D02*
X4255777Y-10604674D01*
X4255777Y-10604674D02*
X4236730Y-10595150D01*
X4236730Y-10595150D02*
X4208158Y-10595150D01*
X4208158Y-10595150D02*
X4189110Y-10604674D01*
X4189110Y-10604674D02*
X4179587Y-10614198D01*
X4389111Y-10728484D02*
X4370063Y-10718960D01*
X4370063Y-10718960D02*
X4360539Y-10709436D01*
X4360539Y-10709436D02*
X4351015Y-10690389D01*
X4351015Y-10690389D02*
X4351015Y-10633246D01*
X4351015Y-10633246D02*
X4360539Y-10614198D01*
X4360539Y-10614198D02*
X4370063Y-10604674D01*
X4370063Y-10604674D02*
X4389111Y-10595150D01*
X4389111Y-10595150D02*
X4417682Y-10595150D01*
X4417682Y-10595150D02*
X4436730Y-10604674D01*
X4436730Y-10604674D02*
X4446253Y-10614198D01*
X4446253Y-10614198D02*
X4455777Y-10633246D01*
X4455777Y-10633246D02*
X4455777Y-10690389D01*
X4455777Y-10690389D02*
X4446253Y-10709436D01*
X4446253Y-10709436D02*
X4436730Y-10718960D01*
X4436730Y-10718960D02*
X4417682Y-10728484D01*
X4417682Y-10728484D02*
X4389111Y-10728484D01*
X4570063Y-10728484D02*
X4551015Y-10718960D01*
X4551015Y-10718960D02*
X4541492Y-10699912D01*
X4541492Y-10699912D02*
X4541492Y-10528484D01*
X4722444Y-10718960D02*
X4703396Y-10728484D01*
X4703396Y-10728484D02*
X4665301Y-10728484D01*
X4665301Y-10728484D02*
X4646253Y-10718960D01*
X4646253Y-10718960D02*
X4636730Y-10699912D01*
X4636730Y-10699912D02*
X4636730Y-10623722D01*
X4636730Y-10623722D02*
X4646253Y-10604674D01*
X4646253Y-10604674D02*
X4665301Y-10595150D01*
X4665301Y-10595150D02*
X4703396Y-10595150D01*
X4703396Y-10595150D02*
X4722444Y-10604674D01*
X4722444Y-10604674D02*
X4731968Y-10623722D01*
X4731968Y-10623722D02*
X4731968Y-10642770D01*
X4731968Y-10642770D02*
X4636730Y-10661817D01*
X4808158Y-10718960D02*
X4827206Y-10728484D01*
X4827206Y-10728484D02*
X4865301Y-10728484D01*
X4865301Y-10728484D02*
X4884349Y-10718960D01*
X4884349Y-10718960D02*
X4893873Y-10699912D01*
X4893873Y-10699912D02*
X4893873Y-10690389D01*
X4893873Y-10690389D02*
X4884349Y-10671341D01*
X4884349Y-10671341D02*
X4865301Y-10661817D01*
X4865301Y-10661817D02*
X4836730Y-10661817D01*
X4836730Y-10661817D02*
X4817682Y-10652293D01*
X4817682Y-10652293D02*
X4808158Y-10633246D01*
X4808158Y-10633246D02*
X4808158Y-10623722D01*
X4808158Y-10623722D02*
X4817682Y-10604674D01*
X4817682Y-10604674D02*
X4836730Y-10595150D01*
X4836730Y-10595150D02*
X4865301Y-10595150D01*
X4865301Y-10595150D02*
X4884349Y-10604674D01*
X4960539Y-10804674D02*
X4970063Y-10795150D01*
X4970063Y-10795150D02*
X4989111Y-10766579D01*
X4989111Y-10766579D02*
X4998634Y-10747531D01*
X4998634Y-10747531D02*
X5008158Y-10718960D01*
X5008158Y-10718960D02*
X5017682Y-10671341D01*
X5017682Y-10671341D02*
X5017682Y-10633246D01*
X5017682Y-10633246D02*
X5008158Y-10585627D01*
X5008158Y-10585627D02*
X4998634Y-10557055D01*
X4998634Y-10557055D02*
X4989111Y-10538008D01*
X4989111Y-10538008D02*
X4970063Y-10509436D01*
X4970063Y-10509436D02*
X4960539Y-10499912D01*
D10*
X-55000Y-10951000D02*
X-5000Y-10901000D01*
X-55000Y-10851000D01*
X-105000Y-10901000D01*
X-55000Y-10951000D01*
D12*
X360539Y-10992484D02*
X246253Y-10992484D01*
X303396Y-10992484D02*
X303396Y-10792484D01*
X303396Y-10792484D02*
X284348Y-10821055D01*
X284348Y-10821055D02*
X265301Y-10840103D01*
X265301Y-10840103D02*
X246253Y-10849627D01*
X446253Y-10973436D02*
X455777Y-10982960D01*
X455777Y-10982960D02*
X446253Y-10992484D01*
X446253Y-10992484D02*
X436729Y-10982960D01*
X436729Y-10982960D02*
X446253Y-10973436D01*
X446253Y-10973436D02*
X446253Y-10992484D01*
X579586Y-10792484D02*
X598634Y-10792484D01*
X598634Y-10792484D02*
X617682Y-10802008D01*
X617682Y-10802008D02*
X627205Y-10811531D01*
X627205Y-10811531D02*
X636729Y-10830579D01*
X636729Y-10830579D02*
X646253Y-10868674D01*
X646253Y-10868674D02*
X646253Y-10916293D01*
X646253Y-10916293D02*
X636729Y-10954389D01*
X636729Y-10954389D02*
X627205Y-10973436D01*
X627205Y-10973436D02*
X617682Y-10982960D01*
X617682Y-10982960D02*
X598634Y-10992484D01*
X598634Y-10992484D02*
X579586Y-10992484D01*
X579586Y-10992484D02*
X560539Y-10982960D01*
X560539Y-10982960D02*
X551015Y-10973436D01*
X551015Y-10973436D02*
X541491Y-10954389D01*
X541491Y-10954389D02*
X531967Y-10916293D01*
X531967Y-10916293D02*
X531967Y-10868674D01*
X531967Y-10868674D02*
X541491Y-10830579D01*
X541491Y-10830579D02*
X551015Y-10811531D01*
X551015Y-10811531D02*
X560539Y-10802008D01*
X560539Y-10802008D02*
X579586Y-10792484D01*
X770062Y-10792484D02*
X789110Y-10792484D01*
X789110Y-10792484D02*
X808158Y-10802008D01*
X808158Y-10802008D02*
X817682Y-10811531D01*
X817682Y-10811531D02*
X827205Y-10830579D01*
X827205Y-10830579D02*
X836729Y-10868674D01*
X836729Y-10868674D02*
X836729Y-10916293D01*
X836729Y-10916293D02*
X827205Y-10954389D01*
X827205Y-10954389D02*
X817682Y-10973436D01*
X817682Y-10973436D02*
X808158Y-10982960D01*
X808158Y-10982960D02*
X789110Y-10992484D01*
X789110Y-10992484D02*
X770062Y-10992484D01*
X770062Y-10992484D02*
X751015Y-10982960D01*
X751015Y-10982960D02*
X741491Y-10973436D01*
X741491Y-10973436D02*
X731967Y-10954389D01*
X731967Y-10954389D02*
X722443Y-10916293D01*
X722443Y-10916293D02*
X722443Y-10868674D01*
X722443Y-10868674D02*
X731967Y-10830579D01*
X731967Y-10830579D02*
X741491Y-10811531D01*
X741491Y-10811531D02*
X751015Y-10802008D01*
X751015Y-10802008D02*
X770062Y-10792484D01*
X960539Y-10792484D02*
X979586Y-10792484D01*
X979586Y-10792484D02*
X998634Y-10802008D01*
X998634Y-10802008D02*
X1008158Y-10811531D01*
X1008158Y-10811531D02*
X1017682Y-10830579D01*
X1017682Y-10830579D02*
X1027205Y-10868674D01*
X1027205Y-10868674D02*
X1027205Y-10916293D01*
X1027205Y-10916293D02*
X1017682Y-10954389D01*
X1017682Y-10954389D02*
X1008158Y-10973436D01*
X1008158Y-10973436D02*
X998634Y-10982960D01*
X998634Y-10982960D02*
X979586Y-10992484D01*
X979586Y-10992484D02*
X960539Y-10992484D01*
X960539Y-10992484D02*
X941491Y-10982960D01*
X941491Y-10982960D02*
X931967Y-10973436D01*
X931967Y-10973436D02*
X922443Y-10954389D01*
X922443Y-10954389D02*
X912920Y-10916293D01*
X912920Y-10916293D02*
X912920Y-10868674D01*
X912920Y-10868674D02*
X922443Y-10830579D01*
X922443Y-10830579D02*
X931967Y-10811531D01*
X931967Y-10811531D02*
X941491Y-10802008D01*
X941491Y-10802008D02*
X960539Y-10792484D01*
X1112920Y-10992484D02*
X1112920Y-10859150D01*
X1112920Y-10878198D02*
X1122444Y-10868674D01*
X1122444Y-10868674D02*
X1141491Y-10859150D01*
X1141491Y-10859150D02*
X1170063Y-10859150D01*
X1170063Y-10859150D02*
X1189110Y-10868674D01*
X1189110Y-10868674D02*
X1198634Y-10887722D01*
X1198634Y-10887722D02*
X1198634Y-10992484D01*
X1198634Y-10887722D02*
X1208158Y-10868674D01*
X1208158Y-10868674D02*
X1227205Y-10859150D01*
X1227205Y-10859150D02*
X1255777Y-10859150D01*
X1255777Y-10859150D02*
X1274825Y-10868674D01*
X1274825Y-10868674D02*
X1284348Y-10887722D01*
X1284348Y-10887722D02*
X1284348Y-10992484D01*
X1379586Y-10992484D02*
X1379586Y-10859150D01*
X1379586Y-10878198D02*
X1389110Y-10868674D01*
X1389110Y-10868674D02*
X1408158Y-10859150D01*
X1408158Y-10859150D02*
X1436729Y-10859150D01*
X1436729Y-10859150D02*
X1455777Y-10868674D01*
X1455777Y-10868674D02*
X1465301Y-10887722D01*
X1465301Y-10887722D02*
X1465301Y-10992484D01*
X1465301Y-10887722D02*
X1474824Y-10868674D01*
X1474824Y-10868674D02*
X1493872Y-10859150D01*
X1493872Y-10859150D02*
X1522443Y-10859150D01*
X1522443Y-10859150D02*
X1541491Y-10868674D01*
X1541491Y-10868674D02*
X1551015Y-10887722D01*
X1551015Y-10887722D02*
X1551015Y-10992484D01*
X1941491Y-10782960D02*
X1770063Y-11040103D01*
X2198634Y-10792484D02*
X2217682Y-10792484D01*
X2217682Y-10792484D02*
X2236729Y-10802008D01*
X2236729Y-10802008D02*
X2246253Y-10811531D01*
X2246253Y-10811531D02*
X2255777Y-10830579D01*
X2255777Y-10830579D02*
X2265301Y-10868674D01*
X2265301Y-10868674D02*
X2265301Y-10916293D01*
X2265301Y-10916293D02*
X2255777Y-10954389D01*
X2255777Y-10954389D02*
X2246253Y-10973436D01*
X2246253Y-10973436D02*
X2236729Y-10982960D01*
X2236729Y-10982960D02*
X2217682Y-10992484D01*
X2217682Y-10992484D02*
X2198634Y-10992484D01*
X2198634Y-10992484D02*
X2179587Y-10982960D01*
X2179587Y-10982960D02*
X2170063Y-10973436D01*
X2170063Y-10973436D02*
X2160539Y-10954389D01*
X2160539Y-10954389D02*
X2151015Y-10916293D01*
X2151015Y-10916293D02*
X2151015Y-10868674D01*
X2151015Y-10868674D02*
X2160539Y-10830579D01*
X2160539Y-10830579D02*
X2170063Y-10811531D01*
X2170063Y-10811531D02*
X2179587Y-10802008D01*
X2179587Y-10802008D02*
X2198634Y-10792484D01*
X2351015Y-10973436D02*
X2360539Y-10982960D01*
X2360539Y-10982960D02*
X2351015Y-10992484D01*
X2351015Y-10992484D02*
X2341491Y-10982960D01*
X2341491Y-10982960D02*
X2351015Y-10973436D01*
X2351015Y-10973436D02*
X2351015Y-10992484D01*
X2484348Y-10792484D02*
X2503396Y-10792484D01*
X2503396Y-10792484D02*
X2522444Y-10802008D01*
X2522444Y-10802008D02*
X2531968Y-10811531D01*
X2531968Y-10811531D02*
X2541491Y-10830579D01*
X2541491Y-10830579D02*
X2551015Y-10868674D01*
X2551015Y-10868674D02*
X2551015Y-10916293D01*
X2551015Y-10916293D02*
X2541491Y-10954389D01*
X2541491Y-10954389D02*
X2531968Y-10973436D01*
X2531968Y-10973436D02*
X2522444Y-10982960D01*
X2522444Y-10982960D02*
X2503396Y-10992484D01*
X2503396Y-10992484D02*
X2484348Y-10992484D01*
X2484348Y-10992484D02*
X2465301Y-10982960D01*
X2465301Y-10982960D02*
X2455777Y-10973436D01*
X2455777Y-10973436D02*
X2446253Y-10954389D01*
X2446253Y-10954389D02*
X2436729Y-10916293D01*
X2436729Y-10916293D02*
X2436729Y-10868674D01*
X2436729Y-10868674D02*
X2446253Y-10830579D01*
X2446253Y-10830579D02*
X2455777Y-10811531D01*
X2455777Y-10811531D02*
X2465301Y-10802008D01*
X2465301Y-10802008D02*
X2484348Y-10792484D01*
X2617682Y-10792484D02*
X2741491Y-10792484D01*
X2741491Y-10792484D02*
X2674825Y-10868674D01*
X2674825Y-10868674D02*
X2703396Y-10868674D01*
X2703396Y-10868674D02*
X2722444Y-10878198D01*
X2722444Y-10878198D02*
X2731968Y-10887722D01*
X2731968Y-10887722D02*
X2741491Y-10906770D01*
X2741491Y-10906770D02*
X2741491Y-10954389D01*
X2741491Y-10954389D02*
X2731968Y-10973436D01*
X2731968Y-10973436D02*
X2722444Y-10982960D01*
X2722444Y-10982960D02*
X2703396Y-10992484D01*
X2703396Y-10992484D02*
X2646253Y-10992484D01*
X2646253Y-10992484D02*
X2627206Y-10982960D01*
X2627206Y-10982960D02*
X2617682Y-10973436D01*
X2836729Y-10992484D02*
X2874825Y-10992484D01*
X2874825Y-10992484D02*
X2893872Y-10982960D01*
X2893872Y-10982960D02*
X2903396Y-10973436D01*
X2903396Y-10973436D02*
X2922444Y-10944865D01*
X2922444Y-10944865D02*
X2931967Y-10906770D01*
X2931967Y-10906770D02*
X2931967Y-10830579D01*
X2931967Y-10830579D02*
X2922444Y-10811531D01*
X2922444Y-10811531D02*
X2912920Y-10802008D01*
X2912920Y-10802008D02*
X2893872Y-10792484D01*
X2893872Y-10792484D02*
X2855777Y-10792484D01*
X2855777Y-10792484D02*
X2836729Y-10802008D01*
X2836729Y-10802008D02*
X2827206Y-10811531D01*
X2827206Y-10811531D02*
X2817682Y-10830579D01*
X2817682Y-10830579D02*
X2817682Y-10878198D01*
X2817682Y-10878198D02*
X2827206Y-10897246D01*
X2827206Y-10897246D02*
X2836729Y-10906770D01*
X2836729Y-10906770D02*
X2855777Y-10916293D01*
X2855777Y-10916293D02*
X2893872Y-10916293D01*
X2893872Y-10916293D02*
X2912920Y-10906770D01*
X2912920Y-10906770D02*
X2922444Y-10897246D01*
X2922444Y-10897246D02*
X2931967Y-10878198D01*
X3103396Y-10859150D02*
X3103396Y-10992484D01*
X3055777Y-10782960D02*
X3008158Y-10925817D01*
X3008158Y-10925817D02*
X3131967Y-10925817D01*
X3198634Y-10792484D02*
X3198634Y-10830579D01*
X3274825Y-10792484D02*
X3274825Y-10830579D01*
X3570063Y-11068674D02*
X3560539Y-11059150D01*
X3560539Y-11059150D02*
X3541491Y-11030579D01*
X3541491Y-11030579D02*
X3531968Y-11011531D01*
X3531968Y-11011531D02*
X3522444Y-10982960D01*
X3522444Y-10982960D02*
X3512920Y-10935341D01*
X3512920Y-10935341D02*
X3512920Y-10897246D01*
X3512920Y-10897246D02*
X3522444Y-10849627D01*
X3522444Y-10849627D02*
X3531968Y-10821055D01*
X3531968Y-10821055D02*
X3541491Y-10802008D01*
X3541491Y-10802008D02*
X3560539Y-10773436D01*
X3560539Y-10773436D02*
X3570063Y-10763912D01*
X3751015Y-10992484D02*
X3636729Y-10992484D01*
X3693872Y-10992484D02*
X3693872Y-10792484D01*
X3693872Y-10792484D02*
X3674825Y-10821055D01*
X3674825Y-10821055D02*
X3655777Y-10840103D01*
X3655777Y-10840103D02*
X3636729Y-10849627D01*
X3827206Y-10811531D02*
X3836729Y-10802008D01*
X3836729Y-10802008D02*
X3855777Y-10792484D01*
X3855777Y-10792484D02*
X3903396Y-10792484D01*
X3903396Y-10792484D02*
X3922444Y-10802008D01*
X3922444Y-10802008D02*
X3931968Y-10811531D01*
X3931968Y-10811531D02*
X3941491Y-10830579D01*
X3941491Y-10830579D02*
X3941491Y-10849627D01*
X3941491Y-10849627D02*
X3931968Y-10878198D01*
X3931968Y-10878198D02*
X3817682Y-10992484D01*
X3817682Y-10992484D02*
X3941491Y-10992484D01*
X4179587Y-10992484D02*
X4179587Y-10792484D01*
X4265301Y-10992484D02*
X4265301Y-10887722D01*
X4265301Y-10887722D02*
X4255777Y-10868674D01*
X4255777Y-10868674D02*
X4236730Y-10859150D01*
X4236730Y-10859150D02*
X4208158Y-10859150D01*
X4208158Y-10859150D02*
X4189110Y-10868674D01*
X4189110Y-10868674D02*
X4179587Y-10878198D01*
X4389111Y-10992484D02*
X4370063Y-10982960D01*
X4370063Y-10982960D02*
X4360539Y-10973436D01*
X4360539Y-10973436D02*
X4351015Y-10954389D01*
X4351015Y-10954389D02*
X4351015Y-10897246D01*
X4351015Y-10897246D02*
X4360539Y-10878198D01*
X4360539Y-10878198D02*
X4370063Y-10868674D01*
X4370063Y-10868674D02*
X4389111Y-10859150D01*
X4389111Y-10859150D02*
X4417682Y-10859150D01*
X4417682Y-10859150D02*
X4436730Y-10868674D01*
X4436730Y-10868674D02*
X4446253Y-10878198D01*
X4446253Y-10878198D02*
X4455777Y-10897246D01*
X4455777Y-10897246D02*
X4455777Y-10954389D01*
X4455777Y-10954389D02*
X4446253Y-10973436D01*
X4446253Y-10973436D02*
X4436730Y-10982960D01*
X4436730Y-10982960D02*
X4417682Y-10992484D01*
X4417682Y-10992484D02*
X4389111Y-10992484D01*
X4570063Y-10992484D02*
X4551015Y-10982960D01*
X4551015Y-10982960D02*
X4541492Y-10963912D01*
X4541492Y-10963912D02*
X4541492Y-10792484D01*
X4722444Y-10982960D02*
X4703396Y-10992484D01*
X4703396Y-10992484D02*
X4665301Y-10992484D01*
X4665301Y-10992484D02*
X4646253Y-10982960D01*
X4646253Y-10982960D02*
X4636730Y-10963912D01*
X4636730Y-10963912D02*
X4636730Y-10887722D01*
X4636730Y-10887722D02*
X4646253Y-10868674D01*
X4646253Y-10868674D02*
X4665301Y-10859150D01*
X4665301Y-10859150D02*
X4703396Y-10859150D01*
X4703396Y-10859150D02*
X4722444Y-10868674D01*
X4722444Y-10868674D02*
X4731968Y-10887722D01*
X4731968Y-10887722D02*
X4731968Y-10906770D01*
X4731968Y-10906770D02*
X4636730Y-10925817D01*
X4808158Y-10982960D02*
X4827206Y-10992484D01*
X4827206Y-10992484D02*
X4865301Y-10992484D01*
X4865301Y-10992484D02*
X4884349Y-10982960D01*
X4884349Y-10982960D02*
X4893873Y-10963912D01*
X4893873Y-10963912D02*
X4893873Y-10954389D01*
X4893873Y-10954389D02*
X4884349Y-10935341D01*
X4884349Y-10935341D02*
X4865301Y-10925817D01*
X4865301Y-10925817D02*
X4836730Y-10925817D01*
X4836730Y-10925817D02*
X4817682Y-10916293D01*
X4817682Y-10916293D02*
X4808158Y-10897246D01*
X4808158Y-10897246D02*
X4808158Y-10887722D01*
X4808158Y-10887722D02*
X4817682Y-10868674D01*
X4817682Y-10868674D02*
X4836730Y-10859150D01*
X4836730Y-10859150D02*
X4865301Y-10859150D01*
X4865301Y-10859150D02*
X4884349Y-10868674D01*
X4960539Y-11068674D02*
X4970063Y-11059150D01*
X4970063Y-11059150D02*
X4989111Y-11030579D01*
X4989111Y-11030579D02*
X4998634Y-11011531D01*
X4998634Y-11011531D02*
X5008158Y-10982960D01*
X5008158Y-10982960D02*
X5017682Y-10935341D01*
X5017682Y-10935341D02*
X5017682Y-10897246D01*
X5017682Y-10897246D02*
X5008158Y-10849627D01*
X5008158Y-10849627D02*
X4998634Y-10821055D01*
X4998634Y-10821055D02*
X4989111Y-10802008D01*
X4989111Y-10802008D02*
X4970063Y-10773436D01*
X4970063Y-10773436D02*
X4960539Y-10763912D01*
D13*
X-109000Y-11113000D02*
X-5000Y-11217000D01*
X-5000Y-11113000D02*
X-109000Y-11217000D01*
X-5000Y-11165000D02*
G75*
G02*
X-109000Y-11165000I-52000J0D01*
G01*
X-109000Y-11165000D02*
G75*
G02*
X-5000Y-11165000I52000J0D01*
G01*
D12*
X360539Y-11256484D02*
X246253Y-11256484D01*
X303396Y-11256484D02*
X303396Y-11056484D01*
X303396Y-11056484D02*
X284348Y-11085055D01*
X284348Y-11085055D02*
X265301Y-11104103D01*
X265301Y-11104103D02*
X246253Y-11113627D01*
X446253Y-11237436D02*
X455777Y-11246960D01*
X455777Y-11246960D02*
X446253Y-11256484D01*
X446253Y-11256484D02*
X436729Y-11246960D01*
X436729Y-11246960D02*
X446253Y-11237436D01*
X446253Y-11237436D02*
X446253Y-11256484D01*
X579586Y-11056484D02*
X598634Y-11056484D01*
X598634Y-11056484D02*
X617682Y-11066008D01*
X617682Y-11066008D02*
X627205Y-11075531D01*
X627205Y-11075531D02*
X636729Y-11094579D01*
X636729Y-11094579D02*
X646253Y-11132674D01*
X646253Y-11132674D02*
X646253Y-11180293D01*
X646253Y-11180293D02*
X636729Y-11218388D01*
X636729Y-11218388D02*
X627205Y-11237436D01*
X627205Y-11237436D02*
X617682Y-11246960D01*
X617682Y-11246960D02*
X598634Y-11256484D01*
X598634Y-11256484D02*
X579586Y-11256484D01*
X579586Y-11256484D02*
X560539Y-11246960D01*
X560539Y-11246960D02*
X551015Y-11237436D01*
X551015Y-11237436D02*
X541491Y-11218388D01*
X541491Y-11218388D02*
X531967Y-11180293D01*
X531967Y-11180293D02*
X531967Y-11132674D01*
X531967Y-11132674D02*
X541491Y-11094579D01*
X541491Y-11094579D02*
X551015Y-11075531D01*
X551015Y-11075531D02*
X560539Y-11066008D01*
X560539Y-11066008D02*
X579586Y-11056484D01*
X817682Y-11123150D02*
X817682Y-11256484D01*
X770062Y-11046960D02*
X722443Y-11189817D01*
X722443Y-11189817D02*
X846253Y-11189817D01*
X960539Y-11056484D02*
X979586Y-11056484D01*
X979586Y-11056484D02*
X998634Y-11066008D01*
X998634Y-11066008D02*
X1008158Y-11075531D01*
X1008158Y-11075531D02*
X1017682Y-11094579D01*
X1017682Y-11094579D02*
X1027205Y-11132674D01*
X1027205Y-11132674D02*
X1027205Y-11180293D01*
X1027205Y-11180293D02*
X1017682Y-11218388D01*
X1017682Y-11218388D02*
X1008158Y-11237436D01*
X1008158Y-11237436D02*
X998634Y-11246960D01*
X998634Y-11246960D02*
X979586Y-11256484D01*
X979586Y-11256484D02*
X960539Y-11256484D01*
X960539Y-11256484D02*
X941491Y-11246960D01*
X941491Y-11246960D02*
X931967Y-11237436D01*
X931967Y-11237436D02*
X922443Y-11218388D01*
X922443Y-11218388D02*
X912920Y-11180293D01*
X912920Y-11180293D02*
X912920Y-11132674D01*
X912920Y-11132674D02*
X922443Y-11094579D01*
X922443Y-11094579D02*
X931967Y-11075531D01*
X931967Y-11075531D02*
X941491Y-11066008D01*
X941491Y-11066008D02*
X960539Y-11056484D01*
X1112920Y-11256484D02*
X1112920Y-11123150D01*
X1112920Y-11142198D02*
X1122444Y-11132674D01*
X1122444Y-11132674D02*
X1141491Y-11123150D01*
X1141491Y-11123150D02*
X1170063Y-11123150D01*
X1170063Y-11123150D02*
X1189110Y-11132674D01*
X1189110Y-11132674D02*
X1198634Y-11151722D01*
X1198634Y-11151722D02*
X1198634Y-11256484D01*
X1198634Y-11151722D02*
X1208158Y-11132674D01*
X1208158Y-11132674D02*
X1227205Y-11123150D01*
X1227205Y-11123150D02*
X1255777Y-11123150D01*
X1255777Y-11123150D02*
X1274825Y-11132674D01*
X1274825Y-11132674D02*
X1284348Y-11151722D01*
X1284348Y-11151722D02*
X1284348Y-11256484D01*
X1379586Y-11256484D02*
X1379586Y-11123150D01*
X1379586Y-11142198D02*
X1389110Y-11132674D01*
X1389110Y-11132674D02*
X1408158Y-11123150D01*
X1408158Y-11123150D02*
X1436729Y-11123150D01*
X1436729Y-11123150D02*
X1455777Y-11132674D01*
X1455777Y-11132674D02*
X1465301Y-11151722D01*
X1465301Y-11151722D02*
X1465301Y-11256484D01*
X1465301Y-11151722D02*
X1474824Y-11132674D01*
X1474824Y-11132674D02*
X1493872Y-11123150D01*
X1493872Y-11123150D02*
X1522443Y-11123150D01*
X1522443Y-11123150D02*
X1541491Y-11132674D01*
X1541491Y-11132674D02*
X1551015Y-11151722D01*
X1551015Y-11151722D02*
X1551015Y-11256484D01*
X1941491Y-11046960D02*
X1770063Y-11304103D01*
X2198634Y-11056484D02*
X2217682Y-11056484D01*
X2217682Y-11056484D02*
X2236729Y-11066008D01*
X2236729Y-11066008D02*
X2246253Y-11075531D01*
X2246253Y-11075531D02*
X2255777Y-11094579D01*
X2255777Y-11094579D02*
X2265301Y-11132674D01*
X2265301Y-11132674D02*
X2265301Y-11180293D01*
X2265301Y-11180293D02*
X2255777Y-11218388D01*
X2255777Y-11218388D02*
X2246253Y-11237436D01*
X2246253Y-11237436D02*
X2236729Y-11246960D01*
X2236729Y-11246960D02*
X2217682Y-11256484D01*
X2217682Y-11256484D02*
X2198634Y-11256484D01*
X2198634Y-11256484D02*
X2179587Y-11246960D01*
X2179587Y-11246960D02*
X2170063Y-11237436D01*
X2170063Y-11237436D02*
X2160539Y-11218388D01*
X2160539Y-11218388D02*
X2151015Y-11180293D01*
X2151015Y-11180293D02*
X2151015Y-11132674D01*
X2151015Y-11132674D02*
X2160539Y-11094579D01*
X2160539Y-11094579D02*
X2170063Y-11075531D01*
X2170063Y-11075531D02*
X2179587Y-11066008D01*
X2179587Y-11066008D02*
X2198634Y-11056484D01*
X2351015Y-11237436D02*
X2360539Y-11246960D01*
X2360539Y-11246960D02*
X2351015Y-11256484D01*
X2351015Y-11256484D02*
X2341491Y-11246960D01*
X2341491Y-11246960D02*
X2351015Y-11237436D01*
X2351015Y-11237436D02*
X2351015Y-11256484D01*
X2484348Y-11056484D02*
X2503396Y-11056484D01*
X2503396Y-11056484D02*
X2522444Y-11066008D01*
X2522444Y-11066008D02*
X2531968Y-11075531D01*
X2531968Y-11075531D02*
X2541491Y-11094579D01*
X2541491Y-11094579D02*
X2551015Y-11132674D01*
X2551015Y-11132674D02*
X2551015Y-11180293D01*
X2551015Y-11180293D02*
X2541491Y-11218388D01*
X2541491Y-11218388D02*
X2531968Y-11237436D01*
X2531968Y-11237436D02*
X2522444Y-11246960D01*
X2522444Y-11246960D02*
X2503396Y-11256484D01*
X2503396Y-11256484D02*
X2484348Y-11256484D01*
X2484348Y-11256484D02*
X2465301Y-11246960D01*
X2465301Y-11246960D02*
X2455777Y-11237436D01*
X2455777Y-11237436D02*
X2446253Y-11218388D01*
X2446253Y-11218388D02*
X2436729Y-11180293D01*
X2436729Y-11180293D02*
X2436729Y-11132674D01*
X2436729Y-11132674D02*
X2446253Y-11094579D01*
X2446253Y-11094579D02*
X2455777Y-11075531D01*
X2455777Y-11075531D02*
X2465301Y-11066008D01*
X2465301Y-11066008D02*
X2484348Y-11056484D01*
X2722444Y-11123150D02*
X2722444Y-11256484D01*
X2674825Y-11046960D02*
X2627206Y-11189817D01*
X2627206Y-11189817D02*
X2751015Y-11189817D01*
X2865301Y-11056484D02*
X2884348Y-11056484D01*
X2884348Y-11056484D02*
X2903396Y-11066008D01*
X2903396Y-11066008D02*
X2912920Y-11075531D01*
X2912920Y-11075531D02*
X2922444Y-11094579D01*
X2922444Y-11094579D02*
X2931967Y-11132674D01*
X2931967Y-11132674D02*
X2931967Y-11180293D01*
X2931967Y-11180293D02*
X2922444Y-11218388D01*
X2922444Y-11218388D02*
X2912920Y-11237436D01*
X2912920Y-11237436D02*
X2903396Y-11246960D01*
X2903396Y-11246960D02*
X2884348Y-11256484D01*
X2884348Y-11256484D02*
X2865301Y-11256484D01*
X2865301Y-11256484D02*
X2846253Y-11246960D01*
X2846253Y-11246960D02*
X2836729Y-11237436D01*
X2836729Y-11237436D02*
X2827206Y-11218388D01*
X2827206Y-11218388D02*
X2817682Y-11180293D01*
X2817682Y-11180293D02*
X2817682Y-11132674D01*
X2817682Y-11132674D02*
X2827206Y-11094579D01*
X2827206Y-11094579D02*
X2836729Y-11075531D01*
X2836729Y-11075531D02*
X2846253Y-11066008D01*
X2846253Y-11066008D02*
X2865301Y-11056484D01*
X3027206Y-11256484D02*
X3065301Y-11256484D01*
X3065301Y-11256484D02*
X3084348Y-11246960D01*
X3084348Y-11246960D02*
X3093872Y-11237436D01*
X3093872Y-11237436D02*
X3112920Y-11208865D01*
X3112920Y-11208865D02*
X3122444Y-11170770D01*
X3122444Y-11170770D02*
X3122444Y-11094579D01*
X3122444Y-11094579D02*
X3112920Y-11075531D01*
X3112920Y-11075531D02*
X3103396Y-11066008D01*
X3103396Y-11066008D02*
X3084348Y-11056484D01*
X3084348Y-11056484D02*
X3046253Y-11056484D01*
X3046253Y-11056484D02*
X3027206Y-11066008D01*
X3027206Y-11066008D02*
X3017682Y-11075531D01*
X3017682Y-11075531D02*
X3008158Y-11094579D01*
X3008158Y-11094579D02*
X3008158Y-11142198D01*
X3008158Y-11142198D02*
X3017682Y-11161246D01*
X3017682Y-11161246D02*
X3027206Y-11170770D01*
X3027206Y-11170770D02*
X3046253Y-11180293D01*
X3046253Y-11180293D02*
X3084348Y-11180293D01*
X3084348Y-11180293D02*
X3103396Y-11170770D01*
X3103396Y-11170770D02*
X3112920Y-11161246D01*
X3112920Y-11161246D02*
X3122444Y-11142198D01*
X3198634Y-11056484D02*
X3198634Y-11094579D01*
X3274825Y-11056484D02*
X3274825Y-11094579D01*
X3570063Y-11332674D02*
X3560539Y-11323150D01*
X3560539Y-11323150D02*
X3541491Y-11294579D01*
X3541491Y-11294579D02*
X3531968Y-11275531D01*
X3531968Y-11275531D02*
X3522444Y-11246960D01*
X3522444Y-11246960D02*
X3512920Y-11199341D01*
X3512920Y-11199341D02*
X3512920Y-11161246D01*
X3512920Y-11161246D02*
X3522444Y-11113627D01*
X3522444Y-11113627D02*
X3531968Y-11085055D01*
X3531968Y-11085055D02*
X3541491Y-11066008D01*
X3541491Y-11066008D02*
X3560539Y-11037436D01*
X3560539Y-11037436D02*
X3570063Y-11027912D01*
X3741491Y-11056484D02*
X3646253Y-11056484D01*
X3646253Y-11056484D02*
X3636729Y-11151722D01*
X3636729Y-11151722D02*
X3646253Y-11142198D01*
X3646253Y-11142198D02*
X3665301Y-11132674D01*
X3665301Y-11132674D02*
X3712920Y-11132674D01*
X3712920Y-11132674D02*
X3731968Y-11142198D01*
X3731968Y-11142198D02*
X3741491Y-11151722D01*
X3741491Y-11151722D02*
X3751015Y-11170770D01*
X3751015Y-11170770D02*
X3751015Y-11218388D01*
X3751015Y-11218388D02*
X3741491Y-11237436D01*
X3741491Y-11237436D02*
X3731968Y-11246960D01*
X3731968Y-11246960D02*
X3712920Y-11256484D01*
X3712920Y-11256484D02*
X3665301Y-11256484D01*
X3665301Y-11256484D02*
X3646253Y-11246960D01*
X3646253Y-11246960D02*
X3636729Y-11237436D01*
X3846253Y-11256484D02*
X3884348Y-11256484D01*
X3884348Y-11256484D02*
X3903396Y-11246960D01*
X3903396Y-11246960D02*
X3912920Y-11237436D01*
X3912920Y-11237436D02*
X3931968Y-11208865D01*
X3931968Y-11208865D02*
X3941491Y-11170770D01*
X3941491Y-11170770D02*
X3941491Y-11094579D01*
X3941491Y-11094579D02*
X3931968Y-11075531D01*
X3931968Y-11075531D02*
X3922444Y-11066008D01*
X3922444Y-11066008D02*
X3903396Y-11056484D01*
X3903396Y-11056484D02*
X3865301Y-11056484D01*
X3865301Y-11056484D02*
X3846253Y-11066008D01*
X3846253Y-11066008D02*
X3836729Y-11075531D01*
X3836729Y-11075531D02*
X3827206Y-11094579D01*
X3827206Y-11094579D02*
X3827206Y-11142198D01*
X3827206Y-11142198D02*
X3836729Y-11161246D01*
X3836729Y-11161246D02*
X3846253Y-11170770D01*
X3846253Y-11170770D02*
X3865301Y-11180293D01*
X3865301Y-11180293D02*
X3903396Y-11180293D01*
X3903396Y-11180293D02*
X3922444Y-11170770D01*
X3922444Y-11170770D02*
X3931968Y-11161246D01*
X3931968Y-11161246D02*
X3941491Y-11142198D01*
X4179587Y-11256484D02*
X4179587Y-11056484D01*
X4265301Y-11256484D02*
X4265301Y-11151722D01*
X4265301Y-11151722D02*
X4255777Y-11132674D01*
X4255777Y-11132674D02*
X4236730Y-11123150D01*
X4236730Y-11123150D02*
X4208158Y-11123150D01*
X4208158Y-11123150D02*
X4189110Y-11132674D01*
X4189110Y-11132674D02*
X4179587Y-11142198D01*
X4389111Y-11256484D02*
X4370063Y-11246960D01*
X4370063Y-11246960D02*
X4360539Y-11237436D01*
X4360539Y-11237436D02*
X4351015Y-11218388D01*
X4351015Y-11218388D02*
X4351015Y-11161246D01*
X4351015Y-11161246D02*
X4360539Y-11142198D01*
X4360539Y-11142198D02*
X4370063Y-11132674D01*
X4370063Y-11132674D02*
X4389111Y-11123150D01*
X4389111Y-11123150D02*
X4417682Y-11123150D01*
X4417682Y-11123150D02*
X4436730Y-11132674D01*
X4436730Y-11132674D02*
X4446253Y-11142198D01*
X4446253Y-11142198D02*
X4455777Y-11161246D01*
X4455777Y-11161246D02*
X4455777Y-11218388D01*
X4455777Y-11218388D02*
X4446253Y-11237436D01*
X4446253Y-11237436D02*
X4436730Y-11246960D01*
X4436730Y-11246960D02*
X4417682Y-11256484D01*
X4417682Y-11256484D02*
X4389111Y-11256484D01*
X4570063Y-11256484D02*
X4551015Y-11246960D01*
X4551015Y-11246960D02*
X4541492Y-11227912D01*
X4541492Y-11227912D02*
X4541492Y-11056484D01*
X4722444Y-11246960D02*
X4703396Y-11256484D01*
X4703396Y-11256484D02*
X4665301Y-11256484D01*
X4665301Y-11256484D02*
X4646253Y-11246960D01*
X4646253Y-11246960D02*
X4636730Y-11227912D01*
X4636730Y-11227912D02*
X4636730Y-11151722D01*
X4636730Y-11151722D02*
X4646253Y-11132674D01*
X4646253Y-11132674D02*
X4665301Y-11123150D01*
X4665301Y-11123150D02*
X4703396Y-11123150D01*
X4703396Y-11123150D02*
X4722444Y-11132674D01*
X4722444Y-11132674D02*
X4731968Y-11151722D01*
X4731968Y-11151722D02*
X4731968Y-11170770D01*
X4731968Y-11170770D02*
X4636730Y-11189817D01*
X4808158Y-11246960D02*
X4827206Y-11256484D01*
X4827206Y-11256484D02*
X4865301Y-11256484D01*
X4865301Y-11256484D02*
X4884349Y-11246960D01*
X4884349Y-11246960D02*
X4893873Y-11227912D01*
X4893873Y-11227912D02*
X4893873Y-11218388D01*
X4893873Y-11218388D02*
X4884349Y-11199341D01*
X4884349Y-11199341D02*
X4865301Y-11189817D01*
X4865301Y-11189817D02*
X4836730Y-11189817D01*
X4836730Y-11189817D02*
X4817682Y-11180293D01*
X4817682Y-11180293D02*
X4808158Y-11161246D01*
X4808158Y-11161246D02*
X4808158Y-11151722D01*
X4808158Y-11151722D02*
X4817682Y-11132674D01*
X4817682Y-11132674D02*
X4836730Y-11123150D01*
X4836730Y-11123150D02*
X4865301Y-11123150D01*
X4865301Y-11123150D02*
X4884349Y-11132674D01*
X4960539Y-11332674D02*
X4970063Y-11323150D01*
X4970063Y-11323150D02*
X4989111Y-11294579D01*
X4989111Y-11294579D02*
X4998634Y-11275531D01*
X4998634Y-11275531D02*
X5008158Y-11246960D01*
X5008158Y-11246960D02*
X5017682Y-11199341D01*
X5017682Y-11199341D02*
X5017682Y-11161246D01*
X5017682Y-11161246D02*
X5008158Y-11113627D01*
X5008158Y-11113627D02*
X4998634Y-11085055D01*
X4998634Y-11085055D02*
X4989111Y-11066008D01*
X4989111Y-11066008D02*
X4970063Y-11037436D01*
X4970063Y-11037436D02*
X4960539Y-11027912D01*
D14*
X-115000Y-11374000D02*
X-5000Y-11484000D01*
X-5000Y-11374000D02*
X-115000Y-11484000D01*
X-60000Y-11374000D02*
X-60000Y-11484000D01*
X-115000Y-11429000D02*
X-5000Y-11429000D01*
D12*
X360539Y-11520484D02*
X246253Y-11520484D01*
X303396Y-11520484D02*
X303396Y-11320484D01*
X303396Y-11320484D02*
X284348Y-11349055D01*
X284348Y-11349055D02*
X265301Y-11368103D01*
X265301Y-11368103D02*
X246253Y-11377627D01*
X446253Y-11501436D02*
X455777Y-11510960D01*
X455777Y-11510960D02*
X446253Y-11520484D01*
X446253Y-11520484D02*
X436729Y-11510960D01*
X436729Y-11510960D02*
X446253Y-11501436D01*
X446253Y-11501436D02*
X446253Y-11520484D01*
X646253Y-11520484D02*
X531967Y-11520484D01*
X589110Y-11520484D02*
X589110Y-11320484D01*
X589110Y-11320484D02*
X570063Y-11349055D01*
X570063Y-11349055D02*
X551015Y-11368103D01*
X551015Y-11368103D02*
X531967Y-11377627D01*
X770062Y-11320484D02*
X789110Y-11320484D01*
X789110Y-11320484D02*
X808158Y-11330008D01*
X808158Y-11330008D02*
X817682Y-11339531D01*
X817682Y-11339531D02*
X827205Y-11358579D01*
X827205Y-11358579D02*
X836729Y-11396674D01*
X836729Y-11396674D02*
X836729Y-11444293D01*
X836729Y-11444293D02*
X827205Y-11482388D01*
X827205Y-11482388D02*
X817682Y-11501436D01*
X817682Y-11501436D02*
X808158Y-11510960D01*
X808158Y-11510960D02*
X789110Y-11520484D01*
X789110Y-11520484D02*
X770062Y-11520484D01*
X770062Y-11520484D02*
X751015Y-11510960D01*
X751015Y-11510960D02*
X741491Y-11501436D01*
X741491Y-11501436D02*
X731967Y-11482388D01*
X731967Y-11482388D02*
X722443Y-11444293D01*
X722443Y-11444293D02*
X722443Y-11396674D01*
X722443Y-11396674D02*
X731967Y-11358579D01*
X731967Y-11358579D02*
X741491Y-11339531D01*
X741491Y-11339531D02*
X751015Y-11330008D01*
X751015Y-11330008D02*
X770062Y-11320484D01*
X960539Y-11320484D02*
X979586Y-11320484D01*
X979586Y-11320484D02*
X998634Y-11330008D01*
X998634Y-11330008D02*
X1008158Y-11339531D01*
X1008158Y-11339531D02*
X1017682Y-11358579D01*
X1017682Y-11358579D02*
X1027205Y-11396674D01*
X1027205Y-11396674D02*
X1027205Y-11444293D01*
X1027205Y-11444293D02*
X1017682Y-11482388D01*
X1017682Y-11482388D02*
X1008158Y-11501436D01*
X1008158Y-11501436D02*
X998634Y-11510960D01*
X998634Y-11510960D02*
X979586Y-11520484D01*
X979586Y-11520484D02*
X960539Y-11520484D01*
X960539Y-11520484D02*
X941491Y-11510960D01*
X941491Y-11510960D02*
X931967Y-11501436D01*
X931967Y-11501436D02*
X922443Y-11482388D01*
X922443Y-11482388D02*
X912920Y-11444293D01*
X912920Y-11444293D02*
X912920Y-11396674D01*
X912920Y-11396674D02*
X922443Y-11358579D01*
X922443Y-11358579D02*
X931967Y-11339531D01*
X931967Y-11339531D02*
X941491Y-11330008D01*
X941491Y-11330008D02*
X960539Y-11320484D01*
X1112920Y-11520484D02*
X1112920Y-11387150D01*
X1112920Y-11406198D02*
X1122444Y-11396674D01*
X1122444Y-11396674D02*
X1141491Y-11387150D01*
X1141491Y-11387150D02*
X1170063Y-11387150D01*
X1170063Y-11387150D02*
X1189110Y-11396674D01*
X1189110Y-11396674D02*
X1198634Y-11415722D01*
X1198634Y-11415722D02*
X1198634Y-11520484D01*
X1198634Y-11415722D02*
X1208158Y-11396674D01*
X1208158Y-11396674D02*
X1227205Y-11387150D01*
X1227205Y-11387150D02*
X1255777Y-11387150D01*
X1255777Y-11387150D02*
X1274825Y-11396674D01*
X1274825Y-11396674D02*
X1284348Y-11415722D01*
X1284348Y-11415722D02*
X1284348Y-11520484D01*
X1379586Y-11520484D02*
X1379586Y-11387150D01*
X1379586Y-11406198D02*
X1389110Y-11396674D01*
X1389110Y-11396674D02*
X1408158Y-11387150D01*
X1408158Y-11387150D02*
X1436729Y-11387150D01*
X1436729Y-11387150D02*
X1455777Y-11396674D01*
X1455777Y-11396674D02*
X1465301Y-11415722D01*
X1465301Y-11415722D02*
X1465301Y-11520484D01*
X1465301Y-11415722D02*
X1474824Y-11396674D01*
X1474824Y-11396674D02*
X1493872Y-11387150D01*
X1493872Y-11387150D02*
X1522443Y-11387150D01*
X1522443Y-11387150D02*
X1541491Y-11396674D01*
X1541491Y-11396674D02*
X1551015Y-11415722D01*
X1551015Y-11415722D02*
X1551015Y-11520484D01*
X1941491Y-11310960D02*
X1770063Y-11568103D01*
X2198634Y-11320484D02*
X2217682Y-11320484D01*
X2217682Y-11320484D02*
X2236729Y-11330008D01*
X2236729Y-11330008D02*
X2246253Y-11339531D01*
X2246253Y-11339531D02*
X2255777Y-11358579D01*
X2255777Y-11358579D02*
X2265301Y-11396674D01*
X2265301Y-11396674D02*
X2265301Y-11444293D01*
X2265301Y-11444293D02*
X2255777Y-11482388D01*
X2255777Y-11482388D02*
X2246253Y-11501436D01*
X2246253Y-11501436D02*
X2236729Y-11510960D01*
X2236729Y-11510960D02*
X2217682Y-11520484D01*
X2217682Y-11520484D02*
X2198634Y-11520484D01*
X2198634Y-11520484D02*
X2179587Y-11510960D01*
X2179587Y-11510960D02*
X2170063Y-11501436D01*
X2170063Y-11501436D02*
X2160539Y-11482388D01*
X2160539Y-11482388D02*
X2151015Y-11444293D01*
X2151015Y-11444293D02*
X2151015Y-11396674D01*
X2151015Y-11396674D02*
X2160539Y-11358579D01*
X2160539Y-11358579D02*
X2170063Y-11339531D01*
X2170063Y-11339531D02*
X2179587Y-11330008D01*
X2179587Y-11330008D02*
X2198634Y-11320484D01*
X2351015Y-11501436D02*
X2360539Y-11510960D01*
X2360539Y-11510960D02*
X2351015Y-11520484D01*
X2351015Y-11520484D02*
X2341491Y-11510960D01*
X2341491Y-11510960D02*
X2351015Y-11501436D01*
X2351015Y-11501436D02*
X2351015Y-11520484D01*
X2484348Y-11320484D02*
X2503396Y-11320484D01*
X2503396Y-11320484D02*
X2522444Y-11330008D01*
X2522444Y-11330008D02*
X2531968Y-11339531D01*
X2531968Y-11339531D02*
X2541491Y-11358579D01*
X2541491Y-11358579D02*
X2551015Y-11396674D01*
X2551015Y-11396674D02*
X2551015Y-11444293D01*
X2551015Y-11444293D02*
X2541491Y-11482388D01*
X2541491Y-11482388D02*
X2531968Y-11501436D01*
X2531968Y-11501436D02*
X2522444Y-11510960D01*
X2522444Y-11510960D02*
X2503396Y-11520484D01*
X2503396Y-11520484D02*
X2484348Y-11520484D01*
X2484348Y-11520484D02*
X2465301Y-11510960D01*
X2465301Y-11510960D02*
X2455777Y-11501436D01*
X2455777Y-11501436D02*
X2446253Y-11482388D01*
X2446253Y-11482388D02*
X2436729Y-11444293D01*
X2436729Y-11444293D02*
X2436729Y-11396674D01*
X2436729Y-11396674D02*
X2446253Y-11358579D01*
X2446253Y-11358579D02*
X2455777Y-11339531D01*
X2455777Y-11339531D02*
X2465301Y-11330008D01*
X2465301Y-11330008D02*
X2484348Y-11320484D01*
X2722444Y-11387150D02*
X2722444Y-11520484D01*
X2674825Y-11310960D02*
X2627206Y-11453817D01*
X2627206Y-11453817D02*
X2751015Y-11453817D01*
X2808158Y-11320484D02*
X2931967Y-11320484D01*
X2931967Y-11320484D02*
X2865301Y-11396674D01*
X2865301Y-11396674D02*
X2893872Y-11396674D01*
X2893872Y-11396674D02*
X2912920Y-11406198D01*
X2912920Y-11406198D02*
X2922444Y-11415722D01*
X2922444Y-11415722D02*
X2931967Y-11434769D01*
X2931967Y-11434769D02*
X2931967Y-11482388D01*
X2931967Y-11482388D02*
X2922444Y-11501436D01*
X2922444Y-11501436D02*
X2912920Y-11510960D01*
X2912920Y-11510960D02*
X2893872Y-11520484D01*
X2893872Y-11520484D02*
X2836729Y-11520484D01*
X2836729Y-11520484D02*
X2817682Y-11510960D01*
X2817682Y-11510960D02*
X2808158Y-11501436D01*
X2998634Y-11320484D02*
X3122444Y-11320484D01*
X3122444Y-11320484D02*
X3055777Y-11396674D01*
X3055777Y-11396674D02*
X3084348Y-11396674D01*
X3084348Y-11396674D02*
X3103396Y-11406198D01*
X3103396Y-11406198D02*
X3112920Y-11415722D01*
X3112920Y-11415722D02*
X3122444Y-11434769D01*
X3122444Y-11434769D02*
X3122444Y-11482388D01*
X3122444Y-11482388D02*
X3112920Y-11501436D01*
X3112920Y-11501436D02*
X3103396Y-11510960D01*
X3103396Y-11510960D02*
X3084348Y-11520484D01*
X3084348Y-11520484D02*
X3027206Y-11520484D01*
X3027206Y-11520484D02*
X3008158Y-11510960D01*
X3008158Y-11510960D02*
X2998634Y-11501436D01*
X3198634Y-11320484D02*
X3198634Y-11358579D01*
X3274825Y-11320484D02*
X3274825Y-11358579D01*
X3570063Y-11596674D02*
X3560539Y-11587150D01*
X3560539Y-11587150D02*
X3541491Y-11558579D01*
X3541491Y-11558579D02*
X3531968Y-11539531D01*
X3531968Y-11539531D02*
X3522444Y-11510960D01*
X3522444Y-11510960D02*
X3512920Y-11463341D01*
X3512920Y-11463341D02*
X3512920Y-11425246D01*
X3512920Y-11425246D02*
X3522444Y-11377627D01*
X3522444Y-11377627D02*
X3531968Y-11349055D01*
X3531968Y-11349055D02*
X3541491Y-11330008D01*
X3541491Y-11330008D02*
X3560539Y-11301436D01*
X3560539Y-11301436D02*
X3570063Y-11291912D01*
X3627206Y-11320484D02*
X3751015Y-11320484D01*
X3751015Y-11320484D02*
X3684348Y-11396674D01*
X3684348Y-11396674D02*
X3712920Y-11396674D01*
X3712920Y-11396674D02*
X3731968Y-11406198D01*
X3731968Y-11406198D02*
X3741491Y-11415722D01*
X3741491Y-11415722D02*
X3751015Y-11434769D01*
X3751015Y-11434769D02*
X3751015Y-11482388D01*
X3751015Y-11482388D02*
X3741491Y-11501436D01*
X3741491Y-11501436D02*
X3731968Y-11510960D01*
X3731968Y-11510960D02*
X3712920Y-11520484D01*
X3712920Y-11520484D02*
X3655777Y-11520484D01*
X3655777Y-11520484D02*
X3636729Y-11510960D01*
X3636729Y-11510960D02*
X3627206Y-11501436D01*
X3989110Y-11520484D02*
X3989110Y-11320484D01*
X4074825Y-11520484D02*
X4074825Y-11415722D01*
X4074825Y-11415722D02*
X4065301Y-11396674D01*
X4065301Y-11396674D02*
X4046253Y-11387150D01*
X4046253Y-11387150D02*
X4017682Y-11387150D01*
X4017682Y-11387150D02*
X3998634Y-11396674D01*
X3998634Y-11396674D02*
X3989110Y-11406198D01*
X4198634Y-11520484D02*
X4179587Y-11510960D01*
X4179587Y-11510960D02*
X4170063Y-11501436D01*
X4170063Y-11501436D02*
X4160539Y-11482388D01*
X4160539Y-11482388D02*
X4160539Y-11425246D01*
X4160539Y-11425246D02*
X4170063Y-11406198D01*
X4170063Y-11406198D02*
X4179587Y-11396674D01*
X4179587Y-11396674D02*
X4198634Y-11387150D01*
X4198634Y-11387150D02*
X4227206Y-11387150D01*
X4227206Y-11387150D02*
X4246253Y-11396674D01*
X4246253Y-11396674D02*
X4255777Y-11406198D01*
X4255777Y-11406198D02*
X4265301Y-11425246D01*
X4265301Y-11425246D02*
X4265301Y-11482388D01*
X4265301Y-11482388D02*
X4255777Y-11501436D01*
X4255777Y-11501436D02*
X4246253Y-11510960D01*
X4246253Y-11510960D02*
X4227206Y-11520484D01*
X4227206Y-11520484D02*
X4198634Y-11520484D01*
X4379587Y-11520484D02*
X4360539Y-11510960D01*
X4360539Y-11510960D02*
X4351015Y-11491912D01*
X4351015Y-11491912D02*
X4351015Y-11320484D01*
X4531968Y-11510960D02*
X4512920Y-11520484D01*
X4512920Y-11520484D02*
X4474825Y-11520484D01*
X4474825Y-11520484D02*
X4455777Y-11510960D01*
X4455777Y-11510960D02*
X4446253Y-11491912D01*
X4446253Y-11491912D02*
X4446253Y-11415722D01*
X4446253Y-11415722D02*
X4455777Y-11396674D01*
X4455777Y-11396674D02*
X4474825Y-11387150D01*
X4474825Y-11387150D02*
X4512920Y-11387150D01*
X4512920Y-11387150D02*
X4531968Y-11396674D01*
X4531968Y-11396674D02*
X4541492Y-11415722D01*
X4541492Y-11415722D02*
X4541492Y-11434769D01*
X4541492Y-11434769D02*
X4446253Y-11453817D01*
X4617682Y-11510960D02*
X4636730Y-11520484D01*
X4636730Y-11520484D02*
X4674825Y-11520484D01*
X4674825Y-11520484D02*
X4693873Y-11510960D01*
X4693873Y-11510960D02*
X4703396Y-11491912D01*
X4703396Y-11491912D02*
X4703396Y-11482388D01*
X4703396Y-11482388D02*
X4693873Y-11463341D01*
X4693873Y-11463341D02*
X4674825Y-11453817D01*
X4674825Y-11453817D02*
X4646253Y-11453817D01*
X4646253Y-11453817D02*
X4627206Y-11444293D01*
X4627206Y-11444293D02*
X4617682Y-11425246D01*
X4617682Y-11425246D02*
X4617682Y-11415722D01*
X4617682Y-11415722D02*
X4627206Y-11396674D01*
X4627206Y-11396674D02*
X4646253Y-11387150D01*
X4646253Y-11387150D02*
X4674825Y-11387150D01*
X4674825Y-11387150D02*
X4693873Y-11396674D01*
X4770063Y-11596674D02*
X4779587Y-11587150D01*
X4779587Y-11587150D02*
X4798634Y-11558579D01*
X4798634Y-11558579D02*
X4808158Y-11539531D01*
X4808158Y-11539531D02*
X4817682Y-11510960D01*
X4817682Y-11510960D02*
X4827206Y-11463341D01*
X4827206Y-11463341D02*
X4827206Y-11425246D01*
X4827206Y-11425246D02*
X4817682Y-11377627D01*
X4817682Y-11377627D02*
X4808158Y-11349055D01*
X4808158Y-11349055D02*
X4798634Y-11330008D01*
X4798634Y-11330008D02*
X4779587Y-11301436D01*
X4779587Y-11301436D02*
X4770063Y-11291912D01*
M02*
