M48
; DRILL file {KiCad 9.0.5} date 2026-05-18T10:47:57-0300
; FORMAT={-:-/ absolute / metric / decimal}
; #@! TF.CreationDate,2026-05-18T10:47:57-03:00
; #@! TF.GenerationSoftware,Kicad,Pcbnew,9.0.5
; #@! TF.FileFunction,MixedPlating,1,2
FMAT,2
METRIC
; #@! TA.AperFunction,Plated,PTH,ComponentDrill
T1C0.800
; #@! TA.AperFunction,Plated,PTH,ComponentDrill
T2C0.850
; #@! TA.AperFunction,Plated,PTH,ComponentDrill
T3C0.900
; #@! TA.AperFunction,Plated,PTH,ComponentDrill
T4C0.950
; #@! TA.AperFunction,Plated,PTH,ComponentDrill
T5C1.000
; #@! TA.AperFunction,Plated,PTH,ComponentDrill
T6C1.040
; #@! TA.AperFunction,Plated,PTH,ComponentDrill
T7C1.100
%
G90
G05
T1
X37.12Y-74.64
X37.12Y-82.26
X37.48Y-42.36
X40.93Y-74.64
X40.93Y-82.26
X42.48Y-42.36
X45.68Y-74.66
X45.68Y-82.28
X45.91Y-38.775
X45.97Y-42.365
X49.43Y-74.66
X49.43Y-82.28
X52.9Y-74.66
X52.9Y-82.28
X53.53Y-38.775
X53.59Y-42.365
T2
X48.557Y-33.01
X51.557Y-33.01
T3
X34.69Y-86.78
X37.23Y-86.78
X41.905Y-86.82
X44.445Y-86.82
X50.355Y-86.83
X52.895Y-86.83
T4
X80.0Y-25.0
X80.0Y-27.5
X80.0Y-30.0
X80.0Y-38.1
X80.0Y-40.6
X80.0Y-43.1
X80.0Y-45.6
X80.0Y-48.1
X80.0Y-50.6
X80.0Y-53.1
X80.0Y-55.6
T5
X31.51Y-42.29
X31.51Y-44.83
X31.51Y-47.37
X35.36Y-32.08
X37.37Y-47.73
X42.37Y-47.73
X42.86Y-32.08
X46.58Y-47.89
X49.12Y-47.89
X51.66Y-47.89
X77.17Y-88.41
X82.17Y-88.41
T6
X52.51Y-54.26
X52.51Y-56.8
X52.51Y-59.34
X52.51Y-61.88
X52.51Y-64.42
X52.51Y-66.96
X52.51Y-69.5
X58.05Y-33.84
X58.05Y-36.38
X58.05Y-38.92
X58.05Y-41.46
X58.05Y-44.0
X58.05Y-46.54
X58.05Y-49.08
X58.05Y-51.62
X58.05Y-54.16
X58.05Y-56.7
X58.05Y-59.24
X58.05Y-61.78
X58.05Y-64.32
X58.05Y-66.86
X58.05Y-69.4
X58.05Y-71.94
X58.05Y-74.48
X58.05Y-77.02
X58.05Y-79.56
X58.05Y-82.1
X72.815Y-11.045
X72.815Y-13.585
X72.815Y-16.125
X72.815Y-18.665
X74.25Y-33.84
X74.25Y-36.38
X74.25Y-38.92
X74.25Y-41.46
X74.25Y-44.0
X74.25Y-46.54
X74.25Y-49.08
X74.25Y-51.62
X74.25Y-54.16
X74.25Y-56.7
X74.25Y-59.24
X74.25Y-61.78
X74.25Y-64.32
X74.25Y-66.86
X74.25Y-69.4
X74.25Y-71.94
X74.25Y-74.48
X74.25Y-77.02
X74.25Y-79.56
X74.25Y-82.1
X80.2Y-63.25
X80.2Y-65.79
X80.2Y-68.33
X80.2Y-70.87
X80.2Y-73.41
X80.2Y-75.95
X80.2Y-78.49
X80.2Y-81.03
T7
X36.42Y-38.63
X38.96Y-38.63
X41.5Y-38.63
M30
