G04 #@! TF.GenerationSoftware,KiCad,Pcbnew,9.0.5*
G04 #@! TF.CreationDate,2026-06-01T00:05:23-03:00*
G04 #@! TF.ProjectId,CubeSat_EPS_ADCS,43756265-5361-4745-9f45-50535f414443,rev?*
G04 #@! TF.SameCoordinates,Original*
G04 #@! TF.FileFunction,Copper,L2,Bot*
G04 #@! TF.FilePolarity,Positive*
%FSLAX46Y46*%
G04 Gerber Fmt 4.6, Leading zero omitted, Abs format (unit mm)*
G04 Created by KiCad (PCBNEW 9.0.5) date 2026-06-01 00:05:23*
%MOMM*%
%LPD*%
G01*
G04 APERTURE LIST*
G04 Aperture macros list*
%AMRoundRect*
0 Rectangle with rounded corners*
0 $1 Rounding radius*
0 $2 $3 $4 $5 $6 $7 $8 $9 X,Y pos of 4 corners*
0 Add a 4 corners polygon primitive as box body*
4,1,4,$2,$3,$4,$5,$6,$7,$8,$9,$2,$3,0*
0 Add four circle primitives for the rounded corners*
1,1,$1+$1,$2,$3*
1,1,$1+$1,$4,$5*
1,1,$1+$1,$6,$7*
1,1,$1+$1,$8,$9*
0 Add four rect primitives between the rounded corners*
20,1,$1+$1,$2,$3,$4,$5,0*
20,1,$1+$1,$4,$5,$6,$7,0*
20,1,$1+$1,$6,$7,$8,$9,0*
20,1,$1+$1,$8,$9,$2,$3,0*%
G04 Aperture macros list end*
G04 #@! TA.AperFunction,Conductor*
%ADD10C,0.200000*%
G04 #@! TD*
G04 #@! TA.AperFunction,ComponentPad*
%ADD11O,3.000000X1.800000*%
G04 #@! TD*
G04 #@! TA.AperFunction,ComponentPad*
%ADD12O,3.500000X1.800000*%
G04 #@! TD*
G04 #@! TA.AperFunction,ComponentPad*
%ADD13RoundRect,0.326924X-1.373076X-1.373076X1.373076X-1.373076X1.373076X1.373076X-1.373076X1.373076X0*%
G04 #@! TD*
G04 #@! TA.AperFunction,ComponentPad*
%ADD14C,3.400000*%
G04 #@! TD*
G04 #@! TA.AperFunction,ComponentPad*
%ADD15RoundRect,0.336539X1.413461X-1.413461X1.413461X1.413461X-1.413461X1.413461X-1.413461X-1.413461X0*%
G04 #@! TD*
G04 #@! TA.AperFunction,ComponentPad*
%ADD16C,3.500000*%
G04 #@! TD*
G04 #@! TA.AperFunction,ComponentPad*
%ADD17C,6.000000*%
G04 #@! TD*
G04 #@! TA.AperFunction,ComponentPad*
%ADD18O,4.500000X3.500000*%
G04 #@! TD*
G04 #@! TA.AperFunction,ComponentPad*
%ADD19RoundRect,0.264706X-1.235294X0.635294X-1.235294X-0.635294X1.235294X-0.635294X1.235294X0.635294X0*%
G04 #@! TD*
G04 #@! TA.AperFunction,ComponentPad*
%ADD20RoundRect,0.264706X-1.485294X0.635294X-1.485294X-0.635294X1.485294X-0.635294X1.485294X0.635294X0*%
G04 #@! TD*
G04 #@! TA.AperFunction,ComponentPad*
%ADD21RoundRect,0.326924X1.373076X-1.373076X1.373076X1.373076X-1.373076X1.373076X-1.373076X-1.373076X0*%
G04 #@! TD*
G04 #@! TA.AperFunction,ComponentPad*
%ADD22RoundRect,0.267858X1.232142X-1.232142X1.232142X1.232142X-1.232142X1.232142X-1.232142X-1.232142X0*%
G04 #@! TD*
G04 #@! TA.AperFunction,ComponentPad*
%ADD23O,3.500000X3.000000*%
G04 #@! TD*
G04 #@! TA.AperFunction,ComponentPad*
%ADD24O,2.000000X3.000000*%
G04 #@! TD*
G04 #@! TA.AperFunction,Conductor*
%ADD25C,2.000000*%
G04 #@! TD*
G04 #@! TA.AperFunction,Conductor*
%ADD26C,1.500000*%
G04 #@! TD*
G04 #@! TA.AperFunction,Conductor*
%ADD27C,1.000000*%
G04 #@! TD*
G04 APERTURE END LIST*
G04 #@! TO.N,VCC_8.4V_EPS*
D10*
X86060000Y78770000D02*
X89700000Y78770000D01*
X89700000Y76690000D01*
X86060000Y76690000D01*
X86060000Y78770000D01*
G04 #@! TA.AperFunction,Conductor*
G36*
X86060000Y78770000D02*
G01*
X89700000Y78770000D01*
X89700000Y76690000D01*
X86060000Y76690000D01*
X86060000Y78770000D01*
G37*
G04 #@! TD.AperFunction*
G04 #@! TO.N,GND*
X8520000Y79060000D02*
X12980000Y79060000D01*
X12980000Y75370000D01*
X8520000Y75370000D01*
X8520000Y79060000D01*
G04 #@! TA.AperFunction,Conductor*
G36*
X8520000Y79060000D02*
G01*
X12980000Y79060000D01*
X12980000Y75370000D01*
X8520000Y75370000D01*
X8520000Y79060000D01*
G37*
G04 #@! TD.AperFunction*
G04 #@! TO.N,VCC_8.4V_EPS*
X86250000Y68890000D02*
X89880000Y68890000D01*
X89880000Y66180000D01*
X86250000Y66180000D01*
X86250000Y68890000D01*
G04 #@! TA.AperFunction,Conductor*
G36*
X86250000Y68890000D02*
G01*
X89880000Y68890000D01*
X89880000Y66180000D01*
X86250000Y66180000D01*
X86250000Y68890000D01*
G37*
G04 #@! TD.AperFunction*
G04 #@! TD*
D11*
G04 #@! TO.P,U1,1,nSLEEP*
G04 #@! TO.N,unconnected-(U1-nSLEEP-Pad1)*
X65050000Y40840000D03*
G04 #@! TO.P,U1,2,OUT1*
G04 #@! TO.N,VCC_M1*
X65050000Y43380000D03*
G04 #@! TO.P,U1,3,OUT2*
G04 #@! TO.N,GND_M1*
X65050000Y45920000D03*
G04 #@! TO.P,U1,4,OUT3*
G04 #@! TO.N,VCC_M2*
X65050000Y48460000D03*
G04 #@! TO.P,U1,5,OUT4*
G04 #@! TO.N,GND_M2*
X65050000Y51000000D03*
G04 #@! TO.P,U1,6,nFAULT*
G04 #@! TO.N,unconnected-(U1-nFAULT-Pad6)*
X65050000Y53540000D03*
G04 #@! TO.P,U1,7,IN4*
G04 #@! TO.N,M2_PWM2*
X80250000Y40840000D03*
G04 #@! TO.P,U1,8,IN3*
G04 #@! TO.N,M2_PWM1*
X80250000Y43380000D03*
D12*
G04 #@! TO.P,U1,9,GND*
G04 #@! TO.N,GND*
X80250000Y45920000D03*
G04 #@! TO.P,U1,10,VCC*
G04 #@! TO.N,VCC_8.4V_ADCS*
X80250000Y48460000D03*
D11*
G04 #@! TO.P,U1,11,IN2*
G04 #@! TO.N,M1_PWM2*
X80250000Y51000000D03*
G04 #@! TO.P,U1,12,IN1*
G04 #@! TO.N,M1_PWM1*
X80250000Y53540000D03*
G04 #@! TD*
G04 #@! TO.P,U2,1,nSLEEP*
G04 #@! TO.N,unconnected-(U2-nSLEEP-Pad1)*
X65210000Y21940000D03*
G04 #@! TO.P,U2,2,OUT1*
G04 #@! TO.N,VCC_M3*
X65210000Y24480000D03*
G04 #@! TO.P,U2,3,OUT2*
G04 #@! TO.N,GND_M3*
X65210000Y27020000D03*
G04 #@! TO.P,U2,4,OUT3*
G04 #@! TO.N,unconnected-(U2-OUT3-Pad4)*
X65210000Y29560000D03*
G04 #@! TO.P,U2,5,OUT4*
G04 #@! TO.N,unconnected-(U2-OUT4-Pad5)*
X65210000Y32100000D03*
G04 #@! TO.P,U2,6,nFAULT*
G04 #@! TO.N,unconnected-(U2-nFAULT-Pad6)*
X65210000Y34640000D03*
G04 #@! TO.P,U2,7,IN4*
G04 #@! TO.N,unconnected-(U2-IN4-Pad7)*
X80410000Y21940000D03*
G04 #@! TO.P,U2,8,IN3*
G04 #@! TO.N,unconnected-(U2-IN3-Pad8)*
X80410000Y24480000D03*
D12*
G04 #@! TO.P,U2,9,GND*
G04 #@! TO.N,GND*
X80410000Y27020000D03*
G04 #@! TO.P,U2,10,VCC*
G04 #@! TO.N,VCC_8.4V_ADCS*
X80410000Y29560000D03*
D11*
G04 #@! TO.P,U2,11,IN2*
G04 #@! TO.N,M3_PWM2*
X80410000Y32100000D03*
G04 #@! TO.P,U2,12,IN1*
G04 #@! TO.N,M3_PWM1*
X80410000Y34640000D03*
G04 #@! TD*
D13*
G04 #@! TO.P,J4,1,Pin_1*
G04 #@! TO.N,VCC_8.4V_ADCS*
X70290000Y10670000D03*
D14*
G04 #@! TO.P,J4,2,Pin_2*
G04 #@! TO.N,GND*
X75290000Y10670000D03*
G04 #@! TD*
D15*
G04 #@! TO.P,J7,1,Pin_1*
G04 #@! TO.N,VCC_M3*
X25725000Y20345000D03*
D16*
G04 #@! TO.P,J7,2,Pin_2*
G04 #@! TO.N,GND_M3*
X25725000Y25425000D03*
G04 #@! TD*
D17*
G04 #@! TO.P,,*
G04 #@! TO.N,*
X88000000Y4000000D03*
G04 #@! TD*
D18*
G04 #@! TO.P,F1,1*
G04 #@! TO.N,Net-(U4-Vout)*
X19670000Y88510000D03*
G04 #@! TO.P,F1,2*
G04 #@! TO.N,VCC_5V*
X19670000Y66670000D03*
G04 #@! TD*
D17*
G04 #@! TO.P,,*
G04 #@! TO.N,*
X4000000Y88000000D03*
G04 #@! TD*
D19*
G04 #@! TO.P,J1,1,Pin_1*
G04 #@! TO.N,VCC_8.4V_EPS*
X87800000Y77500000D03*
D11*
G04 #@! TO.P,J1,2,Pin_2*
G04 #@! TO.N,GND*
X87800000Y75000000D03*
G04 #@! TD*
D20*
G04 #@! TO.P,J2,1,Pin_1*
G04 #@! TO.N,VCC_8.4V_EPS*
X88000000Y67000000D03*
D12*
G04 #@! TO.P,J2,2,Pin_2*
G04 #@! TO.N,VCC_5V*
X88000000Y64500000D03*
G04 #@! TO.P,J2,3,Pin_3*
G04 #@! TO.N,GND*
X88000000Y62000000D03*
G04 #@! TD*
D21*
G04 #@! TO.P,J5,1,Pin_1*
G04 #@! TO.N,VCC_M2*
X25457500Y46050000D03*
D14*
G04 #@! TO.P,J5,2,Pin_2*
G04 #@! TO.N,GND_M2*
X25457500Y51050000D03*
G04 #@! TD*
D15*
G04 #@! TO.P,J6,1,Pin_1*
G04 #@! TO.N,VCC_M1*
X25537500Y33285000D03*
D14*
G04 #@! TO.P,J6,2,Pin_2*
G04 #@! TO.N,GND_M1*
X25537500Y38285000D03*
G04 #@! TD*
D22*
G04 #@! TO.P,D1,1,K*
G04 #@! TO.N,VCC_5V*
X10780000Y66820000D03*
D23*
G04 #@! TO.P,D1,2,A*
G04 #@! TO.N,GND*
X10780000Y76980000D03*
G04 #@! TD*
D16*
G04 #@! TO.P,U4,1,Vin*
G04 #@! TO.N,VCC_8.4V_EPS*
X68950000Y88270000D03*
G04 #@! TO.P,U4,2,GND*
G04 #@! TO.N,GND*
X68950000Y70870000D03*
G04 #@! TO.P,U4,3,Vout*
G04 #@! TO.N,Net-(U4-Vout)*
X28950000Y88270000D03*
G04 #@! TO.P,U4,4,GND*
G04 #@! TO.N,GND*
X28950000Y70870000D03*
G04 #@! TD*
D24*
G04 #@! TO.P,U3,*
G04 #@! TO.N,*
X53780000Y16550000D03*
X48780000Y16550000D03*
X45980000Y59550000D03*
X40980000Y59550000D03*
D16*
G04 #@! TO.P,U3,1,Vin*
G04 #@! TO.N,unconnected-(U3-Vin-Pad1)*
X58380000Y14550000D03*
G04 #@! TO.P,U3,2,GND*
G04 #@! TO.N,GND*
X36380000Y14550000D03*
G04 #@! TO.P,U3,3,Vout*
G04 #@! TO.N,unconnected-(U3-Vout-Pad3)*
X58380000Y61550000D03*
G04 #@! TO.P,U3,4,GND*
G04 #@! TO.N,GND*
X36380000Y61550000D03*
G04 #@! TD*
D17*
G04 #@! TO.P,,*
G04 #@! TO.N,*
X88000000Y88000000D03*
G04 #@! TD*
D19*
G04 #@! TO.P,J3,1,Pin_1*
G04 #@! TO.N,M1_PWM1*
X87760000Y53890000D03*
D11*
G04 #@! TO.P,J3,2,Pin_2*
G04 #@! TO.N,M1_PWM2*
X87760000Y51390000D03*
G04 #@! TO.P,J3,3,Pin_3*
G04 #@! TO.N,GND*
X87760000Y48890000D03*
G04 #@! TO.P,J3,4,Pin_4*
G04 #@! TO.N,M2_PWM1*
X87760000Y46390000D03*
G04 #@! TO.P,J3,5,Pin_5*
G04 #@! TO.N,M2_PWM2*
X87760000Y43890000D03*
G04 #@! TO.P,J3,6,Pin_6*
G04 #@! TO.N,GND*
X87760000Y41390000D03*
G04 #@! TO.P,J3,7,Pin_7*
G04 #@! TO.N,M3_PWM1*
X87760000Y38890000D03*
G04 #@! TO.P,J3,8,Pin_8*
G04 #@! TO.N,M3_PWM2*
X87760000Y36390000D03*
G04 #@! TD*
D17*
G04 #@! TO.P,,*
G04 #@! TO.N,*
X4000000Y4000000D03*
G04 #@! TD*
D25*
G04 #@! TO.N,VCC_M2*
X25507500Y46100000D02*
X25457500Y46050000D01*
X65050000Y48460000D02*
X57450000Y48460000D01*
X25485000Y45885000D02*
X25475000Y45875000D01*
X55090000Y46100000D02*
X25507500Y46100000D01*
X57450000Y48460000D02*
X55090000Y46100000D01*
G04 #@! TO.N,GND_M2*
X25610000Y51010000D02*
X25475000Y50875000D01*
X65040000Y51010000D02*
X25610000Y51010000D01*
X65050000Y51000000D02*
X65040000Y51010000D01*
G04 #@! TO.N,VCC_M3*
X25735000Y20355000D02*
X25725000Y20345000D01*
X62990000Y24480000D02*
X58855000Y20345000D01*
X58855000Y20345000D02*
X25725000Y20345000D01*
X64890000Y24480000D02*
X62990000Y24480000D01*
G04 #@! TO.N,GND_M3*
X65190000Y27000000D02*
X27300000Y27000000D01*
X25745000Y25445000D02*
X25725000Y25425000D01*
X27300000Y27000000D02*
X25725000Y25425000D01*
X65210000Y27020000D02*
X65190000Y27000000D01*
D26*
G04 #@! TO.N,M2_PWM1*
X85360000Y46390000D02*
X82350000Y43380000D01*
X88000000Y46400000D02*
X87990000Y46390000D01*
X82350000Y43380000D02*
X80520000Y43380000D01*
X87990000Y46390000D02*
X85360000Y46390000D01*
D25*
G04 #@! TO.N,VCC_M1*
X51880000Y33270000D02*
X25552500Y33270000D01*
X25960000Y33285000D02*
X25920000Y33245000D01*
X61990000Y43380000D02*
X51880000Y33270000D01*
X65050000Y43380000D02*
X61990000Y43380000D01*
X25552500Y33270000D02*
X25537500Y33285000D01*
G04 #@! TO.N,GND_M1*
X52130000Y38170000D02*
X25652500Y38170000D01*
X65050000Y45920000D02*
X59880000Y45920000D01*
X25652500Y38170000D02*
X25537500Y38285000D01*
X59880000Y45920000D02*
X52130000Y38170000D01*
D27*
G04 #@! TO.N,GND*
X88780000Y48900000D02*
X88000000Y48900000D01*
D25*
X86950000Y62000000D02*
X88000000Y62000000D01*
X80410000Y27020000D02*
X82170000Y27020000D01*
D27*
X88000000Y48900000D02*
X87770000Y48900000D01*
D25*
X84440000Y24750000D02*
X84440000Y19820000D01*
D27*
X88000000Y48900000D02*
X84850000Y48900000D01*
D25*
X10805000Y77205000D02*
X10760000Y77205000D01*
X62100000Y58160000D02*
X83110000Y58160000D01*
D27*
X47150000Y3560000D02*
X36380000Y14330000D01*
D25*
X36380000Y61550000D02*
X30580000Y55750000D01*
D27*
X90750000Y46970000D02*
X90750000Y43140000D01*
X87770000Y48900000D02*
X87760000Y48890000D01*
D25*
X13600000Y55750000D02*
X59690000Y55750000D01*
D27*
X90750000Y50870000D02*
X88780000Y48900000D01*
D25*
X10760000Y77320000D02*
X9960000Y77320000D01*
X82170000Y27020000D02*
X84440000Y24750000D01*
X28950000Y70870000D02*
X17340000Y70870000D01*
D27*
X87760000Y41390000D02*
X87770000Y41400000D01*
X89000000Y41390000D02*
X87760000Y41390000D01*
D25*
X75300000Y10680000D02*
X75300000Y43600000D01*
X7020000Y74380000D02*
X7020000Y62330000D01*
D27*
X90750000Y43140000D02*
X89000000Y41390000D01*
X88000000Y62000000D02*
X88000000Y61870000D01*
D25*
X83110000Y58160000D02*
X86950000Y62000000D01*
X77620000Y45920000D02*
X80250000Y45920000D01*
X88000000Y75000000D02*
X86980000Y75000000D01*
D27*
X90550000Y14110000D02*
X80000000Y3560000D01*
X88830000Y48890000D02*
X90750000Y46970000D01*
X84850000Y48900000D02*
X81870000Y45920000D01*
D25*
X7020000Y62330000D02*
X13600000Y55750000D01*
D27*
X90550000Y39880000D02*
X90550000Y14110000D01*
D25*
X75300000Y43600000D02*
X77620000Y45920000D01*
D27*
X90750000Y59120000D02*
X90750000Y50870000D01*
D25*
X86840000Y75000000D02*
X82630000Y70790000D01*
D27*
X36380000Y14330000D02*
X36380000Y14550000D01*
X87770000Y41400000D02*
X89030000Y41400000D01*
D25*
X59690000Y55750000D02*
X62100000Y58160000D01*
X17060000Y70950000D02*
X10805000Y77205000D01*
D27*
X87830000Y48730000D02*
X88000000Y48900000D01*
D25*
X87800000Y75000000D02*
X86840000Y75000000D01*
X9960000Y77320000D02*
X7020000Y74380000D01*
D27*
X87760000Y48890000D02*
X88830000Y48890000D01*
X80000000Y3560000D02*
X47150000Y3560000D01*
D25*
X84440000Y19820000D02*
X75290000Y10670000D01*
X75290000Y10670000D02*
X75300000Y10680000D01*
D27*
X88000000Y61870000D02*
X90750000Y59120000D01*
X81870000Y45920000D02*
X80250000Y45920000D01*
D25*
X82630000Y70790000D02*
X29030000Y70790000D01*
D27*
X89030000Y41400000D02*
X90550000Y39880000D01*
D26*
G04 #@! TO.N,M1_PWM2*
X87760000Y51390000D02*
X87550000Y51180000D01*
X80430000Y51180000D02*
X80250000Y51000000D01*
X87550000Y51180000D02*
X80430000Y51180000D01*
G04 #@! TO.N,M1_PWM1*
X88000000Y53900000D02*
X87960000Y53860000D01*
X80570000Y53860000D02*
X80250000Y53540000D01*
X87960000Y53860000D02*
X80570000Y53860000D01*
G04 #@! TO.N,M3_PWM1*
X81530000Y34640000D02*
X80410000Y34640000D01*
X87990000Y38890000D02*
X85780000Y38890000D01*
X85780000Y38890000D02*
X81530000Y34640000D01*
X88000000Y38900000D02*
X87990000Y38890000D01*
G04 #@! TO.N,M3_PWM2*
X83700000Y32090000D02*
X80420000Y32090000D01*
X88010000Y36400000D02*
X83700000Y32090000D01*
X80420000Y32090000D02*
X80410000Y32100000D01*
G04 #@! TO.N,M2_PWM2*
X87760000Y43890000D02*
X86420000Y43890000D01*
X87770000Y43900000D02*
X87760000Y43890000D01*
X83370000Y40840000D02*
X80250000Y40840000D01*
X86420000Y43890000D02*
X83370000Y40840000D01*
X88000000Y43900000D02*
X87770000Y43900000D01*
D25*
G04 #@! TO.N,VCC_5V*
X10780000Y66820000D02*
X19520000Y66820000D01*
X19520000Y66820000D02*
X19670000Y66670000D01*
X88000000Y64500000D02*
X82080000Y64500000D01*
X20000000Y66340000D02*
X19670000Y66670000D01*
X82080000Y64500000D02*
X80240000Y66340000D01*
X80240000Y66340000D02*
X20000000Y66340000D01*
G04 #@! TO.N,Net-(U4-Vout)*
X28610000Y88610000D02*
X19630000Y88610000D01*
X28950000Y88270000D02*
X28610000Y88610000D01*
D26*
G04 #@! TO.N,VCC_8.4V_EPS*
X90749000Y76051000D02*
X89300000Y77500000D01*
D25*
X68950000Y88270000D02*
X69000000Y88220000D01*
D26*
X89300000Y77500000D02*
X88000000Y77500000D01*
X88000000Y67470000D02*
X90749000Y70219000D01*
D25*
X87820000Y77670000D02*
X87650000Y77670000D01*
X75020000Y88220000D02*
X85510000Y77730000D01*
X87880000Y77730000D02*
X87820000Y77670000D01*
D26*
X88000000Y67000000D02*
X88000000Y67470000D01*
D25*
X69000000Y88220000D02*
X75020000Y88220000D01*
X85510000Y77730000D02*
X87880000Y77730000D01*
D26*
X90749000Y70219000D02*
X90749000Y76051000D01*
D25*
G04 #@! TO.N,VCC_8.4V_ADCS*
X80410000Y29560000D02*
X85120000Y29560000D01*
X70290000Y43150000D02*
X75600000Y48460000D01*
X70320000Y9040000D02*
X70320000Y10640000D01*
X75600000Y48460000D02*
X80250000Y48460000D01*
X72530000Y6830000D02*
X70320000Y9040000D01*
X77730000Y6830000D02*
X72530000Y6830000D01*
X70290000Y10750000D02*
X70290000Y43150000D01*
X87500000Y27180000D02*
X87500000Y16600000D01*
X85120000Y29560000D02*
X87500000Y27180000D01*
X87500000Y16600000D02*
X77730000Y6830000D01*
G04 #@! TD*
M02*
