M48
; DRILL file {KiCad 9.0.5} date 2026-06-01T00:05:26-0300
; FORMAT={-:-/ absolute / metric / decimal}
; #@! TF.CreationDate,2026-06-01T00:05:26-03:00
; #@! TF.GenerationSoftware,Kicad,Pcbnew,9.0.5
; #@! TF.FileFunction,MixedPlating,1,2
FMAT,2
METRIC
; #@! TA.AperFunction,Plated,PTH,ComponentDrill
T1C0.950
; #@! TA.AperFunction,Plated,PTH,ComponentDrill
T2C1.000
; #@! TA.AperFunction,Plated,PTH,ComponentDrill
T3C1.040
; #@! TA.AperFunction,Plated,PTH,ComponentDrill
T4C1.300
; #@! TA.AperFunction,Plated,PTH,ComponentDrill
T5C1.400
; #@! TA.AperFunction,Plated,PTH,ComponentDrill
T6C1.500
; #@! TA.AperFunction,Plated,PTH,ComponentDrill
T7C3.500
%
G90
G05
T1
X87.76Y53.89
X87.76Y51.39
X87.76Y48.89
X87.76Y46.39
X87.76Y43.89
X87.76Y41.39
X87.76Y38.89
X87.76Y36.39
X88.0Y67.0
X88.0Y64.5
X88.0Y62.0
T2
X87.8Y77.5
X87.8Y75.0
T3
X28.95Y88.27
X28.95Y70.87
X36.38Y61.55
X36.38Y14.55
X40.98Y59.55
X45.98Y59.55
X48.78Y16.55
X53.78Y16.55
X58.38Y61.55
X58.38Y14.55
X65.05Y53.54
X65.05Y51.0
X65.05Y48.46
X65.05Y45.92
X65.05Y43.38
X65.05Y40.84
X65.21Y34.64
X65.21Y32.1
X65.21Y29.56
X65.21Y27.02
X65.21Y24.48
X65.21Y21.94
X68.95Y88.27
X68.95Y70.87
X80.25Y53.54
X80.25Y51.0
X80.25Y48.46
X80.25Y45.92
X80.25Y43.38
X80.25Y40.84
X80.41Y34.64
X80.41Y32.1
X80.41Y29.56
X80.41Y27.02
X80.41Y24.48
X80.41Y21.94
T4
X25.457Y51.05
X25.457Y46.05
X25.537Y38.285
X25.537Y33.285
X25.725Y25.425
X25.725Y20.345
X70.29Y10.67
X75.29Y10.67
T5
X10.78Y76.98
X10.78Y66.82
T7
X4.0Y88.0
X4.0Y4.0
X88.0Y88.0
X88.0Y4.0
T4
G00X19.82Y66.67
M15
G01X19.52Y66.67
M16
G05
T6
G00X19.92Y88.51
M15
G01X19.42Y88.51
M16
G05
M30
