G04 #@! TF.GenerationSoftware,KiCad,Pcbnew,9.0.5*
G04 #@! TF.CreationDate,2026-05-23T09:06:34-03:00*
G04 #@! TF.ProjectId,CubeSat_EPS_ADCS,43756265-5361-4745-9f45-50535f414443,rev?*
G04 #@! TF.SameCoordinates,Original*
G04 #@! TF.FileFunction,Copper,L1,Top*
G04 #@! TF.FilePolarity,Positive*
%FSLAX46Y46*%
G04 Gerber Fmt 4.6, Leading zero omitted, Abs format (unit mm)*
G04 Created by KiCad (PCBNEW 9.0.5) date 2026-05-23 09:06:34*
%MOMM*%
%LPD*%
G01*
G04 APERTURE LIST*
G04 Aperture macros list*
%AMRoundRect*
0 Rectangle with rounded corners*
0 $1 Rounding radius*
0 $2 $3 $4 $5 $6 $7 $8 $9 X,Y pos of 4 corners*
0 Add a 4 corners polygon primitive as box body*
4,1,4,$2,$3,$4,$5,$6,$7,$8,$9,$2,$3,0*
0 Add four circle primitives for the rounded corners*
1,1,$1+$1,$2,$3*
1,1,$1+$1,$4,$5*
1,1,$1+$1,$6,$7*
1,1,$1+$1,$8,$9*
0 Add four rect primitives between the rounded corners*
20,1,$1+$1,$2,$3,$4,$5,0*
20,1,$1+$1,$4,$5,$6,$7,0*
20,1,$1+$1,$6,$7,$8,$9,0*
20,1,$1+$1,$8,$9,$2,$3,0*%
G04 Aperture macros list end*
G04 #@! TA.AperFunction,ComponentPad*
%ADD10RoundRect,0.250000X1.050000X1.050000X-1.050000X1.050000X-1.050000X-1.050000X1.050000X-1.050000X0*%
G04 #@! TD*
G04 #@! TA.AperFunction,ComponentPad*
%ADD11C,2.600000*%
G04 #@! TD*
G04 #@! TA.AperFunction,ComponentPad*
%ADD12C,2.000000*%
G04 #@! TD*
G04 #@! TA.AperFunction,ComponentPad*
%ADD13C,2.040000*%
G04 #@! TD*
G04 #@! TA.AperFunction,ComponentPad*
%ADD14RoundRect,0.250000X1.050000X-1.050000X1.050000X1.050000X-1.050000X1.050000X-1.050000X-1.050000X0*%
G04 #@! TD*
G04 #@! TA.AperFunction,ComponentPad*
%ADD15C,6.000000*%
G04 #@! TD*
G04 #@! TA.AperFunction,ComponentPad*
%ADD16RoundRect,0.250000X-0.750000X0.600000X-0.750000X-0.600000X0.750000X-0.600000X0.750000X0.600000X0*%
G04 #@! TD*
G04 #@! TA.AperFunction,ComponentPad*
%ADD17O,2.000000X1.700000*%
G04 #@! TD*
G04 #@! TA.AperFunction,ComponentPad*
%ADD18RoundRect,0.250000X-0.725000X0.600000X-0.725000X-0.600000X0.725000X-0.600000X0.725000X0.600000X0*%
G04 #@! TD*
G04 #@! TA.AperFunction,ComponentPad*
%ADD19O,1.950000X1.700000*%
G04 #@! TD*
G04 #@! TA.AperFunction,ComponentPad*
%ADD20RoundRect,0.250001X-1.149999X1.149999X-1.149999X-1.149999X1.149999X-1.149999X1.149999X1.149999X0*%
G04 #@! TD*
G04 #@! TA.AperFunction,ComponentPad*
%ADD21C,2.800000*%
G04 #@! TD*
G04 APERTURE END LIST*
D10*
G04 #@! TO.P,J4,1,Pin_1*
G04 #@! TO.N,VCC_8.4V_ADCS*
X70430000Y9930000D03*
D11*
G04 #@! TO.P,J4,2,Pin_2*
G04 #@! TO.N,GND*
X65430000Y9930000D03*
G04 #@! TD*
D12*
G04 #@! TO.P,U1,1,nSLEEP*
G04 #@! TO.N,unconnected-(U1-nSLEEP-Pad1)*
X65060000Y41250000D03*
D13*
G04 #@! TO.P,U1,2,OUT1*
G04 #@! TO.N,VCC_M1*
X65060000Y43790000D03*
D12*
G04 #@! TO.P,U1,3,OUT2*
G04 #@! TO.N,GND_M1*
X65060000Y46330000D03*
G04 #@! TO.P,U1,4,OUT3*
G04 #@! TO.N,VCC_M2*
X65060000Y48870000D03*
G04 #@! TO.P,U1,5,OUT4*
G04 #@! TO.N,GND_M2*
X65060000Y51410000D03*
G04 #@! TO.P,U1,6,nFAULT*
G04 #@! TO.N,unconnected-(U1-nFAULT-Pad6)*
X65060000Y53950000D03*
G04 #@! TO.P,U1,7,IN4*
G04 #@! TO.N,M2_PWM2*
X80260000Y41250000D03*
G04 #@! TO.P,U1,8,IN3*
G04 #@! TO.N,M2_PWM1*
X80260000Y43790000D03*
G04 #@! TO.P,U1,9,VCC*
G04 #@! TO.N,VCC_8.4V_ADCS*
X80260000Y46330000D03*
G04 #@! TO.P,U1,10,GND*
G04 #@! TO.N,GND*
X80260000Y48870000D03*
G04 #@! TO.P,U1,11,IN2*
G04 #@! TO.N,M1_PWM2*
X80260000Y51410000D03*
G04 #@! TO.P,U1,12,IN1*
G04 #@! TO.N,M1_PWM1*
X80260000Y53950000D03*
G04 #@! TD*
G04 #@! TO.P,U2,1,nSLEEP*
G04 #@! TO.N,unconnected-(U2-nSLEEP-Pad1)*
X65160000Y22210000D03*
G04 #@! TO.P,U2,2,OUT1*
G04 #@! TO.N,VCC_M3*
X65160000Y24750000D03*
G04 #@! TO.P,U2,3,OUT2*
G04 #@! TO.N,GND_M3*
X65160000Y27290000D03*
G04 #@! TO.P,U2,4,OUT3*
G04 #@! TO.N,unconnected-(U2-OUT3-Pad4)*
X65160000Y29830000D03*
G04 #@! TO.P,U2,5,OUT4*
G04 #@! TO.N,unconnected-(U2-OUT4-Pad5)*
X65160000Y32370000D03*
G04 #@! TO.P,U2,6,nFAULT*
G04 #@! TO.N,unconnected-(U2-nFAULT-Pad6)*
X65160000Y34910000D03*
G04 #@! TO.P,U2,7,IN4*
G04 #@! TO.N,unconnected-(U2-IN4-Pad7)*
X80360000Y22210000D03*
G04 #@! TO.P,U2,8,IN3*
G04 #@! TO.N,unconnected-(U2-IN3-Pad8)*
X80360000Y24750000D03*
G04 #@! TO.P,U2,9,VCC*
G04 #@! TO.N,VCC_8.4V_ADCS*
X80360000Y27290000D03*
G04 #@! TO.P,U2,10,GND*
G04 #@! TO.N,GND*
X80360000Y29830000D03*
G04 #@! TO.P,U2,11,IN2*
G04 #@! TO.N,M3_PWM2*
X80360000Y32370000D03*
G04 #@! TO.P,U2,12,IN1*
G04 #@! TO.N,M3_PWM1*
X80360000Y34910000D03*
G04 #@! TD*
D14*
G04 #@! TO.P,J7,1,Pin_1*
G04 #@! TO.N,VCC_M3*
X53927500Y24650000D03*
D11*
G04 #@! TO.P,J7,2,Pin_2*
G04 #@! TO.N,GND_M3*
X53927500Y29730000D03*
G04 #@! TD*
D15*
G04 #@! TO.P,,*
G04 #@! TO.N,*
X88000000Y4000000D03*
G04 #@! TD*
D11*
G04 #@! TO.P,F1,1*
G04 #@! TO.N,Net-(U4-Vout)*
X54060000Y63830000D03*
G04 #@! TO.P,F1,2*
G04 #@! TO.N,VCC_5V*
X75900000Y63830000D03*
G04 #@! TD*
D15*
G04 #@! TO.P,,*
G04 #@! TO.N,*
X4000000Y88000000D03*
G04 #@! TD*
D16*
G04 #@! TO.P,J1,1,Pin_1*
G04 #@! TO.N,VCC_8.4V_EPS*
X88000000Y77500000D03*
D17*
G04 #@! TO.P,J1,2,Pin_2*
G04 #@! TO.N,GND*
X88000000Y75000000D03*
G04 #@! TD*
D18*
G04 #@! TO.P,J2,1,Pin_1*
G04 #@! TO.N,VCC_8.4V_EPS*
X88000000Y67000000D03*
D19*
G04 #@! TO.P,J2,2,Pin_2*
G04 #@! TO.N,VCC_5V*
X88000000Y64500000D03*
G04 #@! TO.P,J2,3,Pin_3*
G04 #@! TO.N,GND*
X88000000Y62000000D03*
G04 #@! TD*
D14*
G04 #@! TO.P,J6,1,Pin_1*
G04 #@! TO.N,VCC_M2*
X53617500Y48640000D03*
D11*
G04 #@! TO.P,J6,2,Pin_2*
G04 #@! TO.N,GND_M2*
X53617500Y53640000D03*
G04 #@! TD*
D14*
G04 #@! TO.P,J5,1,Pin_1*
G04 #@! TO.N,VCC_M1*
X53807500Y36740000D03*
D11*
G04 #@! TO.P,J5,2,Pin_2*
G04 #@! TO.N,GND_M1*
X53807500Y41740000D03*
G04 #@! TD*
D20*
G04 #@! TO.P,D1,1,K*
G04 #@! TO.N,VCC_5V*
X81130000Y70210000D03*
D21*
G04 #@! TO.P,D1,2,A*
G04 #@! TO.N,GND*
X81130000Y60050000D03*
G04 #@! TD*
D11*
G04 #@! TO.P,U4,1,Vin*
G04 #@! TO.N,VCC_8.4V_EPS*
X75530000Y88470000D03*
G04 #@! TO.P,U4,2,GND*
G04 #@! TO.N,GND*
X75530000Y72370000D03*
G04 #@! TO.P,U4,3,Vout*
G04 #@! TO.N,Net-(U4-Vout)*
X38500000Y88470000D03*
G04 #@! TO.P,U4,4,GND*
G04 #@! TO.N,GND*
X38500000Y72370000D03*
G04 #@! TD*
D15*
G04 #@! TO.P,,*
G04 #@! TO.N,*
X88000000Y88000000D03*
G04 #@! TD*
D18*
G04 #@! TO.P,J3,1,Pin_1*
G04 #@! TO.N,M1_PWM1*
X88000000Y53900000D03*
D19*
G04 #@! TO.P,J3,2,Pin_2*
G04 #@! TO.N,M1_PWM2*
X88000000Y51400000D03*
G04 #@! TO.P,J3,3,Pin_3*
G04 #@! TO.N,GND*
X88000000Y48900000D03*
G04 #@! TO.P,J3,4,Pin_4*
G04 #@! TO.N,M2_PWM1*
X88000000Y46400000D03*
G04 #@! TO.P,J3,5,Pin_5*
G04 #@! TO.N,M2_PWM2*
X88000000Y43900000D03*
G04 #@! TO.P,J3,6,Pin_6*
G04 #@! TO.N,GND*
X88000000Y41400000D03*
G04 #@! TO.P,J3,7,Pin_7*
G04 #@! TO.N,M3_PWM1*
X88000000Y38900000D03*
G04 #@! TO.P,J3,8,Pin_8*
G04 #@! TO.N,M3_PWM2*
X88000000Y36400000D03*
G04 #@! TD*
D15*
G04 #@! TO.P,,*
G04 #@! TO.N,*
X4000000Y4000000D03*
G04 #@! TD*
M02*
