G04 #@! TF.GenerationSoftware,KiCad,Pcbnew,9.0.5*
G04 #@! TF.CreationDate,2026-05-26T13:19:16-03:00*
G04 #@! TF.ProjectId,CubeSat_EPS_ADCS,43756265-5361-4745-9f45-50535f414443,rev?*
G04 #@! TF.SameCoordinates,Original*
G04 #@! TF.FileFunction,Copper,L2,Bot*
G04 #@! TF.FilePolarity,Positive*
%FSLAX46Y46*%
G04 Gerber Fmt 4.6, Leading zero omitted, Abs format (unit mm)*
G04 Created by KiCad (PCBNEW 9.0.5) date 2026-05-26 13:19:16*
%MOMM*%
%LPD*%
G01*
G04 APERTURE LIST*
G04 Aperture macros list*
%AMRoundRect*
0 Rectangle with rounded corners*
0 $1 Rounding radius*
0 $2 $3 $4 $5 $6 $7 $8 $9 X,Y pos of 4 corners*
0 Add a 4 corners polygon primitive as box body*
4,1,4,$2,$3,$4,$5,$6,$7,$8,$9,$2,$3,0*
0 Add four circle primitives for the rounded corners*
1,1,$1+$1,$2,$3*
1,1,$1+$1,$4,$5*
1,1,$1+$1,$6,$7*
1,1,$1+$1,$8,$9*
0 Add four rect primitives between the rounded corners*
20,1,$1+$1,$2,$3,$4,$5,0*
20,1,$1+$1,$4,$5,$6,$7,0*
20,1,$1+$1,$6,$7,$8,$9,0*
20,1,$1+$1,$8,$9,$2,$3,0*%
G04 Aperture macros list end*
G04 #@! TA.AperFunction,ComponentPad*
%ADD10O,3.000000X1.800000*%
G04 #@! TD*
G04 #@! TA.AperFunction,ComponentPad*
%ADD11RoundRect,0.326924X1.373076X1.373076X-1.373076X1.373076X-1.373076X-1.373076X1.373076X-1.373076X0*%
G04 #@! TD*
G04 #@! TA.AperFunction,ComponentPad*
%ADD12C,3.400000*%
G04 #@! TD*
G04 #@! TA.AperFunction,ComponentPad*
%ADD13RoundRect,0.326924X1.373076X-1.373076X1.373076X1.373076X-1.373076X1.373076X-1.373076X-1.373076X0*%
G04 #@! TD*
G04 #@! TA.AperFunction,ComponentPad*
%ADD14C,6.000000*%
G04 #@! TD*
G04 #@! TA.AperFunction,ComponentPad*
%ADD15C,3.000000*%
G04 #@! TD*
G04 #@! TA.AperFunction,ComponentPad*
%ADD16RoundRect,0.264706X-1.235294X0.635294X-1.235294X-0.635294X1.235294X-0.635294X1.235294X0.635294X0*%
G04 #@! TD*
G04 #@! TA.AperFunction,ComponentPad*
%ADD17RoundRect,0.250001X-1.149999X1.149999X-1.149999X-1.149999X1.149999X-1.149999X1.149999X1.149999X0*%
G04 #@! TD*
G04 #@! TA.AperFunction,ComponentPad*
%ADD18C,2.800000*%
G04 #@! TD*
G04 #@! TA.AperFunction,ComponentPad*
%ADD19C,3.200000*%
G04 #@! TD*
G04 #@! TA.AperFunction,ComponentPad*
%ADD20O,2.000000X3.000000*%
G04 #@! TD*
G04 #@! TA.AperFunction,Conductor*
%ADD21C,2.000000*%
G04 #@! TD*
G04 #@! TA.AperFunction,Conductor*
%ADD22C,1.500000*%
G04 #@! TD*
G04 #@! TA.AperFunction,Conductor*
%ADD23C,1.000000*%
G04 #@! TD*
G04 #@! TA.AperFunction,Conductor*
%ADD24C,3.000000*%
G04 #@! TD*
G04 APERTURE END LIST*
D10*
G04 #@! TO.P,U1,1,nSLEEP*
G04 #@! TO.N,unconnected-(U1-nSLEEP-Pad1)*
X65050000Y40840000D03*
G04 #@! TO.P,U1,2,OUT1*
G04 #@! TO.N,VCC_M1*
X65050000Y43380000D03*
G04 #@! TO.P,U1,3,OUT2*
G04 #@! TO.N,GND_M1*
X65050000Y45920000D03*
G04 #@! TO.P,U1,4,OUT3*
G04 #@! TO.N,VCC_M2*
X65050000Y48460000D03*
G04 #@! TO.P,U1,5,OUT4*
G04 #@! TO.N,GND_M2*
X65050000Y51000000D03*
G04 #@! TO.P,U1,6,nFAULT*
G04 #@! TO.N,unconnected-(U1-nFAULT-Pad6)*
X65050000Y53540000D03*
G04 #@! TO.P,U1,7,IN4*
G04 #@! TO.N,M2_PWM2*
X80250000Y40840000D03*
G04 #@! TO.P,U1,8,IN3*
G04 #@! TO.N,M2_PWM1*
X80250000Y43380000D03*
G04 #@! TO.P,U1,9,VCC*
G04 #@! TO.N,VCC_8.4V_ADCS*
X80250000Y45920000D03*
G04 #@! TO.P,U1,10,GND*
G04 #@! TO.N,GND*
X80250000Y48460000D03*
G04 #@! TO.P,U1,11,IN2*
G04 #@! TO.N,M1_PWM2*
X80250000Y51000000D03*
G04 #@! TO.P,U1,12,IN1*
G04 #@! TO.N,M1_PWM1*
X80250000Y53540000D03*
G04 #@! TD*
G04 #@! TO.P,U2,1,nSLEEP*
G04 #@! TO.N,unconnected-(U2-nSLEEP-Pad1)*
X65210000Y21940000D03*
G04 #@! TO.P,U2,2,OUT1*
G04 #@! TO.N,VCC_M3*
X65210000Y24480000D03*
G04 #@! TO.P,U2,3,OUT2*
G04 #@! TO.N,GND_M3*
X65210000Y27020000D03*
G04 #@! TO.P,U2,4,OUT3*
G04 #@! TO.N,unconnected-(U2-OUT3-Pad4)*
X65210000Y29560000D03*
G04 #@! TO.P,U2,5,OUT4*
G04 #@! TO.N,unconnected-(U2-OUT4-Pad5)*
X65210000Y32100000D03*
G04 #@! TO.P,U2,6,nFAULT*
G04 #@! TO.N,unconnected-(U2-nFAULT-Pad6)*
X65210000Y34640000D03*
G04 #@! TO.P,U2,7,IN4*
G04 #@! TO.N,unconnected-(U2-IN4-Pad7)*
X80410000Y21940000D03*
G04 #@! TO.P,U2,8,IN3*
G04 #@! TO.N,unconnected-(U2-IN3-Pad8)*
X80410000Y24480000D03*
G04 #@! TO.P,U2,9,VCC*
G04 #@! TO.N,VCC_8.4V_ADCS*
X80410000Y27020000D03*
G04 #@! TO.P,U2,10,GND*
G04 #@! TO.N,GND*
X80410000Y29560000D03*
G04 #@! TO.P,U2,11,IN2*
G04 #@! TO.N,M3_PWM2*
X80410000Y32100000D03*
G04 #@! TO.P,U2,12,IN1*
G04 #@! TO.N,M3_PWM1*
X80410000Y34640000D03*
G04 #@! TD*
D11*
G04 #@! TO.P,J4,1,Pin_1*
G04 #@! TO.N,VCC_8.4V_ADCS*
X70850000Y11820000D03*
D12*
G04 #@! TO.P,J4,2,Pin_2*
G04 #@! TO.N,GND*
X65850000Y11820000D03*
G04 #@! TD*
D13*
G04 #@! TO.P,J7,1,Pin_1*
G04 #@! TO.N,VCC_M3*
X25795000Y16700000D03*
D12*
G04 #@! TO.P,J7,2,Pin_2*
G04 #@! TO.N,GND_M3*
X25795000Y21780000D03*
G04 #@! TD*
D14*
G04 #@! TO.P,,*
G04 #@! TO.N,*
X88000000Y4000000D03*
G04 #@! TD*
D15*
G04 #@! TO.P,F1,1*
G04 #@! TO.N,Net-(J8-Pin_1)*
X54060000Y63830000D03*
G04 #@! TO.P,F1,2*
G04 #@! TO.N,VCC_5V*
X75900000Y63830000D03*
G04 #@! TD*
D14*
G04 #@! TO.P,,*
G04 #@! TO.N,*
X4000000Y88000000D03*
G04 #@! TD*
D16*
G04 #@! TO.P,J1,1,Pin_1*
G04 #@! TO.N,VCC_8.4V_EPS*
X88000000Y77500000D03*
D10*
G04 #@! TO.P,J1,2,Pin_2*
G04 #@! TO.N,GND*
X88000000Y75000000D03*
G04 #@! TD*
D16*
G04 #@! TO.P,J2,1,Pin_1*
G04 #@! TO.N,VCC_8.4V_EPS*
X88000000Y67000000D03*
D10*
G04 #@! TO.P,J2,2,Pin_2*
G04 #@! TO.N,VCC_5V*
X88000000Y64500000D03*
G04 #@! TO.P,J2,3,Pin_3*
G04 #@! TO.N,GND*
X88000000Y62000000D03*
G04 #@! TD*
D13*
G04 #@! TO.P,J6,1,Pin_1*
G04 #@! TO.N,VCC_M2*
X25545000Y42230000D03*
D12*
G04 #@! TO.P,J6,2,Pin_2*
G04 #@! TO.N,GND_M2*
X25545000Y47230000D03*
G04 #@! TD*
D13*
G04 #@! TO.P,J5,1,Pin_1*
G04 #@! TO.N,VCC_M1*
X25607500Y29640000D03*
D12*
G04 #@! TO.P,J5,2,Pin_2*
G04 #@! TO.N,GND_M1*
X25607500Y34640000D03*
G04 #@! TD*
D17*
G04 #@! TO.P,D1,1,K*
G04 #@! TO.N,VCC_5V*
X81130000Y70210000D03*
D18*
G04 #@! TO.P,D1,2,A*
G04 #@! TO.N,GND*
X81130000Y60050000D03*
G04 #@! TD*
D19*
G04 #@! TO.P,U4,1,Vin*
G04 #@! TO.N,VCC_8.4V_EPS*
X75530000Y88470000D03*
G04 #@! TO.P,U4,2,GND*
G04 #@! TO.N,GND*
X75530000Y72370000D03*
G04 #@! TO.P,U4,3,Vout*
G04 #@! TO.N,Net-(J8-Pin_2)*
X38500000Y88470000D03*
G04 #@! TO.P,U4,4,GND*
G04 #@! TO.N,GND*
X38500000Y72370000D03*
G04 #@! TD*
D20*
G04 #@! TO.P,U3,*
G04 #@! TO.N,*
X53990000Y9390000D03*
X48990000Y9390000D03*
X46190000Y52390000D03*
X41190000Y52390000D03*
D19*
G04 #@! TO.P,U3,1,Vin*
G04 #@! TO.N,unconnected-(U3-Vin-Pad1)*
X58590000Y7390000D03*
G04 #@! TO.P,U3,2,GND*
G04 #@! TO.N,GND*
X36590000Y7390000D03*
G04 #@! TO.P,U3,3,Vout*
G04 #@! TO.N,unconnected-(U3-Vout-Pad3)*
X58590000Y54390000D03*
G04 #@! TO.P,U3,4,GND*
G04 #@! TO.N,GND*
X36590000Y54390000D03*
G04 #@! TD*
D14*
G04 #@! TO.P,,*
G04 #@! TO.N,*
X88000000Y88000000D03*
G04 #@! TD*
D13*
G04 #@! TO.P,J8,1,Pin_1*
G04 #@! TO.N,Net-(J8-Pin_1)*
X23077500Y75250000D03*
D12*
G04 #@! TO.P,J8,2,Pin_2*
G04 #@! TO.N,Net-(J8-Pin_2)*
X23077500Y80250000D03*
G04 #@! TD*
D16*
G04 #@! TO.P,J3,1,Pin_1*
G04 #@! TO.N,M1_PWM1*
X88000000Y53900000D03*
D10*
G04 #@! TO.P,J3,2,Pin_2*
G04 #@! TO.N,M1_PWM2*
X88000000Y51400000D03*
G04 #@! TO.P,J3,3,Pin_3*
G04 #@! TO.N,GND*
X88000000Y48900000D03*
G04 #@! TO.P,J3,4,Pin_4*
G04 #@! TO.N,M2_PWM1*
X88000000Y46400000D03*
G04 #@! TO.P,J3,5,Pin_5*
G04 #@! TO.N,M2_PWM2*
X88000000Y43900000D03*
G04 #@! TO.P,J3,6,Pin_6*
G04 #@! TO.N,GND*
X88000000Y41400000D03*
G04 #@! TO.P,J3,7,Pin_7*
G04 #@! TO.N,M3_PWM1*
X88000000Y38900000D03*
G04 #@! TO.P,J3,8,Pin_8*
G04 #@! TO.N,M3_PWM2*
X88000000Y36400000D03*
G04 #@! TD*
D14*
G04 #@! TO.P,,*
G04 #@! TO.N,*
X4000000Y4000000D03*
G04 #@! TD*
D21*
G04 #@! TO.N,GND*
X74040000Y60050000D02*
X71570000Y62520000D01*
X71570000Y62520000D02*
X71570000Y68260000D01*
X81130000Y60050000D02*
X74040000Y60050000D01*
X78310000Y75000000D02*
X88000000Y75000000D01*
X71570000Y68260000D02*
X78310000Y75000000D01*
X81160000Y60080000D02*
X81130000Y60050000D01*
X88000000Y62000000D02*
X86080000Y60080000D01*
X86080000Y60080000D02*
X81160000Y60080000D01*
G04 #@! TO.N,VCC_5V*
X86290000Y64500000D02*
X88000000Y64500000D01*
X81130000Y70210000D02*
X81130000Y69660000D01*
X81130000Y69660000D02*
X86290000Y64500000D01*
D22*
G04 #@! TO.N,M2_PWM2*
X83590000Y40840000D02*
X80250000Y40840000D01*
X86650000Y43900000D02*
X83590000Y40840000D01*
X88000000Y43900000D02*
X86650000Y43900000D01*
D23*
G04 #@! TO.N,GND*
X89400000Y41400000D02*
X88000000Y41400000D01*
X90750000Y42750000D02*
X89400000Y41400000D01*
X89350000Y48900000D02*
X90750000Y47500000D01*
X88000000Y48900000D02*
X89350000Y48900000D01*
X90750000Y47500000D02*
X90750000Y42750000D01*
X90750000Y50140000D02*
X89510000Y48900000D01*
X90750000Y59250000D02*
X90750000Y50140000D01*
X89510000Y48900000D02*
X88000000Y48900000D01*
X88000000Y62000000D02*
X90750000Y59250000D01*
D22*
G04 #@! TO.N,M1_PWM2*
X87850000Y51250000D02*
X80500000Y51250000D01*
X80500000Y51250000D02*
X80250000Y51000000D01*
D21*
G04 #@! TO.N,VCC_M2*
X25555000Y42240000D02*
X25545000Y42230000D01*
X65050000Y48460000D02*
X58620000Y48460000D01*
X58620000Y48460000D02*
X52400000Y42240000D01*
X52400000Y42240000D02*
X25555000Y42240000D01*
G04 #@! TO.N,GND_M2*
X53000000Y47230000D02*
X25545000Y47230000D01*
X56770000Y51000000D02*
X53000000Y47230000D01*
X65050000Y51000000D02*
X56770000Y51000000D01*
G04 #@! TO.N,VCC_M3*
X25805000Y16710000D02*
X25795000Y16700000D01*
X61300000Y24480000D02*
X53530000Y16710000D01*
X53530000Y16710000D02*
X25805000Y16710000D01*
X64890000Y24480000D02*
X61300000Y24480000D01*
G04 #@! TO.N,GND_M3*
X58700000Y27020000D02*
X53480000Y21800000D01*
X64890000Y27020000D02*
X58700000Y27020000D01*
X25815000Y21800000D02*
X25795000Y21780000D01*
X53480000Y21800000D02*
X25815000Y21800000D01*
D22*
G04 #@! TO.N,M2_PWM1*
X88000000Y46400000D02*
X85370000Y46400000D01*
X82350000Y43380000D02*
X80520000Y43380000D01*
X85370000Y46400000D02*
X82350000Y43380000D01*
D21*
G04 #@! TO.N,VCC_M1*
X63130000Y43380000D02*
X49390000Y29640000D01*
X49390000Y29640000D02*
X26030000Y29640000D01*
X65050000Y43380000D02*
X63130000Y43380000D01*
X26030000Y29640000D02*
X25990000Y29600000D01*
G04 #@! TO.N,GND_M1*
X49750000Y34640000D02*
X61030000Y45920000D01*
X61030000Y45920000D02*
X65050000Y45920000D01*
X25607500Y34640000D02*
X49750000Y34640000D01*
G04 #@! TO.N,GND*
X38520000Y72350000D02*
X38500000Y72370000D01*
X70740000Y5090000D02*
X79010000Y5090000D01*
X85410000Y29560000D02*
X80410000Y29560000D01*
D24*
X17000000Y13560000D02*
X23080000Y7480000D01*
X23080000Y7480000D02*
X36340000Y7480000D01*
D21*
X80250000Y48460000D02*
X76540000Y48460000D01*
D24*
X17000000Y48500000D02*
X17000000Y13560000D01*
X36340000Y7480000D02*
X40910000Y2910000D01*
D21*
X75480000Y48460000D02*
X80250000Y48460000D01*
D24*
X65850000Y7830000D02*
X65850000Y11820000D01*
D21*
X66500000Y58500000D02*
X40380000Y58500000D01*
D23*
X80250000Y48460000D02*
X80520000Y48730000D01*
D21*
X88270000Y14350000D02*
X88270000Y26700000D01*
X69660000Y42640000D02*
X69660000Y20120000D01*
X65850000Y11820000D02*
X65850000Y9980000D01*
X69660000Y20120000D02*
X65850000Y16310000D01*
X75510000Y72350000D02*
X38520000Y72350000D01*
D23*
X80520000Y48730000D02*
X87830000Y48730000D01*
D21*
X65850000Y9980000D02*
X70740000Y5090000D01*
D24*
X60930000Y2910000D02*
X65850000Y7830000D01*
D21*
X76540000Y48460000D02*
X66500000Y58500000D01*
X75530000Y72370000D02*
X75510000Y72350000D01*
D24*
X36280000Y54540000D02*
X23040000Y54540000D01*
D21*
X65850000Y16310000D02*
X65850000Y11820000D01*
X40380000Y58500000D02*
X36580000Y54700000D01*
D23*
X87830000Y48730000D02*
X88000000Y48900000D01*
D21*
X69660000Y42640000D02*
X75480000Y48460000D01*
X88270000Y26700000D02*
X85410000Y29560000D01*
D24*
X40910000Y2910000D02*
X60930000Y2910000D01*
D21*
X79010000Y5090000D02*
X88270000Y14350000D01*
D24*
X23040000Y54540000D02*
X17000000Y48500000D01*
D22*
G04 #@! TO.N,M1_PWM1*
X80630000Y53920000D02*
X80250000Y53540000D01*
X87980000Y53920000D02*
X80630000Y53920000D01*
X88000000Y53900000D02*
X87980000Y53920000D01*
G04 #@! TO.N,M3_PWM1*
X88000000Y38900000D02*
X85790000Y38900000D01*
X81530000Y34640000D02*
X80410000Y34640000D01*
X85790000Y38900000D02*
X81530000Y34640000D01*
G04 #@! TO.N,M3_PWM2*
X83700000Y32090000D02*
X80420000Y32090000D01*
X88010000Y36400000D02*
X83700000Y32090000D01*
X80420000Y32090000D02*
X80410000Y32100000D01*
D21*
G04 #@! TO.N,VCC_5V*
X75920000Y65000000D02*
X81130000Y70210000D01*
X75900000Y63830000D02*
X75920000Y63850000D01*
X75920000Y63850000D02*
X75920000Y65000000D01*
D22*
X75910000Y63890000D02*
X75910000Y63950000D01*
D21*
G04 #@! TO.N,Net-(J8-Pin_2)*
X31085000Y88460000D02*
X23077500Y80452500D01*
X23077500Y80452500D02*
X23077500Y80250000D01*
X38500000Y88460000D02*
X31085000Y88460000D01*
D22*
G04 #@! TO.N,VCC_8.4V_EPS*
X88220000Y67000000D02*
X90550000Y69330000D01*
D21*
X75600000Y88540000D02*
X77000000Y88540000D01*
D22*
X88000000Y67000000D02*
X88220000Y67000000D01*
D21*
X88000000Y77540000D02*
X88000000Y77500000D01*
D22*
X90550000Y76250000D02*
X89300000Y77500000D01*
D21*
X75530000Y88470000D02*
X75600000Y88540000D01*
X77000000Y88540000D02*
X88000000Y77540000D01*
D22*
X90550000Y69330000D02*
X90550000Y76250000D01*
X89300000Y77500000D02*
X88000000Y77500000D01*
D21*
G04 #@! TO.N,VCC_8.4V_ADCS*
X84120000Y24790000D02*
X81890000Y27020000D01*
X84120000Y16660000D02*
X84120000Y24790000D01*
X78230000Y45920000D02*
X74940000Y42630000D01*
X80250000Y45920000D02*
X78230000Y45920000D01*
X74940000Y16100000D02*
X70850000Y12010000D01*
X81890000Y27020000D02*
X80410000Y27020000D01*
X79280000Y11820000D02*
X84120000Y16660000D01*
X70850000Y12010000D02*
X70850000Y11820000D01*
X74940000Y42630000D02*
X74940000Y16100000D01*
X70850000Y11820000D02*
X79280000Y11820000D01*
G04 #@! TO.N,Net-(J8-Pin_1)*
X50940000Y66950000D02*
X54060000Y63830000D01*
X31377500Y66950000D02*
X23077500Y75250000D01*
X35310000Y66950000D02*
X31377500Y66950000D01*
X35310000Y66950000D02*
X50940000Y66950000D01*
G04 #@! TD*
M02*
