M48
; DRILL file {KiCad 9.0.5} date 2026-05-26T13:40:08-0300
; FORMAT={-:-/ absolute / metric / decimal}
; #@! TF.CreationDate,2026-05-26T13:40:08-03:00
; #@! TF.GenerationSoftware,Kicad,Pcbnew,9.0.5
; #@! TF.FileFunction,MixedPlating,1,2
FMAT,2
METRIC
; #@! TA.AperFunction,Plated,PTH,ComponentDrill
T1C0.950
; #@! TA.AperFunction,Plated,PTH,ComponentDrill
T2C1.000
; #@! TA.AperFunction,Plated,PTH,ComponentDrill
T3C1.040
; #@! TA.AperFunction,Plated,PTH,ComponentDrill
T4C1.300
; #@! TA.AperFunction,Plated,PTH,ComponentDrill
T5C1.400
; #@! TA.AperFunction,Plated,PTH,ComponentDrill
T6C3.500
%
G90
G05
T1
X88.0Y67.0
X88.0Y64.5
X88.0Y62.0
X88.0Y53.9
X88.0Y51.4
X88.0Y48.9
X88.0Y46.4
X88.0Y43.9
X88.0Y41.4
X88.0Y38.9
X88.0Y36.4
T2
X88.0Y77.5
X88.0Y75.0
T3
X36.59Y54.39
X36.59Y7.39
X38.5Y88.47
X38.5Y72.37
X41.19Y52.39
X46.19Y52.39
X48.99Y9.39
X53.99Y9.39
X58.59Y54.39
X58.59Y7.39
X65.05Y53.54
X65.05Y51.0
X65.05Y48.46
X65.05Y45.92
X65.05Y43.38
X65.05Y40.84
X65.21Y34.64
X65.21Y32.1
X65.21Y29.56
X65.21Y27.02
X65.21Y24.48
X65.21Y21.94
X75.53Y88.47
X75.53Y72.37
X80.25Y53.54
X80.25Y51.0
X80.25Y48.46
X80.25Y45.92
X80.25Y43.38
X80.25Y40.84
X80.41Y34.64
X80.41Y32.1
X80.41Y29.56
X80.41Y27.02
X80.41Y24.48
X80.41Y21.94
T4
X23.078Y80.25
X23.078Y75.25
X25.545Y47.23
X25.545Y42.23
X25.607Y34.64
X25.607Y29.64
X25.795Y21.78
X25.795Y16.7
X54.06Y63.83
X65.85Y11.82
X70.85Y11.82
X75.9Y63.83
T5
X81.13Y70.21
X81.13Y60.05
T6
X4.0Y88.0
X4.0Y4.0
X88.0Y88.0
X88.0Y4.0
M30
