G04 #@! TF.GenerationSoftware,KiCad,Pcbnew,9.0.5*
G04 #@! TF.CreationDate,2026-05-25T01:42:40-03:00*
G04 #@! TF.ProjectId,CubeSat_Main,43756265-5361-4745-9f4d-61696e2e6b69,rev?*
G04 #@! TF.SameCoordinates,Original*
G04 #@! TF.FileFunction,Copper,L2,Bot*
G04 #@! TF.FilePolarity,Positive*
%FSLAX46Y46*%
G04 Gerber Fmt 4.6, Leading zero omitted, Abs format (unit mm)*
G04 Created by KiCad (PCBNEW 9.0.5) date 2026-05-25 01:42:40*
%MOMM*%
%LPD*%
G01*
G04 APERTURE LIST*
G04 Aperture macros list*
%AMRoundRect*
0 Rectangle with rounded corners*
0 $1 Rounding radius*
0 $2 $3 $4 $5 $6 $7 $8 $9 X,Y pos of 4 corners*
0 Add a 4 corners polygon primitive as box body*
4,1,4,$2,$3,$4,$5,$6,$7,$8,$9,$2,$3,0*
0 Add four circle primitives for the rounded corners*
1,1,$1+$1,$2,$3*
1,1,$1+$1,$4,$5*
1,1,$1+$1,$6,$7*
1,1,$1+$1,$8,$9*
0 Add four rect primitives between the rounded corners*
20,1,$1+$1,$2,$3,$4,$5,0*
20,1,$1+$1,$4,$5,$6,$7,0*
20,1,$1+$1,$6,$7,$8,$9,0*
20,1,$1+$1,$8,$9,$2,$3,0*%
G04 Aperture macros list end*
G04 #@! TA.AperFunction,ComponentPad*
%ADD10C,1.560000*%
G04 #@! TD*
G04 #@! TA.AperFunction,ComponentPad*
%ADD11C,1.600000*%
G04 #@! TD*
G04 #@! TA.AperFunction,ComponentPad*
%ADD12R,1.800000X1.800000*%
G04 #@! TD*
G04 #@! TA.AperFunction,ComponentPad*
%ADD13C,1.800000*%
G04 #@! TD*
G04 #@! TA.AperFunction,ComponentPad*
%ADD14R,1.560000X1.560000*%
G04 #@! TD*
G04 #@! TA.AperFunction,ComponentPad*
%ADD15R,1.700000X1.700000*%
G04 #@! TD*
G04 #@! TA.AperFunction,ComponentPad*
%ADD16C,1.700000*%
G04 #@! TD*
G04 #@! TA.AperFunction,ComponentPad*
%ADD17RoundRect,0.250000X0.725000X-0.600000X0.725000X0.600000X-0.725000X0.600000X-0.725000X-0.600000X0*%
G04 #@! TD*
G04 #@! TA.AperFunction,ComponentPad*
%ADD18O,1.950000X1.700000*%
G04 #@! TD*
G04 #@! TA.AperFunction,ComponentPad*
%ADD19C,6.000000*%
G04 #@! TD*
G04 #@! TA.AperFunction,ComponentPad*
%ADD20R,2.000000X2.000000*%
G04 #@! TD*
G04 #@! TA.AperFunction,ComponentPad*
%ADD21C,2.000000*%
G04 #@! TD*
G04 #@! TA.AperFunction,Conductor*
%ADD22C,1.500000*%
G04 #@! TD*
G04 #@! TA.AperFunction,Conductor*
%ADD23C,1.000000*%
G04 #@! TD*
G04 #@! TA.AperFunction,Conductor*
%ADD24C,0.200000*%
G04 #@! TD*
G04 APERTURE END LIST*
D10*
G04 #@! TO.P,U4,1,VCC*
G04 #@! TO.N,VIN_5V*
X72815000Y73335000D03*
G04 #@! TO.P,U4,2,RX*
G04 #@! TO.N,GPS_RX*
X72815000Y75875000D03*
G04 #@! TO.P,U4,3,TX*
G04 #@! TO.N,GPS_TX*
X72815000Y78415000D03*
G04 #@! TO.P,U4,4,GND*
G04 #@! TO.N,GND*
X72815000Y80955000D03*
G04 #@! TD*
D11*
G04 #@! TO.P,R7,1*
G04 #@! TO.N,Vbat_ADC*
X53530000Y49290000D03*
G04 #@! TO.P,R7,2*
G04 #@! TO.N,GND*
X45910000Y49290000D03*
G04 #@! TD*
D12*
G04 #@! TO.P,D3,1,K*
G04 #@! TO.N,GND*
X37230000Y5220000D03*
D13*
G04 #@! TO.P,D3,2,A*
G04 #@! TO.N,Net-(D3-A)*
X34690000Y5220000D03*
G04 #@! TD*
G04 #@! TO.P,U1,1,VBAT*
G04 #@! TO.N,unconnected-(U1-VBAT-Pad1)*
X58050000Y9900000D03*
G04 #@! TO.P,U1,2,PC13*
G04 #@! TO.N,unconnected-(U1-PC13-Pad2)*
X58050000Y12440000D03*
G04 #@! TO.P,U1,3,PC14*
G04 #@! TO.N,LED_BLUE*
X58050000Y14980000D03*
G04 #@! TO.P,U1,4,PC15*
G04 #@! TO.N,LED_RED*
X58050000Y17520000D03*
D14*
G04 #@! TO.P,U1,5V,5V*
G04 #@! TO.N,VIN_5V*
X58050000Y58160000D03*
D13*
G04 #@! TO.P,U1,5V2,5V*
G04 #@! TO.N,unconnected-(U1-5V-Pad5V2)*
X74250000Y14980000D03*
G04 #@! TO.P,U1,7,R*
G04 #@! TO.N,unconnected-(U1-R-Pad7)*
X58050000Y20060000D03*
G04 #@! TO.P,U1,10,PA0*
G04 #@! TO.N,E220_M0*
X58050000Y22600000D03*
G04 #@! TO.P,U1,11,PA1*
G04 #@! TO.N,E220_M1*
X58050000Y25140000D03*
G04 #@! TO.P,U1,12,PA2*
G04 #@! TO.N,E220_RX*
X58050000Y27680000D03*
G04 #@! TO.P,U1,13,PA3*
G04 #@! TO.N,E220_TX*
X58050000Y30220000D03*
G04 #@! TO.P,U1,14,PA4*
G04 #@! TO.N,E220_AUX*
X58050000Y32760000D03*
G04 #@! TO.P,U1,15,PA5*
G04 #@! TO.N,unconnected-(U1-PA5-Pad15)*
X58050000Y35300000D03*
G04 #@! TO.P,U1,16,PA6*
G04 #@! TO.N,unconnected-(U1-PA6-Pad16)*
X58050000Y37840000D03*
G04 #@! TO.P,U1,17,PA7*
G04 #@! TO.N,unconnected-(U1-PA7-Pad17)*
X58050000Y40380000D03*
G04 #@! TO.P,U1,18,PB0*
G04 #@! TO.N,Temp_ADC*
X58050000Y42920000D03*
G04 #@! TO.P,U1,19,PB1*
G04 #@! TO.N,Vbat_ADC*
X58050000Y45460000D03*
G04 #@! TO.P,U1,20,PB2*
G04 #@! TO.N,unconnected-(U1-PB2-Pad20)*
X58050000Y48000000D03*
G04 #@! TO.P,U1,21,PB10*
G04 #@! TO.N,unconnected-(U1-PB10-Pad21)*
X58050000Y50540000D03*
G04 #@! TO.P,U1,23,GND*
G04 #@! TO.N,GND*
X58050000Y55620000D03*
G04 #@! TO.P,U1,24,3V3*
G04 #@! TO.N,unconnected-(U1-3V3-Pad24)*
X58050000Y53080000D03*
D12*
G04 #@! TO.P,U1,25,PB12*
G04 #@! TO.N,unconnected-(U1-PB12-Pad25)*
X74250000Y58160000D03*
D13*
G04 #@! TO.P,U1,26,PB13*
G04 #@! TO.N,unconnected-(U1-PB13-Pad26)*
X74250000Y55620000D03*
G04 #@! TO.P,U1,27,PB14*
G04 #@! TO.N,unconnected-(U1-PB14-Pad27)*
X74250000Y53080000D03*
G04 #@! TO.P,U1,28,PB15*
G04 #@! TO.N,unconnected-(U1-PB15-Pad28)*
X74250000Y50540000D03*
G04 #@! TO.P,U1,29,PA8*
G04 #@! TO.N,M1_PWM1*
X74250000Y48000000D03*
G04 #@! TO.P,U1,30,PA9*
G04 #@! TO.N,M1_PWM2*
X74250000Y45460000D03*
G04 #@! TO.P,U1,31,PA10*
G04 #@! TO.N,M2_PWM1*
X74250000Y42920000D03*
G04 #@! TO.P,U1,32,PA11*
G04 #@! TO.N,M2_PWM2*
X74250000Y40380000D03*
G04 #@! TO.P,U1,33,PA12*
G04 #@! TO.N,unconnected-(U1-PA12-Pad33)*
X74250000Y37840000D03*
G04 #@! TO.P,U1,38,PA15*
G04 #@! TO.N,unconnected-(U1-PA15-Pad38)*
X74250000Y35300000D03*
G04 #@! TO.P,U1,39,PB3*
G04 #@! TO.N,unconnected-(U1-PB3-Pad39)*
X74250000Y32760000D03*
G04 #@! TO.P,U1,40,PB4*
G04 #@! TO.N,M3_PWM1*
X74250000Y30220000D03*
G04 #@! TO.P,U1,41,PB5*
G04 #@! TO.N,M3_PWM2*
X74250000Y27680000D03*
G04 #@! TO.P,U1,42,PB6*
G04 #@! TO.N,BNO055_SCL*
X74250000Y25140000D03*
G04 #@! TO.P,U1,43,PB7*
G04 #@! TO.N,BNO055_SDA*
X74250000Y22600000D03*
G04 #@! TO.P,U1,45,PB8*
G04 #@! TO.N,unconnected-(U1-PB8-Pad45)*
X74250000Y20060000D03*
G04 #@! TO.P,U1,46,PB9*
G04 #@! TO.N,BNO055_INT*
X74250000Y17520000D03*
G04 #@! TO.P,U1,47,GND*
G04 #@! TO.N,GND*
X74250000Y12440000D03*
G04 #@! TO.P,U1,48,3V3*
G04 #@! TO.N,STM_3.3V*
X74250000Y9900000D03*
G04 #@! TD*
D11*
G04 #@! TO.P,R2,1*
G04 #@! TO.N,E220_TX*
X49430000Y17340000D03*
G04 #@! TO.P,R2,2*
G04 #@! TO.N,STM_3.3V*
X49430000Y9720000D03*
G04 #@! TD*
D15*
G04 #@! TO.P,U6,1,+V_{S}*
G04 #@! TO.N,VIN_5V*
X51660000Y44110000D03*
D16*
G04 #@! TO.P,U6,2,V_{OUT}*
G04 #@! TO.N,Temp_ADC*
X49120000Y44110000D03*
G04 #@! TO.P,U6,3,GND*
G04 #@! TO.N,GND*
X46580000Y44110000D03*
G04 #@! TD*
D17*
G04 #@! TO.P,J1,1,Pin_1*
G04 #@! TO.N,GND*
X79999998Y62000000D03*
D18*
G04 #@! TO.P,J1,2,Pin_2*
G04 #@! TO.N,VIN_5V*
X79999998Y64500000D03*
G04 #@! TO.P,J1,3,Pin_3*
G04 #@! TO.N,Vbat_8.4V*
X79999998Y67000000D03*
G04 #@! TD*
D11*
G04 #@! TO.P,R3,1*
G04 #@! TO.N,E220_AUX*
X45680000Y17340000D03*
G04 #@! TO.P,R3,2*
G04 #@! TO.N,Net-(D1-K)*
X45680000Y9720000D03*
G04 #@! TD*
D19*
G04 #@! TO.P,REF\u002A\u002A,*
G04 #@! TO.N,*
X4000000Y4000000D03*
G04 #@! TD*
D12*
G04 #@! TO.P,D2,1,K*
G04 #@! TO.N,GND*
X44445000Y5180000D03*
D13*
G04 #@! TO.P,D2,2,A*
G04 #@! TO.N,Net-(D2-A)*
X41905000Y5180000D03*
G04 #@! TD*
D11*
G04 #@! TO.P,R5,1*
G04 #@! TO.N,LED_BLUE*
X37120000Y17360000D03*
G04 #@! TO.P,R5,2*
G04 #@! TO.N,Net-(D3-A)*
X37120000Y9740000D03*
G04 #@! TD*
D20*
G04 #@! TO.P,C1,1*
G04 #@! TO.N,VIN_5V*
X51557500Y58990000D03*
D21*
G04 #@! TO.P,C1,2*
G04 #@! TO.N,GND*
X48557500Y58990000D03*
G04 #@! TD*
G04 #@! TO.P,U2,1,MO*
G04 #@! TO.N,E220_M0*
X52510000Y22500000D03*
G04 #@! TO.P,U2,2,M1*
G04 #@! TO.N,E220_M1*
X52510000Y25040000D03*
G04 #@! TO.P,U2,3,RXD*
G04 #@! TO.N,E220_RX*
X52510000Y27580000D03*
G04 #@! TO.P,U2,4,TXD*
G04 #@! TO.N,E220_TX*
X52510000Y30120000D03*
G04 #@! TO.P,U2,5,AUX*
G04 #@! TO.N,E220_AUX*
X52510000Y32660000D03*
G04 #@! TO.P,U2,6,VCC*
G04 #@! TO.N,VIN_5V*
X52510000Y35200000D03*
G04 #@! TO.P,U2,7,GND*
G04 #@! TO.N,GND*
X52510000Y37740000D03*
G04 #@! TD*
D19*
G04 #@! TO.P,REF\u002A\u002A,*
G04 #@! TO.N,*
X88000000Y4000000D03*
G04 #@! TD*
D12*
G04 #@! TO.P,D1,1,K*
G04 #@! TO.N,Net-(D1-K)*
X50355000Y5170000D03*
D13*
G04 #@! TO.P,D1,2,A*
G04 #@! TO.N,STM_3.3V*
X52895000Y5170000D03*
G04 #@! TD*
D21*
G04 #@! TO.P,C2,1*
G04 #@! TO.N,GND*
X76260000Y3290000D03*
G04 #@! TO.P,C2,2*
G04 #@! TO.N,VIN_5V*
X81260000Y3290000D03*
G04 #@! TD*
G04 #@! TO.P,C3,1*
G04 #@! TO.N,GND*
X37370000Y44270000D03*
G04 #@! TO.P,C3,2*
G04 #@! TO.N,Vbat_ADC*
X42370000Y44270000D03*
G04 #@! TD*
D19*
G04 #@! TO.P,REF\u002A\u002A,*
G04 #@! TO.N,*
X4000000Y88000000D03*
G04 #@! TD*
D21*
G04 #@! TO.P,U3,1,VIN*
G04 #@! TO.N,VIN_5V*
X79970000Y28820000D03*
G04 #@! TO.P,U3,2,GND*
G04 #@! TO.N,GND*
X79970000Y26280000D03*
G04 #@! TO.P,U3,3,SCL\u005CRX*
G04 #@! TO.N,BNO055_SCL*
X79970000Y23740000D03*
G04 #@! TO.P,U3,4,SDA\u005CTX*
G04 #@! TO.N,BNO055_SDA*
X79970000Y21200000D03*
G04 #@! TO.P,U3,5,ADO*
G04 #@! TO.N,unconnected-(U3-ADO-Pad5)*
X79970000Y18660000D03*
G04 #@! TO.P,U3,6,INT*
G04 #@! TO.N,BNO055_INT*
X79970000Y16120000D03*
G04 #@! TO.P,U3,7,BOOT*
G04 #@! TO.N,unconnected-(U3-BOOT-Pad7)*
X79970000Y13580000D03*
G04 #@! TO.P,U3,8,REST*
G04 #@! TO.N,unconnected-(U3-REST-Pad8)*
X79970000Y11040000D03*
G04 #@! TD*
D11*
G04 #@! TO.P,R6,1*
G04 #@! TO.N,Vbat_8.4V*
X45850000Y52880000D03*
G04 #@! TO.P,R6,2*
G04 #@! TO.N,Vbat_ADC*
X53470000Y52880000D03*
G04 #@! TD*
D19*
G04 #@! TO.P,REF\u002A\u002A,*
G04 #@! TO.N,*
X88000000Y88000000D03*
G04 #@! TD*
D17*
G04 #@! TO.P,J2,1,Pin_1*
G04 #@! TO.N,M3_PWM2*
X79999998Y36400000D03*
D18*
G04 #@! TO.P,J2,2,Pin_2*
G04 #@! TO.N,M3_PWM1*
X79999998Y38900000D03*
G04 #@! TO.P,J2,3,Pin_3*
G04 #@! TO.N,GND*
X79999998Y41400000D03*
G04 #@! TO.P,J2,4,Pin_4*
G04 #@! TO.N,M2_PWM2*
X79999998Y43900000D03*
G04 #@! TO.P,J2,5,Pin_5*
G04 #@! TO.N,M2_PWM1*
X79999998Y46400000D03*
G04 #@! TO.P,J2,6,Pin_6*
G04 #@! TO.N,unconnected-(J2-Pin_6-Pad6)*
X79999998Y48900000D03*
G04 #@! TO.P,J2,7,Pin_7*
G04 #@! TO.N,M1_PWM2*
X79999998Y51400000D03*
G04 #@! TO.P,J2,8,Pin_8*
G04 #@! TO.N,M1_PWM1*
X79999998Y53900000D03*
G04 #@! TD*
D11*
G04 #@! TO.P,R4,1*
G04 #@! TO.N,LED_RED*
X40930000Y17360000D03*
G04 #@! TO.P,R4,2*
G04 #@! TO.N,Net-(D2-A)*
X40930000Y9740000D03*
G04 #@! TD*
G04 #@! TO.P,R1,1*
G04 #@! TO.N,E220_RX*
X52900000Y17340000D03*
G04 #@! TO.P,R1,2*
G04 #@! TO.N,STM_3.3V*
X52900000Y9720000D03*
G04 #@! TD*
D22*
G04 #@! TO.N,VIN_5V*
X79950000Y73270000D02*
X82840000Y70380000D01*
X82840000Y66240002D02*
X81099998Y64500000D01*
X55240000Y36720000D02*
X53720000Y35200000D01*
X86260000Y34860002D02*
X86260000Y59739998D01*
X32760000Y56680000D02*
X49350000Y73270000D01*
X81260000Y4610000D02*
X87770000Y11120000D01*
X55240000Y40530000D02*
X55240000Y36720000D01*
X87770000Y11120000D02*
X87770000Y24410000D01*
X81099998Y64500000D02*
X64420000Y64500000D01*
X49350000Y73270000D02*
X79950000Y73270000D01*
X32760000Y42250000D02*
X32760000Y56680000D01*
X51660000Y44110000D02*
X55240000Y40530000D01*
X82840000Y70380000D02*
X82840000Y66240002D01*
X55170000Y58160000D02*
X54340000Y58990000D01*
X80199998Y28800000D02*
X86260000Y34860002D01*
X54340000Y58990000D02*
X51557500Y58990000D01*
X64420000Y64500000D02*
X58080000Y58160000D01*
X58080000Y58160000D02*
X58050000Y58160000D01*
X52510000Y35200000D02*
X39810000Y35200000D01*
X80199998Y28820000D02*
X80199998Y28800000D01*
X58080000Y58190000D02*
X58050000Y58160000D01*
X83360000Y28820000D02*
X80199998Y28820000D01*
X81499998Y64500000D02*
X80690000Y64500000D01*
X58050000Y58160000D02*
X55170000Y58160000D01*
X86260000Y59739998D02*
X81499998Y64500000D01*
X81260000Y3290000D02*
X81260000Y4610000D01*
X39810000Y35200000D02*
X32760000Y42250000D01*
X53720000Y35200000D02*
X52510000Y35200000D01*
X87770000Y24410000D02*
X83360000Y28820000D01*
G04 #@! TO.N,Vbat_8.4V*
X79999998Y67000000D02*
X49120000Y67000000D01*
X43040000Y60920000D02*
X43040000Y55690000D01*
X43040000Y55690000D02*
X45850000Y52880000D01*
X49120000Y67000000D02*
X43040000Y60920000D01*
G04 #@! TO.N,Vbat_ADC*
X53590000Y49240000D02*
X53590000Y49230000D01*
X53470000Y52880000D02*
X53530000Y52820000D01*
D23*
X42220000Y44120000D02*
X42220000Y44100000D01*
D22*
X53590000Y49230000D02*
X57360000Y45460000D01*
D23*
X46840000Y46780000D02*
X44880000Y46780000D01*
X58050000Y45460000D02*
X57555000Y45460000D01*
X49350000Y49290000D02*
X46840000Y46780000D01*
X44880000Y46780000D02*
X42220000Y44120000D01*
D22*
X57360000Y45460000D02*
X58050000Y45460000D01*
X53530000Y52820000D02*
X53530000Y49290000D01*
D23*
X53245000Y49290000D02*
X49350000Y49290000D01*
G04 #@! TO.N,M1_PWM1*
X74740000Y48000000D02*
X76350000Y49610000D01*
D24*
X74250000Y48099939D02*
X74250000Y48100000D01*
D23*
X76350000Y49610000D02*
X76350000Y51700000D01*
D24*
X74267500Y48082439D02*
X74250000Y48099939D01*
X80620000Y53740000D02*
X80680000Y53740000D01*
D23*
X78550000Y53900000D02*
X79999998Y53900000D01*
X76350000Y51700000D02*
X78550000Y53900000D01*
X74250000Y48000000D02*
X74740000Y48000000D01*
G04 #@! TO.N,M2_PWM1*
X79999998Y46400000D02*
X78840000Y46400000D01*
D24*
X74250000Y43020000D02*
X74250000Y43019939D01*
D23*
X78840000Y46400000D02*
X75360000Y42920000D01*
X75360000Y42920000D02*
X74250000Y42920000D01*
D24*
X74317561Y42980000D02*
X74340000Y43002439D01*
D22*
G04 #@! TO.N,BNO055_INT*
X76410061Y17619939D02*
X74250000Y17619939D01*
X79970000Y16120000D02*
X77910000Y16120000D01*
X77910000Y16120000D02*
X76410061Y17619939D01*
X80270000Y16080000D02*
X80240000Y16050000D01*
D23*
G04 #@! TO.N,STM_3.3V*
X52895000Y5180000D02*
X52905000Y5170000D01*
D22*
X70240000Y5890000D02*
X56829998Y5890000D01*
X74250000Y9900000D02*
X70240000Y5890000D01*
D23*
X49290000Y9970000D02*
X49250000Y10010000D01*
D22*
X49450000Y9700000D02*
X49430000Y9720000D01*
D24*
X53180000Y9490000D02*
X53060000Y9610000D01*
D23*
X52895000Y9715000D02*
X52895000Y5180000D01*
D22*
X56829998Y5890000D02*
X53019998Y9700000D01*
X53019998Y9700000D02*
X49450000Y9700000D01*
D23*
X52900000Y9720000D02*
X52920000Y9700000D01*
X52900000Y9720000D02*
X52895000Y9715000D01*
G04 #@! TO.N,M3_PWM2*
X79999998Y36400000D02*
X80019998Y36380000D01*
X75190000Y27680000D02*
X74250000Y27680000D01*
X80019998Y36380000D02*
X80019998Y32509998D01*
D24*
X74267500Y27762439D02*
X74250000Y27779939D01*
D23*
X80019998Y32509998D02*
X75190000Y27680000D01*
D24*
X74340000Y27762439D02*
X74267500Y27762439D01*
D23*
G04 #@! TO.N,M2_PWM2*
X74250000Y40380000D02*
X75649998Y40380000D01*
X75649998Y40380000D02*
X79169998Y43900000D01*
X79169998Y43900000D02*
X79999998Y43900000D01*
G04 #@! TO.N,unconnected-(U1-PB3-Pad39)*
X74340000Y32949939D02*
X74250000Y32859939D01*
G04 #@! TO.N,M3_PWM1*
X78670000Y38900000D02*
X77170000Y37400000D01*
X77170000Y37400000D02*
X77170000Y32420002D01*
X79999998Y38900000D02*
X78670000Y38900000D01*
X77170000Y32420002D02*
X74969998Y30220000D01*
X74969998Y30220000D02*
X74250000Y30220000D01*
G04 #@! TO.N,M1_PWM2*
X77920000Y48000000D02*
X77920000Y49870000D01*
X77920000Y49870000D02*
X79450000Y51400000D01*
X79999998Y51400000D02*
X79827999Y51400000D01*
D22*
X79999998Y51400000D02*
X79969998Y51430000D01*
D23*
X75380000Y45460000D02*
X77920000Y48000000D01*
X74250000Y45460000D02*
X75380000Y45460000D01*
X79450000Y51400000D02*
X79999998Y51400000D01*
G04 #@! TO.N,LED_RED*
X43160000Y15130000D02*
X54930000Y15130000D01*
X54930000Y15130000D02*
X57402500Y17602500D01*
X57967500Y17602500D02*
X58050000Y17520000D01*
X57402500Y17602500D02*
X57967500Y17602500D01*
X40930000Y17360000D02*
X43160000Y15130000D01*
G04 #@! TO.N,LED_BLUE*
X55559998Y12680000D02*
X57859998Y14980000D01*
X37120000Y17360000D02*
X37130000Y17350000D01*
X57859998Y14980000D02*
X58050000Y14980000D01*
X37130000Y17350000D02*
X37130000Y14870000D01*
X39320000Y12680000D02*
X55559998Y12680000D01*
X37130000Y14870000D02*
X39320000Y12680000D01*
G04 #@! TO.N,GPS_TX*
X72815000Y78415000D02*
X72810000Y78410000D01*
D22*
G04 #@! TO.N,BNO055_SCL*
X77780000Y23740000D02*
X76297561Y25222439D01*
X79970000Y23740000D02*
X77780000Y23740000D01*
X76297561Y25222439D02*
X74340000Y25222439D01*
G04 #@! TO.N,GND*
X80430000Y62000000D02*
X79999998Y62000000D01*
X79970000Y26280000D02*
X81680000Y26280000D01*
X40520000Y1970000D02*
X37270000Y5220000D01*
X58060000Y55610000D02*
X58050000Y55620000D01*
X49130000Y39620000D02*
X46490000Y42260000D01*
D23*
X37590000Y5220000D02*
X37230000Y5220000D01*
D22*
X46490000Y44020000D02*
X46580000Y44110000D01*
X50870000Y39620000D02*
X49130000Y39620000D01*
X58067500Y55702500D02*
X58140000Y55702500D01*
X48557500Y57762500D02*
X48557500Y58990000D01*
X37420000Y44270000D02*
X42440000Y49290000D01*
X80059998Y41460000D02*
X82210000Y41460000D01*
X43890000Y37750000D02*
X37370000Y44270000D01*
X84290000Y11230000D02*
X76350000Y3290000D01*
X43100000Y1970000D02*
X40520000Y1970000D01*
X49740000Y80990000D02*
X29070000Y60320000D01*
X44590000Y5180000D02*
X44445000Y5180000D01*
X52510000Y37980000D02*
X50870000Y39620000D01*
X35270000Y1760000D02*
X37230000Y3720000D01*
X76670000Y11400000D02*
X75630000Y12440000D01*
X52510000Y37740000D02*
X52510000Y37980000D01*
X79999998Y41400000D02*
X80059998Y41460000D01*
X37270000Y5220000D02*
X37230000Y5220000D01*
X74840000Y1870000D02*
X47900000Y1870000D01*
X65170000Y55610000D02*
X58060000Y55610000D01*
X43900000Y37740000D02*
X43890000Y37750000D01*
X79999998Y62000000D02*
X79939998Y61940000D01*
X80040000Y26210000D02*
X79970000Y26280000D01*
X83700000Y58730000D02*
X80430000Y62000000D01*
X46490000Y42260000D02*
X46490000Y44020000D01*
X83700000Y42950000D02*
X83700000Y58730000D01*
X42440000Y49290000D02*
X45910000Y49290000D01*
X76260000Y3290000D02*
X74840000Y1870000D01*
X84290000Y23670000D02*
X84290000Y11230000D01*
X29070000Y60320000D02*
X29070000Y3410000D01*
X76350000Y3290000D02*
X76260000Y3290000D01*
X48560000Y51940000D02*
X45910000Y49290000D01*
X29070000Y3410000D02*
X30720000Y1760000D01*
X72815000Y80955000D02*
X72780000Y80990000D01*
X48560000Y58987500D02*
X48560000Y51940000D01*
D23*
X37100000Y44000000D02*
X37370000Y44270000D01*
D22*
X37230000Y3720000D02*
X37230000Y5220000D01*
X76260000Y3290000D02*
X76670000Y3700000D01*
X76670000Y3700000D02*
X76670000Y11400000D01*
X81680000Y26280000D02*
X84290000Y23670000D01*
X44445000Y5180000D02*
X44445000Y3315000D01*
X71500000Y61940000D02*
X65170000Y55610000D01*
X48557500Y58990000D02*
X48560000Y58987500D01*
X82210000Y41460000D02*
X83700000Y42950000D01*
X30720000Y1760000D02*
X35270000Y1760000D01*
X79939998Y61940000D02*
X71500000Y61940000D01*
X44445000Y3315000D02*
X43100000Y1970000D01*
X37370000Y44270000D02*
X37420000Y44270000D01*
X75630000Y12440000D02*
X74250000Y12440000D01*
X47900000Y1870000D02*
X44590000Y5180000D01*
X50700000Y55620000D02*
X48557500Y57762500D01*
X72780000Y80990000D02*
X49740000Y80990000D01*
X58050000Y55620000D02*
X50700000Y55620000D01*
X52510000Y37740000D02*
X43900000Y37740000D01*
G04 #@! TO.N,BNO055_SDA*
X77150000Y21200000D02*
X75667561Y22682439D01*
X79970000Y21200000D02*
X77150000Y21200000D01*
X75667561Y22682439D02*
X74340000Y22682439D01*
D23*
G04 #@! TO.N,E220_M0*
X58140000Y22682500D02*
X57957500Y22500000D01*
D22*
X57957500Y22500000D02*
X52510000Y22500000D01*
G04 #@! TO.N,E220_AUX*
X58050000Y32760000D02*
X57950000Y32660000D01*
X42090000Y21040000D02*
X45680000Y17450000D01*
X57950000Y32660000D02*
X47900000Y32660000D01*
X47900000Y32660000D02*
X42090000Y26850000D01*
X45680000Y17450000D02*
X45680000Y17340000D01*
X42090000Y26850000D02*
X42090000Y21040000D01*
D23*
G04 #@! TO.N,E220_M1*
X58140000Y25222500D02*
X58072500Y25290000D01*
X52760000Y25290000D02*
X52510000Y25040000D01*
D22*
X58072500Y25290000D02*
X52760000Y25290000D01*
G04 #@! TO.N,E220_TX*
X45840000Y26870000D02*
X49090000Y30120000D01*
D23*
X49250000Y17630000D02*
X49250000Y17520000D01*
D22*
X49430000Y17440000D02*
X45840000Y21030000D01*
X52570000Y30180000D02*
X58017500Y30180000D01*
X45840000Y21030000D02*
X45840000Y26870000D01*
X49090000Y30120000D02*
X52510000Y30120000D01*
X49430000Y17340000D02*
X49430000Y17440000D01*
D23*
X49250000Y17520000D02*
X49430000Y17340000D01*
X58017500Y30180000D02*
X58140000Y30302500D01*
G04 #@! TO.N,E220_RX*
X52720000Y17420000D02*
X52720000Y17440000D01*
D22*
X52900000Y17450000D02*
X48890000Y21460000D01*
X48890000Y21460000D02*
X48890000Y25430000D01*
X52900000Y17340000D02*
X52900000Y17450000D01*
X52600000Y27670000D02*
X57970000Y27670000D01*
D23*
X52510000Y27580000D02*
X52600000Y27670000D01*
D22*
X48890000Y25430000D02*
X51140000Y27680000D01*
X51140000Y27680000D02*
X52550000Y27680000D01*
D24*
G04 #@! TO.N,Net-(D1-K)*
X45890000Y9610000D02*
X45840000Y9610000D01*
D23*
X45680000Y9720000D02*
X45700000Y9720000D01*
X45700000Y9720000D02*
X49855000Y5565000D01*
X49855000Y5565000D02*
X49960000Y5565000D01*
X49960000Y5565000D02*
X50355000Y5170000D01*
G04 #@! TO.N,Net-(D2-A)*
X40940000Y6145000D02*
X41905000Y5180000D01*
X40930000Y9740000D02*
X40940000Y9730000D01*
X40940000Y9730000D02*
X40940000Y6145000D01*
G04 #@! TO.N,Net-(D3-A)*
X34690000Y5220000D02*
X35050000Y5220000D01*
X34690000Y7310000D02*
X34690000Y5220000D01*
X37120000Y9740000D02*
X34690000Y7310000D01*
D24*
X37090000Y9880000D02*
X37090000Y9820000D01*
X37090000Y9820000D02*
X37300000Y9610000D01*
D23*
G04 #@! TO.N,Temp_ADC*
X58050000Y42920000D02*
X56660000Y42920000D01*
X52810000Y46770000D02*
X49940000Y46770000D01*
X49120000Y45950000D02*
X49120000Y44110000D01*
X49940000Y46770000D02*
X49120000Y45950000D01*
X56660000Y42920000D02*
X52810000Y46770000D01*
G04 #@! TO.N,unconnected-(U3-ADO-Pad5)*
X80390000Y18610000D02*
X80380000Y18620000D01*
G04 #@! TD*
M02*
