G04 #@! TF.GenerationSoftware,KiCad,Pcbnew,9.0.5*
G04 #@! TF.CreationDate,2026-05-18T10:47:39-03:00*
G04 #@! TF.ProjectId,CubeSat_Main,43756265-5361-4745-9f4d-61696e2e6b69,rev?*
G04 #@! TF.SameCoordinates,Original*
G04 #@! TF.FileFunction,Copper,L2,Bot*
G04 #@! TF.FilePolarity,Positive*
%FSLAX46Y46*%
G04 Gerber Fmt 4.6, Leading zero omitted, Abs format (unit mm)*
G04 Created by KiCad (PCBNEW 9.0.5) date 2026-05-18 10:47:39*
%MOMM*%
%LPD*%
G01*
G04 APERTURE LIST*
G04 Aperture macros list*
%AMRoundRect*
0 Rectangle with rounded corners*
0 $1 Rounding radius*
0 $2 $3 $4 $5 $6 $7 $8 $9 X,Y pos of 4 corners*
0 Add a 4 corners polygon primitive as box body*
4,1,4,$2,$3,$4,$5,$6,$7,$8,$9,$2,$3,0*
0 Add four circle primitives for the rounded corners*
1,1,$1+$1,$2,$3*
1,1,$1+$1,$4,$5*
1,1,$1+$1,$6,$7*
1,1,$1+$1,$8,$9*
0 Add four rect primitives between the rounded corners*
20,1,$1+$1,$2,$3,$4,$5,0*
20,1,$1+$1,$4,$5,$6,$7,0*
20,1,$1+$1,$6,$7,$8,$9,0*
20,1,$1+$1,$8,$9,$2,$3,0*%
G04 Aperture macros list end*
G04 #@! TA.AperFunction,ComponentPad*
%ADD10C,1.600000*%
G04 #@! TD*
G04 #@! TA.AperFunction,ComponentPad*
%ADD11C,2.000000*%
G04 #@! TD*
G04 #@! TA.AperFunction,ComponentPad*
%ADD12C,1.800000*%
G04 #@! TD*
G04 #@! TA.AperFunction,ComponentPad*
%ADD13R,1.800000X1.800000*%
G04 #@! TD*
G04 #@! TA.AperFunction,ComponentPad*
%ADD14O,1.950000X1.700000*%
G04 #@! TD*
G04 #@! TA.AperFunction,ComponentPad*
%ADD15RoundRect,0.250000X0.725000X-0.600000X0.725000X0.600000X-0.725000X0.600000X-0.725000X-0.600000X0*%
G04 #@! TD*
G04 #@! TA.AperFunction,ComponentPad*
%ADD16R,1.560000X1.560000*%
G04 #@! TD*
G04 #@! TA.AperFunction,ComponentPad*
%ADD17C,1.560000*%
G04 #@! TD*
G04 #@! TA.AperFunction,ComponentPad*
%ADD18C,1.700000*%
G04 #@! TD*
G04 #@! TA.AperFunction,ComponentPad*
%ADD19R,1.700000X1.700000*%
G04 #@! TD*
G04 #@! TA.AperFunction,ComponentPad*
%ADD20O,1.905000X2.000000*%
G04 #@! TD*
G04 #@! TA.AperFunction,ComponentPad*
%ADD21R,1.905000X2.000000*%
G04 #@! TD*
G04 #@! TA.AperFunction,ComponentPad*
%ADD22R,2.000000X2.000000*%
G04 #@! TD*
G04 #@! TA.AperFunction,Conductor*
%ADD23C,1.000000*%
G04 #@! TD*
G04 #@! TA.AperFunction,Conductor*
%ADD24C,1.500000*%
G04 #@! TD*
G04 #@! TA.AperFunction,Conductor*
%ADD25C,0.200000*%
G04 #@! TD*
G04 APERTURE END LIST*
D10*
G04 #@! TO.P,R7,2*
G04 #@! TO.N,GND*
X45970000Y-42365000D03*
G04 #@! TO.P,R7,1*
G04 #@! TO.N,Vbat_ADC*
X53590000Y-42365000D03*
G04 #@! TD*
D11*
G04 #@! TO.P,C3,2*
G04 #@! TO.N,Vbat_ADC*
X42370000Y-47730000D03*
G04 #@! TO.P,C3,1*
G04 #@! TO.N,GND*
X37370000Y-47730000D03*
G04 #@! TD*
D12*
G04 #@! TO.P,D1,2,A*
G04 #@! TO.N,STM_3.3V*
X52895000Y-86830000D03*
D13*
G04 #@! TO.P,D1,1,K*
G04 #@! TO.N,Net-(D1-K)*
X50355000Y-86830000D03*
G04 #@! TD*
D10*
G04 #@! TO.P,R6,2*
G04 #@! TO.N,Vbat_ADC*
X53530000Y-38775000D03*
G04 #@! TO.P,R6,1*
G04 #@! TO.N,Vbat_8.4V*
X45910000Y-38775000D03*
G04 #@! TD*
G04 #@! TO.P,R4,2*
G04 #@! TO.N,Net-(D2-A)*
X40930000Y-82260000D03*
G04 #@! TO.P,R4,1*
G04 #@! TO.N,LED_RED*
X40930000Y-74640000D03*
G04 #@! TD*
G04 #@! TO.P,R1,2*
G04 #@! TO.N,STM_3.3V*
X52900000Y-82280000D03*
G04 #@! TO.P,R1,1*
G04 #@! TO.N,E220_RX*
X52900000Y-74660000D03*
G04 #@! TD*
D14*
G04 #@! TO.P,J2,8,Pin_8*
G04 #@! TO.N,M1_PWM1*
X79999998Y-38100000D03*
G04 #@! TO.P,J2,7,Pin_7*
G04 #@! TO.N,M1_PWM2*
X79999998Y-40600000D03*
G04 #@! TO.P,J2,6,Pin_6*
G04 #@! TO.N,unconnected-(J2-Pin_6-Pad6)*
X79999998Y-43100000D03*
G04 #@! TO.P,J2,5,Pin_5*
G04 #@! TO.N,M2_PWM1*
X79999998Y-45600000D03*
G04 #@! TO.P,J2,4,Pin_4*
G04 #@! TO.N,M2_PWM2*
X79999998Y-48100000D03*
G04 #@! TO.P,J2,3,Pin_3*
G04 #@! TO.N,GND*
X79999998Y-50600000D03*
G04 #@! TO.P,J2,2,Pin_2*
G04 #@! TO.N,M3_PWM1*
X79999998Y-53100000D03*
D15*
G04 #@! TO.P,J2,1,Pin_1*
G04 #@! TO.N,M3_PWM2*
X79999998Y-55600000D03*
G04 #@! TD*
D12*
G04 #@! TO.P,U1,48,3V3*
G04 #@! TO.N,STM_3.3V*
X74250000Y-82100000D03*
G04 #@! TO.P,U1,47,GND*
G04 #@! TO.N,GND*
X74250000Y-79560000D03*
G04 #@! TO.P,U1,46,PB9*
G04 #@! TO.N,BNO055_INT*
X74250000Y-74480000D03*
G04 #@! TO.P,U1,45,PB8*
G04 #@! TO.N,unconnected-(U1-PB8-Pad45)*
X74250000Y-71940000D03*
G04 #@! TO.P,U1,43,PB7*
G04 #@! TO.N,BNO055_SDA*
X74250000Y-69400000D03*
G04 #@! TO.P,U1,42,PB6*
G04 #@! TO.N,BNO055_SCL*
X74250000Y-66860000D03*
G04 #@! TO.P,U1,41,PB5*
G04 #@! TO.N,M3_PWM2*
X74250000Y-64320000D03*
G04 #@! TO.P,U1,40,PB4*
G04 #@! TO.N,M3_PWM1*
X74250000Y-61780000D03*
G04 #@! TO.P,U1,39,PB3*
G04 #@! TO.N,unconnected-(U1-PB3-Pad39)*
X74250000Y-59240000D03*
G04 #@! TO.P,U1,38,PA15*
G04 #@! TO.N,unconnected-(U1-PA15-Pad38)*
X74250000Y-56700000D03*
G04 #@! TO.P,U1,33,PA12*
G04 #@! TO.N,unconnected-(U1-PA12-Pad33)*
X74250000Y-54160000D03*
G04 #@! TO.P,U1,32,PA11*
G04 #@! TO.N,M2_PWM2*
X74250000Y-51620000D03*
G04 #@! TO.P,U1,31,PA10*
G04 #@! TO.N,M2_PWM1*
X74250000Y-49080000D03*
G04 #@! TO.P,U1,30,PA9*
G04 #@! TO.N,unconnected-(U1-PA9-Pad30)*
X74250000Y-46540000D03*
G04 #@! TO.P,U1,29,PA8*
G04 #@! TO.N,unconnected-(U1-PA8-Pad29)*
X74250000Y-44000000D03*
G04 #@! TO.P,U1,28,PB15*
G04 #@! TO.N,unconnected-(U1-PB15-Pad28)*
X74250000Y-41460000D03*
G04 #@! TO.P,U1,27,PB14*
G04 #@! TO.N,M1_PWM2*
X74250000Y-38920000D03*
G04 #@! TO.P,U1,26,PB13*
G04 #@! TO.N,M1_PWM1*
X74250000Y-36380000D03*
D13*
G04 #@! TO.P,U1,25,PB12*
G04 #@! TO.N,unconnected-(U1-PB12-Pad25)*
X74250000Y-33840000D03*
D12*
G04 #@! TO.P,U1,24,3V3*
G04 #@! TO.N,unconnected-(U1-3V3-Pad24)*
X58050000Y-38920000D03*
G04 #@! TO.P,U1,23,GND*
G04 #@! TO.N,GND*
X58050000Y-36380000D03*
G04 #@! TO.P,U1,21,PB10*
G04 #@! TO.N,unconnected-(U1-PB10-Pad21)*
X58050000Y-41460000D03*
G04 #@! TO.P,U1,20,PB2*
G04 #@! TO.N,unconnected-(U1-PB2-Pad20)*
X58050000Y-44000000D03*
G04 #@! TO.P,U1,19,PB1*
G04 #@! TO.N,Vbat_ADC*
X58050000Y-46540000D03*
G04 #@! TO.P,U1,18,PB0*
G04 #@! TO.N,Temp_ADC*
X58050000Y-49080000D03*
G04 #@! TO.P,U1,17,PA7*
G04 #@! TO.N,unconnected-(U1-PA7-Pad17)*
X58050000Y-51620000D03*
G04 #@! TO.P,U1,16,PA6*
G04 #@! TO.N,unconnected-(U1-PA6-Pad16)*
X58050000Y-54160000D03*
G04 #@! TO.P,U1,15,PA5*
G04 #@! TO.N,unconnected-(U1-PA5-Pad15)*
X58050000Y-56700000D03*
G04 #@! TO.P,U1,14,PA4*
G04 #@! TO.N,E220_AUX*
X58050000Y-59240000D03*
G04 #@! TO.P,U1,13,PA3*
G04 #@! TO.N,E220_TX*
X58050000Y-61780000D03*
G04 #@! TO.P,U1,12,PA2*
G04 #@! TO.N,E220_RX*
X58050000Y-64320000D03*
G04 #@! TO.P,U1,11,PA1*
G04 #@! TO.N,E220_M1*
X58050000Y-66860000D03*
G04 #@! TO.P,U1,10,PA0*
G04 #@! TO.N,E220_M0*
X58050000Y-69400000D03*
G04 #@! TO.P,U1,7,R*
G04 #@! TO.N,unconnected-(U1-R-Pad7)*
X58050000Y-71940000D03*
G04 #@! TO.P,U1,5V2,5V*
G04 #@! TO.N,unconnected-(U1-5V-Pad5V2)*
X74250000Y-77020000D03*
D16*
G04 #@! TO.P,U1,5V,5V*
G04 #@! TO.N,VIN_5V*
X58050000Y-33840000D03*
D12*
G04 #@! TO.P,U1,4,PC15*
G04 #@! TO.N,LED_RED*
X58050000Y-74480000D03*
G04 #@! TO.P,U1,3,PC14*
G04 #@! TO.N,LED_BLUE*
X58050000Y-77020000D03*
G04 #@! TO.P,U1,2,PC13*
G04 #@! TO.N,unconnected-(U1-PC13-Pad2)*
X58050000Y-79560000D03*
G04 #@! TO.P,U1,1,VBAT*
G04 #@! TO.N,unconnected-(U1-VBAT-Pad1)*
X58050000Y-82100000D03*
G04 #@! TD*
D17*
G04 #@! TO.P,U4,4,GND*
G04 #@! TO.N,GND*
X72815000Y-11045000D03*
G04 #@! TO.P,U4,3,TX*
G04 #@! TO.N,unconnected-(U4-TX-Pad3)*
X72815000Y-13585000D03*
G04 #@! TO.P,U4,2,RX*
G04 #@! TO.N,unconnected-(U4-RX-Pad2)*
X72815000Y-16125000D03*
G04 #@! TO.P,U4,1,VCC*
G04 #@! TO.N,VIN_5V*
X72815000Y-18665000D03*
G04 #@! TD*
D12*
G04 #@! TO.P,D3,2,A*
G04 #@! TO.N,Net-(D3-A)*
X34690000Y-86780000D03*
D13*
G04 #@! TO.P,D3,1,K*
G04 #@! TO.N,GND*
X37230000Y-86780000D03*
G04 #@! TD*
D10*
G04 #@! TO.P,R2,2*
G04 #@! TO.N,STM_3.3V*
X49430000Y-82280000D03*
G04 #@! TO.P,R2,1*
G04 #@! TO.N,E220_TX*
X49430000Y-74660000D03*
G04 #@! TD*
D18*
G04 #@! TO.P,J3,3,Pin_3*
G04 #@! TO.N,5V_LDO*
X31510000Y-47370000D03*
G04 #@! TO.P,J3,2,Pin_2*
G04 #@! TO.N,5V_E220*
X31510000Y-44830000D03*
D19*
G04 #@! TO.P,J3,1,Pin_1*
G04 #@! TO.N,VIN_5V*
X31510000Y-42290000D03*
G04 #@! TD*
D18*
G04 #@! TO.P,U6,3,GND*
G04 #@! TO.N,GND*
X46580000Y-47890000D03*
G04 #@! TO.P,U6,2,V_{OUT}*
G04 #@! TO.N,Temp_ADC*
X49120000Y-47890000D03*
D19*
G04 #@! TO.P,U6,1,+V_{S}*
G04 #@! TO.N,5V_E220*
X51660000Y-47890000D03*
G04 #@! TD*
D10*
G04 #@! TO.P,R3,2*
G04 #@! TO.N,Net-(D1-K)*
X45680000Y-82280000D03*
G04 #@! TO.P,R3,1*
G04 #@! TO.N,E220_AUX*
X45680000Y-74660000D03*
G04 #@! TD*
G04 #@! TO.P,C5,2*
G04 #@! TO.N,GND*
X42480000Y-42360000D03*
G04 #@! TO.P,C5,1*
G04 #@! TO.N,5V_LDO*
X37480000Y-42360000D03*
G04 #@! TD*
D12*
G04 #@! TO.P,D2,2,A*
G04 #@! TO.N,Net-(D2-A)*
X41905000Y-86820000D03*
D13*
G04 #@! TO.P,D2,1,K*
G04 #@! TO.N,GND*
X44445000Y-86820000D03*
G04 #@! TD*
D14*
G04 #@! TO.P,J1,3,Pin_3*
G04 #@! TO.N,Vbat_8.4V*
X79999998Y-25000000D03*
G04 #@! TO.P,J1,2,Pin_2*
G04 #@! TO.N,VIN_5V*
X79999998Y-27500000D03*
D15*
G04 #@! TO.P,J1,1,Pin_1*
G04 #@! TO.N,GND*
X79999998Y-30000000D03*
G04 #@! TD*
D10*
G04 #@! TO.P,R5,2*
G04 #@! TO.N,Net-(D3-A)*
X37120000Y-82260000D03*
G04 #@! TO.P,R5,1*
G04 #@! TO.N,LED_BLUE*
X37120000Y-74640000D03*
G04 #@! TD*
D20*
G04 #@! TO.P,U5,3,VO*
G04 #@! TO.N,5V_LDO*
X36420000Y-38630000D03*
G04 #@! TO.P,U5,2,GND*
G04 #@! TO.N,GND*
X38960000Y-38630000D03*
D21*
G04 #@! TO.P,U5,1,VI*
G04 #@! TO.N,Vbat_8.4V*
X41500000Y-38630000D03*
G04 #@! TD*
D11*
G04 #@! TO.P,C4,2*
G04 #@! TO.N,GND*
X42860000Y-32080000D03*
G04 #@! TO.P,C4,1*
G04 #@! TO.N,Vbat_8.4V*
X35360000Y-32080000D03*
G04 #@! TD*
G04 #@! TO.P,C1,2*
G04 #@! TO.N,GND*
X48557500Y-33010000D03*
D22*
G04 #@! TO.P,C1,1*
G04 #@! TO.N,VIN_5V*
X51557500Y-33010000D03*
G04 #@! TD*
D11*
G04 #@! TO.P,U2,7,GND*
G04 #@! TO.N,GND*
X52510000Y-54260000D03*
G04 #@! TO.P,U2,6,VCC*
G04 #@! TO.N,5V_E220*
X52510000Y-56800000D03*
G04 #@! TO.P,U2,5,AUX*
G04 #@! TO.N,E220_AUX*
X52510000Y-59340000D03*
G04 #@! TO.P,U2,4,TXD*
G04 #@! TO.N,E220_TX*
X52510000Y-61880000D03*
G04 #@! TO.P,U2,3,RXD*
G04 #@! TO.N,E220_RX*
X52510000Y-64420000D03*
G04 #@! TO.P,U2,2,M1*
G04 #@! TO.N,E220_M1*
X52510000Y-66960000D03*
G04 #@! TO.P,U2,1,MO*
G04 #@! TO.N,E220_M0*
X52510000Y-69500000D03*
G04 #@! TD*
G04 #@! TO.P,C2,2*
G04 #@! TO.N,VIN_5V*
X82170000Y-88410000D03*
G04 #@! TO.P,C2,1*
G04 #@! TO.N,GND*
X77170000Y-88410000D03*
G04 #@! TD*
G04 #@! TO.P,U3,8,REST*
G04 #@! TO.N,unconnected-(U3-REST-Pad8)*
X80199998Y-81030000D03*
G04 #@! TO.P,U3,7,BOOT*
G04 #@! TO.N,unconnected-(U3-BOOT-Pad7)*
X80199998Y-78490000D03*
G04 #@! TO.P,U3,6,INT*
G04 #@! TO.N,BNO055_INT*
X80199998Y-75950000D03*
G04 #@! TO.P,U3,5,ADO*
G04 #@! TO.N,unconnected-(U3-ADO-Pad5)*
X80199998Y-73410000D03*
G04 #@! TO.P,U3,4,SDA\u005CTX*
G04 #@! TO.N,BNO055_SDA*
X80199998Y-70870000D03*
G04 #@! TO.P,U3,3,SCL\u005CRX*
G04 #@! TO.N,BNO055_SCL*
X80199998Y-68330000D03*
G04 #@! TO.P,U3,2,GND*
G04 #@! TO.N,GND*
X80199998Y-65790000D03*
G04 #@! TO.P,U3,1,VIN*
G04 #@! TO.N,VIN_5V*
X80199998Y-63250000D03*
G04 #@! TD*
D23*
G04 #@! TO.N,Net-(D1-K)*
X45700000Y-82280000D02*
X49855000Y-86435000D01*
D24*
G04 #@! TO.N,GND*
X27420000Y-90240000D02*
X22670000Y-85490000D01*
G04 #@! TO.N,BNO055_INT*
X76410061Y-74380061D02*
X74250000Y-74380061D01*
G04 #@! TO.N,Vbat_ADC*
X53590000Y-42760000D02*
X57370000Y-46540000D01*
G04 #@! TO.N,E220_RX*
X51140000Y-64320000D02*
X52550000Y-64320000D01*
G04 #@! TO.N,VIN_5V*
X64420000Y-27500000D02*
X81099998Y-27500000D01*
X31510000Y-29240000D02*
X31510000Y-42290000D01*
X83430000Y-63250000D02*
X80199998Y-63250000D01*
G04 #@! TO.N,E220_AUX*
X47900000Y-59340000D02*
X42090000Y-65150000D01*
G04 #@! TO.N,GND*
X37420000Y-47730000D02*
X42785000Y-42365000D01*
D25*
G04 #@! TO.N,Net-(D1-K)*
X45890000Y-82390000D02*
X45840000Y-82390000D01*
D24*
G04 #@! TO.N,Vbat_8.4V*
X41630000Y-38760000D02*
X45895000Y-38760000D01*
D23*
G04 #@! TO.N,LED_RED*
X40930000Y-74640000D02*
X43160000Y-76870000D01*
D24*
G04 #@! TO.N,VIN_5V*
X86260000Y-57139998D02*
X86260000Y-32260002D01*
D23*
G04 #@! TO.N,STM_3.3V*
X52895000Y-82285000D02*
X52895000Y-86820000D01*
D24*
G04 #@! TO.N,VIN_5V*
X58050000Y-33840000D02*
X58080000Y-33840000D01*
D25*
G04 #@! TO.N,Net-(D3-A)*
X37090000Y-82180000D02*
X37300000Y-82390000D01*
D24*
G04 #@! TO.N,VIN_5V*
X82170000Y-88410000D02*
X87770000Y-82810000D01*
G04 #@! TO.N,GND*
X37230000Y-86780000D02*
X37230000Y-88280000D01*
G04 #@! TO.N,Vbat_8.4V*
X41500000Y-38630000D02*
X41630000Y-38760000D01*
D23*
G04 #@! TO.N,Vbat_ADC*
X58050000Y-46540000D02*
X57555000Y-46540000D01*
D24*
G04 #@! TO.N,VIN_5V*
X84860000Y-23739998D02*
X84860000Y-20980000D01*
X87770000Y-67590000D02*
X83430000Y-63250000D01*
D23*
G04 #@! TO.N,E220_RX*
X52510000Y-64420000D02*
X52600000Y-64330000D01*
D24*
G04 #@! TO.N,VIN_5V*
X87770000Y-82810000D02*
X87770000Y-67590000D01*
G04 #@! TO.N,M2_PWM1*
X74859998Y-49080000D02*
X74250000Y-49080000D01*
G04 #@! TO.N,VIN_5V*
X81099998Y-27500000D02*
X84860000Y-23739998D01*
X54340000Y-33010000D02*
X51557500Y-33010000D01*
G04 #@! TO.N,E220_RX*
X52900000Y-74550000D02*
X48890000Y-70540000D01*
G04 #@! TO.N,VIN_5V*
X55170000Y-33840000D02*
X54340000Y-33010000D01*
X84860000Y-20980000D02*
X82610000Y-18730000D01*
D23*
G04 #@! TO.N,E220_TX*
X49250000Y-74370000D02*
X49250000Y-74480000D01*
D24*
G04 #@! TO.N,VIN_5V*
X86260000Y-32260002D02*
X81499998Y-27500000D01*
G04 #@! TO.N,GND*
X48450000Y-39885000D02*
X45970000Y-42365000D01*
D23*
G04 #@! TO.N,STM_3.3V*
X52900000Y-82280000D02*
X52895000Y-82285000D01*
D24*
G04 #@! TO.N,Vbat_ADC*
X57370000Y-46540000D02*
X58050000Y-46540000D01*
G04 #@! TO.N,STM_3.3V*
X53019998Y-82300000D02*
X49450000Y-82300000D01*
G04 #@! TO.N,GND*
X40520000Y-90030000D02*
X37270000Y-86780000D01*
G04 #@! TO.N,M2_PWM2*
X79229998Y-48040000D02*
X80607500Y-48040000D01*
G04 #@! TO.N,M3_PWM2*
X80019998Y-55620000D02*
X80019998Y-59740002D01*
D23*
G04 #@! TO.N,M3_PWM1*
X74267500Y-61697561D02*
X74340000Y-61697561D01*
G04 #@! TO.N,LED_RED*
X56882500Y-74397500D02*
X57967500Y-74397500D01*
D24*
G04 #@! TO.N,M3_PWM1*
X76639998Y-60110000D02*
X74969998Y-61780000D01*
D23*
G04 #@! TO.N,LED_BLUE*
X39320000Y-79320000D02*
X55559998Y-79320000D01*
G04 #@! TO.N,5V_LDO*
X36420000Y-41300000D02*
X36420000Y-38630000D01*
X31510000Y-47370000D02*
X32480000Y-47370000D01*
G04 #@! TO.N,GND*
X50870000Y-52380000D02*
X49130000Y-52380000D01*
D25*
G04 #@! TO.N,M3_PWM2*
X74340000Y-64237561D02*
X74267500Y-64237561D01*
G04 #@! TO.N,Net-(D3-A)*
X37090000Y-82120000D02*
X37090000Y-82180000D01*
D23*
G04 #@! TO.N,GND*
X49130000Y-52380000D02*
X46490000Y-49740000D01*
G04 #@! TO.N,5V_LDO*
X37480000Y-42360000D02*
X36420000Y-41300000D01*
G04 #@! TO.N,unconnected-(U1-PB3-Pad39)*
X74340000Y-59050061D02*
X74250000Y-59140061D01*
D24*
G04 #@! TO.N,M2_PWM2*
X74250000Y-51620000D02*
X75649998Y-51620000D01*
D23*
G04 #@! TO.N,Net-(D3-A)*
X37120000Y-82260000D02*
X34690000Y-84690000D01*
D24*
G04 #@! TO.N,M3_PWM1*
X79999998Y-53100000D02*
X78670000Y-53100000D01*
G04 #@! TO.N,E220_TX*
X49090000Y-61880000D02*
X52510000Y-61880000D01*
G04 #@! TO.N,BNO055_SCL*
X77860000Y-68340000D02*
X76297561Y-66777561D01*
G04 #@! TO.N,M3_PWM1*
X74969998Y-61780000D02*
X74250000Y-61780000D01*
G04 #@! TO.N,M1_PWM2*
X75810000Y-38920000D02*
X74250000Y-38920000D01*
D23*
G04 #@! TO.N,LED_BLUE*
X55559998Y-79320000D02*
X57859998Y-77020000D01*
G04 #@! TO.N,STM_3.3V*
X52900000Y-82280000D02*
X52920000Y-82300000D01*
D24*
G04 #@! TO.N,BNO055_SCL*
X76297561Y-66777561D02*
X74340000Y-66777561D01*
D23*
G04 #@! TO.N,5V_LDO*
X32480000Y-47370000D02*
X37480000Y-42370000D01*
D24*
G04 #@! TO.N,BNO055_SCL*
X80360000Y-68340000D02*
X77860000Y-68340000D01*
D23*
G04 #@! TO.N,Net-(D3-A)*
X34690000Y-84690000D02*
X34690000Y-86780000D01*
D24*
G04 #@! TO.N,E220_TX*
X52570000Y-61820000D02*
X58017500Y-61820000D01*
G04 #@! TO.N,M3_PWM1*
X76639998Y-55130002D02*
X76639998Y-60110000D01*
D23*
G04 #@! TO.N,GND*
X37590000Y-86780000D02*
X37230000Y-86780000D01*
D24*
G04 #@! TO.N,BNO055_SCL*
X80390000Y-68310000D02*
X80360000Y-68340000D01*
G04 #@! TO.N,GND*
X58060000Y-36390000D02*
X58050000Y-36380000D01*
G04 #@! TO.N,M1_PWM2*
X79969998Y-40570000D02*
X77460000Y-40570000D01*
G04 #@! TO.N,GND*
X43760000Y-10940000D02*
X72710000Y-10940000D01*
G04 #@! TO.N,M3_PWM2*
X75440000Y-64320000D02*
X74250000Y-64320000D01*
G04 #@! TO.N,M3_PWM1*
X78670000Y-53100000D02*
X76639998Y-55130002D01*
G04 #@! TO.N,GND*
X50700000Y-36380000D02*
X48557500Y-34237500D01*
G04 #@! TO.N,M1_PWM2*
X77460000Y-40570000D02*
X75810000Y-38920000D01*
G04 #@! TO.N,GND*
X22670000Y-85490000D02*
X22670000Y-32030000D01*
G04 #@! TO.N,M3_PWM2*
X80019998Y-59740002D02*
X75440000Y-64320000D01*
G04 #@! TO.N,GND*
X80430000Y-30000000D02*
X79999998Y-30000000D01*
D23*
G04 #@! TO.N,LED_RED*
X54410000Y-76870000D02*
X56882500Y-74397500D01*
D25*
G04 #@! TO.N,M3_PWM2*
X74267500Y-64237561D02*
X74250000Y-64220061D01*
D23*
G04 #@! TO.N,GND*
X52510000Y-54020000D02*
X50870000Y-52380000D01*
D24*
G04 #@! TO.N,M1_PWM2*
X79999998Y-40600000D02*
X79969998Y-40570000D01*
G04 #@! TO.N,GND*
X47627500Y-32080000D02*
X48557500Y-33010000D01*
D23*
G04 #@! TO.N,LED_RED*
X43160000Y-76870000D02*
X54410000Y-76870000D01*
D24*
G04 #@! TO.N,GND*
X79999998Y-50600000D02*
X80059998Y-50540000D01*
G04 #@! TO.N,M3_PWM2*
X79999998Y-55600000D02*
X80019998Y-55620000D01*
D25*
G04 #@! TO.N,M2_PWM1*
X74317561Y-49020000D02*
X74340000Y-48997561D01*
D23*
G04 #@! TO.N,LED_BLUE*
X37120000Y-74640000D02*
X37130000Y-74650000D01*
G04 #@! TO.N,GND*
X38960000Y-40300000D02*
X38960000Y-38630000D01*
G04 #@! TO.N,M3_PWM1*
X74250000Y-61680061D02*
X74267500Y-61697561D01*
D24*
G04 #@! TO.N,5V_E220*
X31510000Y-44830000D02*
X31480000Y-44800000D01*
G04 #@! TO.N,GND*
X80059998Y-50540000D02*
X82210000Y-50540000D01*
G04 #@! TO.N,M2_PWM2*
X75649998Y-51620000D02*
X79229998Y-48040000D01*
G04 #@! TO.N,GND*
X47900000Y-90130000D02*
X44590000Y-86820000D01*
D23*
G04 #@! TO.N,LED_BLUE*
X57859998Y-77020000D02*
X58050000Y-77020000D01*
G04 #@! TO.N,LED_RED*
X57967500Y-74397500D02*
X58050000Y-74480000D01*
D24*
G04 #@! TO.N,5V_E220*
X51660000Y-47890000D02*
X55240000Y-51470000D01*
G04 #@! TO.N,VIN_5V*
X58080000Y-33840000D02*
X64420000Y-27500000D01*
G04 #@! TO.N,GND*
X37270000Y-86780000D02*
X37230000Y-86780000D01*
D23*
G04 #@! TO.N,LED_BLUE*
X37130000Y-74650000D02*
X37130000Y-77130000D01*
D24*
G04 #@! TO.N,GND*
X77270000Y-81200000D02*
X75630000Y-79560000D01*
X65170000Y-36390000D02*
X58060000Y-36390000D01*
D23*
G04 #@! TO.N,LED_BLUE*
X37130000Y-77130000D02*
X39320000Y-79320000D01*
D24*
G04 #@! TO.N,GND*
X81750000Y-65790000D02*
X84290000Y-68330000D01*
D23*
G04 #@! TO.N,5V_LDO*
X37480000Y-42370000D02*
X37480000Y-42360000D01*
D24*
G04 #@! TO.N,GND*
X42860000Y-32080000D02*
X47627500Y-32080000D01*
X58067500Y-36297500D02*
X58140000Y-36297500D01*
X43100000Y-90030000D02*
X40520000Y-90030000D01*
G04 #@! TO.N,5V_E220*
X55240000Y-55280000D02*
X53720000Y-56800000D01*
G04 #@! TO.N,GND*
X80199998Y-65790000D02*
X81750000Y-65790000D01*
D23*
G04 #@! TO.N,Net-(D2-A)*
X40940000Y-85855000D02*
X41905000Y-86820000D01*
G04 #@! TO.N,GND*
X46490000Y-47980000D02*
X46580000Y-47890000D01*
D24*
X71500000Y-30060000D02*
X65170000Y-36390000D01*
D23*
X41020000Y-42360000D02*
X38960000Y-40300000D01*
D24*
X48450000Y-33117500D02*
X48450000Y-39885000D01*
G04 #@! TO.N,Vbat_8.4V*
X35360000Y-32010000D02*
X35360000Y-32080000D01*
D23*
G04 #@! TO.N,GND*
X42480000Y-42360000D02*
X41020000Y-42360000D01*
D24*
X72710000Y-10940000D02*
X72815000Y-11045000D01*
G04 #@! TO.N,Vbat_8.4V*
X45895000Y-38760000D02*
X45910000Y-38775000D01*
G04 #@! TO.N,GND*
X75610000Y-90130000D02*
X47900000Y-90130000D01*
D23*
X52510000Y-54260000D02*
X52510000Y-54020000D01*
G04 #@! TO.N,STM_3.3V*
X49290000Y-82030000D02*
X49250000Y-81990000D01*
D24*
G04 #@! TO.N,GND*
X44590000Y-86820000D02*
X44445000Y-86820000D01*
X79999998Y-30000000D02*
X79939998Y-30060000D01*
X43890000Y-54250000D02*
X37370000Y-47730000D01*
X37230000Y-88280000D02*
X35270000Y-90240000D01*
X84290000Y-81450000D02*
X75610000Y-90130000D01*
G04 #@! TO.N,STM_3.3V*
X74250000Y-82100000D02*
X70240000Y-86110000D01*
G04 #@! TO.N,GND*
X42785000Y-42365000D02*
X45970000Y-42365000D01*
X43900000Y-54260000D02*
X43890000Y-54250000D01*
X37370000Y-47730000D02*
X37420000Y-47730000D01*
X48557500Y-33010000D02*
X48450000Y-33117500D01*
X35270000Y-90240000D02*
X27420000Y-90240000D01*
G04 #@! TO.N,E220_RX*
X48890000Y-70540000D02*
X48890000Y-66570000D01*
G04 #@! TO.N,5V_E220*
X29790000Y-44800000D02*
X26830000Y-47760000D01*
D23*
G04 #@! TO.N,Net-(D1-K)*
X45680000Y-82280000D02*
X45700000Y-82280000D01*
D24*
G04 #@! TO.N,Vbat_8.4V*
X35360000Y-32080000D02*
X36810000Y-32080000D01*
D23*
G04 #@! TO.N,Vbat_ADC*
X46840000Y-45220000D02*
X44880000Y-45220000D01*
D24*
G04 #@! TO.N,M2_PWM1*
X79999998Y-45600000D02*
X78339998Y-45600000D01*
G04 #@! TO.N,Vbat_8.4V*
X36810000Y-32080000D02*
X41500000Y-36770000D01*
G04 #@! TO.N,M1_PWM1*
X79999998Y-38100000D02*
X78279998Y-36380000D01*
G04 #@! TO.N,Vbat_8.4V*
X79999998Y-25000000D02*
X42370000Y-25000000D01*
G04 #@! TO.N,VIN_5V*
X42020000Y-18730000D02*
X31510000Y-29240000D01*
D23*
G04 #@! TO.N,Net-(D2-A)*
X40940000Y-82270000D02*
X40940000Y-85855000D01*
D24*
G04 #@! TO.N,Vbat_8.4V*
X41500000Y-36770000D02*
X41500000Y-38630000D01*
D23*
G04 #@! TO.N,Vbat_ADC*
X49695000Y-42365000D02*
X46840000Y-45220000D01*
D24*
G04 #@! TO.N,VIN_5V*
X81499998Y-27500000D02*
X80690000Y-27500000D01*
D23*
G04 #@! TO.N,Vbat_ADC*
X44880000Y-45220000D02*
X42220000Y-47880000D01*
D24*
G04 #@! TO.N,M1_PWM1*
X78279998Y-36380000D02*
X74250000Y-36380000D01*
G04 #@! TO.N,M2_PWM1*
X78339998Y-45600000D02*
X74859998Y-49080000D01*
D25*
G04 #@! TO.N,STM_3.3V*
X53180000Y-82510000D02*
X53060000Y-82390000D01*
G04 #@! TO.N,M2_PWM1*
X74250000Y-48980000D02*
X74250000Y-48980061D01*
D24*
G04 #@! TO.N,Vbat_ADC*
X53590000Y-42365000D02*
X53590000Y-42760000D01*
G04 #@! TO.N,BNO055_INT*
X80390000Y-75930000D02*
X80370000Y-75950000D01*
D23*
G04 #@! TO.N,STM_3.3V*
X52895000Y-86820000D02*
X52905000Y-86830000D01*
D24*
G04 #@! TO.N,BNO055_INT*
X80370000Y-75950000D02*
X77980000Y-75950000D01*
G04 #@! TO.N,5V_E220*
X31480000Y-44800000D02*
X29790000Y-44800000D01*
G04 #@! TO.N,Vbat_ADC*
X53530000Y-39035000D02*
X53530000Y-42305000D01*
G04 #@! TO.N,STM_3.3V*
X56829998Y-86110000D02*
X53019998Y-82300000D01*
G04 #@! TO.N,Vbat_8.4V*
X42370000Y-25000000D02*
X35360000Y-32010000D01*
D23*
G04 #@! TO.N,Vbat_ADC*
X53590000Y-42365000D02*
X49695000Y-42365000D01*
X42220000Y-47880000D02*
X42220000Y-47900000D01*
D25*
G04 #@! TO.N,M1_PWM1*
X80620000Y-38260000D02*
X80680000Y-38260000D01*
D24*
G04 #@! TO.N,STM_3.3V*
X70240000Y-86110000D02*
X56829998Y-86110000D01*
G04 #@! TO.N,E220_TX*
X49430000Y-74660000D02*
X49430000Y-74560000D01*
G04 #@! TO.N,BNO055_INT*
X77980000Y-75950000D02*
X76410061Y-74380061D01*
D23*
G04 #@! TO.N,unconnected-(U3-ADO-Pad5)*
X80390000Y-73390000D02*
X80380000Y-73380000D01*
D24*
G04 #@! TO.N,STM_3.3V*
X49450000Y-82300000D02*
X49430000Y-82280000D01*
G04 #@! TO.N,GND*
X84290000Y-68330000D02*
X84290000Y-81450000D01*
G04 #@! TO.N,E220_AUX*
X42090000Y-65150000D02*
X42090000Y-70960000D01*
D25*
G04 #@! TO.N,unconnected-(U1-PA8-Pad29)*
X74250000Y-43900061D02*
X74250000Y-43900000D01*
X74267500Y-43917561D02*
X74250000Y-43900061D01*
D23*
G04 #@! TO.N,E220_M1*
X52760000Y-66710000D02*
X52510000Y-66960000D01*
D24*
G04 #@! TO.N,VIN_5V*
X58050000Y-33840000D02*
X55170000Y-33840000D01*
D23*
G04 #@! TO.N,GND*
X37100000Y-48000000D02*
X37370000Y-47730000D01*
D24*
X44445000Y-86820000D02*
X44445000Y-88685000D01*
X77270000Y-88310000D02*
X77270000Y-81200000D01*
X58050000Y-36380000D02*
X50700000Y-36380000D01*
G04 #@! TO.N,BNO055_SDA*
X75667561Y-69317561D02*
X74340000Y-69317561D01*
G04 #@! TO.N,E220_AUX*
X58050000Y-59240000D02*
X57950000Y-59340000D01*
G04 #@! TO.N,GND*
X79939998Y-30060000D02*
X71500000Y-30060000D01*
G04 #@! TO.N,E220_M0*
X57957500Y-69500000D02*
X52510000Y-69500000D01*
G04 #@! TO.N,E220_RX*
X48890000Y-66570000D02*
X51140000Y-64320000D01*
G04 #@! TO.N,E220_M1*
X58072500Y-66710000D02*
X52760000Y-66710000D01*
G04 #@! TO.N,E220_TX*
X45840000Y-65130000D02*
X49090000Y-61880000D01*
G04 #@! TO.N,GND*
X82210000Y-50540000D02*
X83700000Y-49050000D01*
D23*
G04 #@! TO.N,Net-(D2-A)*
X40930000Y-82260000D02*
X40940000Y-82270000D01*
D24*
G04 #@! TO.N,BNO055_SDA*
X80330000Y-70870000D02*
X77220000Y-70870000D01*
G04 #@! TO.N,GND*
X83700000Y-49050000D02*
X83700000Y-33270000D01*
G04 #@! TO.N,E220_TX*
X49430000Y-74560000D02*
X45840000Y-70970000D01*
G04 #@! TO.N,GND*
X52510000Y-54260000D02*
X43900000Y-54260000D01*
X77170000Y-88410000D02*
X77270000Y-88310000D01*
D23*
G04 #@! TO.N,E220_M0*
X58140000Y-69317500D02*
X57957500Y-69500000D01*
D24*
G04 #@! TO.N,GND*
X48557500Y-34237500D02*
X48557500Y-33010000D01*
G04 #@! TO.N,E220_TX*
X45840000Y-70970000D02*
X45840000Y-65130000D01*
G04 #@! TO.N,BNO055_SDA*
X77220000Y-70870000D02*
X75667561Y-69317561D01*
D23*
G04 #@! TO.N,unconnected-(U4-TX-Pad3)*
X72815000Y-13585000D02*
X72810000Y-13590000D01*
D24*
G04 #@! TO.N,E220_AUX*
X57950000Y-59340000D02*
X47900000Y-59340000D01*
X42090000Y-70960000D02*
X45680000Y-74550000D01*
G04 #@! TO.N,GND*
X75630000Y-79560000D02*
X74250000Y-79560000D01*
D23*
G04 #@! TO.N,E220_M1*
X58140000Y-66777500D02*
X58072500Y-66710000D01*
D24*
G04 #@! TO.N,GND*
X44445000Y-88685000D02*
X43100000Y-90030000D01*
X83700000Y-33270000D02*
X80430000Y-30000000D01*
X22670000Y-32030000D02*
X43760000Y-10940000D01*
G04 #@! TO.N,BNO055_SDA*
X80350000Y-70890000D02*
X80330000Y-70870000D01*
G04 #@! TO.N,E220_AUX*
X45680000Y-74550000D02*
X45680000Y-74660000D01*
D23*
G04 #@! TO.N,GND*
X46490000Y-49740000D02*
X46490000Y-47980000D01*
G04 #@! TO.N,Temp_ADC*
X56660000Y-49080000D02*
X52810000Y-45230000D01*
X49940000Y-45230000D02*
X49030000Y-46140000D01*
X49030000Y-46140000D02*
X49030000Y-47800000D01*
X52810000Y-45230000D02*
X49940000Y-45230000D01*
G04 #@! TO.N,E220_TX*
X58017500Y-61820000D02*
X58140000Y-61697500D01*
D24*
G04 #@! TO.N,E220_RX*
X52900000Y-74660000D02*
X52900000Y-74550000D01*
X52600000Y-64330000D02*
X57970000Y-64330000D01*
D23*
G04 #@! TO.N,Net-(D3-A)*
X34690000Y-86780000D02*
X35050000Y-86780000D01*
D24*
G04 #@! TO.N,5V_E220*
X31140000Y-56800000D02*
X52510000Y-56800000D01*
X55240000Y-51470000D02*
X55240000Y-55280000D01*
X26830000Y-47760000D02*
X26830000Y-52490000D01*
X26830000Y-52490000D02*
X31140000Y-56800000D01*
D23*
G04 #@! TO.N,Temp_ADC*
X58050000Y-49080000D02*
X56660000Y-49080000D01*
D24*
G04 #@! TO.N,5V_E220*
X53720000Y-56800000D02*
X52510000Y-56800000D01*
D23*
G04 #@! TO.N,Net-(D1-K)*
X49960000Y-86435000D02*
X50355000Y-86830000D01*
G04 #@! TO.N,Temp_ADC*
X49030000Y-47800000D02*
X49120000Y-47890000D01*
G04 #@! TO.N,E220_TX*
X49250000Y-74480000D02*
X49430000Y-74660000D01*
G04 #@! TO.N,E220_RX*
X52720000Y-74580000D02*
X52720000Y-74560000D01*
G04 #@! TO.N,Net-(D1-K)*
X49855000Y-86435000D02*
X49960000Y-86435000D01*
D24*
G04 #@! TO.N,VIN_5V*
X58080000Y-33810000D02*
X58050000Y-33840000D01*
X80199998Y-63200000D02*
X86260000Y-57139998D01*
X82610000Y-18730000D02*
X42020000Y-18730000D01*
X80199998Y-63250000D02*
X80199998Y-63200000D01*
G04 #@! TD*
M02*
