M48
; DRILL file {KiCad 9.0.5} date 2026-06-01T09:51:49-0300
; FORMAT={-:-/ absolute / metric / decimal}
; #@! TF.CreationDate,2026-06-01T09:51:49-03:00
; #@! TF.GenerationSoftware,Kicad,Pcbnew,9.0.5
; #@! TF.FileFunction,MixedPlating,1,2
FMAT,2
METRIC
; #@! TA.AperFunction,Plated,PTH,ComponentDrill
T1C0.800
; #@! TA.AperFunction,Plated,PTH,ComponentDrill
T2C0.850
; #@! TA.AperFunction,Plated,PTH,ComponentDrill
T3C0.900
; #@! TA.AperFunction,Plated,PTH,ComponentDrill
T4C0.950
; #@! TA.AperFunction,Plated,PTH,ComponentDrill
T5C1.000
; #@! TA.AperFunction,Plated,PTH,ComponentDrill
T6C1.040
; #@! TA.AperFunction,Plated,PTH,ComponentDrill
T7C3.500
%
G90
G05
T1
X27.03Y17.227
X27.03Y9.607
X31.1Y17.157
X31.1Y9.537
X35.39Y17.22
X35.39Y9.6
X42.52Y52.69
X42.58Y49.1
X46.58Y17.41
X46.58Y9.79
X50.14Y52.69
X50.2Y49.1
X50.39Y17.41
X50.39Y9.79
T2
X48.02Y59.538
X48.02Y56.538
T3
X35.89Y6.37
X35.89Y3.83
X43.89Y6.4
X43.89Y3.86
X49.64Y6.355
X49.64Y3.815
T4
X77.78Y67.38
X77.78Y64.88
X77.78Y62.38
X77.79Y53.56
X77.79Y51.06
X77.79Y48.56
X77.79Y46.06
X77.79Y43.56
X77.79Y41.06
X77.79Y38.56
X77.79Y36.06
T5
X35.34Y44.725
X37.88Y44.725
X40.39Y16.1
X40.39Y11.1
X40.42Y44.725
X44.39Y44.6
X49.39Y44.6
T6
X49.39Y37.6
X49.39Y35.06
X49.39Y32.52
X49.39Y29.98
X49.39Y27.44
X49.39Y24.9
X49.39Y22.36
X55.44Y58.01
X55.44Y55.47
X55.44Y52.93
X55.44Y50.39
X55.44Y47.85
X55.44Y45.31
X55.44Y42.77
X55.44Y40.23
X55.44Y37.69
X55.44Y35.15
X55.44Y30.07
X55.44Y27.53
X55.44Y24.99
X55.44Y22.45
X55.44Y19.91
X55.44Y17.37
X55.44Y14.83
X55.44Y12.29
X55.44Y9.75
X69.575Y79.575
X69.575Y77.035
X69.575Y74.495
X69.575Y71.955
X71.64Y58.01
X71.64Y55.47
X71.64Y52.93
X71.64Y50.39
X71.64Y47.85
X71.64Y45.31
X71.64Y42.77
X71.64Y40.23
X71.64Y37.69
X71.64Y35.15
X71.64Y32.61
X71.64Y30.07
X71.64Y27.53
X71.64Y24.99
X71.64Y22.45
X71.64Y19.91
X71.64Y17.37
X71.64Y14.83
X71.64Y12.29
X71.64Y9.75
X86.486Y29.16
X86.486Y26.62
X86.486Y24.08
X86.486Y21.54
X86.486Y19.0
X86.486Y16.46
X86.486Y13.92
X86.486Y11.38
T7
X4.0Y88.0
X4.0Y4.0
X20.89Y35.47
X78.486Y28.29
X78.486Y12.29
X88.0Y88.0
X88.0Y4.0
M30
