G04 #@! TF.GenerationSoftware,KiCad,Pcbnew,9.0.5*
G04 #@! TF.CreationDate,2026-06-01T00:07:20-03:00*
G04 #@! TF.ProjectId,CubeSat_Main,43756265-5361-4745-9f4d-61696e2e6b69,rev?*
G04 #@! TF.SameCoordinates,Original*
G04 #@! TF.FileFunction,Copper,L2,Bot*
G04 #@! TF.FilePolarity,Positive*
%FSLAX46Y46*%
G04 Gerber Fmt 4.6, Leading zero omitted, Abs format (unit mm)*
G04 Created by KiCad (PCBNEW 9.0.5) date 2026-06-01 00:07:20*
%MOMM*%
%LPD*%
G01*
G04 APERTURE LIST*
G04 Aperture macros list*
%AMRoundRect*
0 Rectangle with rounded corners*
0 $1 Rounding radius*
0 $2 $3 $4 $5 $6 $7 $8 $9 X,Y pos of 4 corners*
0 Add a 4 corners polygon primitive as box body*
4,1,4,$2,$3,$4,$5,$6,$7,$8,$9,$2,$3,0*
0 Add four circle primitives for the rounded corners*
1,1,$1+$1,$2,$3*
1,1,$1+$1,$4,$5*
1,1,$1+$1,$6,$7*
1,1,$1+$1,$8,$9*
0 Add four rect primitives between the rounded corners*
20,1,$1+$1,$2,$3,$4,$5,0*
20,1,$1+$1,$4,$5,$6,$7,0*
20,1,$1+$1,$6,$7,$8,$9,0*
20,1,$1+$1,$8,$9,$2,$3,0*%
G04 Aperture macros list end*
G04 #@! TA.AperFunction,Conductor*
%ADD10C,0.200000*%
G04 #@! TD*
G04 #@! TA.AperFunction,ComponentPad*
%ADD11O,3.000000X1.800000*%
G04 #@! TD*
G04 #@! TA.AperFunction,ComponentPad*
%ADD12C,2.600000*%
G04 #@! TD*
G04 #@! TA.AperFunction,ComponentPad*
%ADD13R,3.000000X1.800000*%
G04 #@! TD*
G04 #@! TA.AperFunction,ComponentPad*
%ADD14O,3.500000X1.800000*%
G04 #@! TD*
G04 #@! TA.AperFunction,ComponentPad*
%ADD15R,3.500000X1.800000*%
G04 #@! TD*
G04 #@! TA.AperFunction,ComponentPad*
%ADD16O,3.200000X1.800000*%
G04 #@! TD*
G04 #@! TA.AperFunction,ComponentPad*
%ADD17O,2.000000X1.800000*%
G04 #@! TD*
G04 #@! TA.AperFunction,ComponentPad*
%ADD18O,2.000000X3.000000*%
G04 #@! TD*
G04 #@! TA.AperFunction,ComponentPad*
%ADD19R,1.700000X3.000000*%
G04 #@! TD*
G04 #@! TA.AperFunction,ComponentPad*
%ADD20O,1.700000X3.000000*%
G04 #@! TD*
G04 #@! TA.AperFunction,ComponentPad*
%ADD21RoundRect,0.250000X1.250000X-0.600000X1.250000X0.600000X-1.250000X0.600000X-1.250000X-0.600000X0*%
G04 #@! TD*
G04 #@! TA.AperFunction,ComponentPad*
%ADD22O,3.000000X1.700000*%
G04 #@! TD*
G04 #@! TA.AperFunction,ComponentPad*
%ADD23C,6.000000*%
G04 #@! TD*
G04 #@! TA.AperFunction,ComponentPad*
%ADD24R,3.000000X2.000000*%
G04 #@! TD*
G04 #@! TA.AperFunction,ComponentPad*
%ADD25O,3.000000X2.000000*%
G04 #@! TD*
G04 #@! TA.AperFunction,ComponentPad*
%ADD26C,4.000000*%
G04 #@! TD*
G04 #@! TA.AperFunction,ComponentPad*
%ADD27C,3.000000*%
G04 #@! TD*
G04 #@! TA.AperFunction,ComponentPad*
%ADD28C,3.600000*%
G04 #@! TD*
G04 #@! TA.AperFunction,ComponentPad*
%ADD29R,3.300000X1.800000*%
G04 #@! TD*
G04 #@! TA.AperFunction,ComponentPad*
%ADD30O,2.600000X2.600000*%
G04 #@! TD*
G04 #@! TA.AperFunction,ComponentPad*
%ADD31RoundRect,0.264706X1.485294X-0.635294X1.485294X0.635294X-1.485294X0.635294X-1.485294X-0.635294X0*%
G04 #@! TD*
G04 #@! TA.AperFunction,ComponentPad*
%ADD32O,2.000000X1.700000*%
G04 #@! TD*
G04 #@! TA.AperFunction,Conductor*
%ADD33C,2.000000*%
G04 #@! TD*
G04 #@! TA.AperFunction,Conductor*
%ADD34C,1.500000*%
G04 #@! TD*
G04 #@! TA.AperFunction,Conductor*
%ADD35C,1.000000*%
G04 #@! TD*
G04 #@! TA.AperFunction,Conductor*
%ADD36C,1.200000*%
G04 #@! TD*
G04 APERTURE END LIST*
G04 #@! TO.N,VIN_5V*
D10*
X53290000Y59697500D02*
X57790000Y59697500D01*
X57790000Y57197500D01*
X53290000Y57197500D01*
X53290000Y59697500D01*
G04 #@! TA.AperFunction,Conductor*
G36*
X53290000Y59697500D02*
G01*
X57790000Y59697500D01*
X57790000Y57197500D01*
X53290000Y57197500D01*
X53290000Y59697500D01*
G37*
G04 #@! TD.AperFunction*
X84736250Y30790000D02*
X88236250Y30790000D01*
X88236250Y28290000D01*
X84736250Y28290000D01*
X84736250Y30790000D01*
G04 #@! TA.AperFunction,Conductor*
G36*
X84736250Y30790000D02*
G01*
X88236250Y30790000D01*
X88236250Y28290000D01*
X84736250Y28290000D01*
X84736250Y30790000D01*
G37*
G04 #@! TD.AperFunction*
G04 #@! TD*
D11*
G04 #@! TO.P,U4,1,VCC*
G04 #@! TO.N,VIN_5V*
X69575000Y71955000D03*
G04 #@! TO.P,U4,2,RX*
G04 #@! TO.N,unconnected-(U4-RX-Pad2)*
X69575000Y74495000D03*
G04 #@! TO.P,U4,3,TX*
G04 #@! TO.N,unconnected-(U4-TX-Pad3)*
X69575000Y77035000D03*
G04 #@! TO.P,U4,4,GND*
G04 #@! TO.N,unconnected-(U4-GND-Pad4)*
X69575000Y79575000D03*
G04 #@! TD*
D12*
G04 #@! TO.P,R7,1*
G04 #@! TO.N,Vbat_ADC*
X50200000Y49100000D03*
G04 #@! TO.P,R7,2*
G04 #@! TO.N,GND*
X42580000Y49100000D03*
G04 #@! TD*
D13*
G04 #@! TO.P,D3,1,K*
G04 #@! TO.N,GND*
X43890000Y3860000D03*
D11*
G04 #@! TO.P,D3,2,A*
G04 #@! TO.N,Net-(D3-A)*
X43890000Y6400000D03*
G04 #@! TD*
D14*
G04 #@! TO.P,U1,1,VBAT*
G04 #@! TO.N,unconnected-(U1-VBAT-Pad1)*
X55440000Y9750000D03*
G04 #@! TO.P,U1,2,PC13*
G04 #@! TO.N,unconnected-(U1-PC13-Pad2)*
X55440000Y12290000D03*
G04 #@! TO.P,U1,3,PC14*
G04 #@! TO.N,LED_BLUE*
X55440000Y14830000D03*
G04 #@! TO.P,U1,4,PC15*
G04 #@! TO.N,LED_RED*
X55440000Y17370000D03*
D15*
G04 #@! TO.P,U1,5V,5V*
G04 #@! TO.N,VIN_5V*
X55440000Y58010000D03*
D14*
G04 #@! TO.P,U1,5V2,5V*
G04 #@! TO.N,unconnected-(U1-5V-Pad5V2)*
X71640000Y14830000D03*
G04 #@! TO.P,U1,7,R*
G04 #@! TO.N,unconnected-(U1-R-Pad7)*
X55440000Y19910000D03*
G04 #@! TO.P,U1,10,PA0*
G04 #@! TO.N,unconnected-(U1-PA0-Pad10)*
X55440000Y22450000D03*
G04 #@! TO.P,U1,11,PA1*
G04 #@! TO.N,E220_AUX*
X55440000Y24990000D03*
G04 #@! TO.P,U1,12,PA2*
G04 #@! TO.N,E220_RX*
X55440000Y27530000D03*
G04 #@! TO.P,U1,13,PA3*
G04 #@! TO.N,E220_TX*
X55440000Y30070000D03*
G04 #@! TO.P,U1,15,PA5*
G04 #@! TO.N,E220_M1*
X55440000Y35150000D03*
G04 #@! TO.P,U1,16,PA6*
G04 #@! TO.N,E220_M0*
X55440000Y37690000D03*
G04 #@! TO.P,U1,17,PA7*
G04 #@! TO.N,unconnected-(U1-PA7-Pad17)*
X55440000Y40230000D03*
G04 #@! TO.P,U1,18,PB0*
G04 #@! TO.N,Temp_ADC*
X55440000Y42770000D03*
G04 #@! TO.P,U1,19,PB1*
G04 #@! TO.N,Vbat_ADC*
X55440000Y45310000D03*
G04 #@! TO.P,U1,20,PB2*
G04 #@! TO.N,unconnected-(U1-PB2-Pad20)*
X55440000Y47850000D03*
G04 #@! TO.P,U1,21,PB10*
G04 #@! TO.N,unconnected-(U1-PB10-Pad21)*
X55440000Y50390000D03*
G04 #@! TO.P,U1,23,GND*
G04 #@! TO.N,GND*
X55440000Y55470000D03*
G04 #@! TO.P,U1,24,3V3*
G04 #@! TO.N,unconnected-(U1-3V3-Pad24)*
X55440000Y52930000D03*
D15*
G04 #@! TO.P,U1,25,PB12*
G04 #@! TO.N,unconnected-(U1-PB12-Pad25)*
X71640000Y58010000D03*
D14*
G04 #@! TO.P,U1,26,PB13*
G04 #@! TO.N,unconnected-(U1-PB13-Pad26)*
X71640000Y55470000D03*
G04 #@! TO.P,U1,27,PB14*
G04 #@! TO.N,unconnected-(U1-PB14-Pad27)*
X71640000Y52930000D03*
G04 #@! TO.P,U1,28,PB15*
G04 #@! TO.N,unconnected-(U1-PB15-Pad28)*
X71640000Y50390000D03*
D16*
G04 #@! TO.P,U1,29,PA8*
G04 #@! TO.N,M1_PWM1*
X71640000Y47850000D03*
G04 #@! TO.P,U1,30,PA9*
G04 #@! TO.N,M1_PWM2*
X71640000Y45310000D03*
D14*
G04 #@! TO.P,U1,31,PA10*
G04 #@! TO.N,M2_PWM1*
X71640000Y42770000D03*
G04 #@! TO.P,U1,32,PA11*
G04 #@! TO.N,M2_PWM2*
X71640000Y40230000D03*
D17*
G04 #@! TO.P,U1,33,PA12*
G04 #@! TO.N,unconnected-(U1-PA12-Pad33)*
X71640000Y37690000D03*
D11*
G04 #@! TO.P,U1,38,PA15*
G04 #@! TO.N,M3_PWM1*
X71640000Y35150000D03*
G04 #@! TO.P,U1,39,PB3*
G04 #@! TO.N,M3_PWM2*
X71640000Y32610000D03*
D14*
G04 #@! TO.P,U1,40,PB4*
G04 #@! TO.N,unconnected-(U1-PB4-Pad40)*
X71640000Y30070000D03*
G04 #@! TO.P,U1,41,PB5*
G04 #@! TO.N,unconnected-(U1-PB5-Pad41)*
X71640000Y27530000D03*
G04 #@! TO.P,U1,42,PB6*
G04 #@! TO.N,GPS_RX*
X71640000Y24990000D03*
G04 #@! TO.P,U1,43,PB7*
G04 #@! TO.N,GPS_TX*
X71640000Y22450000D03*
G04 #@! TO.P,U1,45,PB8*
G04 #@! TO.N,BNO055_SCL*
X71640000Y19910000D03*
G04 #@! TO.P,U1,46,PB9*
G04 #@! TO.N,BNO055_SDA*
X71640000Y17370000D03*
G04 #@! TO.P,U1,47,GND*
G04 #@! TO.N,GND*
X71640000Y12290000D03*
G04 #@! TO.P,U1,48,3V3*
G04 #@! TO.N,STM_3.3V*
X71640000Y9750000D03*
G04 #@! TD*
D18*
G04 #@! TO.P,R2,1*
G04 #@! TO.N,E220_TX*
X31100000Y17157500D03*
G04 #@! TO.P,R2,2*
G04 #@! TO.N,STM_3.3V*
X31100000Y9537500D03*
G04 #@! TD*
D19*
G04 #@! TO.P,U6,1,+V_{S}*
G04 #@! TO.N,VIN_5V*
X35340000Y44725000D03*
D20*
G04 #@! TO.P,U6,2,V_{OUT}*
G04 #@! TO.N,Temp_ADC*
X37880000Y44725000D03*
G04 #@! TO.P,U6,3,GND*
G04 #@! TO.N,GND*
X40420000Y44725000D03*
G04 #@! TD*
D21*
G04 #@! TO.P,J1,1,Pin_1*
G04 #@! TO.N,GND*
X77780000Y62380000D03*
D11*
G04 #@! TO.P,J1,2,Pin_2*
G04 #@! TO.N,VIN_5V*
X77780000Y64880000D03*
D22*
G04 #@! TO.P,J1,3,Pin_3*
G04 #@! TO.N,Vbat_8.4V*
X77780000Y67380000D03*
G04 #@! TD*
D18*
G04 #@! TO.P,R1,1*
G04 #@! TO.N,E220_AUX*
X35390000Y17220000D03*
G04 #@! TO.P,R1,2*
G04 #@! TO.N,Net-(D1-K)*
X35390000Y9600000D03*
G04 #@! TD*
D23*
G04 #@! TO.P,REF\u002A\u002A,*
G04 #@! TO.N,*
X4000000Y4000000D03*
G04 #@! TD*
D13*
G04 #@! TO.P,D2,1,K*
G04 #@! TO.N,GND*
X49640000Y3815000D03*
D11*
G04 #@! TO.P,D2,2,A*
G04 #@! TO.N,Net-(D2-A)*
X49640000Y6355000D03*
G04 #@! TD*
D18*
G04 #@! TO.P,R5,1*
G04 #@! TO.N,LED_BLUE*
X46580000Y17410000D03*
G04 #@! TO.P,R5,2*
G04 #@! TO.N,Net-(D3-A)*
X46580000Y9790000D03*
G04 #@! TD*
D24*
G04 #@! TO.P,C1,1*
G04 #@! TO.N,VIN_5V*
X48020000Y59538250D03*
D25*
G04 #@! TO.P,C1,2*
G04 #@! TO.N,GND*
X48020000Y56538250D03*
G04 #@! TD*
D26*
G04 #@! TO.P,U2,*
G04 #@! TO.N,*
X20890000Y35470000D03*
D14*
G04 #@! TO.P,U2,1,MO*
G04 #@! TO.N,E220_M0*
X49390000Y37600000D03*
G04 #@! TO.P,U2,2,M1*
G04 #@! TO.N,E220_M1*
X49390000Y35060000D03*
G04 #@! TO.P,U2,3,RXD*
G04 #@! TO.N,E220_RX*
X49390000Y32520000D03*
G04 #@! TO.P,U2,4,TXD*
G04 #@! TO.N,E220_TX*
X49390000Y29980000D03*
G04 #@! TO.P,U2,5,AUX*
G04 #@! TO.N,E220_AUX*
X49390000Y27440000D03*
G04 #@! TO.P,U2,6,VCC*
G04 #@! TO.N,VIN_5V*
X49390000Y24900000D03*
G04 #@! TO.P,U2,7,GND*
G04 #@! TO.N,GND*
X49390000Y22360000D03*
G04 #@! TD*
D23*
G04 #@! TO.P,REF\u002A\u002A,*
G04 #@! TO.N,*
X88000000Y4000000D03*
G04 #@! TD*
D15*
G04 #@! TO.P,D1,1,K*
G04 #@! TO.N,Net-(D1-K)*
X35890000Y6370000D03*
D14*
G04 #@! TO.P,D1,2,A*
G04 #@! TO.N,STM_3.3V*
X35890000Y3830000D03*
G04 #@! TD*
D27*
G04 #@! TO.P,C2,1*
G04 #@! TO.N,GND*
X40390000Y11100000D03*
G04 #@! TO.P,C2,2*
G04 #@! TO.N,VIN_5V*
X40390000Y16100000D03*
G04 #@! TD*
D18*
G04 #@! TO.P,C3,1*
G04 #@! TO.N,GND*
X44390000Y44600000D03*
G04 #@! TO.P,C3,2*
G04 #@! TO.N,Vbat_ADC*
X49390000Y44600000D03*
G04 #@! TD*
D23*
G04 #@! TO.P,REF\u002A\u002A,*
G04 #@! TO.N,*
X4000000Y88000000D03*
G04 #@! TD*
D28*
G04 #@! TO.P,U3,*
G04 #@! TO.N,*
X78486250Y12290000D03*
X78486250Y28290000D03*
D29*
G04 #@! TO.P,U3,1,VIN*
G04 #@! TO.N,VIN_5V*
X86486250Y29160000D03*
D11*
G04 #@! TO.P,U3,2,GND*
G04 #@! TO.N,GND*
X86486250Y26620000D03*
G04 #@! TO.P,U3,3,SCL\u005CRX*
G04 #@! TO.N,BNO055_SCL*
X86486250Y24080000D03*
G04 #@! TO.P,U3,4,SDA\u005CTX*
G04 #@! TO.N,BNO055_SDA*
X86486250Y21540000D03*
G04 #@! TO.P,U3,5,ADO*
G04 #@! TO.N,unconnected-(U3-ADO-Pad5)*
X86486250Y19000000D03*
G04 #@! TO.P,U3,6,INT*
G04 #@! TO.N,unconnected-(U3-INT-Pad6)*
X86486250Y16460000D03*
G04 #@! TO.P,U3,7,BOOT*
G04 #@! TO.N,unconnected-(U3-BOOT-Pad7)*
X86486250Y13920000D03*
G04 #@! TO.P,U3,8,REST*
G04 #@! TO.N,unconnected-(U3-REST-Pad8)*
X86486250Y11380000D03*
G04 #@! TD*
D12*
G04 #@! TO.P,R6,1*
G04 #@! TO.N,Vbat_8.4V*
X42520000Y52690000D03*
D30*
G04 #@! TO.P,R6,2*
G04 #@! TO.N,Vbat_ADC*
X50140000Y52690000D03*
G04 #@! TD*
D23*
G04 #@! TO.P,REF\u002A\u002A,*
G04 #@! TO.N,*
X88000000Y88000000D03*
G04 #@! TD*
D31*
G04 #@! TO.P,J2,1,Pin_1*
G04 #@! TO.N,M3_PWM2*
X77790000Y36060000D03*
D14*
G04 #@! TO.P,J2,2,Pin_2*
G04 #@! TO.N,M3_PWM1*
X77790000Y38560000D03*
D22*
G04 #@! TO.P,J2,3,Pin_3*
G04 #@! TO.N,GND*
X77790000Y41060000D03*
D14*
G04 #@! TO.P,J2,4,Pin_4*
G04 #@! TO.N,M2_PWM2*
X77790000Y43560000D03*
G04 #@! TO.P,J2,5,Pin_5*
G04 #@! TO.N,M2_PWM1*
X77790000Y46060000D03*
D32*
G04 #@! TO.P,J2,6,Pin_6*
G04 #@! TO.N,unconnected-(J2-Pin_6-Pad6)*
X77790000Y48560000D03*
D14*
G04 #@! TO.P,J2,7,Pin_7*
G04 #@! TO.N,M1_PWM2*
X77790000Y51060000D03*
G04 #@! TO.P,J2,8,Pin_8*
G04 #@! TO.N,M1_PWM1*
X77790000Y53560000D03*
G04 #@! TD*
D18*
G04 #@! TO.P,R4,1*
G04 #@! TO.N,LED_RED*
X50390000Y17410000D03*
G04 #@! TO.P,R4,2*
G04 #@! TO.N,Net-(D2-A)*
X50390000Y9790000D03*
G04 #@! TD*
G04 #@! TO.P,R3,1*
G04 #@! TO.N,E220_RX*
X27030000Y17227500D03*
G04 #@! TO.P,R3,2*
G04 #@! TO.N,STM_3.3V*
X27030000Y9607500D03*
G04 #@! TD*
D33*
G04 #@! TO.N,VIN_5V*
X86486250Y29540000D02*
X84770000Y31256250D01*
X35340000Y61720000D02*
X45430000Y71810000D01*
X45430000Y71810000D02*
X78590000Y71810000D01*
X37170000Y13100000D02*
X40390000Y16320000D01*
X81390000Y69010000D02*
X81390000Y65850000D01*
X22580000Y15837500D02*
X25317500Y13100000D01*
D34*
X55440000Y58010000D02*
X53911750Y59538250D01*
D33*
X63640000Y64850000D02*
X57077500Y58287500D01*
X40390000Y16320000D02*
X40390000Y21350000D01*
X40390000Y21350000D02*
X43940000Y24900000D01*
X80390000Y64850000D02*
X63640000Y64850000D01*
X35340000Y44725000D02*
X35340000Y35967500D01*
X57077500Y58287500D02*
X55540000Y58287500D01*
D34*
X53911750Y59538250D02*
X48138250Y59538250D01*
D33*
X80430000Y64880000D02*
X77780000Y64880000D01*
X78590000Y71810000D02*
X81390000Y69010000D01*
X35340000Y35967500D02*
X22580000Y23207500D01*
X43940000Y24900000D02*
X49390000Y24900000D01*
X22580000Y23207500D02*
X22580000Y15837500D01*
X84770000Y60540000D02*
X80430000Y64880000D01*
D34*
X48138250Y59538250D02*
X48000000Y59400000D01*
D33*
X84770000Y31256250D02*
X84770000Y60540000D01*
X25317500Y13100000D02*
X37170000Y13100000D01*
X81390000Y65850000D02*
X80390000Y64850000D01*
X35340000Y44725000D02*
X35340000Y61720000D01*
D34*
G04 #@! TO.N,Vbat_8.4V*
X40430000Y60770000D02*
X40430000Y54780000D01*
X47040000Y67380000D02*
X40430000Y60770000D01*
X77780000Y67380000D02*
X47040000Y67380000D01*
X40430000Y54780000D02*
X42520000Y52690000D01*
G04 #@! TO.N,Vbat_ADC*
X50140000Y45600000D02*
X49390000Y44850000D01*
X50200000Y48217500D02*
X53107500Y45310000D01*
X50140000Y49040000D02*
X50140000Y45600000D01*
X50200000Y49100000D02*
X50140000Y49040000D01*
X53107500Y45310000D02*
X55440000Y45310000D01*
D35*
X55440000Y45310000D02*
X54945000Y45310000D01*
D34*
X50200000Y49100000D02*
X50200000Y48217500D01*
D33*
X50200000Y52510000D02*
X50200000Y49100000D01*
D34*
X49390000Y44850000D02*
X49390000Y44600000D01*
D36*
G04 #@! TO.N,M1_PWM1*
X67040000Y50310000D02*
X69500000Y47850000D01*
X77800000Y56500000D02*
X73930000Y60370000D01*
X67040000Y58310000D02*
X67040000Y50310000D01*
X69500000Y47850000D02*
X71640000Y47850000D01*
X77790000Y53560000D02*
X77800000Y53570000D01*
D10*
X71640000Y47949939D02*
X71640000Y47950000D01*
X71657500Y47932439D02*
X71640000Y47949939D01*
X78010000Y53590000D02*
X78070000Y53590000D01*
D36*
X77800000Y53570000D02*
X77800000Y56500000D01*
X69100000Y60370000D02*
X67040000Y58310000D01*
D35*
X71640000Y47850000D02*
X72130000Y47850000D01*
D36*
X73930000Y60370000D02*
X69100000Y60370000D01*
D10*
G04 #@! TO.N,M2_PWM1*
X71640000Y42870000D02*
X71640000Y42869939D01*
D36*
X76500000Y46060000D02*
X77790000Y46060000D01*
D10*
X71707561Y42830000D02*
X71730000Y42852439D01*
D36*
X71640000Y42770000D02*
X73210000Y42770000D01*
X73210000Y42770000D02*
X76500000Y46060000D01*
D34*
G04 #@! TO.N,STM_3.3V*
X32950000Y3830000D02*
X31100000Y5680000D01*
X31037500Y9600000D02*
X31100000Y9537500D01*
X71640000Y9750000D02*
X67920000Y9750000D01*
X36140000Y3830000D02*
X32950000Y3830000D01*
X27030000Y9607500D02*
X27037500Y9600000D01*
X27037500Y9600000D02*
X31037500Y9600000D01*
X67920000Y9750000D02*
X59421000Y1251000D01*
X31100000Y5680000D02*
X31100000Y9537500D01*
X59421000Y1251000D02*
X38719000Y1251000D01*
X38719000Y1251000D02*
X36140000Y3830000D01*
D36*
G04 #@! TO.N,M3_PWM2*
X74050000Y32610000D02*
X71640000Y32610000D01*
X77790000Y36060000D02*
X77500000Y36060000D01*
X77500000Y36060000D02*
X74050000Y32610000D01*
G04 #@! TO.N,M2_PWM2*
X76560000Y43560000D02*
X77790000Y43560000D01*
X73230000Y40230000D02*
X76560000Y43560000D01*
X71640000Y40230000D02*
X73230000Y40230000D01*
G04 #@! TO.N,M3_PWM1*
X72270000Y35150000D02*
X71640000Y35150000D01*
X75680000Y38560000D02*
X72270000Y35150000D01*
X77790000Y38560000D02*
X75680000Y38560000D01*
G04 #@! TO.N,M1_PWM2*
X74950000Y49130000D02*
X76880000Y51060000D01*
X76880000Y51060000D02*
X77790000Y51060000D01*
X74950000Y47130000D02*
X74950000Y49130000D01*
X73130000Y45310000D02*
X74950000Y47130000D01*
X71640000Y45310000D02*
X73130000Y45310000D01*
D35*
G04 #@! TO.N,LED_RED*
X50430000Y17370000D02*
X50390000Y17410000D01*
D34*
X55440000Y17370000D02*
X50430000Y17370000D01*
D35*
X50390000Y17100000D02*
X50200000Y16910000D01*
X50390000Y17410000D02*
X50390000Y17100000D01*
D34*
G04 #@! TO.N,LED_BLUE*
X51290000Y13537500D02*
X52582500Y14830000D01*
X46580000Y15910000D02*
X46540000Y15870000D01*
X48040000Y13537500D02*
X51290000Y13537500D01*
X46580000Y17410000D02*
X46580000Y15910000D01*
X46540000Y15870000D02*
X46540000Y15037500D01*
X46540000Y15037500D02*
X48040000Y13537500D01*
X52582500Y14830000D02*
X55440000Y14830000D01*
G04 #@! TO.N,BNO055_SCL*
X79390000Y24080000D02*
X75220000Y19910000D01*
X86486250Y24080000D02*
X79390000Y24080000D01*
X75220000Y19910000D02*
X71640000Y19910000D01*
G04 #@! TO.N,GND*
X59940000Y55460000D02*
X52117500Y55460000D01*
X42580000Y49100000D02*
X42580000Y46410000D01*
X64330000Y12290000D02*
X55855000Y3815000D01*
X41640000Y3850000D02*
X49605000Y3850000D01*
X66860000Y62380000D02*
X59940000Y55460000D01*
X46150000Y22360000D02*
X43640000Y19850000D01*
X43640000Y19850000D02*
X43640000Y13600000D01*
X40390000Y5100000D02*
X41640000Y3850000D01*
X55855000Y3815000D02*
X49527500Y3815000D01*
D35*
X77296250Y8540000D02*
X87861250Y8540000D01*
D34*
X40390000Y11100000D02*
X40390000Y5100000D01*
X81976250Y44223750D02*
X81976250Y58183750D01*
X83816250Y26620000D02*
X86486250Y26620000D01*
X41140000Y11100000D02*
X40390000Y11100000D01*
X42620000Y49140000D02*
X42580000Y49100000D01*
X77780000Y62380000D02*
X66860000Y62380000D01*
D35*
X87861250Y8540000D02*
X89486250Y10165000D01*
D34*
X81996250Y42732500D02*
X81996250Y45672500D01*
D35*
X89486250Y10165000D02*
X89486250Y25290000D01*
D34*
X42580000Y46410000D02*
X44390000Y44600000D01*
X52117500Y55460000D02*
X51039250Y56538250D01*
X48138250Y56538250D02*
X46620000Y55020000D01*
X81996250Y45672500D02*
X81976250Y45652500D01*
X40545000Y44600000D02*
X40420000Y44725000D01*
X44430000Y49140000D02*
X42620000Y49140000D01*
X55440000Y55470000D02*
X55430000Y55460000D01*
X81976250Y58183750D02*
X77780000Y62380000D01*
X46620000Y55020000D02*
X46620000Y51330000D01*
X49390000Y22360000D02*
X46150000Y22360000D01*
X80326250Y41062500D02*
X81996250Y42732500D01*
D35*
X72086250Y12292500D02*
X73543750Y12292500D01*
X73543750Y12292500D02*
X77296250Y8540000D01*
D34*
X44390000Y44600000D02*
X40545000Y44600000D01*
X43640000Y13600000D02*
X41140000Y11100000D01*
X46620000Y51330000D02*
X44430000Y49140000D01*
X78236250Y41062500D02*
X80326250Y41062500D01*
D35*
X89486250Y25290000D02*
X88156250Y26620000D01*
D34*
X71640000Y12290000D02*
X64330000Y12290000D01*
X81976250Y45652500D02*
X81976250Y28460000D01*
X81976250Y28460000D02*
X83816250Y26620000D01*
X77820000Y62380000D02*
X77780000Y62380000D01*
X51039250Y56538250D02*
X48138250Y56538250D01*
G04 #@! TO.N,BNO055_SDA*
X86486250Y21540000D02*
X81630000Y21540000D01*
X77460000Y17370000D02*
X71640000Y17370000D01*
X81630000Y21540000D02*
X77460000Y17370000D01*
G04 #@! TO.N,E220_M0*
X49640000Y37600000D02*
X49730000Y37690000D01*
X49730000Y37690000D02*
X55440000Y37690000D01*
X49390000Y37600000D02*
X49640000Y37600000D01*
X55350000Y37600000D02*
X55440000Y37690000D01*
G04 #@! TO.N,E220_AUX*
X51150000Y27440000D02*
X49390000Y27440000D01*
D35*
X55530000Y25072500D02*
X55462500Y25140000D01*
D34*
X55440000Y24990000D02*
X53600000Y24990000D01*
X41480000Y27440000D02*
X35390000Y21350000D01*
X49390000Y27440000D02*
X41480000Y27440000D01*
D35*
X49900000Y27430000D02*
X49990000Y27520000D01*
D34*
X35390000Y21350000D02*
X35390000Y17220000D01*
X53600000Y24990000D02*
X51150000Y27440000D01*
G04 #@! TO.N,E220_M1*
X49390000Y35060000D02*
X49480000Y35150000D01*
X49480000Y35150000D02*
X55440000Y35150000D01*
G04 #@! TO.N,E220_TX*
X49390000Y29980000D02*
X40020000Y29980000D01*
X55380000Y30070000D02*
X49540000Y30070000D01*
X40020000Y29980000D02*
X31100000Y21060000D01*
X31100000Y21060000D02*
X31100000Y17157500D01*
X49540000Y30070000D02*
X49510000Y30100000D01*
G04 #@! TO.N,E220_RX*
X49390000Y32520000D02*
X38310000Y32520000D01*
X58790000Y27530000D02*
X55440000Y27530000D01*
X49407500Y32537500D02*
X58392500Y32537500D01*
X38310000Y32520000D02*
X26980000Y21190000D01*
X59870000Y31060000D02*
X59870000Y28610000D01*
X26980000Y17277500D02*
X27030000Y17227500D01*
X59870000Y28610000D02*
X58790000Y27530000D01*
X58392500Y32537500D02*
X59870000Y31060000D01*
X49390000Y32520000D02*
X49407500Y32537500D01*
X26980000Y21190000D02*
X26980000Y17277500D01*
G04 #@! TO.N,Net-(D1-K)*
X35890000Y6370000D02*
X35390000Y6870000D01*
X35390000Y6870000D02*
X35390000Y9600000D01*
G04 #@! TO.N,Net-(D2-A)*
X50390000Y9790000D02*
X50390000Y7105000D01*
X50390000Y7105000D02*
X49640000Y6355000D01*
G04 #@! TO.N,Net-(D3-A)*
X46580000Y9790000D02*
X46580000Y9090000D01*
X46580000Y9090000D02*
X43890000Y6400000D01*
G04 #@! TO.N,Temp_ADC*
X55440000Y42770000D02*
X52772500Y42770000D01*
X39952500Y40537500D02*
X37880000Y42610000D01*
X50540000Y40537500D02*
X39952500Y40537500D01*
X52772500Y42770000D02*
X50540000Y40537500D01*
X37880000Y42610000D02*
X37880000Y44725000D01*
D10*
G04 #@! TO.N,unconnected-(U1-PB5-Pad41)*
X71657500Y27612439D02*
X71640000Y27629939D01*
X71730000Y27612439D02*
X71657500Y27612439D01*
G04 #@! TD*
M02*
