G04 #@! TF.GenerationSoftware,KiCad,Pcbnew,9.0.5*
G04 #@! TF.CreationDate,2026-06-02T12:35:42-03:00*
G04 #@! TF.ProjectId,CubeSat_Main,43756265-5361-4745-9f4d-61696e2e6b69,rev?*
G04 #@! TF.SameCoordinates,Original*
G04 #@! TF.FileFunction,Copper,L1,Top*
G04 #@! TF.FilePolarity,Positive*
%FSLAX46Y46*%
G04 Gerber Fmt 4.6, Leading zero omitted, Abs format (unit mm)*
G04 Created by KiCad (PCBNEW 9.0.5) date 2026-06-02 12:35:42*
%MOMM*%
%LPD*%
G01*
G04 APERTURE LIST*
G04 Aperture macros list*
%AMRoundRect*
0 Rectangle with rounded corners*
0 $1 Rounding radius*
0 $2 $3 $4 $5 $6 $7 $8 $9 X,Y pos of 4 corners*
0 Add a 4 corners polygon primitive as box body*
4,1,4,$2,$3,$4,$5,$6,$7,$8,$9,$2,$3,0*
0 Add four circle primitives for the rounded corners*
1,1,$1+$1,$2,$3*
1,1,$1+$1,$4,$5*
1,1,$1+$1,$6,$7*
1,1,$1+$1,$8,$9*
0 Add four rect primitives between the rounded corners*
20,1,$1+$1,$2,$3,$4,$5,0*
20,1,$1+$1,$4,$5,$6,$7,0*
20,1,$1+$1,$6,$7,$8,$9,0*
20,1,$1+$1,$8,$9,$2,$3,0*%
G04 Aperture macros list end*
G04 #@! TA.AperFunction,ComponentPad*
%ADD10O,1.800000X3.000000*%
G04 #@! TD*
G04 #@! TA.AperFunction,ComponentPad*
%ADD11C,2.600000*%
G04 #@! TD*
G04 #@! TA.AperFunction,ComponentPad*
%ADD12R,3.000000X1.800000*%
G04 #@! TD*
G04 #@! TA.AperFunction,ComponentPad*
%ADD13O,3.000000X1.800000*%
G04 #@! TD*
G04 #@! TA.AperFunction,ComponentPad*
%ADD14O,3.500000X1.800000*%
G04 #@! TD*
G04 #@! TA.AperFunction,ComponentPad*
%ADD15R,3.500000X1.800000*%
G04 #@! TD*
G04 #@! TA.AperFunction,ComponentPad*
%ADD16O,3.200000X1.800000*%
G04 #@! TD*
G04 #@! TA.AperFunction,ComponentPad*
%ADD17O,1.800000X1.800000*%
G04 #@! TD*
G04 #@! TA.AperFunction,ComponentPad*
%ADD18O,2.000000X3.000000*%
G04 #@! TD*
G04 #@! TA.AperFunction,ComponentPad*
%ADD19R,1.700000X3.000000*%
G04 #@! TD*
G04 #@! TA.AperFunction,ComponentPad*
%ADD20O,1.700000X3.000000*%
G04 #@! TD*
G04 #@! TA.AperFunction,ComponentPad*
%ADD21RoundRect,0.250000X1.250000X-0.600000X1.250000X0.600000X-1.250000X0.600000X-1.250000X-0.600000X0*%
G04 #@! TD*
G04 #@! TA.AperFunction,ComponentPad*
%ADD22O,3.000000X1.700000*%
G04 #@! TD*
G04 #@! TA.AperFunction,ComponentPad*
%ADD23C,6.000000*%
G04 #@! TD*
G04 #@! TA.AperFunction,ComponentPad*
%ADD24R,3.000000X2.000000*%
G04 #@! TD*
G04 #@! TA.AperFunction,ComponentPad*
%ADD25O,3.000000X2.000000*%
G04 #@! TD*
G04 #@! TA.AperFunction,ComponentPad*
%ADD26C,4.000000*%
G04 #@! TD*
G04 #@! TA.AperFunction,ComponentPad*
%ADD27C,3.000000*%
G04 #@! TD*
G04 #@! TA.AperFunction,ComponentPad*
%ADD28C,3.800000*%
G04 #@! TD*
G04 #@! TA.AperFunction,ComponentPad*
%ADD29R,3.300000X1.800000*%
G04 #@! TD*
G04 #@! TA.AperFunction,ComponentPad*
%ADD30O,2.600000X2.600000*%
G04 #@! TD*
G04 #@! TA.AperFunction,ComponentPad*
%ADD31RoundRect,0.264706X1.485294X-0.635294X1.485294X0.635294X-1.485294X0.635294X-1.485294X-0.635294X0*%
G04 #@! TD*
G04 APERTURE END LIST*
D10*
G04 #@! TO.P,U5,1,VCC*
G04 #@! TO.N,VIN_5V*
X20110000Y51390000D03*
G04 #@! TO.P,U5,2,RX*
G04 #@! TO.N,unconnected-(U5-RX-Pad2)*
X22650000Y51390000D03*
G04 #@! TO.P,U5,3,TX*
G04 #@! TO.N,unconnected-(U5-TX-Pad3)*
X25190000Y51390000D03*
G04 #@! TO.P,U5,4,GND*
G04 #@! TO.N,unconnected-(U5-GND-Pad4)*
X27730000Y51390000D03*
G04 #@! TD*
D11*
G04 #@! TO.P,R7,1*
G04 #@! TO.N,Vbat_ADC*
X50200000Y49100000D03*
G04 #@! TO.P,R7,2*
G04 #@! TO.N,GND*
X42580000Y49100000D03*
G04 #@! TD*
D12*
G04 #@! TO.P,D3,1,K*
G04 #@! TO.N,GND*
X43890000Y3860000D03*
D13*
G04 #@! TO.P,D3,2,A*
G04 #@! TO.N,Net-(D3-A)*
X43890000Y6400000D03*
G04 #@! TD*
D14*
G04 #@! TO.P,U1,1,VBAT*
G04 #@! TO.N,unconnected-(U1-VBAT-Pad1)*
X55440000Y9750000D03*
G04 #@! TO.P,U1,2,PC13*
G04 #@! TO.N,unconnected-(U1-PC13-Pad2)*
X55440000Y12290000D03*
G04 #@! TO.P,U1,3,PC14*
G04 #@! TO.N,LED_BLUE*
X55440000Y14830000D03*
G04 #@! TO.P,U1,4,PC15*
G04 #@! TO.N,LED_RED*
X55440000Y17370000D03*
D15*
G04 #@! TO.P,U1,5V,5V*
G04 #@! TO.N,VIN_5V*
X55440000Y58010000D03*
D14*
G04 #@! TO.P,U1,5V2,5V*
G04 #@! TO.N,unconnected-(U1-5V-Pad5V2)*
X71640000Y14830000D03*
G04 #@! TO.P,U1,7,R*
G04 #@! TO.N,unconnected-(U1-R-Pad7)*
X55440000Y19910000D03*
G04 #@! TO.P,U1,10,PA0*
G04 #@! TO.N,unconnected-(U1-PA0-Pad10)*
X55440000Y22450000D03*
G04 #@! TO.P,U1,11,PA1*
G04 #@! TO.N,E220_AUX*
X55440000Y24990000D03*
G04 #@! TO.P,U1,12,PA2*
G04 #@! TO.N,E220_RX*
X55440000Y27530000D03*
G04 #@! TO.P,U1,13,PA3*
G04 #@! TO.N,E220_TX*
X55440000Y30070000D03*
G04 #@! TO.P,U1,15,PA5*
G04 #@! TO.N,E220_M1*
X55440000Y35150000D03*
G04 #@! TO.P,U1,16,PA6*
G04 #@! TO.N,E220_M0*
X55440000Y37690000D03*
G04 #@! TO.P,U1,17,PA7*
G04 #@! TO.N,unconnected-(U1-PA7-Pad17)*
X55440000Y40230000D03*
G04 #@! TO.P,U1,18,PB0*
G04 #@! TO.N,Temp_ADC*
X55440000Y42770000D03*
G04 #@! TO.P,U1,19,PB1*
G04 #@! TO.N,Vbat_ADC*
X55440000Y45310000D03*
G04 #@! TO.P,U1,20,PB2*
G04 #@! TO.N,unconnected-(U1-PB2-Pad20)*
X55440000Y47850000D03*
G04 #@! TO.P,U1,21,PB10*
G04 #@! TO.N,unconnected-(U1-PB10-Pad21)*
X55440000Y50390000D03*
G04 #@! TO.P,U1,23,GND*
G04 #@! TO.N,GND*
X55440000Y55470000D03*
G04 #@! TO.P,U1,24,3V3*
G04 #@! TO.N,unconnected-(U1-3V3-Pad24)*
X55440000Y52930000D03*
D15*
G04 #@! TO.P,U1,25,PB12*
G04 #@! TO.N,unconnected-(U1-PB12-Pad25)*
X71640000Y58010000D03*
D14*
G04 #@! TO.P,U1,26,PB13*
G04 #@! TO.N,M1_PWM1*
X71640000Y55470000D03*
G04 #@! TO.P,U1,27,PB14*
G04 #@! TO.N,M1_PWM2*
X71640000Y52930000D03*
G04 #@! TO.P,U1,28,PB15*
G04 #@! TO.N,unconnected-(U1-PB15-Pad28)*
X71640000Y50390000D03*
D16*
G04 #@! TO.P,U1,29,PA8*
G04 #@! TO.N,unconnected-(U1-PA8-Pad29)*
X71640000Y47850000D03*
G04 #@! TO.P,U1,30,PA9*
G04 #@! TO.N,unconnected-(U1-PA9-Pad30)*
X71640000Y45310000D03*
D14*
G04 #@! TO.P,U1,31,PA10*
G04 #@! TO.N,M2_PWM1*
X71640000Y42770000D03*
G04 #@! TO.P,U1,32,PA11*
G04 #@! TO.N,M2_PWM2*
X71640000Y40230000D03*
D17*
G04 #@! TO.P,U1,33,PA12*
G04 #@! TO.N,unconnected-(U1-PA12-Pad33)*
X71640000Y37690000D03*
D13*
G04 #@! TO.P,U1,38,PA15*
G04 #@! TO.N,M3_PWM1*
X71640000Y35150000D03*
G04 #@! TO.P,U1,39,PB3*
G04 #@! TO.N,M3_PWM2*
X71640000Y32610000D03*
D14*
G04 #@! TO.P,U1,40,PB4*
G04 #@! TO.N,unconnected-(U1-PB4-Pad40)*
X71640000Y30070000D03*
G04 #@! TO.P,U1,41,PB5*
G04 #@! TO.N,unconnected-(U1-PB5-Pad41)*
X71640000Y27530000D03*
G04 #@! TO.P,U1,42,PB6*
G04 #@! TO.N,GPS_RX*
X71640000Y24990000D03*
G04 #@! TO.P,U1,43,PB7*
G04 #@! TO.N,GPS_TX*
X71640000Y22450000D03*
G04 #@! TO.P,U1,45,PB8*
G04 #@! TO.N,BNO055_SCL*
X71640000Y19910000D03*
G04 #@! TO.P,U1,46,PB9*
G04 #@! TO.N,BNO055_SDA*
X71640000Y17370000D03*
G04 #@! TO.P,U1,47,GND*
G04 #@! TO.N,GND*
X71640000Y12290000D03*
G04 #@! TO.P,U1,48,3V3*
G04 #@! TO.N,STM_3.3V*
X71640000Y9750000D03*
G04 #@! TD*
D18*
G04 #@! TO.P,R2,1*
G04 #@! TO.N,E220_TX*
X31100000Y17157500D03*
G04 #@! TO.P,R2,2*
G04 #@! TO.N,STM_3.3V*
X31100000Y9537500D03*
G04 #@! TD*
D19*
G04 #@! TO.P,U4,1,+V_{S}*
G04 #@! TO.N,VIN_5V*
X35340000Y44725000D03*
D20*
G04 #@! TO.P,U4,2,V_{OUT}*
G04 #@! TO.N,Temp_ADC*
X37880000Y44725000D03*
G04 #@! TO.P,U4,3,GND*
G04 #@! TO.N,GND*
X40420000Y44725000D03*
G04 #@! TD*
D21*
G04 #@! TO.P,J1,1,Pin_1*
G04 #@! TO.N,GND*
X77780000Y62380000D03*
D13*
G04 #@! TO.P,J1,2,Pin_2*
G04 #@! TO.N,VIN_5V*
X77780000Y64880000D03*
D22*
G04 #@! TO.P,J1,3,Pin_3*
G04 #@! TO.N,Vbat_8.4V*
X77780000Y67380000D03*
G04 #@! TD*
D18*
G04 #@! TO.P,R1,1*
G04 #@! TO.N,E220_AUX*
X35390000Y17220000D03*
G04 #@! TO.P,R1,2*
G04 #@! TO.N,Net-(D1-K)*
X35390000Y9600000D03*
G04 #@! TD*
D23*
G04 #@! TO.P,REF\u002A\u002A,*
G04 #@! TO.N,*
X4000000Y4000000D03*
G04 #@! TD*
D12*
G04 #@! TO.P,D2,1,K*
G04 #@! TO.N,GND*
X49640000Y3815000D03*
D13*
G04 #@! TO.P,D2,2,A*
G04 #@! TO.N,Net-(D2-A)*
X49640000Y6355000D03*
G04 #@! TD*
D18*
G04 #@! TO.P,R5,1*
G04 #@! TO.N,LED_BLUE*
X46580000Y17410000D03*
G04 #@! TO.P,R5,2*
G04 #@! TO.N,Net-(D3-A)*
X46580000Y9790000D03*
G04 #@! TD*
D24*
G04 #@! TO.P,C1,1*
G04 #@! TO.N,VIN_5V*
X48020000Y59538250D03*
D25*
G04 #@! TO.P,C1,2*
G04 #@! TO.N,GND*
X48020000Y56538250D03*
G04 #@! TD*
D26*
G04 #@! TO.P,U2,*
G04 #@! TO.N,*
X20890000Y35470000D03*
D14*
G04 #@! TO.P,U2,1,MO*
G04 #@! TO.N,E220_M0*
X49390000Y37600000D03*
G04 #@! TO.P,U2,2,M1*
G04 #@! TO.N,E220_M1*
X49390000Y35060000D03*
G04 #@! TO.P,U2,3,RXD*
G04 #@! TO.N,E220_RX*
X49390000Y32520000D03*
G04 #@! TO.P,U2,4,TXD*
G04 #@! TO.N,E220_TX*
X49390000Y29980000D03*
G04 #@! TO.P,U2,5,AUX*
G04 #@! TO.N,E220_AUX*
X49390000Y27440000D03*
G04 #@! TO.P,U2,6,VCC*
G04 #@! TO.N,VIN_5V*
X49390000Y24900000D03*
G04 #@! TO.P,U2,7,GND*
G04 #@! TO.N,GND*
X49390000Y22360000D03*
G04 #@! TD*
D23*
G04 #@! TO.P,REF\u002A\u002A,*
G04 #@! TO.N,*
X88000000Y4000000D03*
G04 #@! TD*
D15*
G04 #@! TO.P,D1,1,K*
G04 #@! TO.N,Net-(D1-K)*
X35890000Y6370000D03*
D14*
G04 #@! TO.P,D1,2,A*
G04 #@! TO.N,STM_3.3V*
X35890000Y3830000D03*
G04 #@! TD*
D27*
G04 #@! TO.P,C2,1*
G04 #@! TO.N,GND*
X40390000Y11100000D03*
G04 #@! TO.P,C2,2*
G04 #@! TO.N,VIN_5V*
X40390000Y16100000D03*
G04 #@! TD*
D18*
G04 #@! TO.P,C3,1*
G04 #@! TO.N,GND*
X44390000Y44600000D03*
G04 #@! TO.P,C3,2*
G04 #@! TO.N,Vbat_ADC*
X49390000Y44600000D03*
G04 #@! TD*
D23*
G04 #@! TO.P,REF\u002A\u002A,*
G04 #@! TO.N,*
X4000000Y88000000D03*
G04 #@! TD*
D28*
G04 #@! TO.P,U3,*
G04 #@! TO.N,*
X78486250Y28290000D03*
X78486250Y12290000D03*
D29*
G04 #@! TO.P,U3,1,VIN*
G04 #@! TO.N,VIN_5V*
X86486250Y29160000D03*
D13*
G04 #@! TO.P,U3,2,GND*
G04 #@! TO.N,GND*
X86486250Y26620000D03*
G04 #@! TO.P,U3,3,SCL\u005CRX*
G04 #@! TO.N,BNO055_SCL*
X86486250Y24080000D03*
G04 #@! TO.P,U3,4,SDA\u005CTX*
G04 #@! TO.N,BNO055_SDA*
X86486250Y21540000D03*
G04 #@! TO.P,U3,5,ADO*
G04 #@! TO.N,unconnected-(U3-ADO-Pad5)*
X86486250Y19000000D03*
G04 #@! TO.P,U3,6,INT*
G04 #@! TO.N,unconnected-(U3-INT-Pad6)*
X86486250Y16460000D03*
G04 #@! TO.P,U3,7,BOOT*
G04 #@! TO.N,unconnected-(U3-BOOT-Pad7)*
X86486250Y13920000D03*
G04 #@! TO.P,U3,8,REST*
G04 #@! TO.N,unconnected-(U3-REST-Pad8)*
X86486250Y11380000D03*
G04 #@! TD*
D11*
G04 #@! TO.P,R6,1*
G04 #@! TO.N,Vbat_8.4V*
X42520000Y52690000D03*
D30*
G04 #@! TO.P,R6,2*
G04 #@! TO.N,Vbat_ADC*
X50140000Y52690000D03*
G04 #@! TD*
D23*
G04 #@! TO.P,REF\u002A\u002A,*
G04 #@! TO.N,*
X88000000Y88000000D03*
G04 #@! TD*
D31*
G04 #@! TO.P,J2,1,Pin_1*
G04 #@! TO.N,M3_PWM2*
X77790000Y36060000D03*
D14*
G04 #@! TO.P,J2,2,Pin_2*
G04 #@! TO.N,M3_PWM1*
X77790000Y38560000D03*
D22*
G04 #@! TO.P,J2,3,Pin_3*
G04 #@! TO.N,GND*
X77790000Y41060000D03*
D14*
G04 #@! TO.P,J2,4,Pin_4*
G04 #@! TO.N,M2_PWM2*
X77790000Y43560000D03*
G04 #@! TO.P,J2,5,Pin_5*
G04 #@! TO.N,M2_PWM1*
X77790000Y46060000D03*
G04 #@! TO.P,J2,6,Pin_6*
G04 #@! TO.N,unconnected-(J2-Pin_6-Pad6)*
X77790000Y48560000D03*
G04 #@! TO.P,J2,7,Pin_7*
G04 #@! TO.N,M1_PWM2*
X77790000Y51060000D03*
G04 #@! TO.P,J2,8,Pin_8*
G04 #@! TO.N,M1_PWM1*
X77790000Y53560000D03*
G04 #@! TD*
D18*
G04 #@! TO.P,R4,1*
G04 #@! TO.N,LED_RED*
X50390000Y17410000D03*
G04 #@! TO.P,R4,2*
G04 #@! TO.N,Net-(D2-A)*
X50390000Y9790000D03*
G04 #@! TD*
G04 #@! TO.P,R3,1*
G04 #@! TO.N,E220_RX*
X27030000Y17227500D03*
G04 #@! TO.P,R3,2*
G04 #@! TO.N,STM_3.3V*
X27030000Y9607500D03*
G04 #@! TD*
M02*
