G04 #@! TF.GenerationSoftware,KiCad,Pcbnew,9.0.5*
G04 #@! TF.CreationDate,2026-05-19T10:24:04-03:00*
G04 #@! TF.ProjectId,CubeSat_Battery,43756265-5361-4745-9f42-617474657279,rev?*
G04 #@! TF.SameCoordinates,Original*
G04 #@! TF.FileFunction,Profile,NP*
%FSLAX46Y46*%
G04 Gerber Fmt 4.6, Leading zero omitted, Abs format (unit mm)*
G04 Created by KiCad (PCBNEW 9.0.5) date 2026-05-19 10:24:04*
%MOMM*%
%LPD*%
G01*
G04 APERTURE LIST*
G04 #@! TA.AperFunction,Profile*
%ADD10C,0.200000*%
G04 #@! TD*
G04 #@! TA.AperFunction,Profile*
%ADD11C,0.100000*%
G04 #@! TD*
G04 APERTURE END LIST*
D10*
X0Y92000000D02*
X92000000Y92000000D01*
X0Y33000000D02*
X4000000Y33000000D01*
X0Y71000000D02*
X4000000Y71000000D01*
X5750000Y4000000D02*
G75*
G02*
X2250000Y4000000I-1750000J0D01*
G01*
X2250000Y4000000D02*
G75*
G02*
X5750000Y4000000I1750000J0D01*
G01*
X89750000Y88000000D02*
G75*
G02*
X86250000Y88000000I-1750000J0D01*
G01*
X86250000Y88000000D02*
G75*
G02*
X89750000Y88000000I1750000J0D01*
G01*
X51000000Y0D02*
X92000000Y0D01*
X89750000Y4000000D02*
G75*
G02*
X86250000Y4000000I-1750000J0D01*
G01*
X86250000Y4000000D02*
G75*
G02*
X89750000Y4000000I1750000J0D01*
G01*
X5750000Y88000000D02*
G75*
G02*
X2250000Y88000000I-1750000J0D01*
G01*
X2250000Y88000000D02*
G75*
G02*
X5750000Y88000000I1750000J0D01*
G01*
X51000000Y4000000D02*
X41000000Y4000000D01*
X0Y92000000D02*
X0Y71000000D01*
X4000000Y33000000D02*
X4000000Y71000000D01*
X0Y33000000D02*
X0Y0D01*
X92000000Y92000000D02*
X92000000Y0D01*
X51000000Y0D02*
X51000000Y4000000D01*
X41000000Y0D02*
X41000000Y4000000D01*
X0Y0D02*
X41000000Y0D01*
D11*
G04 #@! TO.C,U1*
X27690000Y73630000D02*
G75*
G02*
X24490000Y73630000I-1600000J0D01*
G01*
X24490000Y73630000D02*
G75*
G02*
X27690000Y73630000I1600000J0D01*
G01*
X27690000Y18370000D02*
G75*
G02*
X24490000Y18370000I-1600000J0D01*
G01*
X24490000Y18370000D02*
G75*
G02*
X27690000Y18370000I1600000J0D01*
G01*
X67510000Y73630000D02*
G75*
G02*
X64310000Y73630000I-1600000J0D01*
G01*
X64310000Y73630000D02*
G75*
G02*
X67510000Y73630000I1600000J0D01*
G01*
X67510000Y18370000D02*
G75*
G02*
X64310000Y18370000I-1600000J0D01*
G01*
X64310000Y18370000D02*
G75*
G02*
X67510000Y18370000I1600000J0D01*
G01*
G04 #@! TD*
M02*
