M48
; DRILL file {KiCad 9.0.5} date 2026-05-26T01:59:12-0300
; FORMAT={-:-/ absolute / metric / decimal}
; #@! TF.CreationDate,2026-05-26T01:59:12-03:00
; #@! TF.GenerationSoftware,Kicad,Pcbnew,9.0.5
; #@! TF.FileFunction,MixedPlating,1,2
FMAT,2
METRIC
; #@! TA.AperFunction,Plated,PTH,ComponentDrill
T1C1.000
; #@! TA.AperFunction,Plated,PTH,ComponentDrill
T2C1.040
; #@! TA.AperFunction,Plated,PTH,ComponentDrill
T3C1.300
; #@! TA.AperFunction,Plated,PTH,ComponentDrill
T4C3.200
; #@! TA.AperFunction,Plated,PTH,ComponentDrill
T5C3.500
%
G90
G05
T1
X3.3Y77.51
X3.3Y74.97
T3
X43.29Y4.837
X48.29Y4.837
T4
X26.09Y74.5
X26.09Y17.5
X65.91Y74.5
X65.91Y17.5
T5
X4.0Y88.0
X4.0Y4.0
X88.0Y88.0
X88.0Y4.0
T2
G00X16.0Y87.27
M15
G01X16.0Y87.73
M16
G05
G00X16.0Y4.27
M15
G01X16.0Y4.73
M16
G05
G00X36.0Y87.27
M15
G01X36.0Y87.73
M16
G05
G00X36.0Y4.27
M15
G01X36.0Y4.73
M16
G05
G00X56.0Y87.27
M15
G01X56.0Y87.73
M16
G05
G00X56.0Y4.27
M15
G01X56.0Y4.73
M16
G05
G00X76.0Y87.27
M15
G01X76.0Y87.73
M16
G05
G00X76.0Y4.27
M15
G01X76.0Y4.73
M16
G05
M30
