%TF.GenerationSoftware,KiCad,Pcbnew,9.0.5*%
%TF.CreationDate,2026-05-14T12:21:24-03:00*%
%TF.ProjectId,CubeSat_EPS_ADCS,43756265-5361-4745-9f45-50535f414443,rev?*%
%TF.SameCoordinates,Original*%
%TF.FileFunction,Drillmap*%
%TF.FilePolarity,Positive*%
%FSLAX45Y45*%
G04 Gerber Fmt 4.5, Leading zero omitted, Abs format (unit mm)*
G04 Created by KiCad (PCBNEW 9.0.5) date 2026-05-14 12:21:24*
%MOMM*%
%LPD*%
G01*
G04 APERTURE LIST*
%ADD10C,0.200000*%
%ADD11C,0.100000*%
%ADD12C,0.104000*%
%ADD13C,0.130000*%
%ADD14C,0.140000*%
G04 APERTURE END LIST*
D10*
X0Y-7170000D02*
X623000Y-7170000D01*
X9200000Y0D02*
X9200000Y-9200000D01*
X9200000Y-9200000D02*
X0Y-9200000D01*
X623000Y-7170000D02*
X623000Y-8170000D01*
X575000Y-400000D02*
G75*
G02*
X225000Y-400000I-175000J0D01*
G01*
X225000Y-400000D02*
G75*
G02*
X575000Y-400000I175000J0D01*
G01*
X9200000Y0D02*
X0Y0D01*
X575000Y-8800000D02*
G75*
G02*
X225000Y-8800000I-175000J0D01*
G01*
X225000Y-8800000D02*
G75*
G02*
X575000Y-8800000I175000J0D01*
G01*
X0Y-7170000D02*
X0Y0D01*
X8975000Y-8800000D02*
G75*
G02*
X8625000Y-8800000I-175000J0D01*
G01*
X8625000Y-8800000D02*
G75*
G02*
X8975000Y-8800000I175000J0D01*
G01*
X8975000Y-400000D02*
G75*
G02*
X8625000Y-400000I-175000J0D01*
G01*
X8625000Y-400000D02*
G75*
G02*
X8975000Y-400000I175000J0D01*
G01*
X0Y-8170000D02*
X623000Y-8170000D01*
X0Y-8170000D02*
X0Y-9200000D01*
D11*
X8752500Y-2452500D02*
X8847500Y-2547500D01*
X8847500Y-2452500D02*
X8752500Y-2547500D01*
X8752500Y-2702500D02*
X8847500Y-2797500D01*
X8847500Y-2702500D02*
X8752500Y-2797500D01*
X8752500Y-2952500D02*
X8847500Y-3047500D01*
X8847500Y-2952500D02*
X8752500Y-3047500D01*
X8752500Y-3762500D02*
X8847500Y-3857500D01*
X8847500Y-3762500D02*
X8752500Y-3857500D01*
X8752500Y-4012500D02*
X8847500Y-4107500D01*
X8847500Y-4012500D02*
X8752500Y-4107500D01*
X8752500Y-4262500D02*
X8847500Y-4357500D01*
X8847500Y-4262500D02*
X8752500Y-4357500D01*
X8752500Y-4512500D02*
X8847500Y-4607500D01*
X8847500Y-4512500D02*
X8752500Y-4607500D01*
X8752500Y-4762500D02*
X8847500Y-4857500D01*
X8847500Y-4762500D02*
X8752500Y-4857500D01*
X8752500Y-5012500D02*
X8847500Y-5107500D01*
X8847500Y-5012500D02*
X8752500Y-5107500D01*
X8752500Y-5262500D02*
X8847500Y-5357500D01*
X8847500Y-5262500D02*
X8752500Y-5357500D01*
X8752500Y-5512500D02*
X8847500Y-5607500D01*
X8847500Y-5512500D02*
X8752500Y-5607500D01*
X8850000Y-1500000D02*
G75*
G02*
X8750000Y-1500000I-50000J0D01*
G01*
X8750000Y-1500000D02*
G75*
G02*
X8850000Y-1500000I50000J0D01*
G01*
X8850000Y-1750000D02*
G75*
G02*
X8750000Y-1750000I-50000J0D01*
G01*
X8750000Y-1750000D02*
G75*
G02*
X8850000Y-1750000I50000J0D01*
G01*
X8850000Y-6300000D02*
G75*
G02*
X8750000Y-6300000I-50000J0D01*
G01*
X8750000Y-6300000D02*
G75*
G02*
X8850000Y-6300000I50000J0D01*
G01*
X8850000Y-6550000D02*
G75*
G02*
X8750000Y-6550000I-50000J0D01*
G01*
X8750000Y-6550000D02*
G75*
G02*
X8850000Y-6550000I50000J0D01*
G01*
D12*
X3850000Y-301000D02*
X3850000Y-405000D01*
X3798000Y-353000D02*
X3902000Y-353000D01*
X3850000Y-1911000D02*
X3850000Y-2015000D01*
X3798000Y-1963000D02*
X3902000Y-1963000D01*
X6506000Y-3753000D02*
X6506000Y-3857000D01*
X6454000Y-3805000D02*
X6558000Y-3805000D01*
X6506000Y-4007000D02*
X6506000Y-4111000D01*
X6454000Y-4059000D02*
X6558000Y-4059000D01*
X6506000Y-4261000D02*
X6506000Y-4365000D01*
X6454000Y-4313000D02*
X6558000Y-4313000D01*
X6506000Y-4515000D02*
X6506000Y-4619000D01*
X6454000Y-4567000D02*
X6558000Y-4567000D01*
X6506000Y-4769000D02*
X6506000Y-4873000D01*
X6454000Y-4821000D02*
X6558000Y-4821000D01*
X6506000Y-5023000D02*
X6506000Y-5127000D01*
X6454000Y-5075000D02*
X6558000Y-5075000D01*
X6514000Y-5733000D02*
X6514000Y-5837000D01*
X6462000Y-5785000D02*
X6566000Y-5785000D01*
X6514000Y-5987000D02*
X6514000Y-6091000D01*
X6462000Y-6039000D02*
X6566000Y-6039000D01*
X6514000Y-6241000D02*
X6514000Y-6345000D01*
X6462000Y-6293000D02*
X6566000Y-6293000D01*
X6514000Y-6495000D02*
X6514000Y-6599000D01*
X6462000Y-6547000D02*
X6566000Y-6547000D01*
X6514000Y-6749000D02*
X6514000Y-6853000D01*
X6462000Y-6801000D02*
X6566000Y-6801000D01*
X6514000Y-7003000D02*
X6514000Y-7107000D01*
X6462000Y-7055000D02*
X6566000Y-7055000D01*
X7553000Y-301000D02*
X7553000Y-405000D01*
X7501000Y-353000D02*
X7605000Y-353000D01*
X7553000Y-1911000D02*
X7553000Y-2015000D01*
X7501000Y-1963000D02*
X7605000Y-1963000D01*
X8026000Y-3753000D02*
X8026000Y-3857000D01*
X7974000Y-3805000D02*
X8078000Y-3805000D01*
X8026000Y-4007000D02*
X8026000Y-4111000D01*
X7974000Y-4059000D02*
X8078000Y-4059000D01*
X8026000Y-4261000D02*
X8026000Y-4365000D01*
X7974000Y-4313000D02*
X8078000Y-4313000D01*
X8026000Y-4515000D02*
X8026000Y-4619000D01*
X7974000Y-4567000D02*
X8078000Y-4567000D01*
X8026000Y-4769000D02*
X8026000Y-4873000D01*
X7974000Y-4821000D02*
X8078000Y-4821000D01*
X8026000Y-5023000D02*
X8026000Y-5127000D01*
X7974000Y-5075000D02*
X8078000Y-5075000D01*
X8034000Y-5733000D02*
X8034000Y-5837000D01*
X7982000Y-5785000D02*
X8086000Y-5785000D01*
X8034000Y-5987000D02*
X8034000Y-6091000D01*
X7982000Y-6039000D02*
X8086000Y-6039000D01*
X8034000Y-6241000D02*
X8034000Y-6345000D01*
X7982000Y-6293000D02*
X8086000Y-6293000D01*
X8034000Y-6495000D02*
X8034000Y-6599000D01*
X7982000Y-6547000D02*
X8086000Y-6547000D01*
X8034000Y-6749000D02*
X8034000Y-6853000D01*
X7982000Y-6801000D02*
X8086000Y-6801000D01*
X8034000Y-7003000D02*
X8034000Y-7107000D01*
X7982000Y-7055000D02*
X8086000Y-7055000D01*
D13*
X5407712Y-3881962D02*
X5407712Y-3790038D01*
X5315788Y-3790038D01*
X5315788Y-3881962D01*
X5407712Y-3881962D01*
X5407712Y-4381962D02*
X5407712Y-4290038D01*
X5315788Y-4290038D01*
X5315788Y-4381962D01*
X5407712Y-4381962D01*
X5425962Y-5088962D02*
X5425962Y-4997038D01*
X5334038Y-4997038D01*
X5334038Y-5088962D01*
X5425962Y-5088962D01*
X5425962Y-5588962D02*
X5425962Y-5497038D01*
X5334038Y-5497038D01*
X5334038Y-5588962D01*
X5425962Y-5588962D01*
X5432712Y-6356462D02*
X5432712Y-6264538D01*
X5340788Y-6264538D01*
X5340788Y-6356462D01*
X5432712Y-6356462D01*
X5432712Y-6864462D02*
X5432712Y-6772538D01*
X5340788Y-6772538D01*
X5340788Y-6864462D01*
X5432712Y-6864462D01*
X5451962Y-2862962D02*
X5451962Y-2771038D01*
X5360038Y-2771038D01*
X5360038Y-2862962D01*
X5451962Y-2862962D01*
X7635962Y-2862962D02*
X7635962Y-2771038D01*
X7544038Y-2771038D01*
X7544038Y-2862962D01*
X7635962Y-2862962D01*
D14*
X8113000Y-2249000D02*
X8183000Y-2179000D01*
X8113000Y-2109000D01*
X8043000Y-2179000D01*
X8113000Y-2249000D01*
X8113000Y-3265000D02*
X8183000Y-3195000D01*
X8113000Y-3125000D01*
X8043000Y-3195000D01*
X8113000Y-3265000D01*
D10*
X250777Y-9521484D02*
X250777Y-9321484D01*
X250777Y-9321484D02*
X298396Y-9321484D01*
X298396Y-9321484D02*
X326967Y-9331008D01*
X326967Y-9331008D02*
X346015Y-9350055D01*
X346015Y-9350055D02*
X355539Y-9369103D01*
X355539Y-9369103D02*
X365062Y-9407198D01*
X365062Y-9407198D02*
X365062Y-9435770D01*
X365062Y-9435770D02*
X355539Y-9473865D01*
X355539Y-9473865D02*
X346015Y-9492912D01*
X346015Y-9492912D02*
X326967Y-9511960D01*
X326967Y-9511960D02*
X298396Y-9521484D01*
X298396Y-9521484D02*
X250777Y-9521484D01*
X450777Y-9521484D02*
X450777Y-9388150D01*
X450777Y-9426246D02*
X460301Y-9407198D01*
X460301Y-9407198D02*
X469824Y-9397674D01*
X469824Y-9397674D02*
X488872Y-9388150D01*
X488872Y-9388150D02*
X507920Y-9388150D01*
X574586Y-9521484D02*
X574586Y-9388150D01*
X574586Y-9321484D02*
X565063Y-9331008D01*
X565063Y-9331008D02*
X574586Y-9340531D01*
X574586Y-9340531D02*
X584110Y-9331008D01*
X584110Y-9331008D02*
X574586Y-9321484D01*
X574586Y-9321484D02*
X574586Y-9340531D01*
X698396Y-9521484D02*
X679348Y-9511960D01*
X679348Y-9511960D02*
X669824Y-9492912D01*
X669824Y-9492912D02*
X669824Y-9321484D01*
X803158Y-9521484D02*
X784110Y-9511960D01*
X784110Y-9511960D02*
X774586Y-9492912D01*
X774586Y-9492912D02*
X774586Y-9321484D01*
X1031729Y-9521484D02*
X1031729Y-9321484D01*
X1031729Y-9321484D02*
X1098396Y-9464341D01*
X1098396Y-9464341D02*
X1165063Y-9321484D01*
X1165063Y-9321484D02*
X1165063Y-9521484D01*
X1346015Y-9521484D02*
X1346015Y-9416722D01*
X1346015Y-9416722D02*
X1336491Y-9397674D01*
X1336491Y-9397674D02*
X1317444Y-9388150D01*
X1317444Y-9388150D02*
X1279348Y-9388150D01*
X1279348Y-9388150D02*
X1260301Y-9397674D01*
X1346015Y-9511960D02*
X1326967Y-9521484D01*
X1326967Y-9521484D02*
X1279348Y-9521484D01*
X1279348Y-9521484D02*
X1260301Y-9511960D01*
X1260301Y-9511960D02*
X1250777Y-9492912D01*
X1250777Y-9492912D02*
X1250777Y-9473865D01*
X1250777Y-9473865D02*
X1260301Y-9454817D01*
X1260301Y-9454817D02*
X1279348Y-9445293D01*
X1279348Y-9445293D02*
X1326967Y-9445293D01*
X1326967Y-9445293D02*
X1346015Y-9435770D01*
X1441253Y-9388150D02*
X1441253Y-9588150D01*
X1441253Y-9397674D02*
X1460301Y-9388150D01*
X1460301Y-9388150D02*
X1498396Y-9388150D01*
X1498396Y-9388150D02*
X1517443Y-9397674D01*
X1517443Y-9397674D02*
X1526967Y-9407198D01*
X1526967Y-9407198D02*
X1536491Y-9426246D01*
X1536491Y-9426246D02*
X1536491Y-9483389D01*
X1536491Y-9483389D02*
X1526967Y-9502436D01*
X1526967Y-9502436D02*
X1517443Y-9511960D01*
X1517443Y-9511960D02*
X1498396Y-9521484D01*
X1498396Y-9521484D02*
X1460301Y-9521484D01*
X1460301Y-9521484D02*
X1441253Y-9511960D01*
X1622205Y-9502436D02*
X1631729Y-9511960D01*
X1631729Y-9511960D02*
X1622205Y-9521484D01*
X1622205Y-9521484D02*
X1612682Y-9511960D01*
X1612682Y-9511960D02*
X1622205Y-9502436D01*
X1622205Y-9502436D02*
X1622205Y-9521484D01*
X1622205Y-9397674D02*
X1631729Y-9407198D01*
X1631729Y-9407198D02*
X1622205Y-9416722D01*
X1622205Y-9416722D02*
X1612682Y-9407198D01*
X1612682Y-9407198D02*
X1622205Y-9397674D01*
X1622205Y-9397674D02*
X1622205Y-9416722D01*
D11*
X-105000Y-9802500D02*
X-10000Y-9897500D01*
X-10000Y-9802500D02*
X-105000Y-9897500D01*
D10*
X288872Y-9741484D02*
X307920Y-9741484D01*
X307920Y-9741484D02*
X326967Y-9751008D01*
X326967Y-9751008D02*
X336491Y-9760531D01*
X336491Y-9760531D02*
X346015Y-9779579D01*
X346015Y-9779579D02*
X355539Y-9817674D01*
X355539Y-9817674D02*
X355539Y-9865293D01*
X355539Y-9865293D02*
X346015Y-9903389D01*
X346015Y-9903389D02*
X336491Y-9922436D01*
X336491Y-9922436D02*
X326967Y-9931960D01*
X326967Y-9931960D02*
X307920Y-9941484D01*
X307920Y-9941484D02*
X288872Y-9941484D01*
X288872Y-9941484D02*
X269824Y-9931960D01*
X269824Y-9931960D02*
X260301Y-9922436D01*
X260301Y-9922436D02*
X250777Y-9903389D01*
X250777Y-9903389D02*
X241253Y-9865293D01*
X241253Y-9865293D02*
X241253Y-9817674D01*
X241253Y-9817674D02*
X250777Y-9779579D01*
X250777Y-9779579D02*
X260301Y-9760531D01*
X260301Y-9760531D02*
X269824Y-9751008D01*
X269824Y-9751008D02*
X288872Y-9741484D01*
X441253Y-9922436D02*
X450777Y-9931960D01*
X450777Y-9931960D02*
X441253Y-9941484D01*
X441253Y-9941484D02*
X431729Y-9931960D01*
X431729Y-9931960D02*
X441253Y-9922436D01*
X441253Y-9922436D02*
X441253Y-9941484D01*
X546015Y-9941484D02*
X584110Y-9941484D01*
X584110Y-9941484D02*
X603158Y-9931960D01*
X603158Y-9931960D02*
X612682Y-9922436D01*
X612682Y-9922436D02*
X631729Y-9893865D01*
X631729Y-9893865D02*
X641253Y-9855770D01*
X641253Y-9855770D02*
X641253Y-9779579D01*
X641253Y-9779579D02*
X631729Y-9760531D01*
X631729Y-9760531D02*
X622205Y-9751008D01*
X622205Y-9751008D02*
X603158Y-9741484D01*
X603158Y-9741484D02*
X565063Y-9741484D01*
X565063Y-9741484D02*
X546015Y-9751008D01*
X546015Y-9751008D02*
X536491Y-9760531D01*
X536491Y-9760531D02*
X526967Y-9779579D01*
X526967Y-9779579D02*
X526967Y-9827198D01*
X526967Y-9827198D02*
X536491Y-9846246D01*
X536491Y-9846246D02*
X546015Y-9855770D01*
X546015Y-9855770D02*
X565063Y-9865293D01*
X565063Y-9865293D02*
X603158Y-9865293D01*
X603158Y-9865293D02*
X622205Y-9855770D01*
X622205Y-9855770D02*
X631729Y-9846246D01*
X631729Y-9846246D02*
X641253Y-9827198D01*
X822205Y-9741484D02*
X726967Y-9741484D01*
X726967Y-9741484D02*
X717443Y-9836722D01*
X717443Y-9836722D02*
X726967Y-9827198D01*
X726967Y-9827198D02*
X746015Y-9817674D01*
X746015Y-9817674D02*
X793634Y-9817674D01*
X793634Y-9817674D02*
X812682Y-9827198D01*
X812682Y-9827198D02*
X822205Y-9836722D01*
X822205Y-9836722D02*
X831729Y-9855770D01*
X831729Y-9855770D02*
X831729Y-9903389D01*
X831729Y-9903389D02*
X822205Y-9922436D01*
X822205Y-9922436D02*
X812682Y-9931960D01*
X812682Y-9931960D02*
X793634Y-9941484D01*
X793634Y-9941484D02*
X746015Y-9941484D01*
X746015Y-9941484D02*
X726967Y-9931960D01*
X726967Y-9931960D02*
X717443Y-9922436D01*
X955539Y-9741484D02*
X974586Y-9741484D01*
X974586Y-9741484D02*
X993634Y-9751008D01*
X993634Y-9751008D02*
X1003158Y-9760531D01*
X1003158Y-9760531D02*
X1012682Y-9779579D01*
X1012682Y-9779579D02*
X1022205Y-9817674D01*
X1022205Y-9817674D02*
X1022205Y-9865293D01*
X1022205Y-9865293D02*
X1012682Y-9903389D01*
X1012682Y-9903389D02*
X1003158Y-9922436D01*
X1003158Y-9922436D02*
X993634Y-9931960D01*
X993634Y-9931960D02*
X974586Y-9941484D01*
X974586Y-9941484D02*
X955539Y-9941484D01*
X955539Y-9941484D02*
X936491Y-9931960D01*
X936491Y-9931960D02*
X926967Y-9922436D01*
X926967Y-9922436D02*
X917443Y-9903389D01*
X917443Y-9903389D02*
X907920Y-9865293D01*
X907920Y-9865293D02*
X907920Y-9817674D01*
X907920Y-9817674D02*
X917443Y-9779579D01*
X917443Y-9779579D02*
X926967Y-9760531D01*
X926967Y-9760531D02*
X936491Y-9751008D01*
X936491Y-9751008D02*
X955539Y-9741484D01*
X1107920Y-9941484D02*
X1107920Y-9808150D01*
X1107920Y-9827198D02*
X1117444Y-9817674D01*
X1117444Y-9817674D02*
X1136491Y-9808150D01*
X1136491Y-9808150D02*
X1165063Y-9808150D01*
X1165063Y-9808150D02*
X1184110Y-9817674D01*
X1184110Y-9817674D02*
X1193634Y-9836722D01*
X1193634Y-9836722D02*
X1193634Y-9941484D01*
X1193634Y-9836722D02*
X1203158Y-9817674D01*
X1203158Y-9817674D02*
X1222205Y-9808150D01*
X1222205Y-9808150D02*
X1250777Y-9808150D01*
X1250777Y-9808150D02*
X1269825Y-9817674D01*
X1269825Y-9817674D02*
X1279348Y-9836722D01*
X1279348Y-9836722D02*
X1279348Y-9941484D01*
X1374586Y-9941484D02*
X1374586Y-9808150D01*
X1374586Y-9827198D02*
X1384110Y-9817674D01*
X1384110Y-9817674D02*
X1403158Y-9808150D01*
X1403158Y-9808150D02*
X1431729Y-9808150D01*
X1431729Y-9808150D02*
X1450777Y-9817674D01*
X1450777Y-9817674D02*
X1460301Y-9836722D01*
X1460301Y-9836722D02*
X1460301Y-9941484D01*
X1460301Y-9836722D02*
X1469824Y-9817674D01*
X1469824Y-9817674D02*
X1488872Y-9808150D01*
X1488872Y-9808150D02*
X1517443Y-9808150D01*
X1517443Y-9808150D02*
X1536491Y-9817674D01*
X1536491Y-9817674D02*
X1546015Y-9836722D01*
X1546015Y-9836722D02*
X1546015Y-9941484D01*
X1936491Y-9731960D02*
X1765063Y-9989103D01*
X2193634Y-9741484D02*
X2212682Y-9741484D01*
X2212682Y-9741484D02*
X2231729Y-9751008D01*
X2231729Y-9751008D02*
X2241253Y-9760531D01*
X2241253Y-9760531D02*
X2250777Y-9779579D01*
X2250777Y-9779579D02*
X2260301Y-9817674D01*
X2260301Y-9817674D02*
X2260301Y-9865293D01*
X2260301Y-9865293D02*
X2250777Y-9903389D01*
X2250777Y-9903389D02*
X2241253Y-9922436D01*
X2241253Y-9922436D02*
X2231729Y-9931960D01*
X2231729Y-9931960D02*
X2212682Y-9941484D01*
X2212682Y-9941484D02*
X2193634Y-9941484D01*
X2193634Y-9941484D02*
X2174587Y-9931960D01*
X2174587Y-9931960D02*
X2165063Y-9922436D01*
X2165063Y-9922436D02*
X2155539Y-9903389D01*
X2155539Y-9903389D02*
X2146015Y-9865293D01*
X2146015Y-9865293D02*
X2146015Y-9817674D01*
X2146015Y-9817674D02*
X2155539Y-9779579D01*
X2155539Y-9779579D02*
X2165063Y-9760531D01*
X2165063Y-9760531D02*
X2174587Y-9751008D01*
X2174587Y-9751008D02*
X2193634Y-9741484D01*
X2346015Y-9922436D02*
X2355539Y-9931960D01*
X2355539Y-9931960D02*
X2346015Y-9941484D01*
X2346015Y-9941484D02*
X2336491Y-9931960D01*
X2336491Y-9931960D02*
X2346015Y-9922436D01*
X2346015Y-9922436D02*
X2346015Y-9941484D01*
X2479348Y-9741484D02*
X2498396Y-9741484D01*
X2498396Y-9741484D02*
X2517444Y-9751008D01*
X2517444Y-9751008D02*
X2526968Y-9760531D01*
X2526968Y-9760531D02*
X2536491Y-9779579D01*
X2536491Y-9779579D02*
X2546015Y-9817674D01*
X2546015Y-9817674D02*
X2546015Y-9865293D01*
X2546015Y-9865293D02*
X2536491Y-9903389D01*
X2536491Y-9903389D02*
X2526968Y-9922436D01*
X2526968Y-9922436D02*
X2517444Y-9931960D01*
X2517444Y-9931960D02*
X2498396Y-9941484D01*
X2498396Y-9941484D02*
X2479348Y-9941484D01*
X2479348Y-9941484D02*
X2460301Y-9931960D01*
X2460301Y-9931960D02*
X2450777Y-9922436D01*
X2450777Y-9922436D02*
X2441253Y-9903389D01*
X2441253Y-9903389D02*
X2431729Y-9865293D01*
X2431729Y-9865293D02*
X2431729Y-9817674D01*
X2431729Y-9817674D02*
X2441253Y-9779579D01*
X2441253Y-9779579D02*
X2450777Y-9760531D01*
X2450777Y-9760531D02*
X2460301Y-9751008D01*
X2460301Y-9751008D02*
X2479348Y-9741484D01*
X2612682Y-9741484D02*
X2736491Y-9741484D01*
X2736491Y-9741484D02*
X2669825Y-9817674D01*
X2669825Y-9817674D02*
X2698396Y-9817674D01*
X2698396Y-9817674D02*
X2717444Y-9827198D01*
X2717444Y-9827198D02*
X2726968Y-9836722D01*
X2726968Y-9836722D02*
X2736491Y-9855770D01*
X2736491Y-9855770D02*
X2736491Y-9903389D01*
X2736491Y-9903389D02*
X2726968Y-9922436D01*
X2726968Y-9922436D02*
X2717444Y-9931960D01*
X2717444Y-9931960D02*
X2698396Y-9941484D01*
X2698396Y-9941484D02*
X2641253Y-9941484D01*
X2641253Y-9941484D02*
X2622206Y-9931960D01*
X2622206Y-9931960D02*
X2612682Y-9922436D01*
X2803158Y-9741484D02*
X2936491Y-9741484D01*
X2936491Y-9741484D02*
X2850777Y-9941484D01*
X3098396Y-9808150D02*
X3098396Y-9941484D01*
X3050777Y-9731960D02*
X3003158Y-9874817D01*
X3003158Y-9874817D02*
X3126967Y-9874817D01*
X3193634Y-9741484D02*
X3193634Y-9779579D01*
X3269825Y-9741484D02*
X3269825Y-9779579D01*
X3565063Y-10017674D02*
X3555539Y-10008150D01*
X3555539Y-10008150D02*
X3536491Y-9979579D01*
X3536491Y-9979579D02*
X3526968Y-9960531D01*
X3526968Y-9960531D02*
X3517444Y-9931960D01*
X3517444Y-9931960D02*
X3507920Y-9884341D01*
X3507920Y-9884341D02*
X3507920Y-9846246D01*
X3507920Y-9846246D02*
X3517444Y-9798627D01*
X3517444Y-9798627D02*
X3526968Y-9770055D01*
X3526968Y-9770055D02*
X3536491Y-9751008D01*
X3536491Y-9751008D02*
X3555539Y-9722436D01*
X3555539Y-9722436D02*
X3565063Y-9712912D01*
X3746015Y-9941484D02*
X3631729Y-9941484D01*
X3688872Y-9941484D02*
X3688872Y-9741484D01*
X3688872Y-9741484D02*
X3669825Y-9770055D01*
X3669825Y-9770055D02*
X3650777Y-9789103D01*
X3650777Y-9789103D02*
X3631729Y-9798627D01*
X3936491Y-9941484D02*
X3822206Y-9941484D01*
X3879348Y-9941484D02*
X3879348Y-9741484D01*
X3879348Y-9741484D02*
X3860301Y-9770055D01*
X3860301Y-9770055D02*
X3841253Y-9789103D01*
X3841253Y-9789103D02*
X3822206Y-9798627D01*
X4174587Y-9941484D02*
X4174587Y-9741484D01*
X4260301Y-9941484D02*
X4260301Y-9836722D01*
X4260301Y-9836722D02*
X4250777Y-9817674D01*
X4250777Y-9817674D02*
X4231730Y-9808150D01*
X4231730Y-9808150D02*
X4203158Y-9808150D01*
X4203158Y-9808150D02*
X4184110Y-9817674D01*
X4184110Y-9817674D02*
X4174587Y-9827198D01*
X4384111Y-9941484D02*
X4365063Y-9931960D01*
X4365063Y-9931960D02*
X4355539Y-9922436D01*
X4355539Y-9922436D02*
X4346015Y-9903389D01*
X4346015Y-9903389D02*
X4346015Y-9846246D01*
X4346015Y-9846246D02*
X4355539Y-9827198D01*
X4355539Y-9827198D02*
X4365063Y-9817674D01*
X4365063Y-9817674D02*
X4384111Y-9808150D01*
X4384111Y-9808150D02*
X4412682Y-9808150D01*
X4412682Y-9808150D02*
X4431730Y-9817674D01*
X4431730Y-9817674D02*
X4441253Y-9827198D01*
X4441253Y-9827198D02*
X4450777Y-9846246D01*
X4450777Y-9846246D02*
X4450777Y-9903389D01*
X4450777Y-9903389D02*
X4441253Y-9922436D01*
X4441253Y-9922436D02*
X4431730Y-9931960D01*
X4431730Y-9931960D02*
X4412682Y-9941484D01*
X4412682Y-9941484D02*
X4384111Y-9941484D01*
X4565063Y-9941484D02*
X4546015Y-9931960D01*
X4546015Y-9931960D02*
X4536492Y-9912912D01*
X4536492Y-9912912D02*
X4536492Y-9741484D01*
X4717444Y-9931960D02*
X4698396Y-9941484D01*
X4698396Y-9941484D02*
X4660301Y-9941484D01*
X4660301Y-9941484D02*
X4641253Y-9931960D01*
X4641253Y-9931960D02*
X4631730Y-9912912D01*
X4631730Y-9912912D02*
X4631730Y-9836722D01*
X4631730Y-9836722D02*
X4641253Y-9817674D01*
X4641253Y-9817674D02*
X4660301Y-9808150D01*
X4660301Y-9808150D02*
X4698396Y-9808150D01*
X4698396Y-9808150D02*
X4717444Y-9817674D01*
X4717444Y-9817674D02*
X4726968Y-9836722D01*
X4726968Y-9836722D02*
X4726968Y-9855770D01*
X4726968Y-9855770D02*
X4631730Y-9874817D01*
X4803158Y-9931960D02*
X4822206Y-9941484D01*
X4822206Y-9941484D02*
X4860301Y-9941484D01*
X4860301Y-9941484D02*
X4879349Y-9931960D01*
X4879349Y-9931960D02*
X4888873Y-9912912D01*
X4888873Y-9912912D02*
X4888873Y-9903389D01*
X4888873Y-9903389D02*
X4879349Y-9884341D01*
X4879349Y-9884341D02*
X4860301Y-9874817D01*
X4860301Y-9874817D02*
X4831730Y-9874817D01*
X4831730Y-9874817D02*
X4812682Y-9865293D01*
X4812682Y-9865293D02*
X4803158Y-9846246D01*
X4803158Y-9846246D02*
X4803158Y-9836722D01*
X4803158Y-9836722D02*
X4812682Y-9817674D01*
X4812682Y-9817674D02*
X4831730Y-9808150D01*
X4831730Y-9808150D02*
X4860301Y-9808150D01*
X4860301Y-9808150D02*
X4879349Y-9817674D01*
X4955539Y-10017674D02*
X4965063Y-10008150D01*
X4965063Y-10008150D02*
X4984111Y-9979579D01*
X4984111Y-9979579D02*
X4993634Y-9960531D01*
X4993634Y-9960531D02*
X5003158Y-9931960D01*
X5003158Y-9931960D02*
X5012682Y-9884341D01*
X5012682Y-9884341D02*
X5012682Y-9846246D01*
X5012682Y-9846246D02*
X5003158Y-9798627D01*
X5003158Y-9798627D02*
X4993634Y-9770055D01*
X4993634Y-9770055D02*
X4984111Y-9751008D01*
X4984111Y-9751008D02*
X4965063Y-9722436D01*
X4965063Y-9722436D02*
X4955539Y-9712912D01*
D11*
X-10000Y-10114000D02*
G75*
G02*
X-110000Y-10114000I-50000J0D01*
G01*
X-110000Y-10114000D02*
G75*
G02*
X-10000Y-10114000I50000J0D01*
G01*
D10*
X355539Y-10205484D02*
X241253Y-10205484D01*
X298396Y-10205484D02*
X298396Y-10005484D01*
X298396Y-10005484D02*
X279348Y-10034055D01*
X279348Y-10034055D02*
X260301Y-10053103D01*
X260301Y-10053103D02*
X241253Y-10062627D01*
X441253Y-10186436D02*
X450777Y-10195960D01*
X450777Y-10195960D02*
X441253Y-10205484D01*
X441253Y-10205484D02*
X431729Y-10195960D01*
X431729Y-10195960D02*
X441253Y-10186436D01*
X441253Y-10186436D02*
X441253Y-10205484D01*
X574586Y-10005484D02*
X593634Y-10005484D01*
X593634Y-10005484D02*
X612682Y-10015008D01*
X612682Y-10015008D02*
X622205Y-10024531D01*
X622205Y-10024531D02*
X631729Y-10043579D01*
X631729Y-10043579D02*
X641253Y-10081674D01*
X641253Y-10081674D02*
X641253Y-10129293D01*
X641253Y-10129293D02*
X631729Y-10167389D01*
X631729Y-10167389D02*
X622205Y-10186436D01*
X622205Y-10186436D02*
X612682Y-10195960D01*
X612682Y-10195960D02*
X593634Y-10205484D01*
X593634Y-10205484D02*
X574586Y-10205484D01*
X574586Y-10205484D02*
X555539Y-10195960D01*
X555539Y-10195960D02*
X546015Y-10186436D01*
X546015Y-10186436D02*
X536491Y-10167389D01*
X536491Y-10167389D02*
X526967Y-10129293D01*
X526967Y-10129293D02*
X526967Y-10081674D01*
X526967Y-10081674D02*
X536491Y-10043579D01*
X536491Y-10043579D02*
X546015Y-10024531D01*
X546015Y-10024531D02*
X555539Y-10015008D01*
X555539Y-10015008D02*
X574586Y-10005484D01*
X765062Y-10005484D02*
X784110Y-10005484D01*
X784110Y-10005484D02*
X803158Y-10015008D01*
X803158Y-10015008D02*
X812682Y-10024531D01*
X812682Y-10024531D02*
X822205Y-10043579D01*
X822205Y-10043579D02*
X831729Y-10081674D01*
X831729Y-10081674D02*
X831729Y-10129293D01*
X831729Y-10129293D02*
X822205Y-10167389D01*
X822205Y-10167389D02*
X812682Y-10186436D01*
X812682Y-10186436D02*
X803158Y-10195960D01*
X803158Y-10195960D02*
X784110Y-10205484D01*
X784110Y-10205484D02*
X765062Y-10205484D01*
X765062Y-10205484D02*
X746015Y-10195960D01*
X746015Y-10195960D02*
X736491Y-10186436D01*
X736491Y-10186436D02*
X726967Y-10167389D01*
X726967Y-10167389D02*
X717443Y-10129293D01*
X717443Y-10129293D02*
X717443Y-10081674D01*
X717443Y-10081674D02*
X726967Y-10043579D01*
X726967Y-10043579D02*
X736491Y-10024531D01*
X736491Y-10024531D02*
X746015Y-10015008D01*
X746015Y-10015008D02*
X765062Y-10005484D01*
X955539Y-10005484D02*
X974586Y-10005484D01*
X974586Y-10005484D02*
X993634Y-10015008D01*
X993634Y-10015008D02*
X1003158Y-10024531D01*
X1003158Y-10024531D02*
X1012682Y-10043579D01*
X1012682Y-10043579D02*
X1022205Y-10081674D01*
X1022205Y-10081674D02*
X1022205Y-10129293D01*
X1022205Y-10129293D02*
X1012682Y-10167389D01*
X1012682Y-10167389D02*
X1003158Y-10186436D01*
X1003158Y-10186436D02*
X993634Y-10195960D01*
X993634Y-10195960D02*
X974586Y-10205484D01*
X974586Y-10205484D02*
X955539Y-10205484D01*
X955539Y-10205484D02*
X936491Y-10195960D01*
X936491Y-10195960D02*
X926967Y-10186436D01*
X926967Y-10186436D02*
X917443Y-10167389D01*
X917443Y-10167389D02*
X907920Y-10129293D01*
X907920Y-10129293D02*
X907920Y-10081674D01*
X907920Y-10081674D02*
X917443Y-10043579D01*
X917443Y-10043579D02*
X926967Y-10024531D01*
X926967Y-10024531D02*
X936491Y-10015008D01*
X936491Y-10015008D02*
X955539Y-10005484D01*
X1107920Y-10205484D02*
X1107920Y-10072150D01*
X1107920Y-10091198D02*
X1117444Y-10081674D01*
X1117444Y-10081674D02*
X1136491Y-10072150D01*
X1136491Y-10072150D02*
X1165063Y-10072150D01*
X1165063Y-10072150D02*
X1184110Y-10081674D01*
X1184110Y-10081674D02*
X1193634Y-10100722D01*
X1193634Y-10100722D02*
X1193634Y-10205484D01*
X1193634Y-10100722D02*
X1203158Y-10081674D01*
X1203158Y-10081674D02*
X1222205Y-10072150D01*
X1222205Y-10072150D02*
X1250777Y-10072150D01*
X1250777Y-10072150D02*
X1269825Y-10081674D01*
X1269825Y-10081674D02*
X1279348Y-10100722D01*
X1279348Y-10100722D02*
X1279348Y-10205484D01*
X1374586Y-10205484D02*
X1374586Y-10072150D01*
X1374586Y-10091198D02*
X1384110Y-10081674D01*
X1384110Y-10081674D02*
X1403158Y-10072150D01*
X1403158Y-10072150D02*
X1431729Y-10072150D01*
X1431729Y-10072150D02*
X1450777Y-10081674D01*
X1450777Y-10081674D02*
X1460301Y-10100722D01*
X1460301Y-10100722D02*
X1460301Y-10205484D01*
X1460301Y-10100722D02*
X1469824Y-10081674D01*
X1469824Y-10081674D02*
X1488872Y-10072150D01*
X1488872Y-10072150D02*
X1517443Y-10072150D01*
X1517443Y-10072150D02*
X1536491Y-10081674D01*
X1536491Y-10081674D02*
X1546015Y-10100722D01*
X1546015Y-10100722D02*
X1546015Y-10205484D01*
X1936491Y-9995960D02*
X1765063Y-10253103D01*
X2193634Y-10005484D02*
X2212682Y-10005484D01*
X2212682Y-10005484D02*
X2231729Y-10015008D01*
X2231729Y-10015008D02*
X2241253Y-10024531D01*
X2241253Y-10024531D02*
X2250777Y-10043579D01*
X2250777Y-10043579D02*
X2260301Y-10081674D01*
X2260301Y-10081674D02*
X2260301Y-10129293D01*
X2260301Y-10129293D02*
X2250777Y-10167389D01*
X2250777Y-10167389D02*
X2241253Y-10186436D01*
X2241253Y-10186436D02*
X2231729Y-10195960D01*
X2231729Y-10195960D02*
X2212682Y-10205484D01*
X2212682Y-10205484D02*
X2193634Y-10205484D01*
X2193634Y-10205484D02*
X2174587Y-10195960D01*
X2174587Y-10195960D02*
X2165063Y-10186436D01*
X2165063Y-10186436D02*
X2155539Y-10167389D01*
X2155539Y-10167389D02*
X2146015Y-10129293D01*
X2146015Y-10129293D02*
X2146015Y-10081674D01*
X2146015Y-10081674D02*
X2155539Y-10043579D01*
X2155539Y-10043579D02*
X2165063Y-10024531D01*
X2165063Y-10024531D02*
X2174587Y-10015008D01*
X2174587Y-10015008D02*
X2193634Y-10005484D01*
X2346015Y-10186436D02*
X2355539Y-10195960D01*
X2355539Y-10195960D02*
X2346015Y-10205484D01*
X2346015Y-10205484D02*
X2336491Y-10195960D01*
X2336491Y-10195960D02*
X2346015Y-10186436D01*
X2346015Y-10186436D02*
X2346015Y-10205484D01*
X2479348Y-10005484D02*
X2498396Y-10005484D01*
X2498396Y-10005484D02*
X2517444Y-10015008D01*
X2517444Y-10015008D02*
X2526968Y-10024531D01*
X2526968Y-10024531D02*
X2536491Y-10043579D01*
X2536491Y-10043579D02*
X2546015Y-10081674D01*
X2546015Y-10081674D02*
X2546015Y-10129293D01*
X2546015Y-10129293D02*
X2536491Y-10167389D01*
X2536491Y-10167389D02*
X2526968Y-10186436D01*
X2526968Y-10186436D02*
X2517444Y-10195960D01*
X2517444Y-10195960D02*
X2498396Y-10205484D01*
X2498396Y-10205484D02*
X2479348Y-10205484D01*
X2479348Y-10205484D02*
X2460301Y-10195960D01*
X2460301Y-10195960D02*
X2450777Y-10186436D01*
X2450777Y-10186436D02*
X2441253Y-10167389D01*
X2441253Y-10167389D02*
X2431729Y-10129293D01*
X2431729Y-10129293D02*
X2431729Y-10081674D01*
X2431729Y-10081674D02*
X2441253Y-10043579D01*
X2441253Y-10043579D02*
X2450777Y-10024531D01*
X2450777Y-10024531D02*
X2460301Y-10015008D01*
X2460301Y-10015008D02*
X2479348Y-10005484D01*
X2612682Y-10005484D02*
X2736491Y-10005484D01*
X2736491Y-10005484D02*
X2669825Y-10081674D01*
X2669825Y-10081674D02*
X2698396Y-10081674D01*
X2698396Y-10081674D02*
X2717444Y-10091198D01*
X2717444Y-10091198D02*
X2726968Y-10100722D01*
X2726968Y-10100722D02*
X2736491Y-10119770D01*
X2736491Y-10119770D02*
X2736491Y-10167389D01*
X2736491Y-10167389D02*
X2726968Y-10186436D01*
X2726968Y-10186436D02*
X2717444Y-10195960D01*
X2717444Y-10195960D02*
X2698396Y-10205484D01*
X2698396Y-10205484D02*
X2641253Y-10205484D01*
X2641253Y-10205484D02*
X2622206Y-10195960D01*
X2622206Y-10195960D02*
X2612682Y-10186436D01*
X2831729Y-10205484D02*
X2869825Y-10205484D01*
X2869825Y-10205484D02*
X2888872Y-10195960D01*
X2888872Y-10195960D02*
X2898396Y-10186436D01*
X2898396Y-10186436D02*
X2917444Y-10157865D01*
X2917444Y-10157865D02*
X2926967Y-10119770D01*
X2926967Y-10119770D02*
X2926967Y-10043579D01*
X2926967Y-10043579D02*
X2917444Y-10024531D01*
X2917444Y-10024531D02*
X2907920Y-10015008D01*
X2907920Y-10015008D02*
X2888872Y-10005484D01*
X2888872Y-10005484D02*
X2850777Y-10005484D01*
X2850777Y-10005484D02*
X2831729Y-10015008D01*
X2831729Y-10015008D02*
X2822206Y-10024531D01*
X2822206Y-10024531D02*
X2812682Y-10043579D01*
X2812682Y-10043579D02*
X2812682Y-10091198D01*
X2812682Y-10091198D02*
X2822206Y-10110246D01*
X2822206Y-10110246D02*
X2831729Y-10119770D01*
X2831729Y-10119770D02*
X2850777Y-10129293D01*
X2850777Y-10129293D02*
X2888872Y-10129293D01*
X2888872Y-10129293D02*
X2907920Y-10119770D01*
X2907920Y-10119770D02*
X2917444Y-10110246D01*
X2917444Y-10110246D02*
X2926967Y-10091198D01*
X3098396Y-10072150D02*
X3098396Y-10205484D01*
X3050777Y-9995960D02*
X3003158Y-10138817D01*
X3003158Y-10138817D02*
X3126967Y-10138817D01*
X3193634Y-10005484D02*
X3193634Y-10043579D01*
X3269825Y-10005484D02*
X3269825Y-10043579D01*
X3565063Y-10281674D02*
X3555539Y-10272150D01*
X3555539Y-10272150D02*
X3536491Y-10243579D01*
X3536491Y-10243579D02*
X3526968Y-10224531D01*
X3526968Y-10224531D02*
X3517444Y-10195960D01*
X3517444Y-10195960D02*
X3507920Y-10148341D01*
X3507920Y-10148341D02*
X3507920Y-10110246D01*
X3507920Y-10110246D02*
X3517444Y-10062627D01*
X3517444Y-10062627D02*
X3526968Y-10034055D01*
X3526968Y-10034055D02*
X3536491Y-10015008D01*
X3536491Y-10015008D02*
X3555539Y-9986436D01*
X3555539Y-9986436D02*
X3565063Y-9976912D01*
X3726968Y-10072150D02*
X3726968Y-10205484D01*
X3679348Y-9995960D02*
X3631729Y-10138817D01*
X3631729Y-10138817D02*
X3755539Y-10138817D01*
X3984110Y-10205484D02*
X3984110Y-10005484D01*
X4069825Y-10205484D02*
X4069825Y-10100722D01*
X4069825Y-10100722D02*
X4060301Y-10081674D01*
X4060301Y-10081674D02*
X4041253Y-10072150D01*
X4041253Y-10072150D02*
X4012682Y-10072150D01*
X4012682Y-10072150D02*
X3993634Y-10081674D01*
X3993634Y-10081674D02*
X3984110Y-10091198D01*
X4193634Y-10205484D02*
X4174587Y-10195960D01*
X4174587Y-10195960D02*
X4165063Y-10186436D01*
X4165063Y-10186436D02*
X4155539Y-10167389D01*
X4155539Y-10167389D02*
X4155539Y-10110246D01*
X4155539Y-10110246D02*
X4165063Y-10091198D01*
X4165063Y-10091198D02*
X4174587Y-10081674D01*
X4174587Y-10081674D02*
X4193634Y-10072150D01*
X4193634Y-10072150D02*
X4222206Y-10072150D01*
X4222206Y-10072150D02*
X4241253Y-10081674D01*
X4241253Y-10081674D02*
X4250777Y-10091198D01*
X4250777Y-10091198D02*
X4260301Y-10110246D01*
X4260301Y-10110246D02*
X4260301Y-10167389D01*
X4260301Y-10167389D02*
X4250777Y-10186436D01*
X4250777Y-10186436D02*
X4241253Y-10195960D01*
X4241253Y-10195960D02*
X4222206Y-10205484D01*
X4222206Y-10205484D02*
X4193634Y-10205484D01*
X4374587Y-10205484D02*
X4355539Y-10195960D01*
X4355539Y-10195960D02*
X4346015Y-10176912D01*
X4346015Y-10176912D02*
X4346015Y-10005484D01*
X4526968Y-10195960D02*
X4507920Y-10205484D01*
X4507920Y-10205484D02*
X4469825Y-10205484D01*
X4469825Y-10205484D02*
X4450777Y-10195960D01*
X4450777Y-10195960D02*
X4441253Y-10176912D01*
X4441253Y-10176912D02*
X4441253Y-10100722D01*
X4441253Y-10100722D02*
X4450777Y-10081674D01*
X4450777Y-10081674D02*
X4469825Y-10072150D01*
X4469825Y-10072150D02*
X4507920Y-10072150D01*
X4507920Y-10072150D02*
X4526968Y-10081674D01*
X4526968Y-10081674D02*
X4536492Y-10100722D01*
X4536492Y-10100722D02*
X4536492Y-10119770D01*
X4536492Y-10119770D02*
X4441253Y-10138817D01*
X4612682Y-10195960D02*
X4631730Y-10205484D01*
X4631730Y-10205484D02*
X4669825Y-10205484D01*
X4669825Y-10205484D02*
X4688873Y-10195960D01*
X4688873Y-10195960D02*
X4698396Y-10176912D01*
X4698396Y-10176912D02*
X4698396Y-10167389D01*
X4698396Y-10167389D02*
X4688873Y-10148341D01*
X4688873Y-10148341D02*
X4669825Y-10138817D01*
X4669825Y-10138817D02*
X4641253Y-10138817D01*
X4641253Y-10138817D02*
X4622206Y-10129293D01*
X4622206Y-10129293D02*
X4612682Y-10110246D01*
X4612682Y-10110246D02*
X4612682Y-10100722D01*
X4612682Y-10100722D02*
X4622206Y-10081674D01*
X4622206Y-10081674D02*
X4641253Y-10072150D01*
X4641253Y-10072150D02*
X4669825Y-10072150D01*
X4669825Y-10072150D02*
X4688873Y-10081674D01*
X4765063Y-10281674D02*
X4774587Y-10272150D01*
X4774587Y-10272150D02*
X4793634Y-10243579D01*
X4793634Y-10243579D02*
X4803158Y-10224531D01*
X4803158Y-10224531D02*
X4812682Y-10195960D01*
X4812682Y-10195960D02*
X4822206Y-10148341D01*
X4822206Y-10148341D02*
X4822206Y-10110246D01*
X4822206Y-10110246D02*
X4812682Y-10062627D01*
X4812682Y-10062627D02*
X4803158Y-10034055D01*
X4803158Y-10034055D02*
X4793634Y-10015008D01*
X4793634Y-10015008D02*
X4774587Y-9986436D01*
X4774587Y-9986436D02*
X4765063Y-9976912D01*
D12*
X-62000Y-10326000D02*
X-62000Y-10430000D01*
X-114000Y-10378000D02*
X-10000Y-10378000D01*
D10*
X355539Y-10469484D02*
X241253Y-10469484D01*
X298396Y-10469484D02*
X298396Y-10269484D01*
X298396Y-10269484D02*
X279348Y-10298055D01*
X279348Y-10298055D02*
X260301Y-10317103D01*
X260301Y-10317103D02*
X241253Y-10326627D01*
X441253Y-10450436D02*
X450777Y-10459960D01*
X450777Y-10459960D02*
X441253Y-10469484D01*
X441253Y-10469484D02*
X431729Y-10459960D01*
X431729Y-10459960D02*
X441253Y-10450436D01*
X441253Y-10450436D02*
X441253Y-10469484D01*
X574586Y-10269484D02*
X593634Y-10269484D01*
X593634Y-10269484D02*
X612682Y-10279008D01*
X612682Y-10279008D02*
X622205Y-10288531D01*
X622205Y-10288531D02*
X631729Y-10307579D01*
X631729Y-10307579D02*
X641253Y-10345674D01*
X641253Y-10345674D02*
X641253Y-10393293D01*
X641253Y-10393293D02*
X631729Y-10431389D01*
X631729Y-10431389D02*
X622205Y-10450436D01*
X622205Y-10450436D02*
X612682Y-10459960D01*
X612682Y-10459960D02*
X593634Y-10469484D01*
X593634Y-10469484D02*
X574586Y-10469484D01*
X574586Y-10469484D02*
X555539Y-10459960D01*
X555539Y-10459960D02*
X546015Y-10450436D01*
X546015Y-10450436D02*
X536491Y-10431389D01*
X536491Y-10431389D02*
X526967Y-10393293D01*
X526967Y-10393293D02*
X526967Y-10345674D01*
X526967Y-10345674D02*
X536491Y-10307579D01*
X536491Y-10307579D02*
X546015Y-10288531D01*
X546015Y-10288531D02*
X555539Y-10279008D01*
X555539Y-10279008D02*
X574586Y-10269484D01*
X812682Y-10336150D02*
X812682Y-10469484D01*
X765062Y-10259960D02*
X717443Y-10402817D01*
X717443Y-10402817D02*
X841253Y-10402817D01*
X955539Y-10269484D02*
X974586Y-10269484D01*
X974586Y-10269484D02*
X993634Y-10279008D01*
X993634Y-10279008D02*
X1003158Y-10288531D01*
X1003158Y-10288531D02*
X1012682Y-10307579D01*
X1012682Y-10307579D02*
X1022205Y-10345674D01*
X1022205Y-10345674D02*
X1022205Y-10393293D01*
X1022205Y-10393293D02*
X1012682Y-10431389D01*
X1012682Y-10431389D02*
X1003158Y-10450436D01*
X1003158Y-10450436D02*
X993634Y-10459960D01*
X993634Y-10459960D02*
X974586Y-10469484D01*
X974586Y-10469484D02*
X955539Y-10469484D01*
X955539Y-10469484D02*
X936491Y-10459960D01*
X936491Y-10459960D02*
X926967Y-10450436D01*
X926967Y-10450436D02*
X917443Y-10431389D01*
X917443Y-10431389D02*
X907920Y-10393293D01*
X907920Y-10393293D02*
X907920Y-10345674D01*
X907920Y-10345674D02*
X917443Y-10307579D01*
X917443Y-10307579D02*
X926967Y-10288531D01*
X926967Y-10288531D02*
X936491Y-10279008D01*
X936491Y-10279008D02*
X955539Y-10269484D01*
X1107920Y-10469484D02*
X1107920Y-10336150D01*
X1107920Y-10355198D02*
X1117444Y-10345674D01*
X1117444Y-10345674D02*
X1136491Y-10336150D01*
X1136491Y-10336150D02*
X1165063Y-10336150D01*
X1165063Y-10336150D02*
X1184110Y-10345674D01*
X1184110Y-10345674D02*
X1193634Y-10364722D01*
X1193634Y-10364722D02*
X1193634Y-10469484D01*
X1193634Y-10364722D02*
X1203158Y-10345674D01*
X1203158Y-10345674D02*
X1222205Y-10336150D01*
X1222205Y-10336150D02*
X1250777Y-10336150D01*
X1250777Y-10336150D02*
X1269825Y-10345674D01*
X1269825Y-10345674D02*
X1279348Y-10364722D01*
X1279348Y-10364722D02*
X1279348Y-10469484D01*
X1374586Y-10469484D02*
X1374586Y-10336150D01*
X1374586Y-10355198D02*
X1384110Y-10345674D01*
X1384110Y-10345674D02*
X1403158Y-10336150D01*
X1403158Y-10336150D02*
X1431729Y-10336150D01*
X1431729Y-10336150D02*
X1450777Y-10345674D01*
X1450777Y-10345674D02*
X1460301Y-10364722D01*
X1460301Y-10364722D02*
X1460301Y-10469484D01*
X1460301Y-10364722D02*
X1469824Y-10345674D01*
X1469824Y-10345674D02*
X1488872Y-10336150D01*
X1488872Y-10336150D02*
X1517443Y-10336150D01*
X1517443Y-10336150D02*
X1536491Y-10345674D01*
X1536491Y-10345674D02*
X1546015Y-10364722D01*
X1546015Y-10364722D02*
X1546015Y-10469484D01*
X1936491Y-10259960D02*
X1765063Y-10517103D01*
X2193634Y-10269484D02*
X2212682Y-10269484D01*
X2212682Y-10269484D02*
X2231729Y-10279008D01*
X2231729Y-10279008D02*
X2241253Y-10288531D01*
X2241253Y-10288531D02*
X2250777Y-10307579D01*
X2250777Y-10307579D02*
X2260301Y-10345674D01*
X2260301Y-10345674D02*
X2260301Y-10393293D01*
X2260301Y-10393293D02*
X2250777Y-10431389D01*
X2250777Y-10431389D02*
X2241253Y-10450436D01*
X2241253Y-10450436D02*
X2231729Y-10459960D01*
X2231729Y-10459960D02*
X2212682Y-10469484D01*
X2212682Y-10469484D02*
X2193634Y-10469484D01*
X2193634Y-10469484D02*
X2174587Y-10459960D01*
X2174587Y-10459960D02*
X2165063Y-10450436D01*
X2165063Y-10450436D02*
X2155539Y-10431389D01*
X2155539Y-10431389D02*
X2146015Y-10393293D01*
X2146015Y-10393293D02*
X2146015Y-10345674D01*
X2146015Y-10345674D02*
X2155539Y-10307579D01*
X2155539Y-10307579D02*
X2165063Y-10288531D01*
X2165063Y-10288531D02*
X2174587Y-10279008D01*
X2174587Y-10279008D02*
X2193634Y-10269484D01*
X2346015Y-10450436D02*
X2355539Y-10459960D01*
X2355539Y-10459960D02*
X2346015Y-10469484D01*
X2346015Y-10469484D02*
X2336491Y-10459960D01*
X2336491Y-10459960D02*
X2346015Y-10450436D01*
X2346015Y-10450436D02*
X2346015Y-10469484D01*
X2479348Y-10269484D02*
X2498396Y-10269484D01*
X2498396Y-10269484D02*
X2517444Y-10279008D01*
X2517444Y-10279008D02*
X2526968Y-10288531D01*
X2526968Y-10288531D02*
X2536491Y-10307579D01*
X2536491Y-10307579D02*
X2546015Y-10345674D01*
X2546015Y-10345674D02*
X2546015Y-10393293D01*
X2546015Y-10393293D02*
X2536491Y-10431389D01*
X2536491Y-10431389D02*
X2526968Y-10450436D01*
X2526968Y-10450436D02*
X2517444Y-10459960D01*
X2517444Y-10459960D02*
X2498396Y-10469484D01*
X2498396Y-10469484D02*
X2479348Y-10469484D01*
X2479348Y-10469484D02*
X2460301Y-10459960D01*
X2460301Y-10459960D02*
X2450777Y-10450436D01*
X2450777Y-10450436D02*
X2441253Y-10431389D01*
X2441253Y-10431389D02*
X2431729Y-10393293D01*
X2431729Y-10393293D02*
X2431729Y-10345674D01*
X2431729Y-10345674D02*
X2441253Y-10307579D01*
X2441253Y-10307579D02*
X2450777Y-10288531D01*
X2450777Y-10288531D02*
X2460301Y-10279008D01*
X2460301Y-10279008D02*
X2479348Y-10269484D01*
X2717444Y-10336150D02*
X2717444Y-10469484D01*
X2669825Y-10259960D02*
X2622206Y-10402817D01*
X2622206Y-10402817D02*
X2746015Y-10402817D01*
X2860301Y-10269484D02*
X2879348Y-10269484D01*
X2879348Y-10269484D02*
X2898396Y-10279008D01*
X2898396Y-10279008D02*
X2907920Y-10288531D01*
X2907920Y-10288531D02*
X2917444Y-10307579D01*
X2917444Y-10307579D02*
X2926967Y-10345674D01*
X2926967Y-10345674D02*
X2926967Y-10393293D01*
X2926967Y-10393293D02*
X2917444Y-10431389D01*
X2917444Y-10431389D02*
X2907920Y-10450436D01*
X2907920Y-10450436D02*
X2898396Y-10459960D01*
X2898396Y-10459960D02*
X2879348Y-10469484D01*
X2879348Y-10469484D02*
X2860301Y-10469484D01*
X2860301Y-10469484D02*
X2841253Y-10459960D01*
X2841253Y-10459960D02*
X2831729Y-10450436D01*
X2831729Y-10450436D02*
X2822206Y-10431389D01*
X2822206Y-10431389D02*
X2812682Y-10393293D01*
X2812682Y-10393293D02*
X2812682Y-10345674D01*
X2812682Y-10345674D02*
X2822206Y-10307579D01*
X2822206Y-10307579D02*
X2831729Y-10288531D01*
X2831729Y-10288531D02*
X2841253Y-10279008D01*
X2841253Y-10279008D02*
X2860301Y-10269484D01*
X3022206Y-10469484D02*
X3060301Y-10469484D01*
X3060301Y-10469484D02*
X3079348Y-10459960D01*
X3079348Y-10459960D02*
X3088872Y-10450436D01*
X3088872Y-10450436D02*
X3107920Y-10421865D01*
X3107920Y-10421865D02*
X3117444Y-10383770D01*
X3117444Y-10383770D02*
X3117444Y-10307579D01*
X3117444Y-10307579D02*
X3107920Y-10288531D01*
X3107920Y-10288531D02*
X3098396Y-10279008D01*
X3098396Y-10279008D02*
X3079348Y-10269484D01*
X3079348Y-10269484D02*
X3041253Y-10269484D01*
X3041253Y-10269484D02*
X3022206Y-10279008D01*
X3022206Y-10279008D02*
X3012682Y-10288531D01*
X3012682Y-10288531D02*
X3003158Y-10307579D01*
X3003158Y-10307579D02*
X3003158Y-10355198D01*
X3003158Y-10355198D02*
X3012682Y-10374246D01*
X3012682Y-10374246D02*
X3022206Y-10383770D01*
X3022206Y-10383770D02*
X3041253Y-10393293D01*
X3041253Y-10393293D02*
X3079348Y-10393293D01*
X3079348Y-10393293D02*
X3098396Y-10383770D01*
X3098396Y-10383770D02*
X3107920Y-10374246D01*
X3107920Y-10374246D02*
X3117444Y-10355198D01*
X3193634Y-10269484D02*
X3193634Y-10307579D01*
X3269825Y-10269484D02*
X3269825Y-10307579D01*
X3565063Y-10545674D02*
X3555539Y-10536150D01*
X3555539Y-10536150D02*
X3536491Y-10507579D01*
X3536491Y-10507579D02*
X3526968Y-10488531D01*
X3526968Y-10488531D02*
X3517444Y-10459960D01*
X3517444Y-10459960D02*
X3507920Y-10412341D01*
X3507920Y-10412341D02*
X3507920Y-10374246D01*
X3507920Y-10374246D02*
X3517444Y-10326627D01*
X3517444Y-10326627D02*
X3526968Y-10298055D01*
X3526968Y-10298055D02*
X3536491Y-10279008D01*
X3536491Y-10279008D02*
X3555539Y-10250436D01*
X3555539Y-10250436D02*
X3565063Y-10240912D01*
X3631729Y-10288531D02*
X3641253Y-10279008D01*
X3641253Y-10279008D02*
X3660301Y-10269484D01*
X3660301Y-10269484D02*
X3707920Y-10269484D01*
X3707920Y-10269484D02*
X3726968Y-10279008D01*
X3726968Y-10279008D02*
X3736491Y-10288531D01*
X3736491Y-10288531D02*
X3746015Y-10307579D01*
X3746015Y-10307579D02*
X3746015Y-10326627D01*
X3746015Y-10326627D02*
X3736491Y-10355198D01*
X3736491Y-10355198D02*
X3622206Y-10469484D01*
X3622206Y-10469484D02*
X3746015Y-10469484D01*
X3860301Y-10355198D02*
X3841253Y-10345674D01*
X3841253Y-10345674D02*
X3831729Y-10336150D01*
X3831729Y-10336150D02*
X3822206Y-10317103D01*
X3822206Y-10317103D02*
X3822206Y-10307579D01*
X3822206Y-10307579D02*
X3831729Y-10288531D01*
X3831729Y-10288531D02*
X3841253Y-10279008D01*
X3841253Y-10279008D02*
X3860301Y-10269484D01*
X3860301Y-10269484D02*
X3898396Y-10269484D01*
X3898396Y-10269484D02*
X3917444Y-10279008D01*
X3917444Y-10279008D02*
X3926968Y-10288531D01*
X3926968Y-10288531D02*
X3936491Y-10307579D01*
X3936491Y-10307579D02*
X3936491Y-10317103D01*
X3936491Y-10317103D02*
X3926968Y-10336150D01*
X3926968Y-10336150D02*
X3917444Y-10345674D01*
X3917444Y-10345674D02*
X3898396Y-10355198D01*
X3898396Y-10355198D02*
X3860301Y-10355198D01*
X3860301Y-10355198D02*
X3841253Y-10364722D01*
X3841253Y-10364722D02*
X3831729Y-10374246D01*
X3831729Y-10374246D02*
X3822206Y-10393293D01*
X3822206Y-10393293D02*
X3822206Y-10431389D01*
X3822206Y-10431389D02*
X3831729Y-10450436D01*
X3831729Y-10450436D02*
X3841253Y-10459960D01*
X3841253Y-10459960D02*
X3860301Y-10469484D01*
X3860301Y-10469484D02*
X3898396Y-10469484D01*
X3898396Y-10469484D02*
X3917444Y-10459960D01*
X3917444Y-10459960D02*
X3926968Y-10450436D01*
X3926968Y-10450436D02*
X3936491Y-10431389D01*
X3936491Y-10431389D02*
X3936491Y-10393293D01*
X3936491Y-10393293D02*
X3926968Y-10374246D01*
X3926968Y-10374246D02*
X3917444Y-10364722D01*
X3917444Y-10364722D02*
X3898396Y-10355198D01*
X4174587Y-10469484D02*
X4174587Y-10269484D01*
X4260301Y-10469484D02*
X4260301Y-10364722D01*
X4260301Y-10364722D02*
X4250777Y-10345674D01*
X4250777Y-10345674D02*
X4231730Y-10336150D01*
X4231730Y-10336150D02*
X4203158Y-10336150D01*
X4203158Y-10336150D02*
X4184110Y-10345674D01*
X4184110Y-10345674D02*
X4174587Y-10355198D01*
X4384111Y-10469484D02*
X4365063Y-10459960D01*
X4365063Y-10459960D02*
X4355539Y-10450436D01*
X4355539Y-10450436D02*
X4346015Y-10431389D01*
X4346015Y-10431389D02*
X4346015Y-10374246D01*
X4346015Y-10374246D02*
X4355539Y-10355198D01*
X4355539Y-10355198D02*
X4365063Y-10345674D01*
X4365063Y-10345674D02*
X4384111Y-10336150D01*
X4384111Y-10336150D02*
X4412682Y-10336150D01*
X4412682Y-10336150D02*
X4431730Y-10345674D01*
X4431730Y-10345674D02*
X4441253Y-10355198D01*
X4441253Y-10355198D02*
X4450777Y-10374246D01*
X4450777Y-10374246D02*
X4450777Y-10431389D01*
X4450777Y-10431389D02*
X4441253Y-10450436D01*
X4441253Y-10450436D02*
X4431730Y-10459960D01*
X4431730Y-10459960D02*
X4412682Y-10469484D01*
X4412682Y-10469484D02*
X4384111Y-10469484D01*
X4565063Y-10469484D02*
X4546015Y-10459960D01*
X4546015Y-10459960D02*
X4536492Y-10440912D01*
X4536492Y-10440912D02*
X4536492Y-10269484D01*
X4717444Y-10459960D02*
X4698396Y-10469484D01*
X4698396Y-10469484D02*
X4660301Y-10469484D01*
X4660301Y-10469484D02*
X4641253Y-10459960D01*
X4641253Y-10459960D02*
X4631730Y-10440912D01*
X4631730Y-10440912D02*
X4631730Y-10364722D01*
X4631730Y-10364722D02*
X4641253Y-10345674D01*
X4641253Y-10345674D02*
X4660301Y-10336150D01*
X4660301Y-10336150D02*
X4698396Y-10336150D01*
X4698396Y-10336150D02*
X4717444Y-10345674D01*
X4717444Y-10345674D02*
X4726968Y-10364722D01*
X4726968Y-10364722D02*
X4726968Y-10383770D01*
X4726968Y-10383770D02*
X4631730Y-10402817D01*
X4803158Y-10459960D02*
X4822206Y-10469484D01*
X4822206Y-10469484D02*
X4860301Y-10469484D01*
X4860301Y-10469484D02*
X4879349Y-10459960D01*
X4879349Y-10459960D02*
X4888873Y-10440912D01*
X4888873Y-10440912D02*
X4888873Y-10431389D01*
X4888873Y-10431389D02*
X4879349Y-10412341D01*
X4879349Y-10412341D02*
X4860301Y-10402817D01*
X4860301Y-10402817D02*
X4831730Y-10402817D01*
X4831730Y-10402817D02*
X4812682Y-10393293D01*
X4812682Y-10393293D02*
X4803158Y-10374246D01*
X4803158Y-10374246D02*
X4803158Y-10364722D01*
X4803158Y-10364722D02*
X4812682Y-10345674D01*
X4812682Y-10345674D02*
X4831730Y-10336150D01*
X4831730Y-10336150D02*
X4860301Y-10336150D01*
X4860301Y-10336150D02*
X4879349Y-10345674D01*
X4955539Y-10545674D02*
X4965063Y-10536150D01*
X4965063Y-10536150D02*
X4984111Y-10507579D01*
X4984111Y-10507579D02*
X4993634Y-10488531D01*
X4993634Y-10488531D02*
X5003158Y-10459960D01*
X5003158Y-10459960D02*
X5012682Y-10412341D01*
X5012682Y-10412341D02*
X5012682Y-10374246D01*
X5012682Y-10374246D02*
X5003158Y-10326627D01*
X5003158Y-10326627D02*
X4993634Y-10298055D01*
X4993634Y-10298055D02*
X4984111Y-10279008D01*
X4984111Y-10279008D02*
X4965063Y-10250436D01*
X4965063Y-10250436D02*
X4955539Y-10240912D01*
D13*
X-29038Y-10687962D02*
X-29038Y-10596038D01*
X-120962Y-10596038D01*
X-120962Y-10687962D01*
X-29038Y-10687962D01*
D10*
X355539Y-10733484D02*
X241253Y-10733484D01*
X298396Y-10733484D02*
X298396Y-10533484D01*
X298396Y-10533484D02*
X279348Y-10562055D01*
X279348Y-10562055D02*
X260301Y-10581103D01*
X260301Y-10581103D02*
X241253Y-10590627D01*
X441253Y-10714436D02*
X450777Y-10723960D01*
X450777Y-10723960D02*
X441253Y-10733484D01*
X441253Y-10733484D02*
X431729Y-10723960D01*
X431729Y-10723960D02*
X441253Y-10714436D01*
X441253Y-10714436D02*
X441253Y-10733484D01*
X517443Y-10533484D02*
X641253Y-10533484D01*
X641253Y-10533484D02*
X574586Y-10609674D01*
X574586Y-10609674D02*
X603158Y-10609674D01*
X603158Y-10609674D02*
X622205Y-10619198D01*
X622205Y-10619198D02*
X631729Y-10628722D01*
X631729Y-10628722D02*
X641253Y-10647770D01*
X641253Y-10647770D02*
X641253Y-10695389D01*
X641253Y-10695389D02*
X631729Y-10714436D01*
X631729Y-10714436D02*
X622205Y-10723960D01*
X622205Y-10723960D02*
X603158Y-10733484D01*
X603158Y-10733484D02*
X546015Y-10733484D01*
X546015Y-10733484D02*
X526967Y-10723960D01*
X526967Y-10723960D02*
X517443Y-10714436D01*
X765062Y-10533484D02*
X784110Y-10533484D01*
X784110Y-10533484D02*
X803158Y-10543008D01*
X803158Y-10543008D02*
X812682Y-10552531D01*
X812682Y-10552531D02*
X822205Y-10571579D01*
X822205Y-10571579D02*
X831729Y-10609674D01*
X831729Y-10609674D02*
X831729Y-10657293D01*
X831729Y-10657293D02*
X822205Y-10695389D01*
X822205Y-10695389D02*
X812682Y-10714436D01*
X812682Y-10714436D02*
X803158Y-10723960D01*
X803158Y-10723960D02*
X784110Y-10733484D01*
X784110Y-10733484D02*
X765062Y-10733484D01*
X765062Y-10733484D02*
X746015Y-10723960D01*
X746015Y-10723960D02*
X736491Y-10714436D01*
X736491Y-10714436D02*
X726967Y-10695389D01*
X726967Y-10695389D02*
X717443Y-10657293D01*
X717443Y-10657293D02*
X717443Y-10609674D01*
X717443Y-10609674D02*
X726967Y-10571579D01*
X726967Y-10571579D02*
X736491Y-10552531D01*
X736491Y-10552531D02*
X746015Y-10543008D01*
X746015Y-10543008D02*
X765062Y-10533484D01*
X955539Y-10533484D02*
X974586Y-10533484D01*
X974586Y-10533484D02*
X993634Y-10543008D01*
X993634Y-10543008D02*
X1003158Y-10552531D01*
X1003158Y-10552531D02*
X1012682Y-10571579D01*
X1012682Y-10571579D02*
X1022205Y-10609674D01*
X1022205Y-10609674D02*
X1022205Y-10657293D01*
X1022205Y-10657293D02*
X1012682Y-10695389D01*
X1012682Y-10695389D02*
X1003158Y-10714436D01*
X1003158Y-10714436D02*
X993634Y-10723960D01*
X993634Y-10723960D02*
X974586Y-10733484D01*
X974586Y-10733484D02*
X955539Y-10733484D01*
X955539Y-10733484D02*
X936491Y-10723960D01*
X936491Y-10723960D02*
X926967Y-10714436D01*
X926967Y-10714436D02*
X917443Y-10695389D01*
X917443Y-10695389D02*
X907920Y-10657293D01*
X907920Y-10657293D02*
X907920Y-10609674D01*
X907920Y-10609674D02*
X917443Y-10571579D01*
X917443Y-10571579D02*
X926967Y-10552531D01*
X926967Y-10552531D02*
X936491Y-10543008D01*
X936491Y-10543008D02*
X955539Y-10533484D01*
X1107920Y-10733484D02*
X1107920Y-10600150D01*
X1107920Y-10619198D02*
X1117444Y-10609674D01*
X1117444Y-10609674D02*
X1136491Y-10600150D01*
X1136491Y-10600150D02*
X1165063Y-10600150D01*
X1165063Y-10600150D02*
X1184110Y-10609674D01*
X1184110Y-10609674D02*
X1193634Y-10628722D01*
X1193634Y-10628722D02*
X1193634Y-10733484D01*
X1193634Y-10628722D02*
X1203158Y-10609674D01*
X1203158Y-10609674D02*
X1222205Y-10600150D01*
X1222205Y-10600150D02*
X1250777Y-10600150D01*
X1250777Y-10600150D02*
X1269825Y-10609674D01*
X1269825Y-10609674D02*
X1279348Y-10628722D01*
X1279348Y-10628722D02*
X1279348Y-10733484D01*
X1374586Y-10733484D02*
X1374586Y-10600150D01*
X1374586Y-10619198D02*
X1384110Y-10609674D01*
X1384110Y-10609674D02*
X1403158Y-10600150D01*
X1403158Y-10600150D02*
X1431729Y-10600150D01*
X1431729Y-10600150D02*
X1450777Y-10609674D01*
X1450777Y-10609674D02*
X1460301Y-10628722D01*
X1460301Y-10628722D02*
X1460301Y-10733484D01*
X1460301Y-10628722D02*
X1469824Y-10609674D01*
X1469824Y-10609674D02*
X1488872Y-10600150D01*
X1488872Y-10600150D02*
X1517443Y-10600150D01*
X1517443Y-10600150D02*
X1536491Y-10609674D01*
X1536491Y-10609674D02*
X1546015Y-10628722D01*
X1546015Y-10628722D02*
X1546015Y-10733484D01*
X1936491Y-10523960D02*
X1765063Y-10781103D01*
X2193634Y-10533484D02*
X2212682Y-10533484D01*
X2212682Y-10533484D02*
X2231729Y-10543008D01*
X2231729Y-10543008D02*
X2241253Y-10552531D01*
X2241253Y-10552531D02*
X2250777Y-10571579D01*
X2250777Y-10571579D02*
X2260301Y-10609674D01*
X2260301Y-10609674D02*
X2260301Y-10657293D01*
X2260301Y-10657293D02*
X2250777Y-10695389D01*
X2250777Y-10695389D02*
X2241253Y-10714436D01*
X2241253Y-10714436D02*
X2231729Y-10723960D01*
X2231729Y-10723960D02*
X2212682Y-10733484D01*
X2212682Y-10733484D02*
X2193634Y-10733484D01*
X2193634Y-10733484D02*
X2174587Y-10723960D01*
X2174587Y-10723960D02*
X2165063Y-10714436D01*
X2165063Y-10714436D02*
X2155539Y-10695389D01*
X2155539Y-10695389D02*
X2146015Y-10657293D01*
X2146015Y-10657293D02*
X2146015Y-10609674D01*
X2146015Y-10609674D02*
X2155539Y-10571579D01*
X2155539Y-10571579D02*
X2165063Y-10552531D01*
X2165063Y-10552531D02*
X2174587Y-10543008D01*
X2174587Y-10543008D02*
X2193634Y-10533484D01*
X2346015Y-10714436D02*
X2355539Y-10723960D01*
X2355539Y-10723960D02*
X2346015Y-10733484D01*
X2346015Y-10733484D02*
X2336491Y-10723960D01*
X2336491Y-10723960D02*
X2346015Y-10714436D01*
X2346015Y-10714436D02*
X2346015Y-10733484D01*
X2479348Y-10533484D02*
X2498396Y-10533484D01*
X2498396Y-10533484D02*
X2517444Y-10543008D01*
X2517444Y-10543008D02*
X2526968Y-10552531D01*
X2526968Y-10552531D02*
X2536491Y-10571579D01*
X2536491Y-10571579D02*
X2546015Y-10609674D01*
X2546015Y-10609674D02*
X2546015Y-10657293D01*
X2546015Y-10657293D02*
X2536491Y-10695389D01*
X2536491Y-10695389D02*
X2526968Y-10714436D01*
X2526968Y-10714436D02*
X2517444Y-10723960D01*
X2517444Y-10723960D02*
X2498396Y-10733484D01*
X2498396Y-10733484D02*
X2479348Y-10733484D01*
X2479348Y-10733484D02*
X2460301Y-10723960D01*
X2460301Y-10723960D02*
X2450777Y-10714436D01*
X2450777Y-10714436D02*
X2441253Y-10695389D01*
X2441253Y-10695389D02*
X2431729Y-10657293D01*
X2431729Y-10657293D02*
X2431729Y-10609674D01*
X2431729Y-10609674D02*
X2441253Y-10571579D01*
X2441253Y-10571579D02*
X2450777Y-10552531D01*
X2450777Y-10552531D02*
X2460301Y-10543008D01*
X2460301Y-10543008D02*
X2479348Y-10533484D01*
X2726968Y-10533484D02*
X2631729Y-10533484D01*
X2631729Y-10533484D02*
X2622206Y-10628722D01*
X2622206Y-10628722D02*
X2631729Y-10619198D01*
X2631729Y-10619198D02*
X2650777Y-10609674D01*
X2650777Y-10609674D02*
X2698396Y-10609674D01*
X2698396Y-10609674D02*
X2717444Y-10619198D01*
X2717444Y-10619198D02*
X2726968Y-10628722D01*
X2726968Y-10628722D02*
X2736491Y-10647770D01*
X2736491Y-10647770D02*
X2736491Y-10695389D01*
X2736491Y-10695389D02*
X2726968Y-10714436D01*
X2726968Y-10714436D02*
X2717444Y-10723960D01*
X2717444Y-10723960D02*
X2698396Y-10733484D01*
X2698396Y-10733484D02*
X2650777Y-10733484D01*
X2650777Y-10733484D02*
X2631729Y-10723960D01*
X2631729Y-10723960D02*
X2622206Y-10714436D01*
X2926967Y-10733484D02*
X2812682Y-10733484D01*
X2869825Y-10733484D02*
X2869825Y-10533484D01*
X2869825Y-10533484D02*
X2850777Y-10562055D01*
X2850777Y-10562055D02*
X2831729Y-10581103D01*
X2831729Y-10581103D02*
X2812682Y-10590627D01*
X3003158Y-10552531D02*
X3012682Y-10543008D01*
X3012682Y-10543008D02*
X3031729Y-10533484D01*
X3031729Y-10533484D02*
X3079348Y-10533484D01*
X3079348Y-10533484D02*
X3098396Y-10543008D01*
X3098396Y-10543008D02*
X3107920Y-10552531D01*
X3107920Y-10552531D02*
X3117444Y-10571579D01*
X3117444Y-10571579D02*
X3117444Y-10590627D01*
X3117444Y-10590627D02*
X3107920Y-10619198D01*
X3107920Y-10619198D02*
X2993634Y-10733484D01*
X2993634Y-10733484D02*
X3117444Y-10733484D01*
X3193634Y-10533484D02*
X3193634Y-10571579D01*
X3269825Y-10533484D02*
X3269825Y-10571579D01*
X3565063Y-10809674D02*
X3555539Y-10800150D01*
X3555539Y-10800150D02*
X3536491Y-10771579D01*
X3536491Y-10771579D02*
X3526968Y-10752531D01*
X3526968Y-10752531D02*
X3517444Y-10723960D01*
X3517444Y-10723960D02*
X3507920Y-10676341D01*
X3507920Y-10676341D02*
X3507920Y-10638246D01*
X3507920Y-10638246D02*
X3517444Y-10590627D01*
X3517444Y-10590627D02*
X3526968Y-10562055D01*
X3526968Y-10562055D02*
X3536491Y-10543008D01*
X3536491Y-10543008D02*
X3555539Y-10514436D01*
X3555539Y-10514436D02*
X3565063Y-10504912D01*
X3669825Y-10619198D02*
X3650777Y-10609674D01*
X3650777Y-10609674D02*
X3641253Y-10600150D01*
X3641253Y-10600150D02*
X3631729Y-10581103D01*
X3631729Y-10581103D02*
X3631729Y-10571579D01*
X3631729Y-10571579D02*
X3641253Y-10552531D01*
X3641253Y-10552531D02*
X3650777Y-10543008D01*
X3650777Y-10543008D02*
X3669825Y-10533484D01*
X3669825Y-10533484D02*
X3707920Y-10533484D01*
X3707920Y-10533484D02*
X3726968Y-10543008D01*
X3726968Y-10543008D02*
X3736491Y-10552531D01*
X3736491Y-10552531D02*
X3746015Y-10571579D01*
X3746015Y-10571579D02*
X3746015Y-10581103D01*
X3746015Y-10581103D02*
X3736491Y-10600150D01*
X3736491Y-10600150D02*
X3726968Y-10609674D01*
X3726968Y-10609674D02*
X3707920Y-10619198D01*
X3707920Y-10619198D02*
X3669825Y-10619198D01*
X3669825Y-10619198D02*
X3650777Y-10628722D01*
X3650777Y-10628722D02*
X3641253Y-10638246D01*
X3641253Y-10638246D02*
X3631729Y-10657293D01*
X3631729Y-10657293D02*
X3631729Y-10695389D01*
X3631729Y-10695389D02*
X3641253Y-10714436D01*
X3641253Y-10714436D02*
X3650777Y-10723960D01*
X3650777Y-10723960D02*
X3669825Y-10733484D01*
X3669825Y-10733484D02*
X3707920Y-10733484D01*
X3707920Y-10733484D02*
X3726968Y-10723960D01*
X3726968Y-10723960D02*
X3736491Y-10714436D01*
X3736491Y-10714436D02*
X3746015Y-10695389D01*
X3746015Y-10695389D02*
X3746015Y-10657293D01*
X3746015Y-10657293D02*
X3736491Y-10638246D01*
X3736491Y-10638246D02*
X3726968Y-10628722D01*
X3726968Y-10628722D02*
X3707920Y-10619198D01*
X3984110Y-10733484D02*
X3984110Y-10533484D01*
X4069825Y-10733484D02*
X4069825Y-10628722D01*
X4069825Y-10628722D02*
X4060301Y-10609674D01*
X4060301Y-10609674D02*
X4041253Y-10600150D01*
X4041253Y-10600150D02*
X4012682Y-10600150D01*
X4012682Y-10600150D02*
X3993634Y-10609674D01*
X3993634Y-10609674D02*
X3984110Y-10619198D01*
X4193634Y-10733484D02*
X4174587Y-10723960D01*
X4174587Y-10723960D02*
X4165063Y-10714436D01*
X4165063Y-10714436D02*
X4155539Y-10695389D01*
X4155539Y-10695389D02*
X4155539Y-10638246D01*
X4155539Y-10638246D02*
X4165063Y-10619198D01*
X4165063Y-10619198D02*
X4174587Y-10609674D01*
X4174587Y-10609674D02*
X4193634Y-10600150D01*
X4193634Y-10600150D02*
X4222206Y-10600150D01*
X4222206Y-10600150D02*
X4241253Y-10609674D01*
X4241253Y-10609674D02*
X4250777Y-10619198D01*
X4250777Y-10619198D02*
X4260301Y-10638246D01*
X4260301Y-10638246D02*
X4260301Y-10695389D01*
X4260301Y-10695389D02*
X4250777Y-10714436D01*
X4250777Y-10714436D02*
X4241253Y-10723960D01*
X4241253Y-10723960D02*
X4222206Y-10733484D01*
X4222206Y-10733484D02*
X4193634Y-10733484D01*
X4374587Y-10733484D02*
X4355539Y-10723960D01*
X4355539Y-10723960D02*
X4346015Y-10704912D01*
X4346015Y-10704912D02*
X4346015Y-10533484D01*
X4526968Y-10723960D02*
X4507920Y-10733484D01*
X4507920Y-10733484D02*
X4469825Y-10733484D01*
X4469825Y-10733484D02*
X4450777Y-10723960D01*
X4450777Y-10723960D02*
X4441253Y-10704912D01*
X4441253Y-10704912D02*
X4441253Y-10628722D01*
X4441253Y-10628722D02*
X4450777Y-10609674D01*
X4450777Y-10609674D02*
X4469825Y-10600150D01*
X4469825Y-10600150D02*
X4507920Y-10600150D01*
X4507920Y-10600150D02*
X4526968Y-10609674D01*
X4526968Y-10609674D02*
X4536492Y-10628722D01*
X4536492Y-10628722D02*
X4536492Y-10647770D01*
X4536492Y-10647770D02*
X4441253Y-10666817D01*
X4612682Y-10723960D02*
X4631730Y-10733484D01*
X4631730Y-10733484D02*
X4669825Y-10733484D01*
X4669825Y-10733484D02*
X4688873Y-10723960D01*
X4688873Y-10723960D02*
X4698396Y-10704912D01*
X4698396Y-10704912D02*
X4698396Y-10695389D01*
X4698396Y-10695389D02*
X4688873Y-10676341D01*
X4688873Y-10676341D02*
X4669825Y-10666817D01*
X4669825Y-10666817D02*
X4641253Y-10666817D01*
X4641253Y-10666817D02*
X4622206Y-10657293D01*
X4622206Y-10657293D02*
X4612682Y-10638246D01*
X4612682Y-10638246D02*
X4612682Y-10628722D01*
X4612682Y-10628722D02*
X4622206Y-10609674D01*
X4622206Y-10609674D02*
X4641253Y-10600150D01*
X4641253Y-10600150D02*
X4669825Y-10600150D01*
X4669825Y-10600150D02*
X4688873Y-10609674D01*
X4765063Y-10809674D02*
X4774587Y-10800150D01*
X4774587Y-10800150D02*
X4793634Y-10771579D01*
X4793634Y-10771579D02*
X4803158Y-10752531D01*
X4803158Y-10752531D02*
X4812682Y-10723960D01*
X4812682Y-10723960D02*
X4822206Y-10676341D01*
X4822206Y-10676341D02*
X4822206Y-10638246D01*
X4822206Y-10638246D02*
X4812682Y-10590627D01*
X4812682Y-10590627D02*
X4803158Y-10562055D01*
X4803158Y-10562055D02*
X4793634Y-10543008D01*
X4793634Y-10543008D02*
X4774587Y-10514436D01*
X4774587Y-10514436D02*
X4765063Y-10504912D01*
D14*
X-80000Y-10976000D02*
X-10000Y-10906000D01*
X-80000Y-10836000D01*
X-150000Y-10906000D01*
X-80000Y-10976000D01*
D10*
X355539Y-10997484D02*
X241253Y-10997484D01*
X298396Y-10997484D02*
X298396Y-10797484D01*
X298396Y-10797484D02*
X279348Y-10826055D01*
X279348Y-10826055D02*
X260301Y-10845103D01*
X260301Y-10845103D02*
X241253Y-10854627D01*
X441253Y-10978436D02*
X450777Y-10987960D01*
X450777Y-10987960D02*
X441253Y-10997484D01*
X441253Y-10997484D02*
X431729Y-10987960D01*
X431729Y-10987960D02*
X441253Y-10978436D01*
X441253Y-10978436D02*
X441253Y-10997484D01*
X622205Y-10864150D02*
X622205Y-10997484D01*
X574586Y-10787960D02*
X526967Y-10930817D01*
X526967Y-10930817D02*
X650777Y-10930817D01*
X765062Y-10797484D02*
X784110Y-10797484D01*
X784110Y-10797484D02*
X803158Y-10807008D01*
X803158Y-10807008D02*
X812682Y-10816531D01*
X812682Y-10816531D02*
X822205Y-10835579D01*
X822205Y-10835579D02*
X831729Y-10873674D01*
X831729Y-10873674D02*
X831729Y-10921293D01*
X831729Y-10921293D02*
X822205Y-10959389D01*
X822205Y-10959389D02*
X812682Y-10978436D01*
X812682Y-10978436D02*
X803158Y-10987960D01*
X803158Y-10987960D02*
X784110Y-10997484D01*
X784110Y-10997484D02*
X765062Y-10997484D01*
X765062Y-10997484D02*
X746015Y-10987960D01*
X746015Y-10987960D02*
X736491Y-10978436D01*
X736491Y-10978436D02*
X726967Y-10959389D01*
X726967Y-10959389D02*
X717443Y-10921293D01*
X717443Y-10921293D02*
X717443Y-10873674D01*
X717443Y-10873674D02*
X726967Y-10835579D01*
X726967Y-10835579D02*
X736491Y-10816531D01*
X736491Y-10816531D02*
X746015Y-10807008D01*
X746015Y-10807008D02*
X765062Y-10797484D01*
X955539Y-10797484D02*
X974586Y-10797484D01*
X974586Y-10797484D02*
X993634Y-10807008D01*
X993634Y-10807008D02*
X1003158Y-10816531D01*
X1003158Y-10816531D02*
X1012682Y-10835579D01*
X1012682Y-10835579D02*
X1022205Y-10873674D01*
X1022205Y-10873674D02*
X1022205Y-10921293D01*
X1022205Y-10921293D02*
X1012682Y-10959389D01*
X1012682Y-10959389D02*
X1003158Y-10978436D01*
X1003158Y-10978436D02*
X993634Y-10987960D01*
X993634Y-10987960D02*
X974586Y-10997484D01*
X974586Y-10997484D02*
X955539Y-10997484D01*
X955539Y-10997484D02*
X936491Y-10987960D01*
X936491Y-10987960D02*
X926967Y-10978436D01*
X926967Y-10978436D02*
X917443Y-10959389D01*
X917443Y-10959389D02*
X907920Y-10921293D01*
X907920Y-10921293D02*
X907920Y-10873674D01*
X907920Y-10873674D02*
X917443Y-10835579D01*
X917443Y-10835579D02*
X926967Y-10816531D01*
X926967Y-10816531D02*
X936491Y-10807008D01*
X936491Y-10807008D02*
X955539Y-10797484D01*
X1107920Y-10997484D02*
X1107920Y-10864150D01*
X1107920Y-10883198D02*
X1117444Y-10873674D01*
X1117444Y-10873674D02*
X1136491Y-10864150D01*
X1136491Y-10864150D02*
X1165063Y-10864150D01*
X1165063Y-10864150D02*
X1184110Y-10873674D01*
X1184110Y-10873674D02*
X1193634Y-10892722D01*
X1193634Y-10892722D02*
X1193634Y-10997484D01*
X1193634Y-10892722D02*
X1203158Y-10873674D01*
X1203158Y-10873674D02*
X1222205Y-10864150D01*
X1222205Y-10864150D02*
X1250777Y-10864150D01*
X1250777Y-10864150D02*
X1269825Y-10873674D01*
X1269825Y-10873674D02*
X1279348Y-10892722D01*
X1279348Y-10892722D02*
X1279348Y-10997484D01*
X1374586Y-10997484D02*
X1374586Y-10864150D01*
X1374586Y-10883198D02*
X1384110Y-10873674D01*
X1384110Y-10873674D02*
X1403158Y-10864150D01*
X1403158Y-10864150D02*
X1431729Y-10864150D01*
X1431729Y-10864150D02*
X1450777Y-10873674D01*
X1450777Y-10873674D02*
X1460301Y-10892722D01*
X1460301Y-10892722D02*
X1460301Y-10997484D01*
X1460301Y-10892722D02*
X1469824Y-10873674D01*
X1469824Y-10873674D02*
X1488872Y-10864150D01*
X1488872Y-10864150D02*
X1517443Y-10864150D01*
X1517443Y-10864150D02*
X1536491Y-10873674D01*
X1536491Y-10873674D02*
X1546015Y-10892722D01*
X1546015Y-10892722D02*
X1546015Y-10997484D01*
X1936491Y-10787960D02*
X1765063Y-11045103D01*
X2193634Y-10797484D02*
X2212682Y-10797484D01*
X2212682Y-10797484D02*
X2231729Y-10807008D01*
X2231729Y-10807008D02*
X2241253Y-10816531D01*
X2241253Y-10816531D02*
X2250777Y-10835579D01*
X2250777Y-10835579D02*
X2260301Y-10873674D01*
X2260301Y-10873674D02*
X2260301Y-10921293D01*
X2260301Y-10921293D02*
X2250777Y-10959389D01*
X2250777Y-10959389D02*
X2241253Y-10978436D01*
X2241253Y-10978436D02*
X2231729Y-10987960D01*
X2231729Y-10987960D02*
X2212682Y-10997484D01*
X2212682Y-10997484D02*
X2193634Y-10997484D01*
X2193634Y-10997484D02*
X2174587Y-10987960D01*
X2174587Y-10987960D02*
X2165063Y-10978436D01*
X2165063Y-10978436D02*
X2155539Y-10959389D01*
X2155539Y-10959389D02*
X2146015Y-10921293D01*
X2146015Y-10921293D02*
X2146015Y-10873674D01*
X2146015Y-10873674D02*
X2155539Y-10835579D01*
X2155539Y-10835579D02*
X2165063Y-10816531D01*
X2165063Y-10816531D02*
X2174587Y-10807008D01*
X2174587Y-10807008D02*
X2193634Y-10797484D01*
X2346015Y-10978436D02*
X2355539Y-10987960D01*
X2355539Y-10987960D02*
X2346015Y-10997484D01*
X2346015Y-10997484D02*
X2336491Y-10987960D01*
X2336491Y-10987960D02*
X2346015Y-10978436D01*
X2346015Y-10978436D02*
X2346015Y-10997484D01*
X2479348Y-10797484D02*
X2498396Y-10797484D01*
X2498396Y-10797484D02*
X2517444Y-10807008D01*
X2517444Y-10807008D02*
X2526968Y-10816531D01*
X2526968Y-10816531D02*
X2536491Y-10835579D01*
X2536491Y-10835579D02*
X2546015Y-10873674D01*
X2546015Y-10873674D02*
X2546015Y-10921293D01*
X2546015Y-10921293D02*
X2536491Y-10959389D01*
X2536491Y-10959389D02*
X2526968Y-10978436D01*
X2526968Y-10978436D02*
X2517444Y-10987960D01*
X2517444Y-10987960D02*
X2498396Y-10997484D01*
X2498396Y-10997484D02*
X2479348Y-10997484D01*
X2479348Y-10997484D02*
X2460301Y-10987960D01*
X2460301Y-10987960D02*
X2450777Y-10978436D01*
X2450777Y-10978436D02*
X2441253Y-10959389D01*
X2441253Y-10959389D02*
X2431729Y-10921293D01*
X2431729Y-10921293D02*
X2431729Y-10873674D01*
X2431729Y-10873674D02*
X2441253Y-10835579D01*
X2441253Y-10835579D02*
X2450777Y-10816531D01*
X2450777Y-10816531D02*
X2460301Y-10807008D01*
X2460301Y-10807008D02*
X2479348Y-10797484D01*
X2726968Y-10797484D02*
X2631729Y-10797484D01*
X2631729Y-10797484D02*
X2622206Y-10892722D01*
X2622206Y-10892722D02*
X2631729Y-10883198D01*
X2631729Y-10883198D02*
X2650777Y-10873674D01*
X2650777Y-10873674D02*
X2698396Y-10873674D01*
X2698396Y-10873674D02*
X2717444Y-10883198D01*
X2717444Y-10883198D02*
X2726968Y-10892722D01*
X2726968Y-10892722D02*
X2736491Y-10911770D01*
X2736491Y-10911770D02*
X2736491Y-10959389D01*
X2736491Y-10959389D02*
X2726968Y-10978436D01*
X2726968Y-10978436D02*
X2717444Y-10987960D01*
X2717444Y-10987960D02*
X2698396Y-10997484D01*
X2698396Y-10997484D02*
X2650777Y-10997484D01*
X2650777Y-10997484D02*
X2631729Y-10987960D01*
X2631729Y-10987960D02*
X2622206Y-10978436D01*
X2917444Y-10797484D02*
X2822206Y-10797484D01*
X2822206Y-10797484D02*
X2812682Y-10892722D01*
X2812682Y-10892722D02*
X2822206Y-10883198D01*
X2822206Y-10883198D02*
X2841253Y-10873674D01*
X2841253Y-10873674D02*
X2888872Y-10873674D01*
X2888872Y-10873674D02*
X2907920Y-10883198D01*
X2907920Y-10883198D02*
X2917444Y-10892722D01*
X2917444Y-10892722D02*
X2926967Y-10911770D01*
X2926967Y-10911770D02*
X2926967Y-10959389D01*
X2926967Y-10959389D02*
X2917444Y-10978436D01*
X2917444Y-10978436D02*
X2907920Y-10987960D01*
X2907920Y-10987960D02*
X2888872Y-10997484D01*
X2888872Y-10997484D02*
X2841253Y-10997484D01*
X2841253Y-10997484D02*
X2822206Y-10987960D01*
X2822206Y-10987960D02*
X2812682Y-10978436D01*
X3117444Y-10997484D02*
X3003158Y-10997484D01*
X3060301Y-10997484D02*
X3060301Y-10797484D01*
X3060301Y-10797484D02*
X3041253Y-10826055D01*
X3041253Y-10826055D02*
X3022206Y-10845103D01*
X3022206Y-10845103D02*
X3003158Y-10854627D01*
X3193634Y-10797484D02*
X3193634Y-10835579D01*
X3269825Y-10797484D02*
X3269825Y-10835579D01*
X3565063Y-11073674D02*
X3555539Y-11064150D01*
X3555539Y-11064150D02*
X3536491Y-11035579D01*
X3536491Y-11035579D02*
X3526968Y-11016531D01*
X3526968Y-11016531D02*
X3517444Y-10987960D01*
X3517444Y-10987960D02*
X3507920Y-10940341D01*
X3507920Y-10940341D02*
X3507920Y-10902246D01*
X3507920Y-10902246D02*
X3517444Y-10854627D01*
X3517444Y-10854627D02*
X3526968Y-10826055D01*
X3526968Y-10826055D02*
X3536491Y-10807008D01*
X3536491Y-10807008D02*
X3555539Y-10778436D01*
X3555539Y-10778436D02*
X3565063Y-10768912D01*
X3631729Y-10816531D02*
X3641253Y-10807008D01*
X3641253Y-10807008D02*
X3660301Y-10797484D01*
X3660301Y-10797484D02*
X3707920Y-10797484D01*
X3707920Y-10797484D02*
X3726968Y-10807008D01*
X3726968Y-10807008D02*
X3736491Y-10816531D01*
X3736491Y-10816531D02*
X3746015Y-10835579D01*
X3746015Y-10835579D02*
X3746015Y-10854627D01*
X3746015Y-10854627D02*
X3736491Y-10883198D01*
X3736491Y-10883198D02*
X3622206Y-10997484D01*
X3622206Y-10997484D02*
X3746015Y-10997484D01*
X3984110Y-10997484D02*
X3984110Y-10797484D01*
X4069825Y-10997484D02*
X4069825Y-10892722D01*
X4069825Y-10892722D02*
X4060301Y-10873674D01*
X4060301Y-10873674D02*
X4041253Y-10864150D01*
X4041253Y-10864150D02*
X4012682Y-10864150D01*
X4012682Y-10864150D02*
X3993634Y-10873674D01*
X3993634Y-10873674D02*
X3984110Y-10883198D01*
X4193634Y-10997484D02*
X4174587Y-10987960D01*
X4174587Y-10987960D02*
X4165063Y-10978436D01*
X4165063Y-10978436D02*
X4155539Y-10959389D01*
X4155539Y-10959389D02*
X4155539Y-10902246D01*
X4155539Y-10902246D02*
X4165063Y-10883198D01*
X4165063Y-10883198D02*
X4174587Y-10873674D01*
X4174587Y-10873674D02*
X4193634Y-10864150D01*
X4193634Y-10864150D02*
X4222206Y-10864150D01*
X4222206Y-10864150D02*
X4241253Y-10873674D01*
X4241253Y-10873674D02*
X4250777Y-10883198D01*
X4250777Y-10883198D02*
X4260301Y-10902246D01*
X4260301Y-10902246D02*
X4260301Y-10959389D01*
X4260301Y-10959389D02*
X4250777Y-10978436D01*
X4250777Y-10978436D02*
X4241253Y-10987960D01*
X4241253Y-10987960D02*
X4222206Y-10997484D01*
X4222206Y-10997484D02*
X4193634Y-10997484D01*
X4374587Y-10997484D02*
X4355539Y-10987960D01*
X4355539Y-10987960D02*
X4346015Y-10968912D01*
X4346015Y-10968912D02*
X4346015Y-10797484D01*
X4526968Y-10987960D02*
X4507920Y-10997484D01*
X4507920Y-10997484D02*
X4469825Y-10997484D01*
X4469825Y-10997484D02*
X4450777Y-10987960D01*
X4450777Y-10987960D02*
X4441253Y-10968912D01*
X4441253Y-10968912D02*
X4441253Y-10892722D01*
X4441253Y-10892722D02*
X4450777Y-10873674D01*
X4450777Y-10873674D02*
X4469825Y-10864150D01*
X4469825Y-10864150D02*
X4507920Y-10864150D01*
X4507920Y-10864150D02*
X4526968Y-10873674D01*
X4526968Y-10873674D02*
X4536492Y-10892722D01*
X4536492Y-10892722D02*
X4536492Y-10911770D01*
X4536492Y-10911770D02*
X4441253Y-10930817D01*
X4612682Y-10987960D02*
X4631730Y-10997484D01*
X4631730Y-10997484D02*
X4669825Y-10997484D01*
X4669825Y-10997484D02*
X4688873Y-10987960D01*
X4688873Y-10987960D02*
X4698396Y-10968912D01*
X4698396Y-10968912D02*
X4698396Y-10959389D01*
X4698396Y-10959389D02*
X4688873Y-10940341D01*
X4688873Y-10940341D02*
X4669825Y-10930817D01*
X4669825Y-10930817D02*
X4641253Y-10930817D01*
X4641253Y-10930817D02*
X4622206Y-10921293D01*
X4622206Y-10921293D02*
X4612682Y-10902246D01*
X4612682Y-10902246D02*
X4612682Y-10892722D01*
X4612682Y-10892722D02*
X4622206Y-10873674D01*
X4622206Y-10873674D02*
X4641253Y-10864150D01*
X4641253Y-10864150D02*
X4669825Y-10864150D01*
X4669825Y-10864150D02*
X4688873Y-10873674D01*
X4765063Y-11073674D02*
X4774587Y-11064150D01*
X4774587Y-11064150D02*
X4793634Y-11035579D01*
X4793634Y-11035579D02*
X4803158Y-11016531D01*
X4803158Y-11016531D02*
X4812682Y-10987960D01*
X4812682Y-10987960D02*
X4822206Y-10940341D01*
X4822206Y-10940341D02*
X4822206Y-10902246D01*
X4822206Y-10902246D02*
X4812682Y-10854627D01*
X4812682Y-10854627D02*
X4803158Y-10826055D01*
X4803158Y-10826055D02*
X4793634Y-10807008D01*
X4793634Y-10807008D02*
X4774587Y-10778436D01*
X4774587Y-10778436D02*
X4765063Y-10768912D01*
M02*
