ISO-10303-21;
HEADER;
/* Generated by software containing ST-Developer
 * from STEP Tools, Inc. (www.steptools.com) 
 */

FILE_DESCRIPTION(
/* description */ ('',
'CAx-IF Rec.Pracs.---Representation and Presentation of Product Manufa
cturing Information (PMI)---4.0---2014-10-13'),
/* implementation_level */ '2;1');

FILE_NAME(
/* name */ 'Led 3mm green_.step',
/* time_stamp */ '2025-02-14T12:18:05+01:00',
/* author */ (''),
/* organization */ (''),
/* preprocessor_version */ 'ST-DEVELOPER v20',
/* originating_system */ 'Autodesk Translation Framework v13.20.0.188',

/* authorisation */ '');

FILE_SCHEMA (('AP242_MANAGED_MODEL_BASED_3D_ENGINEERING_MIM_LF { 1 0 10303 442 1 1 4 }'));
ENDSEC;

DATA;
#10=MECHANICAL_DESIGN_GEOMETRIC_PRESENTATION_REPRESENTATION('',(#15,#16,
#17),#269);
#11=SHAPE_REPRESENTATION_RELATIONSHIP('SRR','None',#276,#12);
#12=ADVANCED_BREP_SHAPE_REPRESENTATION('',(#13),#268);
#13=MANIFOLD_SOLID_BREP('K\X\F6rper1',#142);
#14=SPHERICAL_SURFACE('',#175,1.5);
#15=STYLED_ITEM('',(#285),#136);
#16=STYLED_ITEM('',(#285),#137);
#17=STYLED_ITEM('',(#286),#13);
#18=FACE_BOUND('',#50,.T.);
#19=FACE_BOUND('',#58,.T.);
#20=FACE_BOUND('',#59,.T.);
#21=PLANE('',#162);
#22=PLANE('',#164);
#23=PLANE('',#171);
#24=PLANE('',#177);
#25=LINE('',#237,#29);
#26=LINE('',#247,#30);
#27=LINE('',#253,#31);
#28=LINE('',#261,#32);
#29=VECTOR('',#190,1.75);
#30=VECTOR('',#203,0.175);
#31=VECTOR('',#210,0.175);
#32=VECTOR('',#221,1.5);
#33=CYLINDRICAL_SURFACE('',#160,1.75);
#34=CYLINDRICAL_SURFACE('',#166,0.175);
#35=CYLINDRICAL_SURFACE('',#168,0.175);
#36=CYLINDRICAL_SURFACE('',#172,1.5);
#37=FACE_OUTER_BOUND('',#47,.T.);
#38=FACE_OUTER_BOUND('',#48,.T.);
#39=FACE_OUTER_BOUND('',#49,.T.);
#40=FACE_OUTER_BOUND('',#51,.T.);
#41=FACE_OUTER_BOUND('',#52,.T.);
#42=FACE_OUTER_BOUND('',#53,.T.);
#43=FACE_OUTER_BOUND('',#54,.T.);
#44=FACE_OUTER_BOUND('',#55,.T.);
#45=FACE_OUTER_BOUND('',#56,.T.);
#46=FACE_OUTER_BOUND('',#57,.T.);
#47=EDGE_LOOP('',(#99,#100,#101,#102));
#48=EDGE_LOOP('',(#103,#104,#105,#106));
#49=EDGE_LOOP('',(#107));
#50=EDGE_LOOP('',(#108));
#51=EDGE_LOOP('',(#109));
#52=EDGE_LOOP('',(#110,#111,#112,#113));
#53=EDGE_LOOP('',(#114,#115,#116,#117));
#54=EDGE_LOOP('',(#118));
#55=EDGE_LOOP('',(#119,#120,#121,#122,#123));
#56=EDGE_LOOP('',(#124,#125,#126,#127));
#57=EDGE_LOOP('',(#128));
#58=EDGE_LOOP('',(#129));
#59=EDGE_LOOP('',(#130));
#60=CIRCLE('',#157,1.69);
#61=CIRCLE('',#158,0.06);
#62=CIRCLE('',#159,1.75);
#63=CIRCLE('',#161,1.75);
#64=CIRCLE('',#163,1.5);
#65=CIRCLE('',#165,0.175);
#66=CIRCLE('',#167,0.175);
#67=CIRCLE('',#169,0.175);
#68=CIRCLE('',#170,0.175);
#69=CIRCLE('',#173,1.5);
#70=CIRCLE('',#174,1.5);
#71=CIRCLE('',#176,1.5);
#72=VERTEX_POINT('',#230);
#73=VERTEX_POINT('',#232);
#74=VERTEX_POINT('',#236);
#75=VERTEX_POINT('',#240);
#76=VERTEX_POINT('',#243);
#77=VERTEX_POINT('',#246);
#78=VERTEX_POINT('',#250);
#79=VERTEX_POINT('',#252);
#80=VERTEX_POINT('',#257);
#81=VERTEX_POINT('',#258);
#82=VERTEX_POINT('',#263);
#83=EDGE_CURVE('',#72,#72,#60,.T.);
#84=EDGE_CURVE('',#72,#73,#61,.T.);
#85=EDGE_CURVE('',#73,#73,#62,.T.);
#86=EDGE_CURVE('',#73,#74,#25,.T.);
#87=EDGE_CURVE('',#74,#74,#63,.T.);
#88=EDGE_CURVE('',#75,#75,#64,.T.);
#89=EDGE_CURVE('',#76,#76,#65,.T.);
#90=EDGE_CURVE('',#76,#77,#26,.T.);
#91=EDGE_CURVE('',#77,#77,#66,.T.);
#92=EDGE_CURVE('',#78,#78,#67,.T.);
#93=EDGE_CURVE('',#78,#79,#27,.T.);
#94=EDGE_CURVE('',#79,#79,#68,.T.);
#95=EDGE_CURVE('',#80,#81,#69,.T.);
#96=EDGE_CURVE('',#81,#80,#70,.T.);
#97=EDGE_CURVE('',#81,#75,#28,.T.);
#98=EDGE_CURVE('',#82,#80,#71,.T.);
#99=ORIENTED_EDGE('',*,*,#83,.T.);
#100=ORIENTED_EDGE('',*,*,#84,.T.);
#101=ORIENTED_EDGE('',*,*,#85,.T.);
#102=ORIENTED_EDGE('',*,*,#84,.F.);
#103=ORIENTED_EDGE('',*,*,#85,.F.);
#104=ORIENTED_EDGE('',*,*,#86,.T.);
#105=ORIENTED_EDGE('',*,*,#87,.T.);
#106=ORIENTED_EDGE('',*,*,#86,.F.);
#107=ORIENTED_EDGE('',*,*,#83,.F.);
#108=ORIENTED_EDGE('',*,*,#88,.F.);
#109=ORIENTED_EDGE('',*,*,#89,.T.);
#110=ORIENTED_EDGE('',*,*,#89,.F.);
#111=ORIENTED_EDGE('',*,*,#90,.T.);
#112=ORIENTED_EDGE('',*,*,#91,.F.);
#113=ORIENTED_EDGE('',*,*,#90,.F.);
#114=ORIENTED_EDGE('',*,*,#92,.F.);
#115=ORIENTED_EDGE('',*,*,#93,.T.);
#116=ORIENTED_EDGE('',*,*,#94,.F.);
#117=ORIENTED_EDGE('',*,*,#93,.F.);
#118=ORIENTED_EDGE('',*,*,#92,.T.);
#119=ORIENTED_EDGE('',*,*,#95,.F.);
#120=ORIENTED_EDGE('',*,*,#96,.F.);
#121=ORIENTED_EDGE('',*,*,#97,.T.);
#122=ORIENTED_EDGE('',*,*,#88,.T.);
#123=ORIENTED_EDGE('',*,*,#97,.F.);
#124=ORIENTED_EDGE('',*,*,#95,.T.);
#125=ORIENTED_EDGE('',*,*,#96,.T.);
#126=ORIENTED_EDGE('',*,*,#98,.F.);
#127=ORIENTED_EDGE('',*,*,#98,.T.);
#128=ORIENTED_EDGE('',*,*,#87,.F.);
#129=ORIENTED_EDGE('',*,*,#91,.T.);
#130=ORIENTED_EDGE('',*,*,#94,.T.);
#131=TOROIDAL_SURFACE('',#156,1.69,0.06);
#132=ADVANCED_FACE('',(#37),#131,.T.);
#133=ADVANCED_FACE('',(#38),#33,.T.);
#134=ADVANCED_FACE('',(#39,#18),#21,.T.);
#135=ADVANCED_FACE('',(#40),#22,.T.);
#136=ADVANCED_FACE('',(#41),#34,.T.);
#137=ADVANCED_FACE('',(#42),#35,.T.);
#138=ADVANCED_FACE('',(#43),#23,.T.);
#139=ADVANCED_FACE('',(#44),#36,.T.);
#140=ADVANCED_FACE('',(#45),#14,.T.);
#141=ADVANCED_FACE('',(#46,#19,#20),#24,.T.);
#142=CLOSED_SHELL('',(#132,#133,#134,#135,#136,#137,#138,#139,#140,#141));
#143=DERIVED_UNIT_ELEMENT(#145,1.);
#144=DERIVED_UNIT_ELEMENT(#271,-3.);
#145=(
MASS_UNIT()
NAMED_UNIT(*)
SI_UNIT(.KILO.,.GRAM.)
);
#146=DERIVED_UNIT((#143,#144));
#147=MEASURE_REPRESENTATION_ITEM('density measure',
POSITIVE_RATIO_MEASURE(7850.),#146);
#148=PROPERTY_DEFINITION_REPRESENTATION(#153,#150);
#149=PROPERTY_DEFINITION_REPRESENTATION(#154,#151);
#150=REPRESENTATION('material name',(#152),#268);
#151=REPRESENTATION('density',(#147),#268);
#152=DESCRIPTIVE_REPRESENTATION_ITEM('Stahl','Stahl');
#153=PROPERTY_DEFINITION('material property','material name',#278);
#154=PROPERTY_DEFINITION('material property','density of part',#278);
#155=AXIS2_PLACEMENT_3D('',#228,#178,#179);
#156=AXIS2_PLACEMENT_3D('',#229,#180,#181);
#157=AXIS2_PLACEMENT_3D('',#231,#182,#183);
#158=AXIS2_PLACEMENT_3D('',#233,#184,#185);
#159=AXIS2_PLACEMENT_3D('',#234,#186,#187);
#160=AXIS2_PLACEMENT_3D('',#235,#188,#189);
#161=AXIS2_PLACEMENT_3D('',#238,#191,#192);
#162=AXIS2_PLACEMENT_3D('',#239,#193,#194);
#163=AXIS2_PLACEMENT_3D('',#241,#195,#196);
#164=AXIS2_PLACEMENT_3D('',#242,#197,#198);
#165=AXIS2_PLACEMENT_3D('',#244,#199,#200);
#166=AXIS2_PLACEMENT_3D('',#245,#201,#202);
#167=AXIS2_PLACEMENT_3D('',#248,#204,#205);
#168=AXIS2_PLACEMENT_3D('',#249,#206,#207);
#169=AXIS2_PLACEMENT_3D('',#251,#208,#209);
#170=AXIS2_PLACEMENT_3D('',#254,#211,#212);
#171=AXIS2_PLACEMENT_3D('',#255,#213,#214);
#172=AXIS2_PLACEMENT_3D('',#256,#215,#216);
#173=AXIS2_PLACEMENT_3D('',#259,#217,#218);
#174=AXIS2_PLACEMENT_3D('',#260,#219,#220);
#175=AXIS2_PLACEMENT_3D('',#262,#222,#223);
#176=AXIS2_PLACEMENT_3D('',#264,#224,#225);
#177=AXIS2_PLACEMENT_3D('',#265,#226,#227);
#178=DIRECTION('axis',(0.,0.,1.));
#179=DIRECTION('refdir',(1.,0.,0.));
#180=DIRECTION('center_axis',(0.,1.,0.));
#181=DIRECTION('ref_axis',(0.,0.,1.));
#182=DIRECTION('center_axis',(0.,-1.,0.));
#183=DIRECTION('ref_axis',(6.12323399573677E-17,0.,-1.));
#184=DIRECTION('center_axis',(-1.,0.,1.22464679914735E-16));
#185=DIRECTION('ref_axis',(-1.22464679914735E-16,0.,-1.));
#186=DIRECTION('center_axis',(0.,1.,0.));
#187=DIRECTION('ref_axis',(6.12323399573677E-17,0.,-1.));
#188=DIRECTION('center_axis',(0.,1.,0.));
#189=DIRECTION('ref_axis',(0.,0.,1.));
#190=DIRECTION('',(0.,-1.,0.));
#191=DIRECTION('center_axis',(0.,1.,0.));
#192=DIRECTION('ref_axis',(1.,0.,0.));
#193=DIRECTION('center_axis',(0.,1.,0.));
#194=DIRECTION('ref_axis',(0.,0.,1.));
#195=DIRECTION('center_axis',(0.,1.,0.));
#196=DIRECTION('ref_axis',(1.,0.,0.));
#197=DIRECTION('center_axis',(0.,-1.,0.));
#198=DIRECTION('ref_axis',(1.,0.,0.));
#199=DIRECTION('center_axis',(0.,-1.,0.));
#200=DIRECTION('ref_axis',(1.,0.,0.));
#201=DIRECTION('center_axis',(0.,-1.,0.));
#202=DIRECTION('ref_axis',(1.,0.,0.));
#203=DIRECTION('',(0.,1.,0.));
#204=DIRECTION('center_axis',(0.,1.,0.));
#205=DIRECTION('ref_axis',(1.,0.,0.));
#206=DIRECTION('center_axis',(0.,-1.,0.));
#207=DIRECTION('ref_axis',(1.,0.,0.));
#208=DIRECTION('center_axis',(0.,-1.,0.));
#209=DIRECTION('ref_axis',(1.,0.,0.));
#210=DIRECTION('',(0.,1.,0.));
#211=DIRECTION('center_axis',(0.,1.,0.));
#212=DIRECTION('ref_axis',(1.,0.,0.));
#213=DIRECTION('center_axis',(0.,-1.,0.));
#214=DIRECTION('ref_axis',(1.,0.,0.));
#215=DIRECTION('center_axis',(0.,1.,0.));
#216=DIRECTION('ref_axis',(0.,0.,1.));
#217=DIRECTION('center_axis',(0.,1.,0.));
#218=DIRECTION('ref_axis',(1.,0.,0.));
#219=DIRECTION('center_axis',(0.,1.,0.));
#220=DIRECTION('ref_axis',(1.,0.,0.));
#221=DIRECTION('',(0.,-1.,0.));
#222=DIRECTION('center_axis',(0.,1.,-6.12323399573676E-17));
#223=DIRECTION('ref_axis',(0.,0.,-1.));
#224=DIRECTION('center_axis',(1.,0.,-1.22464679914735E-16));
#225=DIRECTION('ref_axis',(1.22464679914735E-16,0.,1.));
#226=DIRECTION('center_axis',(0.,-1.,0.));
#227=DIRECTION('ref_axis',(0.,0.,-1.));
#228=CARTESIAN_POINT('',(0.,0.,0.));
#229=CARTESIAN_POINT('Origin',(0.,0.94,0.));
#230=CARTESIAN_POINT('',(-2.06965309055903E-16,1.,-1.69));
#231=CARTESIAN_POINT('Origin',(0.,1.,0.));
#232=CARTESIAN_POINT('',(-2.14313189850787E-16,0.94,-1.75));
#233=CARTESIAN_POINT('Origin',(-2.06965309055903E-16,0.94,-1.69));
#234=CARTESIAN_POINT('Origin',(0.,0.94,0.));
#235=CARTESIAN_POINT('Origin',(0.,0.5,0.));
#236=CARTESIAN_POINT('',(-2.14313189850787E-16,0.,-1.75));
#237=CARTESIAN_POINT('',(-2.14313189850787E-16,0.5,-1.75));
#238=CARTESIAN_POINT('Origin',(0.,0.,0.));
#239=CARTESIAN_POINT('Origin',(0.,1.,1.5));
#240=CARTESIAN_POINT('',(-1.83697019872103E-16,1.,-1.5));
#241=CARTESIAN_POINT('Origin',(0.,1.,0.));
#242=CARTESIAN_POINT('Origin',(1.1,-18.3,0.));
#243=CARTESIAN_POINT('',(0.925,-18.3,-2.14313189850787E-17));
#244=CARTESIAN_POINT('Origin',(1.1,-18.3,0.));
#245=CARTESIAN_POINT('Origin',(1.1,0.,0.));
#246=CARTESIAN_POINT('',(0.925,0.,-2.14313189850787E-17));
#247=CARTESIAN_POINT('',(0.925,0.,-2.14313189850787E-17));
#248=CARTESIAN_POINT('Origin',(1.1,0.,0.));
#249=CARTESIAN_POINT('Origin',(-1.1,0.,0.));
#250=CARTESIAN_POINT('',(-1.275,-16.8,-2.14313189850787E-17));
#251=CARTESIAN_POINT('Origin',(-1.1,-16.8,0.));
#252=CARTESIAN_POINT('',(-1.275,0.,-2.14313189850787E-17));
#253=CARTESIAN_POINT('',(-1.275,0.,-2.14313189850787E-17));
#254=CARTESIAN_POINT('Origin',(-1.1,0.,0.));
#255=CARTESIAN_POINT('Origin',(-1.1,-16.8,0.));
#256=CARTESIAN_POINT('Origin',(0.,2.4,0.));
#257=CARTESIAN_POINT('',(0.,3.8,1.5));
#258=CARTESIAN_POINT('',(-1.83697019872103E-16,3.8,-1.5));
#259=CARTESIAN_POINT('Origin',(0.,3.8,0.));
#260=CARTESIAN_POINT('Origin',(0.,3.8,0.));
#261=CARTESIAN_POINT('',(-1.83697019872103E-16,2.4,-1.5));
#262=CARTESIAN_POINT('Origin',(0.,3.8,0.));
#263=CARTESIAN_POINT('',(1.12481983699639E-32,5.3,9.18485099360515E-17));
#264=CARTESIAN_POINT('Origin',(0.,3.8,0.));
#265=CARTESIAN_POINT('Origin',(0.,0.,1.75));
#266=UNCERTAINTY_MEASURE_WITH_UNIT(LENGTH_MEASURE(0.01),#270,
'DISTANCE_ACCURACY_VALUE',
'Maximum model space distance between geometric entities at asserted c
onnectivities');
#267=UNCERTAINTY_MEASURE_WITH_UNIT(LENGTH_MEASURE(0.01),#270,
'DISTANCE_ACCURACY_VALUE',
'Maximum model space distance between geometric entities at asserted c
onnectivities');
#268=(
GEOMETRIC_REPRESENTATION_CONTEXT(3)
GLOBAL_UNCERTAINTY_ASSIGNED_CONTEXT((#266))
GLOBAL_UNIT_ASSIGNED_CONTEXT((#270,#272,#273))
REPRESENTATION_CONTEXT('','3D')
);
#269=(
GEOMETRIC_REPRESENTATION_CONTEXT(3)
GLOBAL_UNCERTAINTY_ASSIGNED_CONTEXT((#267))
GLOBAL_UNIT_ASSIGNED_CONTEXT((#270,#272,#273))
REPRESENTATION_CONTEXT('','3D')
);
#270=(
LENGTH_UNIT()
NAMED_UNIT(*)
SI_UNIT(.MILLI.,.METRE.)
);
#271=(
LENGTH_UNIT()
NAMED_UNIT(*)
SI_UNIT($,.METRE.)
);
#272=(
NAMED_UNIT(*)
PLANE_ANGLE_UNIT()
SI_UNIT($,.RADIAN.)
);
#273=(
NAMED_UNIT(*)
SI_UNIT($,.STERADIAN.)
SOLID_ANGLE_UNIT()
);
#274=SHAPE_DEFINITION_REPRESENTATION(#275,#276);
#275=PRODUCT_DEFINITION_SHAPE('',$,#278);
#276=SHAPE_REPRESENTATION('',(#155),#268);
#277=PRODUCT_DEFINITION_CONTEXT('part definition',#282,'design');
#278=PRODUCT_DEFINITION('Led 3mm green','Led 3mm green v1',#279,#277);
#279=PRODUCT_DEFINITION_FORMATION('',$,#284);
#280=PRODUCT_RELATED_PRODUCT_CATEGORY('Led 3mm green v1',
'Led 3mm green v1',(#284));
#281=APPLICATION_PROTOCOL_DEFINITION('international standard',
'ap242_managed_model_based_3d_engineering',2011,#282);
#282=APPLICATION_CONTEXT('Managed model based 3d engineering');
#283=PRODUCT_CONTEXT('part definition',#282,'mechanical');
#284=PRODUCT('Led 3mm green','Led 3mm green v1',$,(#283));
#285=PRESENTATION_STYLE_ASSIGNMENT((#287));
#286=PRESENTATION_STYLE_ASSIGNMENT((#288));
#287=SURFACE_STYLE_USAGE(.BOTH.,#289);
#288=SURFACE_STYLE_USAGE(.BOTH.,#290);
#289=SURFACE_SIDE_STYLE('',(#291));
#290=SURFACE_SIDE_STYLE('',(#292));
#291=SURFACE_STYLE_FILL_AREA(#293);
#292=SURFACE_STYLE_FILL_AREA(#294);
#293=FILL_AREA_STYLE('Stahl - satiniert',(#295));
#294=FILL_AREA_STYLE('LED (Gr\X\FCn)',(#296));
#295=FILL_AREA_STYLE_COLOUR('Stahl - satiniert',#297);
#296=FILL_AREA_STYLE_COLOUR('LED (Gr\X\FCn)',#298);
#297=COLOUR_RGB('Stahl - satiniert',0.627450980392157,0.627450980392157,
0.627450980392157);
#298=COLOUR_RGB('LED (Gr\X\FCn)',0.266666666666667,0.588235294117647,0.282352941176471);
ENDSEC;
END-ISO-10303-21;
