  0
SECTION
  2
HEADER
  9
$ANGBASE
  50
0.0
  9
$ANGDIR
  70
1
  9
$MEASUREMENT
  70
1
  0
ENDSEC
  0
SECTION
  2
TABLES
  0
TABLE
  2
LTYPE
  70
4
  0
LTYPE
  5
40F
  2
CONTINUOUS
  70
0
  3
Solid line
  72
65
  73
0
  40
0.0
  0
LTYPE
  5
410
  2
DASHDOT
 70
0
  3
Dash Dot ____ _ ____ _
 72
65
 73
4
 40
2.0
 49
1.25
 49
-0.25
 49
0.25
 49
-0.25
  0
LTYPE
  5
411
  2
DASHED
 70
0
  3
Dashed __ __ __ __ __
 72
65
 73
2
 40
0.75
 49
0.5
 49
-0.25
  0
LTYPE
  5
43B
  2
DOTTED
 70
0
  3
Dotted .  .  .  .
 72
65
 73
2
 40
0.2
 49
0.0
 49
-0.2
  0
ENDTAB
  0
TABLE
  2
STYLE
  70
4
  0
STYLE
  2
KICAD
  70
0
  40
0
  41
1
  42
1
  50
0
  71
0
  3
isocp.shx
  0
STYLE
  2
KICADB
  70
0
  40
0
  41
1
  42
1
  50
0
  71
0
  3
isocp.shx
  0
STYLE
  2
KICADI
  70
0
  40
0
  41
1
  42
1
  50
15
  71
0
  3
isocp.shx
  0
STYLE
  2
KICADBI
  70
0
  40
0
  41
1
  42
1
  50
15
  71
0
  3
isocp.shx
  0
ENDTAB
  0
TABLE
  2
LAYER
  70
1
  0
LAYER
  2
BLACK
  70
0
  62
7
  6
CONTINUOUS
  0
ENDTAB
  0
ENDSEC
  0
SECTION
  2
ENTITIES
0
LINE
8
BLACK
6
CONTINUOUS
10
0.
20
0.
11
92.
21
0.
0
LINE
8
BLACK
6
CONTINUOUS
10
0.
20
-59.
11
4.
21
-59.
0
LINE
8
BLACK
6
CONTINUOUS
10
0.
20
-21.
11
4.
21
-21.
0
CIRCLE
8
BLACK
10
4.
20
-88.
40
1.75
0
CIRCLE
8
BLACK
10
88.
20
-4.
40
1.75
0
LINE
8
BLACK
6
CONTINUOUS
10
51.
20
-92.
11
92.
21
-92.
0
CIRCLE
8
BLACK
10
88.
20
-88.
40
1.75
0
CIRCLE
8
BLACK
10
4.
20
-4.
40
1.75
0
LINE
8
BLACK
6
CONTINUOUS
10
51.
20
-88.
11
41.
21
-88.
0
LINE
8
BLACK
6
CONTINUOUS
10
0.
20
0.
11
0.
21
-21.
0
LINE
8
BLACK
6
CONTINUOUS
10
4.
20
-59.
11
4.
21
-21.
0
LINE
8
BLACK
6
CONTINUOUS
10
0.
20
-59.
11
0.
21
-92.
0
LINE
8
BLACK
6
CONTINUOUS
10
92.
20
0.
11
92.
21
-92.
0
LINE
8
BLACK
6
CONTINUOUS
10
51.
20
-92.
11
51.
21
-88.
0
LINE
8
BLACK
6
CONTINUOUS
10
41.
20
-92.
11
41.
21
-88.
0
LINE
8
BLACK
6
CONTINUOUS
10
0.
20
-92.
11
41.
21
-92.
0
CIRCLE
8
BLACK
10
26.0899999999999999
20
-18.3699999999999974
40
1.5999999999999999
0
CIRCLE
8
BLACK
10
26.0899999999999999
20
-73.6299999999999955
40
1.5999999999999999
0
CIRCLE
8
BLACK
10
65.9099999999999966
20
-18.3699999999999974
40
1.5999999999999999
0
CIRCLE
8
BLACK
10
65.9099999999999966
20
-73.6299999999999955
40
1.5999999999999999
0
LINE
8
BLACK
6
CONTINUOUS
10
2.7999999999999998
20
-14.
11
3.7999999999999998
21
-15.
0
LINE
8
BLACK
6
CONTINUOUS
10
3.7999999999999998
20
-14.
11
2.7999999999999998
21
-15.
0
LINE
8
BLACK
6
CONTINUOUS
10
2.7999999999999998
20
-16.5299999999999976
11
3.7999999999999998
21
-17.5299999999999976
0
LINE
8
BLACK
6
CONTINUOUS
10
3.7999999999999998
20
-16.5299999999999976
11
2.7999999999999998
21
-17.5299999999999976
0
CIRCLE
8
BLACK
10
16.
20
-4.4699999999999998
40
0.52
0
LINE
8
BLACK
6
CONTINUOUS
10
16.5199999999999996
20
-4.7000000000000002
11
16.5199999999999996
21
-4.2400000000000002
0
ARC
8
BLACK
10
16.
20
-4.2400000000000002
40
0.52
50
0.00000000
51
180.00000000
0
LINE
8
BLACK
6
CONTINUOUS
10
15.4799999999999986
20
-4.2400000000000002
11
15.4799999999999986
21
-4.7000000000000002
0
ARC
8
BLACK
10
16.
20
-4.7000000000000002
40
0.52
50
180.00000000
51
360.00000000
0
CIRCLE
8
BLACK
10
16.
20
-87.5
40
0.52
0
LINE
8
BLACK
6
CONTINUOUS
10
16.5199999999999996
20
-87.7299999999999898
11
16.5199999999999996
21
-87.269999999999996
0
ARC
8
BLACK
10
16.
20
-87.269999999999996
40
0.52
50
0.00000000
51
180.00000000
0
LINE
8
BLACK
6
CONTINUOUS
10
15.4799999999999986
20
-87.269999999999996
11
15.4799999999999986
21
-87.7299999999999898
0
ARC
8
BLACK
10
16.
20
-87.7299999999999898
40
0.52
50
180.00000000
51
360.00000000
0
CIRCLE
8
BLACK
10
36.
20
-4.5
40
0.52
0
LINE
8
BLACK
6
CONTINUOUS
10
36.519999999999996
20
-4.7299999999999995
11
36.519999999999996
21
-4.2699999999999996
0
ARC
8
BLACK
10
36.
20
-4.2699999999999996
40
0.52
50
0.00000000
51
180.00000000
0
LINE
8
BLACK
6
CONTINUOUS
10
35.4799999999999969
20
-4.2699999999999996
11
35.4799999999999969
21
-4.7299999999999995
0
ARC
8
BLACK
10
36.
20
-4.7299999999999995
40
0.52
50
180.00000000
51
360.00000000
0
CIRCLE
8
BLACK
10
36.
20
-87.5
40
0.52
0
LINE
8
BLACK
6
CONTINUOUS
10
36.519999999999996
20
-87.7299999999999898
11
36.519999999999996
21
-87.269999999999996
0
ARC
8
BLACK
10
36.
20
-87.269999999999996
40
0.52
50
0.00000000
51
180.00000000
0
LINE
8
BLACK
6
CONTINUOUS
10
35.4799999999999969
20
-87.269999999999996
11
35.4799999999999969
21
-87.7299999999999898
0
ARC
8
BLACK
10
36.
20
-87.7299999999999898
40
0.52
50
180.00000000
51
360.00000000
0
CIRCLE
8
BLACK
10
56.
20
-4.5
40
0.52
0
LINE
8
BLACK
6
CONTINUOUS
10
56.519999999999996
20
-4.7299999999999995
11
56.519999999999996
21
-4.2699999999999996
0
ARC
8
BLACK
10
56.
20
-4.2699999999999996
40
0.52
50
0.00000000
51
180.00000000
0
LINE
8
BLACK
6
CONTINUOUS
10
55.4799999999999969
20
-4.2699999999999996
11
55.4799999999999969
21
-4.7299999999999995
0
ARC
8
BLACK
10
56.
20
-4.7299999999999995
40
0.52
50
180.00000000
51
360.00000000
0
CIRCLE
8
BLACK
10
56.
20
-87.5
40
0.52
0
LINE
8
BLACK
6
CONTINUOUS
10
56.519999999999996
20
-87.7299999999999898
11
56.519999999999996
21
-87.269999999999996
0
ARC
8
BLACK
10
56.
20
-87.269999999999996
40
0.52
50
0.00000000
51
180.00000000
0
LINE
8
BLACK
6
CONTINUOUS
10
55.4799999999999969
20
-87.269999999999996
11
55.4799999999999969
21
-87.7299999999999898
0
ARC
8
BLACK
10
56.
20
-87.7299999999999898
40
0.52
50
180.00000000
51
360.00000000
0
CIRCLE
8
BLACK
10
76.
20
-4.5
40
0.52
0
LINE
8
BLACK
6
CONTINUOUS
10
76.519999999999996
20
-4.7299999999999995
11
76.519999999999996
21
-4.2699999999999996
0
ARC
8
BLACK
10
76.
20
-4.2699999999999996
40
0.52
50
0.00000000
51
180.00000000
0
LINE
8
BLACK
6
CONTINUOUS
10
75.4799999999999898
20
-4.2699999999999996
11
75.4799999999999898
21
-4.7299999999999995
0
ARC
8
BLACK
10
76.
20
-4.7299999999999995
40
0.52
50
180.00000000
51
360.00000000
0
CIRCLE
8
BLACK
10
76.
20
-87.5
40
0.52
0
LINE
8
BLACK
6
CONTINUOUS
10
76.519999999999996
20
-87.7299999999999898
11
76.519999999999996
21
-87.269999999999996
0
ARC
8
BLACK
10
76.
20
-87.269999999999996
40
0.52
50
0.00000000
51
180.00000000
0
LINE
8
BLACK
6
CONTINUOUS
10
75.4799999999999898
20
-87.269999999999996
11
75.4799999999999898
21
-87.7299999999999898
0
ARC
8
BLACK
10
76.
20
-87.7299999999999898
40
0.52
50
180.00000000
51
360.00000000
0
LINE
8
BLACK
6
CONTINUOUS
10
2.507768
20
-95.2148380000000003
11
2.507768
21
-93.2148380000000003
0
LINE
8
BLACK
6
CONTINUOUS
10
2.507768
20
-93.2148380000000003
11
2.9839579999999999
21
-93.2148380000000003
0
LINE
8
BLACK
6
CONTINUOUS
10
2.9839579999999999
20
-93.2148380000000003
11
3.2696730000000001
21
-93.3100759999999951
0
LINE
8
BLACK
6
CONTINUOUS
10
3.2696730000000001
20
-93.3100759999999951
11
3.4601489999999999
21
-93.500551999999999
0
LINE
8
BLACK
6
CONTINUOUS
10
3.4601489999999999
20
-93.500551999999999
11
3.5553869999999996
21
-93.6910280000000029
0
LINE
8
BLACK
6
CONTINUOUS
10
3.5553869999999996
20
-93.6910280000000029
11
3.6506249999999998
21
-94.0719799999999964
0
LINE
8
BLACK
6
CONTINUOUS
10
3.6506249999999998
20
-94.0719799999999964
11
3.6506249999999998
21
-94.3576949999999925
0
LINE
8
BLACK
6
CONTINUOUS
10
3.6506249999999998
20
-94.3576949999999925
11
3.5553869999999996
21
-94.7386470000000003
0
LINE
8
BLACK
6
CONTINUOUS
10
3.5553869999999996
20
-94.7386470000000003
11
3.4601489999999999
21
-94.9291229999999899
0
LINE
8
BLACK
6
CONTINUOUS
10
3.4601489999999999
20
-94.9291229999999899
11
3.2696730000000001
21
-95.1195999999999913
0
LINE
8
BLACK
6
CONTINUOUS
10
3.2696730000000001
20
-95.1195999999999913
11
2.9839579999999999
21
-95.2148380000000003
0
LINE
8
BLACK
6
CONTINUOUS
10
2.9839579999999999
20
-95.2148380000000003
11
2.507768
21
-95.2148380000000003
0
LINE
8
BLACK
6
CONTINUOUS
10
4.5077679999999996
20
-95.2148380000000003
11
4.5077679999999996
21
-93.8815039999999925
0
LINE
8
BLACK
6
CONTINUOUS
10
4.5077679999999996
20
-94.2624569999999977
11
4.6030059999999997
21
-94.0719799999999964
0
LINE
8
BLACK
6
CONTINUOUS
10
4.6030059999999997
20
-94.0719799999999964
11
4.6982439999999999
21
-93.9767420000000016
0
LINE
8
BLACK
6
CONTINUOUS
10
4.6982439999999999
20
-93.9767420000000016
11
4.8887200000000002
21
-93.8815039999999925
0
LINE
8
BLACK
6
CONTINUOUS
10
4.8887200000000002
20
-93.8815039999999925
11
5.0791969999999997
21
-93.8815039999999925
0
LINE
8
BLACK
6
CONTINUOUS
10
5.7458629999999999
20
-95.2148380000000003
11
5.7458629999999999
21
-93.8815039999999925
0
LINE
8
BLACK
6
CONTINUOUS
10
5.7458629999999999
20
-93.2148380000000003
11
5.6506249999999998
21
-93.3100759999999951
0
LINE
8
BLACK
6
CONTINUOUS
10
5.6506249999999998
20
-93.3100759999999951
11
5.7458629999999999
21
-93.40531399999999
0
LINE
8
BLACK
6
CONTINUOUS
10
5.7458629999999999
20
-93.40531399999999
11
5.8411010000000001
21
-93.3100759999999951
0
LINE
8
BLACK
6
CONTINUOUS
10
5.8411010000000001
20
-93.3100759999999951
11
5.7458629999999999
21
-93.2148380000000003
0
LINE
8
BLACK
6
CONTINUOUS
10
5.7458629999999999
20
-93.2148380000000003
11
5.7458629999999999
21
-93.40531399999999
0
LINE
8
BLACK
6
CONTINUOUS
10
6.9839579999999994
20
-95.2148380000000003
11
6.793482
21
-95.1195999999999913
0
LINE
8
BLACK
6
CONTINUOUS
10
6.793482
20
-95.1195999999999913
11
6.6982439999999999
21
-94.9291229999999899
0
LINE
8
BLACK
6
CONTINUOUS
10
6.6982439999999999
20
-94.9291229999999899
11
6.6982439999999999
21
-93.2148380000000003
0
LINE
8
BLACK
6
CONTINUOUS
10
8.0315770000000004
20
-95.2148380000000003
11
7.8411009999999992
21
-95.1195999999999913
0
LINE
8
BLACK
6
CONTINUOUS
10
7.8411009999999992
20
-95.1195999999999913
11
7.7458629999999999
21
-94.9291229999999899
0
LINE
8
BLACK
6
CONTINUOUS
10
7.7458629999999999
20
-94.9291229999999899
11
7.7458629999999999
21
-93.2148380000000003
0
LINE
8
BLACK
6
CONTINUOUS
10
10.3172920000000001
20
-95.2148380000000003
11
10.3172920000000001
21
-93.2148380000000003
0
LINE
8
BLACK
6
CONTINUOUS
10
10.3172920000000001
20
-93.2148380000000003
11
10.9839589999999987
21
-94.6434089999999912
0
LINE
8
BLACK
6
CONTINUOUS
10
10.9839589999999987
20
-94.6434089999999912
11
11.6506249999999998
21
-93.2148380000000003
0
LINE
8
BLACK
6
CONTINUOUS
10
11.6506249999999998
20
-93.2148380000000003
11
11.6506249999999998
21
-95.2148380000000003
0
LINE
8
BLACK
6
CONTINUOUS
10
13.4601489999999995
20
-95.2148380000000003
11
13.4601489999999995
21
-94.1672189999999887
0
LINE
8
BLACK
6
CONTINUOUS
10
13.4601489999999995
20
-94.1672189999999887
11
13.3649109999999993
21
-93.9767420000000016
0
LINE
8
BLACK
6
CONTINUOUS
10
13.3649109999999993
20
-93.9767420000000016
11
13.174434999999999
21
-93.8815039999999925
0
LINE
8
BLACK
6
CONTINUOUS
10
13.174434999999999
20
-93.8815039999999925
11
12.7934819999999991
21
-93.8815039999999925
0
LINE
8
BLACK
6
CONTINUOUS
10
12.7934819999999991
20
-93.8815039999999925
11
12.6030059999999988
21
-93.9767420000000016
0
LINE
8
BLACK
6
CONTINUOUS
10
13.4601489999999995
20
-95.1195999999999913
11
13.2696729999999992
21
-95.2148380000000003
0
LINE
8
BLACK
6
CONTINUOUS
10
13.2696729999999992
20
-95.2148380000000003
11
12.7934819999999991
21
-95.2148380000000003
0
LINE
8
BLACK
6
CONTINUOUS
10
12.7934819999999991
20
-95.2148380000000003
11
12.6030059999999988
21
-95.1195999999999913
0
LINE
8
BLACK
6
CONTINUOUS
10
12.6030059999999988
20
-95.1195999999999913
11
12.5077679999999987
21
-94.9291229999999899
0
LINE
8
BLACK
6
CONTINUOUS
10
12.5077679999999987
20
-94.9291229999999899
11
12.5077679999999987
21
-94.7386470000000003
0
LINE
8
BLACK
6
CONTINUOUS
10
12.5077679999999987
20
-94.7386470000000003
11
12.6030059999999988
21
-94.5481709999999964
0
LINE
8
BLACK
6
CONTINUOUS
10
12.6030059999999988
20
-94.5481709999999964
11
12.7934819999999991
21
-94.4529330000000016
0
LINE
8
BLACK
6
CONTINUOUS
10
12.7934819999999991
20
-94.4529330000000016
11
13.2696729999999992
21
-94.4529330000000016
0
LINE
8
BLACK
6
CONTINUOUS
10
13.2696729999999992
20
-94.4529330000000016
11
13.4601489999999995
21
-94.3576949999999925
0
LINE
8
BLACK
6
CONTINUOUS
10
14.4125299999999985
20
-93.8815039999999925
11
14.4125299999999985
21
-95.8815039999999925
0
LINE
8
BLACK
6
CONTINUOUS
10
14.4125299999999985
20
-93.9767420000000016
11
14.6030059999999988
21
-93.8815039999999925
0
LINE
8
BLACK
6
CONTINUOUS
10
14.6030059999999988
20
-93.8815039999999925
11
14.9839589999999987
21
-93.8815039999999925
0
LINE
8
BLACK
6
CONTINUOUS
10
14.9839589999999987
20
-93.8815039999999925
11
15.174434999999999
21
-93.9767420000000016
0
LINE
8
BLACK
6
CONTINUOUS
10
15.174434999999999
20
-93.9767420000000016
11
15.2696729999999992
21
-94.0719799999999964
0
LINE
8
BLACK
6
CONTINUOUS
10
15.2696729999999992
20
-94.0719799999999964
11
15.3649109999999993
21
-94.2624569999999977
0
LINE
8
BLACK
6
CONTINUOUS
10
15.3649109999999993
20
-94.2624569999999977
11
15.3649109999999993
21
-94.8338849999999951
0
LINE
8
BLACK
6
CONTINUOUS
10
15.3649109999999993
20
-94.8338849999999951
11
15.2696729999999992
21
-95.024360999999999
0
LINE
8
BLACK
6
CONTINUOUS
10
15.2696729999999992
20
-95.024360999999999
11
15.174434999999999
21
-95.1195999999999913
0
LINE
8
BLACK
6
CONTINUOUS
10
15.174434999999999
20
-95.1195999999999913
11
14.9839589999999987
21
-95.2148380000000003
0
LINE
8
BLACK
6
CONTINUOUS
10
14.9839589999999987
20
-95.2148380000000003
11
14.6030059999999988
21
-95.2148380000000003
0
LINE
8
BLACK
6
CONTINUOUS
10
14.6030059999999988
20
-95.2148380000000003
11
14.4125299999999985
21
-95.1195999999999913
0
LINE
8
BLACK
6
CONTINUOUS
10
16.222054
20
-95.024360999999999
11
16.3172919999999984
21
-95.1195999999999913
0
LINE
8
BLACK
6
CONTINUOUS
10
16.3172919999999984
20
-95.1195999999999913
11
16.222054
21
-95.2148380000000003
0
LINE
8
BLACK
6
CONTINUOUS
10
16.222054
20
-95.2148380000000003
11
16.126815999999998
21
-95.1195999999999913
0
LINE
8
BLACK
6
CONTINUOUS
10
16.126815999999998
20
-95.1195999999999913
11
16.222054
21
-95.024360999999999
0
LINE
8
BLACK
6
CONTINUOUS
10
16.222054
20
-95.024360999999999
11
16.222054
21
-95.2148380000000003
0
LINE
8
BLACK
6
CONTINUOUS
10
16.222054
20
-93.9767420000000016
11
16.3172919999999984
21
-94.0719799999999964
0
LINE
8
BLACK
6
CONTINUOUS
10
16.3172919999999984
20
-94.0719799999999964
11
16.222054
21
-94.1672189999999887
0
LINE
8
BLACK
6
CONTINUOUS
10
16.222054
20
-94.1672189999999887
11
16.126815999999998
21
-94.0719799999999964
0
LINE
8
BLACK
6
CONTINUOUS
10
16.126815999999998
20
-94.0719799999999964
11
16.222054
21
-93.9767420000000016
0
LINE
8
BLACK
6
CONTINUOUS
10
16.222054
20
-93.9767420000000016
11
16.222054
21
-94.1672189999999887
0
LINE
8
BLACK
6
CONTINUOUS
10
-1.0999999999999999
20
-98.
11
-0.1
21
-99.
0
LINE
8
BLACK
6
CONTINUOUS
10
-0.1
20
-98.
11
-1.0999999999999999
21
-99.
0
LINE
8
BLACK
6
CONTINUOUS
10
3.5553869999999996
20
-99.4148379999999889
11
2.4125299999999998
21
-99.4148379999999889
0
LINE
8
BLACK
6
CONTINUOUS
10
2.9839579999999999
20
-99.4148379999999889
11
2.9839579999999999
21
-97.4148379999999889
0
LINE
8
BLACK
6
CONTINUOUS
10
2.9839579999999999
20
-97.4148379999999889
11
2.793482
21
-97.7005520000000018
0
LINE
8
BLACK
6
CONTINUOUS
10
2.793482
20
-97.7005520000000018
11
2.6030059999999997
21
-97.8910279999999915
0
LINE
8
BLACK
6
CONTINUOUS
10
2.6030059999999997
20
-97.8910279999999915
11
2.4125299999999998
21
-97.9862660000000005
0
LINE
8
BLACK
6
CONTINUOUS
10
4.4125299999999994
20
-99.2243610000000018
11
4.5077679999999996
21
-99.3195999999999941
0
LINE
8
BLACK
6
CONTINUOUS
10
4.5077679999999996
20
-99.3195999999999941
11
4.4125299999999994
21
-99.4148379999999889
0
LINE
8
BLACK
6
CONTINUOUS
10
4.4125299999999994
20
-99.4148379999999889
11
4.3172920000000001
21
-99.3195999999999941
0
LINE
8
BLACK
6
CONTINUOUS
10
4.3172920000000001
20
-99.3195999999999941
11
4.4125299999999994
21
-99.2243610000000018
0
LINE
8
BLACK
6
CONTINUOUS
10
4.4125299999999994
20
-99.2243610000000018
11
4.4125299999999994
21
-99.4148379999999889
0
LINE
8
BLACK
6
CONTINUOUS
10
5.7458629999999999
20
-97.4148379999999889
11
5.9363399999999995
21
-97.4148379999999889
0
LINE
8
BLACK
6
CONTINUOUS
10
5.9363399999999995
20
-97.4148379999999889
11
6.1268159999999998
21
-97.510075999999998
0
LINE
8
BLACK
6
CONTINUOUS
10
6.1268159999999998
20
-97.510075999999998
11
6.222054
21
-97.6053139999999928
0
LINE
8
BLACK
6
CONTINUOUS
10
6.222054
20
-97.6053139999999928
11
6.3172920000000001
21
-97.7957899999999967
0
LINE
8
BLACK
6
CONTINUOUS
10
6.3172920000000001
20
-97.7957899999999967
11
6.4125299999999994
21
-98.1767419999999902
0
LINE
8
BLACK
6
CONTINUOUS
10
6.4125299999999994
20
-98.1767419999999902
11
6.4125299999999994
21
-98.6529329999999902
0
LINE
8
BLACK
6
CONTINUOUS
10
6.4125299999999994
20
-98.6529329999999902
11
6.3172920000000001
21
-99.0338849999999979
0
LINE
8
BLACK
6
CONTINUOUS
10
6.3172920000000001
20
-99.0338849999999979
11
6.222054
21
-99.2243610000000018
0
LINE
8
BLACK
6
CONTINUOUS
10
6.222054
20
-99.2243610000000018
11
6.1268159999999998
21
-99.3195999999999941
0
LINE
8
BLACK
6
CONTINUOUS
10
6.1268159999999998
20
-99.3195999999999941
11
5.9363399999999995
21
-99.4148379999999889
0
LINE
8
BLACK
6
CONTINUOUS
10
5.9363399999999995
20
-99.4148379999999889
11
5.7458629999999999
21
-99.4148379999999889
0
LINE
8
BLACK
6
CONTINUOUS
10
5.7458629999999999
20
-99.4148379999999889
11
5.5553869999999996
21
-99.3195999999999941
0
LINE
8
BLACK
6
CONTINUOUS
10
5.5553869999999996
20
-99.3195999999999941
11
5.4601489999999995
21
-99.2243610000000018
0
LINE
8
BLACK
6
CONTINUOUS
10
5.4601489999999995
20
-99.2243610000000018
11
5.3649109999999993
21
-99.0338849999999979
0
LINE
8
BLACK
6
CONTINUOUS
10
5.3649109999999993
20
-99.0338849999999979
11
5.2696730000000001
21
-98.6529329999999902
0
LINE
8
BLACK
6
CONTINUOUS
10
5.2696730000000001
20
-98.6529329999999902
11
5.2696730000000001
21
-98.1767419999999902
0
LINE
8
BLACK
6
CONTINUOUS
10
5.2696730000000001
20
-98.1767419999999902
11
5.3649109999999993
21
-97.7957899999999967
0
LINE
8
BLACK
6
CONTINUOUS
10
5.3649109999999993
20
-97.7957899999999967
11
5.4601489999999995
21
-97.6053139999999928
0
LINE
8
BLACK
6
CONTINUOUS
10
5.4601489999999995
20
-97.6053139999999928
11
5.5553869999999996
21
-97.510075999999998
0
LINE
8
BLACK
6
CONTINUOUS
10
5.5553869999999996
20
-97.510075999999998
11
5.7458629999999999
21
-97.4148379999999889
0
LINE
8
BLACK
6
CONTINUOUS
10
7.6506249999999998
20
-97.4148379999999889
11
7.8411019999999994
21
-97.4148379999999889
0
LINE
8
BLACK
6
CONTINUOUS
10
7.8411019999999994
20
-97.4148379999999889
11
8.0315779999999997
21
-97.510075999999998
0
LINE
8
BLACK
6
CONTINUOUS
10
8.0315779999999997
20
-97.510075999999998
11
8.1268159999999998
21
-97.6053139999999928
0
LINE
8
BLACK
6
CONTINUOUS
10
8.1268159999999998
20
-97.6053139999999928
11
8.222054
21
-97.7957899999999967
0
LINE
8
BLACK
6
CONTINUOUS
10
8.222054
20
-97.7957899999999967
11
8.3172920000000001
21
-98.1767419999999902
0
LINE
8
BLACK
6
CONTINUOUS
10
8.3172920000000001
20
-98.1767419999999902
11
8.3172920000000001
21
-98.6529329999999902
0
LINE
8
BLACK
6
CONTINUOUS
10
8.3172920000000001
20
-98.6529329999999902
11
8.222054
21
-99.0338849999999979
0
LINE
8
BLACK
6
CONTINUOUS
10
8.222054
20
-99.0338849999999979
11
8.1268159999999998
21
-99.2243610000000018
0
LINE
8
BLACK
6
CONTINUOUS
10
8.1268159999999998
20
-99.2243610000000018
11
8.0315779999999997
21
-99.3195999999999941
0
LINE
8
BLACK
6
CONTINUOUS
10
8.0315779999999997
20
-99.3195999999999941
11
7.8411019999999994
21
-99.4148379999999889
0
LINE
8
BLACK
6
CONTINUOUS
10
7.8411019999999994
20
-99.4148379999999889
11
7.6506249999999998
21
-99.4148379999999889
0
LINE
8
BLACK
6
CONTINUOUS
10
7.6506249999999998
20
-99.4148379999999889
11
7.4601489999999995
21
-99.3195999999999941
0
LINE
8
BLACK
6
CONTINUOUS
10
7.4601489999999995
20
-99.3195999999999941
11
7.3649109999999993
21
-99.2243610000000018
0
LINE
8
BLACK
6
CONTINUOUS
10
7.3649109999999993
20
-99.2243610000000018
11
7.2696730000000001
21
-99.0338849999999979
0
LINE
8
BLACK
6
CONTINUOUS
10
7.2696730000000001
20
-99.0338849999999979
11
7.1744349999999999
21
-98.6529329999999902
0
LINE
8
BLACK
6
CONTINUOUS
10
7.1744349999999999
20
-98.6529329999999902
11
7.1744349999999999
21
-98.1767419999999902
0
LINE
8
BLACK
6
CONTINUOUS
10
7.1744349999999999
20
-98.1767419999999902
11
7.2696730000000001
21
-97.7957899999999967
0
LINE
8
BLACK
6
CONTINUOUS
10
7.2696730000000001
20
-97.7957899999999967
11
7.3649109999999993
21
-97.6053139999999928
0
LINE
8
BLACK
6
CONTINUOUS
10
7.3649109999999993
20
-97.6053139999999928
11
7.4601489999999995
21
-97.510075999999998
0
LINE
8
BLACK
6
CONTINUOUS
10
7.4601489999999995
20
-97.510075999999998
11
7.6506249999999998
21
-97.4148379999999889
0
LINE
8
BLACK
6
CONTINUOUS
10
9.5553869999999996
20
-97.4148379999999889
11
9.7458639999999992
21
-97.4148379999999889
0
LINE
8
BLACK
6
CONTINUOUS
10
9.7458639999999992
20
-97.4148379999999889
11
9.9363399999999995
21
-97.510075999999998
0
LINE
8
BLACK
6
CONTINUOUS
10
9.9363399999999995
20
-97.510075999999998
11
10.0315779999999997
21
-97.6053139999999928
0
LINE
8
BLACK
6
CONTINUOUS
10
10.0315779999999997
20
-97.6053139999999928
11
10.1268159999999998
21
-97.7957899999999967
0
LINE
8
BLACK
6
CONTINUOUS
10
10.1268159999999998
20
-97.7957899999999967
11
10.222054
21
-98.1767419999999902
0
LINE
8
BLACK
6
CONTINUOUS
10
10.222054
20
-98.1767419999999902
11
10.222054
21
-98.6529329999999902
0
LINE
8
BLACK
6
CONTINUOUS
10
10.222054
20
-98.6529329999999902
11
10.1268159999999998
21
-99.0338849999999979
0
LINE
8
BLACK
6
CONTINUOUS
10
10.1268159999999998
20
-99.0338849999999979
11
10.0315779999999997
21
-99.2243610000000018
0
LINE
8
BLACK
6
CONTINUOUS
10
10.0315779999999997
20
-99.2243610000000018
11
9.9363399999999995
21
-99.3195999999999941
0
LINE
8
BLACK
6
CONTINUOUS
10
9.9363399999999995
20
-99.3195999999999941
11
9.7458639999999992
21
-99.4148379999999889
0
LINE
8
BLACK
6
CONTINUOUS
10
9.7458639999999992
20
-99.4148379999999889
11
9.5553869999999996
21
-99.4148379999999889
0
LINE
8
BLACK
6
CONTINUOUS
10
9.5553869999999996
20
-99.4148379999999889
11
9.3649109999999993
21
-99.3195999999999941
0
LINE
8
BLACK
6
CONTINUOUS
10
9.3649109999999993
20
-99.3195999999999941
11
9.2696729999999992
21
-99.2243610000000018
0
LINE
8
BLACK
6
CONTINUOUS
10
9.2696729999999992
20
-99.2243610000000018
11
9.174434999999999
21
-99.0338849999999979
0
LINE
8
BLACK
6
CONTINUOUS
10
9.174434999999999
20
-99.0338849999999979
11
9.0791969999999989
21
-98.6529329999999902
0
LINE
8
BLACK
6
CONTINUOUS
10
9.0791969999999989
20
-98.6529329999999902
11
9.0791969999999989
21
-98.1767419999999902
0
LINE
8
BLACK
6
CONTINUOUS
10
9.0791969999999989
20
-98.1767419999999902
11
9.174434999999999
21
-97.7957899999999967
0
LINE
8
BLACK
6
CONTINUOUS
10
9.174434999999999
20
-97.7957899999999967
11
9.2696729999999992
21
-97.6053139999999928
0
LINE
8
BLACK
6
CONTINUOUS
10
9.2696729999999992
20
-97.6053139999999928
11
9.3649109999999993
21
-97.510075999999998
0
LINE
8
BLACK
6
CONTINUOUS
10
9.3649109999999993
20
-97.510075999999998
11
9.5553869999999996
21
-97.4148379999999889
0
LINE
8
BLACK
6
CONTINUOUS
10
11.0791969999999989
20
-99.4148379999999889
11
11.0791969999999989
21
-98.0815039999999954
0
LINE
8
BLACK
6
CONTINUOUS
10
11.0791969999999989
20
-98.2719799999999992
11
11.174434999999999
21
-98.1767419999999902
0
LINE
8
BLACK
6
CONTINUOUS
10
11.174434999999999
20
-98.1767419999999902
11
11.3649109999999993
21
-98.0815039999999954
0
LINE
8
BLACK
6
CONTINUOUS
10
11.3649109999999993
20
-98.0815039999999954
11
11.650625999999999
21
-98.0815039999999954
0
LINE
8
BLACK
6
CONTINUOUS
10
11.650625999999999
20
-98.0815039999999954
11
11.8411019999999994
21
-98.1767419999999902
0
LINE
8
BLACK
6
CONTINUOUS
10
11.8411019999999994
20
-98.1767419999999902
11
11.9363399999999995
21
-98.3672189999999915
0
LINE
8
BLACK
6
CONTINUOUS
10
11.9363399999999995
20
-98.3672189999999915
11
11.9363399999999995
21
-99.4148379999999889
0
LINE
8
BLACK
6
CONTINUOUS
10
11.9363399999999995
20
-98.3672189999999915
11
12.0315779999999997
21
-98.1767419999999902
0
LINE
8
BLACK
6
CONTINUOUS
10
12.0315779999999997
20
-98.1767419999999902
11
12.222054
21
-98.0815039999999954
0
LINE
8
BLACK
6
CONTINUOUS
10
12.222054
20
-98.0815039999999954
11
12.5077679999999987
21
-98.0815039999999954
0
LINE
8
BLACK
6
CONTINUOUS
10
12.5077679999999987
20
-98.0815039999999954
11
12.698245
21
-98.1767419999999902
0
LINE
8
BLACK
6
CONTINUOUS
10
12.698245
20
-98.1767419999999902
11
12.7934830000000002
21
-98.3672189999999915
0
LINE
8
BLACK
6
CONTINUOUS
10
12.7934830000000002
20
-98.3672189999999915
11
12.7934830000000002
21
-99.4148379999999889
0
LINE
8
BLACK
6
CONTINUOUS
10
13.7458639999999992
20
-99.4148379999999889
11
13.7458639999999992
21
-98.0815039999999954
0
LINE
8
BLACK
6
CONTINUOUS
10
13.7458639999999992
20
-98.2719799999999992
11
13.8411019999999994
21
-98.1767419999999902
0
LINE
8
BLACK
6
CONTINUOUS
10
13.8411019999999994
20
-98.1767419999999902
11
14.0315779999999997
21
-98.0815039999999954
0
LINE
8
BLACK
6
CONTINUOUS
10
14.0315779999999997
20
-98.0815039999999954
11
14.3172929999999994
21
-98.0815039999999954
0
LINE
8
BLACK
6
CONTINUOUS
10
14.3172929999999994
20
-98.0815039999999954
11
14.5077689999999997
21
-98.1767419999999902
0
LINE
8
BLACK
6
CONTINUOUS
10
14.5077689999999997
20
-98.1767419999999902
11
14.6030069999999998
21
-98.3672189999999915
0
LINE
8
BLACK
6
CONTINUOUS
10
14.6030069999999998
20
-98.3672189999999915
11
14.6030069999999998
21
-99.4148379999999889
0
LINE
8
BLACK
6
CONTINUOUS
10
14.6030069999999998
20
-98.3672189999999915
11
14.698245
21
-98.1767419999999902
0
LINE
8
BLACK
6
CONTINUOUS
10
14.698245
20
-98.1767419999999902
11
14.8887209999999985
21
-98.0815039999999954
0
LINE
8
BLACK
6
CONTINUOUS
10
14.8887209999999985
20
-98.0815039999999954
11
15.174434999999999
21
-98.0815039999999954
0
LINE
8
BLACK
6
CONTINUOUS
10
15.174434999999999
20
-98.0815039999999954
11
15.3649119999999986
21
-98.1767419999999902
0
LINE
8
BLACK
6
CONTINUOUS
10
15.3649119999999986
20
-98.1767419999999902
11
15.4601499999999987
21
-98.3672189999999915
0
LINE
8
BLACK
6
CONTINUOUS
10
15.4601499999999987
20
-98.3672189999999915
11
15.4601499999999987
21
-99.4148379999999889
0
LINE
8
BLACK
6
CONTINUOUS
10
19.3649120000000003
20
-97.3195999999999941
11
17.6506270000000001
21
-99.8910279999999915
0
LINE
8
BLACK
6
CONTINUOUS
10
21.9363409999999988
20
-97.4148379999999889
11
22.1268180000000001
21
-97.4148379999999889
0
LINE
8
BLACK
6
CONTINUOUS
10
22.1268180000000001
20
-97.4148379999999889
11
22.3172940000000004
21
-97.510075999999998
0
LINE
8
BLACK
6
CONTINUOUS
10
22.3172940000000004
20
-97.510075999999998
11
22.4125319999999988
21
-97.6053139999999928
0
LINE
8
BLACK
6
CONTINUOUS
10
22.4125319999999988
20
-97.6053139999999928
11
22.5077700000000007
21
-97.7957899999999967
0
LINE
8
BLACK
6
CONTINUOUS
10
22.5077700000000007
20
-97.7957899999999967
11
22.6030079999999991
21
-98.1767419999999902
0
LINE
8
BLACK
6
CONTINUOUS
10
22.6030079999999991
20
-98.1767419999999902
11
22.6030079999999991
21
-98.6529329999999902
0
LINE
8
BLACK
6
CONTINUOUS
10
22.6030079999999991
20
-98.6529329999999902
11
22.5077700000000007
21
-99.0338849999999979
0
LINE
8
BLACK
6
CONTINUOUS
10
22.5077700000000007
20
-99.0338849999999979
11
22.4125319999999988
21
-99.2243610000000018
0
LINE
8
BLACK
6
CONTINUOUS
10
22.4125319999999988
20
-99.2243610000000018
11
22.3172940000000004
21
-99.3195999999999941
0
LINE
8
BLACK
6
CONTINUOUS
10
22.3172940000000004
20
-99.3195999999999941
11
22.1268180000000001
21
-99.4148379999999889
0
LINE
8
BLACK
6
CONTINUOUS
10
22.1268180000000001
20
-99.4148379999999889
11
21.9363409999999988
21
-99.4148379999999889
0
LINE
8
BLACK
6
CONTINUOUS
10
21.9363409999999988
20
-99.4148379999999889
11
21.7458649999999984
21
-99.3195999999999941
0
LINE
8
BLACK
6
CONTINUOUS
10
21.7458649999999984
20
-99.3195999999999941
11
21.6506270000000001
21
-99.2243610000000018
0
LINE
8
BLACK
6
CONTINUOUS
10
21.6506270000000001
20
-99.2243610000000018
11
21.5553889999999981
21
-99.0338849999999979
0
LINE
8
BLACK
6
CONTINUOUS
10
21.5553889999999981
20
-99.0338849999999979
11
21.4601509999999998
21
-98.6529329999999902
0
LINE
8
BLACK
6
CONTINUOUS
10
21.4601509999999998
20
-98.6529329999999902
11
21.4601509999999998
21
-98.1767419999999902
0
LINE
8
BLACK
6
CONTINUOUS
10
21.4601509999999998
20
-98.1767419999999902
11
21.5553889999999981
21
-97.7957899999999967
0
LINE
8
BLACK
6
CONTINUOUS
10
21.5553889999999981
20
-97.7957899999999967
11
21.6506270000000001
21
-97.6053139999999928
0
LINE
8
BLACK
6
CONTINUOUS
10
21.6506270000000001
20
-97.6053139999999928
11
21.7458649999999984
21
-97.510075999999998
0
LINE
8
BLACK
6
CONTINUOUS
10
21.7458649999999984
20
-97.510075999999998
11
21.9363409999999988
21
-97.4148379999999889
0
LINE
8
BLACK
6
CONTINUOUS
10
23.4601509999999998
20
-99.2243610000000018
11
23.5553889999999981
21
-99.3195999999999941
0
LINE
8
BLACK
6
CONTINUOUS
10
23.5553889999999981
20
-99.3195999999999941
11
23.4601509999999998
21
-99.4148379999999889
0
LINE
8
BLACK
6
CONTINUOUS
10
23.4601509999999998
20
-99.4148379999999889
11
23.3649129999999978
21
-99.3195999999999941
0
LINE
8
BLACK
6
CONTINUOUS
10
23.3649129999999978
20
-99.3195999999999941
11
23.4601509999999998
21
-99.2243610000000018
0
LINE
8
BLACK
6
CONTINUOUS
10
23.4601509999999998
20
-99.2243610000000018
11
23.4601509999999998
21
-99.4148379999999889
0
LINE
8
BLACK
6
CONTINUOUS
10
24.7934839999999994
20
-97.4148379999999889
11
24.9839609999999972
21
-97.4148379999999889
0
LINE
8
BLACK
6
CONTINUOUS
10
24.9839609999999972
20
-97.4148379999999889
11
25.1744369999999975
21
-97.510075999999998
0
LINE
8
BLACK
6
CONTINUOUS
10
25.1744369999999975
20
-97.510075999999998
11
25.2696749999999994
21
-97.6053139999999928
0
LINE
8
BLACK
6
CONTINUOUS
10
25.2696749999999994
20
-97.6053139999999928
11
25.3649129999999978
21
-97.7957899999999967
0
LINE
8
BLACK
6
CONTINUOUS
10
25.3649129999999978
20
-97.7957899999999967
11
25.4601509999999998
21
-98.1767419999999902
0
LINE
8
BLACK
6
CONTINUOUS
10
25.4601509999999998
20
-98.1767419999999902
11
25.4601509999999998
21
-98.6529329999999902
0
LINE
8
BLACK
6
CONTINUOUS
10
25.4601509999999998
20
-98.6529329999999902
11
25.3649129999999978
21
-99.0338849999999979
0
LINE
8
BLACK
6
CONTINUOUS
10
25.3649129999999978
20
-99.0338849999999979
11
25.2696749999999994
21
-99.2243610000000018
0
LINE
8
BLACK
6
CONTINUOUS
10
25.2696749999999994
20
-99.2243610000000018
11
25.1744369999999975
21
-99.3195999999999941
0
LINE
8
BLACK
6
CONTINUOUS
10
25.1744369999999975
20
-99.3195999999999941
11
24.9839609999999972
21
-99.4148379999999889
0
LINE
8
BLACK
6
CONTINUOUS
10
24.9839609999999972
20
-99.4148379999999889
11
24.7934839999999994
21
-99.4148379999999889
0
LINE
8
BLACK
6
CONTINUOUS
10
24.7934839999999994
20
-99.4148379999999889
11
24.6030079999999991
21
-99.3195999999999941
0
LINE
8
BLACK
6
CONTINUOUS
10
24.6030079999999991
20
-99.3195999999999941
11
24.5077699999999972
21
-99.2243610000000018
0
LINE
8
BLACK
6
CONTINUOUS
10
24.5077699999999972
20
-99.2243610000000018
11
24.4125319999999988
21
-99.0338849999999979
0
LINE
8
BLACK
6
CONTINUOUS
10
24.4125319999999988
20
-99.0338849999999979
11
24.3172940000000004
21
-98.6529329999999902
0
LINE
8
BLACK
6
CONTINUOUS
10
24.3172940000000004
20
-98.6529329999999902
11
24.3172940000000004
21
-98.1767419999999902
0
LINE
8
BLACK
6
CONTINUOUS
10
24.3172940000000004
20
-98.1767419999999902
11
24.4125319999999988
21
-97.7957899999999967
0
LINE
8
BLACK
6
CONTINUOUS
10
24.4125319999999988
20
-97.7957899999999967
11
24.5077699999999972
21
-97.6053139999999928
0
LINE
8
BLACK
6
CONTINUOUS
10
24.5077699999999972
20
-97.6053139999999928
11
24.6030079999999991
21
-97.510075999999998
0
LINE
8
BLACK
6
CONTINUOUS
10
24.6030079999999991
20
-97.510075999999998
11
24.7934839999999994
21
-97.4148379999999889
0
LINE
8
BLACK
6
CONTINUOUS
10
26.1268180000000001
20
-97.4148379999999889
11
27.3649129999999978
21
-97.4148379999999889
0
LINE
8
BLACK
6
CONTINUOUS
10
27.3649129999999978
20
-97.4148379999999889
11
26.6982459999999975
21
-98.1767419999999902
0
LINE
8
BLACK
6
CONTINUOUS
10
26.6982459999999975
20
-98.1767419999999902
11
26.9839609999999972
21
-98.1767419999999902
0
LINE
8
BLACK
6
CONTINUOUS
10
26.9839609999999972
20
-98.1767419999999902
11
27.1744369999999975
21
-98.2719799999999992
0
LINE
8
BLACK
6
CONTINUOUS
10
27.1744369999999975
20
-98.2719799999999992
11
27.2696749999999994
21
-98.3672189999999915
0
LINE
8
BLACK
6
CONTINUOUS
10
27.2696749999999994
20
-98.3672189999999915
11
27.3649129999999978
21
-98.5576949999999954
0
LINE
8
BLACK
6
CONTINUOUS
10
27.3649129999999978
20
-98.5576949999999954
11
27.3649129999999978
21
-99.0338849999999979
0
LINE
8
BLACK
6
CONTINUOUS
10
27.3649129999999978
20
-99.0338849999999979
11
27.2696749999999994
21
-99.2243610000000018
0
LINE
8
BLACK
6
CONTINUOUS
10
27.2696749999999994
20
-99.2243610000000018
11
27.1744369999999975
21
-99.3195999999999941
0
LINE
8
BLACK
6
CONTINUOUS
10
27.1744369999999975
20
-99.3195999999999941
11
26.9839609999999972
21
-99.4148379999999889
0
LINE
8
BLACK
6
CONTINUOUS
10
26.9839609999999972
20
-99.4148379999999889
11
26.4125319999999988
21
-99.4148379999999889
0
LINE
8
BLACK
6
CONTINUOUS
10
26.4125319999999988
20
-99.4148379999999889
11
26.2220559999999985
21
-99.3195999999999941
0
LINE
8
BLACK
6
CONTINUOUS
10
26.2220559999999985
20
-99.3195999999999941
11
26.1268180000000001
21
-99.2243610000000018
0
LINE
8
BLACK
6
CONTINUOUS
10
28.3172940000000004
20
-99.4148379999999889
11
28.6982459999999975
21
-99.4148379999999889
0
LINE
8
BLACK
6
CONTINUOUS
10
28.6982459999999975
20
-99.4148379999999889
11
28.8887229999999988
21
-99.3195999999999941
0
LINE
8
BLACK
6
CONTINUOUS
10
28.8887229999999988
20
-99.3195999999999941
11
28.9839609999999972
21
-99.2243610000000018
0
LINE
8
BLACK
6
CONTINUOUS
10
28.9839609999999972
20
-99.2243610000000018
11
29.1744369999999975
21
-98.9386469999999889
0
LINE
8
BLACK
6
CONTINUOUS
10
29.1744369999999975
20
-98.9386469999999889
11
29.2696749999999994
21
-98.5576949999999954
0
LINE
8
BLACK
6
CONTINUOUS
10
29.2696749999999994
20
-98.5576949999999954
11
29.2696749999999994
21
-97.7957899999999967
0
LINE
8
BLACK
6
CONTINUOUS
10
29.2696749999999994
20
-97.7957899999999967
11
29.1744369999999975
21
-97.6053139999999928
0
LINE
8
BLACK
6
CONTINUOUS
10
29.1744369999999975
20
-97.6053139999999928
11
29.0791989999999991
21
-97.510075999999998
0
LINE
8
BLACK
6
CONTINUOUS
10
29.0791989999999991
20
-97.510075999999998
11
28.8887229999999988
21
-97.4148379999999889
0
LINE
8
BLACK
6
CONTINUOUS
10
28.8887229999999988
20
-97.4148379999999889
11
28.5077699999999972
21
-97.4148379999999889
0
LINE
8
BLACK
6
CONTINUOUS
10
28.5077699999999972
20
-97.4148379999999889
11
28.3172940000000004
21
-97.510075999999998
0
LINE
8
BLACK
6
CONTINUOUS
10
28.3172940000000004
20
-97.510075999999998
11
28.2220559999999985
21
-97.6053139999999928
0
LINE
8
BLACK
6
CONTINUOUS
10
28.2220559999999985
20
-97.6053139999999928
11
28.1268180000000001
21
-97.7957899999999967
0
LINE
8
BLACK
6
CONTINUOUS
10
28.1268180000000001
20
-97.7957899999999967
11
28.1268180000000001
21
-98.2719799999999992
0
LINE
8
BLACK
6
CONTINUOUS
10
28.1268180000000001
20
-98.2719799999999992
11
28.2220559999999985
21
-98.4624570000000006
0
LINE
8
BLACK
6
CONTINUOUS
10
28.2220559999999985
20
-98.4624570000000006
11
28.3172940000000004
21
-98.5576949999999954
0
LINE
8
BLACK
6
CONTINUOUS
10
28.3172940000000004
20
-98.5576949999999954
11
28.5077699999999972
21
-98.6529329999999902
0
LINE
8
BLACK
6
CONTINUOUS
10
28.5077699999999972
20
-98.6529329999999902
11
28.8887229999999988
21
-98.6529329999999902
0
LINE
8
BLACK
6
CONTINUOUS
10
28.8887229999999988
20
-98.6529329999999902
11
29.0791989999999991
21
-98.5576949999999954
0
LINE
8
BLACK
6
CONTINUOUS
10
29.0791989999999991
20
-98.5576949999999954
11
29.1744369999999975
21
-98.4624570000000006
0
LINE
8
BLACK
6
CONTINUOUS
10
29.1744369999999975
20
-98.4624570000000006
11
29.2696749999999994
21
-98.2719799999999992
0
LINE
8
BLACK
6
CONTINUOUS
10
30.9839609999999972
20
-98.0815039999999954
11
30.9839609999999972
21
-99.4148379999999889
0
LINE
8
BLACK
6
CONTINUOUS
10
30.5077699999999972
20
-97.3195999999999941
11
30.0315799999999982
21
-98.7481709999999993
0
LINE
8
BLACK
6
CONTINUOUS
10
30.0315799999999982
20
-98.7481709999999993
11
31.2696749999999994
21
-98.7481709999999993
0
LINE
8
BLACK
6
CONTINUOUS
10
31.9363419999999998
20
-97.4148379999999889
11
31.9363419999999998
21
-97.7957899999999967
0
LINE
8
BLACK
6
CONTINUOUS
10
32.6982470000000021
20
-97.4148379999999889
11
32.6982470000000021
21
-97.7957899999999967
0
LINE
8
BLACK
6
CONTINUOUS
10
35.650628999999995
20
-100.1767419999999902
11
35.5553899999999956
21
-100.0815039999999954
0
LINE
8
BLACK
6
CONTINUOUS
10
35.5553899999999956
20
-100.0815039999999954
11
35.3649139999999989
21
-99.7957899999999967
0
LINE
8
BLACK
6
CONTINUOUS
10
35.3649139999999989
20
-99.7957899999999967
11
35.2696759999999969
21
-99.6053139999999928
0
LINE
8
BLACK
6
CONTINUOUS
10
35.2696759999999969
20
-99.6053139999999928
11
35.174437999999995
21
-99.3195999999999941
0
LINE
8
BLACK
6
CONTINUOUS
10
35.174437999999995
20
-99.3195999999999941
11
35.0792000000000002
21
-98.8434089999999941
0
LINE
8
BLACK
6
CONTINUOUS
10
35.0792000000000002
20
-98.8434089999999941
11
35.0792000000000002
21
-98.4624570000000006
0
LINE
8
BLACK
6
CONTINUOUS
10
35.0792000000000002
20
-98.4624570000000006
11
35.174437999999995
21
-97.9862660000000005
0
LINE
8
BLACK
6
CONTINUOUS
10
35.174437999999995
20
-97.9862660000000005
11
35.2696759999999969
21
-97.7005520000000018
0
LINE
8
BLACK
6
CONTINUOUS
10
35.2696759999999969
20
-97.7005520000000018
11
35.3649139999999989
21
-97.510075999999998
0
LINE
8
BLACK
6
CONTINUOUS
10
35.3649139999999989
20
-97.510075999999998
11
35.5553899999999956
21
-97.2243610000000018
0
LINE
8
BLACK
6
CONTINUOUS
10
35.5553899999999956
20
-97.2243610000000018
11
35.650628999999995
21
-97.1291229999999928
0
LINE
8
BLACK
6
CONTINUOUS
10
36.3172950000000014
20
-97.6053139999999928
11
36.4125329999999963
21
-97.510075999999998
0
LINE
8
BLACK
6
CONTINUOUS
10
36.4125329999999963
20
-97.510075999999998
11
36.6030090000000001
21
-97.4148379999999889
0
LINE
8
BLACK
6
CONTINUOUS
10
36.6030090000000001
20
-97.4148379999999889
11
37.0792000000000002
21
-97.4148379999999889
0
LINE
8
BLACK
6
CONTINUOUS
10
37.0792000000000002
20
-97.4148379999999889
11
37.2696759999999969
21
-97.510075999999998
0
LINE
8
BLACK
6
CONTINUOUS
10
37.2696759999999969
20
-97.510075999999998
11
37.3649139999999989
21
-97.6053139999999928
0
LINE
8
BLACK
6
CONTINUOUS
10
37.3649139999999989
20
-97.6053139999999928
11
37.4601520000000008
21
-97.7957899999999967
0
LINE
8
BLACK
6
CONTINUOUS
10
37.4601520000000008
20
-97.7957899999999967
11
37.4601520000000008
21
-97.9862660000000005
0
LINE
8
BLACK
6
CONTINUOUS
10
37.4601520000000008
20
-97.9862660000000005
11
37.3649139999999989
21
-98.2719799999999992
0
LINE
8
BLACK
6
CONTINUOUS
10
37.3649139999999989
20
-98.2719799999999992
11
36.2220569999999995
21
-99.4148379999999889
0
LINE
8
BLACK
6
CONTINUOUS
10
36.2220569999999995
20
-99.4148379999999889
11
37.4601520000000008
21
-99.4148379999999889
0
LINE
8
BLACK
6
CONTINUOUS
10
39.8411049999999989
20
-99.4148379999999889
11
39.8411049999999989
21
-97.4148379999999889
0
LINE
8
BLACK
6
CONTINUOUS
10
40.6982479999999995
20
-99.4148379999999889
11
40.6982479999999995
21
-98.3672189999999915
0
LINE
8
BLACK
6
CONTINUOUS
10
40.6982479999999995
20
-98.3672189999999915
11
40.6030099999999976
21
-98.1767419999999902
0
LINE
8
BLACK
6
CONTINUOUS
10
40.6030099999999976
20
-98.1767419999999902
11
40.4125340000000008
21
-98.0815039999999954
0
LINE
8
BLACK
6
CONTINUOUS
10
40.4125340000000008
20
-98.0815039999999954
11
40.1268189999999976
21
-98.0815039999999954
0
LINE
8
BLACK
6
CONTINUOUS
10
40.1268189999999976
20
-98.0815039999999954
11
39.9363430000000008
21
-98.1767419999999902
0
LINE
8
BLACK
6
CONTINUOUS
10
39.9363430000000008
20
-98.1767419999999902
11
39.8411049999999989
21
-98.2719799999999992
0
LINE
8
BLACK
6
CONTINUOUS
10
41.9363430000000008
20
-99.4148379999999889
11
41.7458669999999969
21
-99.3195999999999941
0
LINE
8
BLACK
6
CONTINUOUS
10
41.7458669999999969
20
-99.3195999999999941
11
41.650628999999995
21
-99.2243610000000018
0
LINE
8
BLACK
6
CONTINUOUS
10
41.650628999999995
20
-99.2243610000000018
11
41.5553910000000002
21
-99.0338849999999979
0
LINE
8
BLACK
6
CONTINUOUS
10
41.5553910000000002
20
-99.0338849999999979
11
41.5553910000000002
21
-98.4624570000000006
0
LINE
8
BLACK
6
CONTINUOUS
10
41.5553910000000002
20
-98.4624570000000006
11
41.650628999999995
21
-98.2719799999999992
0
LINE
8
BLACK
6
CONTINUOUS
10
41.650628999999995
20
-98.2719799999999992
11
41.7458669999999969
21
-98.1767419999999902
0
LINE
8
BLACK
6
CONTINUOUS
10
41.7458669999999969
20
-98.1767419999999902
11
41.9363430000000008
21
-98.0815039999999954
0
LINE
8
BLACK
6
CONTINUOUS
10
41.9363430000000008
20
-98.0815039999999954
11
42.222057999999997
21
-98.0815039999999954
0
LINE
8
BLACK
6
CONTINUOUS
10
42.222057999999997
20
-98.0815039999999954
11
42.4125340000000008
21
-98.1767419999999902
0
LINE
8
BLACK
6
CONTINUOUS
10
42.4125340000000008
20
-98.1767419999999902
11
42.5077719999999957
21
-98.2719799999999992
0
LINE
8
BLACK
6
CONTINUOUS
10
42.5077719999999957
20
-98.2719799999999992
11
42.6030099999999976
21
-98.4624570000000006
0
LINE
8
BLACK
6
CONTINUOUS
10
42.6030099999999976
20
-98.4624570000000006
11
42.6030099999999976
21
-99.0338849999999979
0
LINE
8
BLACK
6
CONTINUOUS
10
42.6030099999999976
20
-99.0338849999999979
11
42.5077719999999957
21
-99.2243610000000018
0
LINE
8
BLACK
6
CONTINUOUS
10
42.5077719999999957
20
-99.2243610000000018
11
42.4125340000000008
21
-99.3195999999999941
0
LINE
8
BLACK
6
CONTINUOUS
10
42.4125340000000008
20
-99.3195999999999941
11
42.222057999999997
21
-99.4148379999999889
0
LINE
8
BLACK
6
CONTINUOUS
10
42.222057999999997
20
-99.4148379999999889
11
41.9363430000000008
21
-99.4148379999999889
0
LINE
8
BLACK
6
CONTINUOUS
10
43.7458669999999969
20
-99.4148379999999889
11
43.5553910000000002
21
-99.3195999999999941
0
LINE
8
BLACK
6
CONTINUOUS
10
43.5553910000000002
20
-99.3195999999999941
11
43.4601529999999983
21
-99.1291229999999928
0
LINE
8
BLACK
6
CONTINUOUS
10
43.4601529999999983
20
-99.1291229999999928
11
43.4601529999999983
21
-97.4148379999999889
0
LINE
8
BLACK
6
CONTINUOUS
10
45.2696770000000015
20
-99.3195999999999941
11
45.0792009999999976
21
-99.4148379999999889
0
LINE
8
BLACK
6
CONTINUOUS
10
45.0792009999999976
20
-99.4148379999999889
11
44.6982479999999995
21
-99.4148379999999889
0
LINE
8
BLACK
6
CONTINUOUS
10
44.6982479999999995
20
-99.4148379999999889
11
44.5077719999999957
21
-99.3195999999999941
0
LINE
8
BLACK
6
CONTINUOUS
10
44.5077719999999957
20
-99.3195999999999941
11
44.4125340000000008
21
-99.1291229999999928
0
LINE
8
BLACK
6
CONTINUOUS
10
44.4125340000000008
20
-99.1291229999999928
11
44.4125340000000008
21
-98.3672189999999915
0
LINE
8
BLACK
6
CONTINUOUS
10
44.4125340000000008
20
-98.3672189999999915
11
44.5077719999999957
21
-98.1767419999999902
0
LINE
8
BLACK
6
CONTINUOUS
10
44.5077719999999957
20
-98.1767419999999902
11
44.6982479999999995
21
-98.0815039999999954
0
LINE
8
BLACK
6
CONTINUOUS
10
44.6982479999999995
20
-98.0815039999999954
11
45.0792009999999976
21
-98.0815039999999954
0
LINE
8
BLACK
6
CONTINUOUS
10
45.0792009999999976
20
-98.0815039999999954
11
45.2696770000000015
21
-98.1767419999999902
0
LINE
8
BLACK
6
CONTINUOUS
10
45.2696770000000015
20
-98.1767419999999902
11
45.3649149999999963
21
-98.3672189999999915
0
LINE
8
BLACK
6
CONTINUOUS
10
45.3649149999999963
20
-98.3672189999999915
11
45.3649149999999963
21
-98.5576949999999954
0
LINE
8
BLACK
6
CONTINUOUS
10
45.3649149999999963
20
-98.5576949999999954
11
44.4125340000000008
21
-98.7481709999999993
0
LINE
8
BLACK
6
CONTINUOUS
10
46.126819999999995
20
-99.3195999999999941
11
46.3172959999999989
21
-99.4148379999999889
0
LINE
8
BLACK
6
CONTINUOUS
10
46.3172959999999989
20
-99.4148379999999889
11
46.6982479999999995
21
-99.4148379999999889
0
LINE
8
BLACK
6
CONTINUOUS
10
46.6982479999999995
20
-99.4148379999999889
11
46.8887250000000009
21
-99.3195999999999941
0
LINE
8
BLACK
6
CONTINUOUS
10
46.8887250000000009
20
-99.3195999999999941
11
46.9839629999999957
21
-99.1291229999999928
0
LINE
8
BLACK
6
CONTINUOUS
10
46.9839629999999957
20
-99.1291229999999928
11
46.9839629999999957
21
-99.0338849999999979
0
LINE
8
BLACK
6
CONTINUOUS
10
46.9839629999999957
20
-99.0338849999999979
11
46.8887250000000009
21
-98.8434089999999941
0
LINE
8
BLACK
6
CONTINUOUS
10
46.8887250000000009
20
-98.8434089999999941
11
46.6982479999999995
21
-98.7481709999999993
0
LINE
8
BLACK
6
CONTINUOUS
10
46.6982479999999995
20
-98.7481709999999993
11
46.4125340000000008
21
-98.7481709999999993
0
LINE
8
BLACK
6
CONTINUOUS
10
46.4125340000000008
20
-98.7481709999999993
11
46.222057999999997
21
-98.6529329999999902
0
LINE
8
BLACK
6
CONTINUOUS
10
46.222057999999997
20
-98.6529329999999902
11
46.126819999999995
21
-98.4624570000000006
0
LINE
8
BLACK
6
CONTINUOUS
10
46.126819999999995
20
-98.4624570000000006
11
46.126819999999995
21
-98.3672189999999915
0
LINE
8
BLACK
6
CONTINUOUS
10
46.126819999999995
20
-98.3672189999999915
11
46.222057999999997
21
-98.1767419999999902
0
LINE
8
BLACK
6
CONTINUOUS
10
46.222057999999997
20
-98.1767419999999902
11
46.4125340000000008
21
-98.0815039999999954
0
LINE
8
BLACK
6
CONTINUOUS
10
46.4125340000000008
20
-98.0815039999999954
11
46.6982479999999995
21
-98.0815039999999954
0
LINE
8
BLACK
6
CONTINUOUS
10
46.6982479999999995
20
-98.0815039999999954
11
46.8887250000000009
21
-98.1767419999999902
0
LINE
8
BLACK
6
CONTINUOUS
10
47.6506299999999996
20
-100.1767419999999902
11
47.7458679999999944
21
-100.0815039999999954
0
LINE
8
BLACK
6
CONTINUOUS
10
47.7458679999999944
20
-100.0815039999999954
11
47.9363439999999983
21
-99.7957899999999967
0
LINE
8
BLACK
6
CONTINUOUS
10
47.9363439999999983
20
-99.7957899999999967
11
48.0315820000000002
21
-99.6053139999999928
0
LINE
8
BLACK
6
CONTINUOUS
10
48.0315820000000002
20
-99.6053139999999928
11
48.126819999999995
21
-99.3195999999999941
0
LINE
8
BLACK
6
CONTINUOUS
10
48.126819999999995
20
-99.3195999999999941
11
48.222057999999997
21
-98.8434089999999941
0
LINE
8
BLACK
6
CONTINUOUS
10
48.222057999999997
20
-98.8434089999999941
11
48.222057999999997
21
-98.4624570000000006
0
LINE
8
BLACK
6
CONTINUOUS
10
48.222057999999997
20
-98.4624570000000006
11
48.126819999999995
21
-97.9862660000000005
0
LINE
8
BLACK
6
CONTINUOUS
10
48.126819999999995
20
-97.9862660000000005
11
48.0315820000000002
21
-97.7005520000000018
0
LINE
8
BLACK
6
CONTINUOUS
10
48.0315820000000002
20
-97.7005520000000018
11
47.9363439999999983
21
-97.510075999999998
0
LINE
8
BLACK
6
CONTINUOUS
10
47.9363439999999983
20
-97.510075999999998
11
47.7458679999999944
21
-97.2243610000000018
0
LINE
8
BLACK
6
CONTINUOUS
10
47.7458679999999944
20
-97.2243610000000018
11
47.6506299999999996
21
-97.1291229999999928
0
CIRCLE
8
BLACK
10
-0.62
20
-101.1400000000000006
40
0.52
0
LINE
8
BLACK
6
CONTINUOUS
10
3.5553869999999996
20
-102.0548379999999895
11
2.4125299999999998
21
-102.0548379999999895
0
LINE
8
BLACK
6
CONTINUOUS
10
2.9839579999999999
20
-102.0548379999999895
11
2.9839579999999999
21
-100.0548379999999895
0
LINE
8
BLACK
6
CONTINUOUS
10
2.9839579999999999
20
-100.0548379999999895
11
2.793482
21
-100.3405520000000024
0
LINE
8
BLACK
6
CONTINUOUS
10
2.793482
20
-100.3405520000000024
11
2.6030059999999997
21
-100.5310279999999921
0
LINE
8
BLACK
6
CONTINUOUS
10
2.6030059999999997
20
-100.5310279999999921
11
2.4125299999999998
21
-100.6262660000000011
0
LINE
8
BLACK
6
CONTINUOUS
10
4.4125299999999994
20
-101.8643610000000024
11
4.5077679999999996
21
-101.9595999999999947
0
LINE
8
BLACK
6
CONTINUOUS
10
4.5077679999999996
20
-101.9595999999999947
11
4.4125299999999994
21
-102.0548379999999895
0
LINE
8
BLACK
6
CONTINUOUS
10
4.4125299999999994
20
-102.0548379999999895
11
4.3172920000000001
21
-101.9595999999999947
0
LINE
8
BLACK
6
CONTINUOUS
10
4.3172920000000001
20
-101.9595999999999947
11
4.4125299999999994
21
-101.8643610000000024
0
LINE
8
BLACK
6
CONTINUOUS
10
4.4125299999999994
20
-101.8643610000000024
11
4.4125299999999994
21
-102.0548379999999895
0
LINE
8
BLACK
6
CONTINUOUS
10
5.7458629999999999
20
-100.0548379999999895
11
5.9363399999999995
21
-100.0548379999999895
0
LINE
8
BLACK
6
CONTINUOUS
10
5.9363399999999995
20
-100.0548379999999895
11
6.1268159999999998
21
-100.1500759999999985
0
LINE
8
BLACK
6
CONTINUOUS
10
6.1268159999999998
20
-100.1500759999999985
11
6.222054
21
-100.2453139999999934
0
LINE
8
BLACK
6
CONTINUOUS
10
6.222054
20
-100.2453139999999934
11
6.3172920000000001
21
-100.4357899999999972
0
LINE
8
BLACK
6
CONTINUOUS
10
6.3172920000000001
20
-100.4357899999999972
11
6.4125299999999994
21
-100.8167419999999908
0
LINE
8
BLACK
6
CONTINUOUS
10
6.4125299999999994
20
-100.8167419999999908
11
6.4125299999999994
21
-101.2929329999999908
0
LINE
8
BLACK
6
CONTINUOUS
10
6.4125299999999994
20
-101.2929329999999908
11
6.3172920000000001
21
-101.6738849999999985
0
LINE
8
BLACK
6
CONTINUOUS
10
6.3172920000000001
20
-101.6738849999999985
11
6.222054
21
-101.8643610000000024
0
LINE
8
BLACK
6
CONTINUOUS
10
6.222054
20
-101.8643610000000024
11
6.1268159999999998
21
-101.9595999999999947
0
LINE
8
BLACK
6
CONTINUOUS
10
6.1268159999999998
20
-101.9595999999999947
11
5.9363399999999995
21
-102.0548379999999895
0
LINE
8
BLACK
6
CONTINUOUS
10
5.9363399999999995
20
-102.0548379999999895
11
5.7458629999999999
21
-102.0548379999999895
0
LINE
8
BLACK
6
CONTINUOUS
10
5.7458629999999999
20
-102.0548379999999895
11
5.5553869999999996
21
-101.9595999999999947
0
LINE
8
BLACK
6
CONTINUOUS
10
5.5553869999999996
20
-101.9595999999999947
11
5.4601489999999995
21
-101.8643610000000024
0
LINE
8
BLACK
6
CONTINUOUS
10
5.4601489999999995
20
-101.8643610000000024
11
5.3649109999999993
21
-101.6738849999999985
0
LINE
8
BLACK
6
CONTINUOUS
10
5.3649109999999993
20
-101.6738849999999985
11
5.2696730000000001
21
-101.2929329999999908
0
LINE
8
BLACK
6
CONTINUOUS
10
5.2696730000000001
20
-101.2929329999999908
11
5.2696730000000001
21
-100.8167419999999908
0
LINE
8
BLACK
6
CONTINUOUS
10
5.2696730000000001
20
-100.8167419999999908
11
5.3649109999999993
21
-100.4357899999999972
0
LINE
8
BLACK
6
CONTINUOUS
10
5.3649109999999993
20
-100.4357899999999972
11
5.4601489999999995
21
-100.2453139999999934
0
LINE
8
BLACK
6
CONTINUOUS
10
5.4601489999999995
20
-100.2453139999999934
11
5.5553869999999996
21
-100.1500759999999985
0
LINE
8
BLACK
6
CONTINUOUS
10
5.5553869999999996
20
-100.1500759999999985
11
5.7458629999999999
21
-100.0548379999999895
0
LINE
8
BLACK
6
CONTINUOUS
10
8.1268159999999998
20
-100.7215039999999959
11
8.1268159999999998
21
-102.0548379999999895
0
LINE
8
BLACK
6
CONTINUOUS
10
7.6506249999999998
20
-99.9595999999999947
11
7.1744349999999999
21
-101.3881709999999998
0
LINE
8
BLACK
6
CONTINUOUS
10
7.1744349999999999
20
-101.3881709999999998
11
8.4125300000000003
21
-101.3881709999999998
0
LINE
8
BLACK
6
CONTINUOUS
10
9.5553869999999996
20
-100.0548379999999895
11
9.7458639999999992
21
-100.0548379999999895
0
LINE
8
BLACK
6
CONTINUOUS
10
9.7458639999999992
20
-100.0548379999999895
11
9.9363399999999995
21
-100.1500759999999985
0
LINE
8
BLACK
6
CONTINUOUS
10
9.9363399999999995
20
-100.1500759999999985
11
10.0315779999999997
21
-100.2453139999999934
0
LINE
8
BLACK
6
CONTINUOUS
10
10.0315779999999997
20
-100.2453139999999934
11
10.1268159999999998
21
-100.4357899999999972
0
LINE
8
BLACK
6
CONTINUOUS
10
10.1268159999999998
20
-100.4357899999999972
11
10.222054
21
-100.8167419999999908
0
LINE
8
BLACK
6
CONTINUOUS
10
10.222054
20
-100.8167419999999908
11
10.222054
21
-101.2929329999999908
0
LINE
8
BLACK
6
CONTINUOUS
10
10.222054
20
-101.2929329999999908
11
10.1268159999999998
21
-101.6738849999999985
0
LINE
8
BLACK
6
CONTINUOUS
10
10.1268159999999998
20
-101.6738849999999985
11
10.0315779999999997
21
-101.8643610000000024
0
LINE
8
BLACK
6
CONTINUOUS
10
10.0315779999999997
20
-101.8643610000000024
11
9.9363399999999995
21
-101.9595999999999947
0
LINE
8
BLACK
6
CONTINUOUS
10
9.9363399999999995
20
-101.9595999999999947
11
9.7458639999999992
21
-102.0548379999999895
0
LINE
8
BLACK
6
CONTINUOUS
10
9.7458639999999992
20
-102.0548379999999895
11
9.5553869999999996
21
-102.0548379999999895
0
LINE
8
BLACK
6
CONTINUOUS
10
9.5553869999999996
20
-102.0548379999999895
11
9.3649109999999993
21
-101.9595999999999947
0
LINE
8
BLACK
6
CONTINUOUS
10
9.3649109999999993
20
-101.9595999999999947
11
9.2696729999999992
21
-101.8643610000000024
0
LINE
8
BLACK
6
CONTINUOUS
10
9.2696729999999992
20
-101.8643610000000024
11
9.174434999999999
21
-101.6738849999999985
0
LINE
8
BLACK
6
CONTINUOUS
10
9.174434999999999
20
-101.6738849999999985
11
9.0791969999999989
21
-101.2929329999999908
0
LINE
8
BLACK
6
CONTINUOUS
10
9.0791969999999989
20
-101.2929329999999908
11
9.0791969999999989
21
-100.8167419999999908
0
LINE
8
BLACK
6
CONTINUOUS
10
9.0791969999999989
20
-100.8167419999999908
11
9.174434999999999
21
-100.4357899999999972
0
LINE
8
BLACK
6
CONTINUOUS
10
9.174434999999999
20
-100.4357899999999972
11
9.2696729999999992
21
-100.2453139999999934
0
LINE
8
BLACK
6
CONTINUOUS
10
9.2696729999999992
20
-100.2453139999999934
11
9.3649109999999993
21
-100.1500759999999985
0
LINE
8
BLACK
6
CONTINUOUS
10
9.3649109999999993
20
-100.1500759999999985
11
9.5553869999999996
21
-100.0548379999999895
0
LINE
8
BLACK
6
CONTINUOUS
10
11.0791969999999989
20
-102.0548379999999895
11
11.0791969999999989
21
-100.7215039999999959
0
LINE
8
BLACK
6
CONTINUOUS
10
11.0791969999999989
20
-100.9119799999999998
11
11.174434999999999
21
-100.8167419999999908
0
LINE
8
BLACK
6
CONTINUOUS
10
11.174434999999999
20
-100.8167419999999908
11
11.3649109999999993
21
-100.7215039999999959
0
LINE
8
BLACK
6
CONTINUOUS
10
11.3649109999999993
20
-100.7215039999999959
11
11.650625999999999
21
-100.7215039999999959
0
LINE
8
BLACK
6
CONTINUOUS
10
11.650625999999999
20
-100.7215039999999959
11
11.8411019999999994
21
-100.8167419999999908
0
LINE
8
BLACK
6
CONTINUOUS
10
11.8411019999999994
20
-100.8167419999999908
11
11.9363399999999995
21
-101.0072189999999921
0
LINE
8
BLACK
6
CONTINUOUS
10
11.9363399999999995
20
-101.0072189999999921
11
11.9363399999999995
21
-102.0548379999999895
0
LINE
8
BLACK
6
CONTINUOUS
10
11.9363399999999995
20
-101.0072189999999921
11
12.0315779999999997
21
-100.8167419999999908
0
LINE
8
BLACK
6
CONTINUOUS
10
12.0315779999999997
20
-100.8167419999999908
11
12.222054
21
-100.7215039999999959
0
LINE
8
BLACK
6
CONTINUOUS
10
12.222054
20
-100.7215039999999959
11
12.5077679999999987
21
-100.7215039999999959
0
LINE
8
BLACK
6
CONTINUOUS
10
12.5077679999999987
20
-100.7215039999999959
11
12.698245
21
-100.8167419999999908
0
LINE
8
BLACK
6
CONTINUOUS
10
12.698245
20
-100.8167419999999908
11
12.7934830000000002
21
-101.0072189999999921
0
LINE
8
BLACK
6
CONTINUOUS
10
12.7934830000000002
20
-101.0072189999999921
11
12.7934830000000002
21
-102.0548379999999895
0
LINE
8
BLACK
6
CONTINUOUS
10
13.7458639999999992
20
-102.0548379999999895
11
13.7458639999999992
21
-100.7215039999999959
0
LINE
8
BLACK
6
CONTINUOUS
10
13.7458639999999992
20
-100.9119799999999998
11
13.8411019999999994
21
-100.8167419999999908
0
LINE
8
BLACK
6
CONTINUOUS
10
13.8411019999999994
20
-100.8167419999999908
11
14.0315779999999997
21
-100.7215039999999959
0
LINE
8
BLACK
6
CONTINUOUS
10
14.0315779999999997
20
-100.7215039999999959
11
14.3172929999999994
21
-100.7215039999999959
0
LINE
8
BLACK
6
CONTINUOUS
10
14.3172929999999994
20
-100.7215039999999959
11
14.5077689999999997
21
-100.8167419999999908
0
LINE
8
BLACK
6
CONTINUOUS
10
14.5077689999999997
20
-100.8167419999999908
11
14.6030069999999998
21
-101.0072189999999921
0
LINE
8
BLACK
6
CONTINUOUS
10
14.6030069999999998
20
-101.0072189999999921
11
14.6030069999999998
21
-102.0548379999999895
0
LINE
8
BLACK
6
CONTINUOUS
10
14.6030069999999998
20
-101.0072189999999921
11
14.698245
21
-100.8167419999999908
0
LINE
8
BLACK
6
CONTINUOUS
10
14.698245
20
-100.8167419999999908
11
14.8887209999999985
21
-100.7215039999999959
0
LINE
8
BLACK
6
CONTINUOUS
10
14.8887209999999985
20
-100.7215039999999959
11
15.174434999999999
21
-100.7215039999999959
0
LINE
8
BLACK
6
CONTINUOUS
10
15.174434999999999
20
-100.7215039999999959
11
15.3649119999999986
21
-100.8167419999999908
0
LINE
8
BLACK
6
CONTINUOUS
10
15.3649119999999986
20
-100.8167419999999908
11
15.4601499999999987
21
-101.0072189999999921
0
LINE
8
BLACK
6
CONTINUOUS
10
15.4601499999999987
20
-101.0072189999999921
11
15.4601499999999987
21
-102.0548379999999895
0
LINE
8
BLACK
6
CONTINUOUS
10
19.3649120000000003
20
-99.9595999999999947
11
17.6506270000000001
21
-102.5310279999999921
0
LINE
8
BLACK
6
CONTINUOUS
10
21.9363409999999988
20
-100.0548379999999895
11
22.1268180000000001
21
-100.0548379999999895
0
LINE
8
BLACK
6
CONTINUOUS
10
22.1268180000000001
20
-100.0548379999999895
11
22.3172940000000004
21
-100.1500759999999985
0
LINE
8
BLACK
6
CONTINUOUS
10
22.3172940000000004
20
-100.1500759999999985
11
22.4125319999999988
21
-100.2453139999999934
0
LINE
8
BLACK
6
CONTINUOUS
10
22.4125319999999988
20
-100.2453139999999934
11
22.5077700000000007
21
-100.4357899999999972
0
LINE
8
BLACK
6
CONTINUOUS
10
22.5077700000000007
20
-100.4357899999999972
11
22.6030079999999991
21
-100.8167419999999908
0
LINE
8
BLACK
6
CONTINUOUS
10
22.6030079999999991
20
-100.8167419999999908
11
22.6030079999999991
21
-101.2929329999999908
0
LINE
8
BLACK
6
CONTINUOUS
10
22.6030079999999991
20
-101.2929329999999908
11
22.5077700000000007
21
-101.6738849999999985
0
LINE
8
BLACK
6
CONTINUOUS
10
22.5077700000000007
20
-101.6738849999999985
11
22.4125319999999988
21
-101.8643610000000024
0
LINE
8
BLACK
6
CONTINUOUS
10
22.4125319999999988
20
-101.8643610000000024
11
22.3172940000000004
21
-101.9595999999999947
0
LINE
8
BLACK
6
CONTINUOUS
10
22.3172940000000004
20
-101.9595999999999947
11
22.1268180000000001
21
-102.0548379999999895
0
LINE
8
BLACK
6
CONTINUOUS
10
22.1268180000000001
20
-102.0548379999999895
11
21.9363409999999988
21
-102.0548379999999895
0
LINE
8
BLACK
6
CONTINUOUS
10
21.9363409999999988
20
-102.0548379999999895
11
21.7458649999999984
21
-101.9595999999999947
0
LINE
8
BLACK
6
CONTINUOUS
10
21.7458649999999984
20
-101.9595999999999947
11
21.6506270000000001
21
-101.8643610000000024
0
LINE
8
BLACK
6
CONTINUOUS
10
21.6506270000000001
20
-101.8643610000000024
11
21.5553889999999981
21
-101.6738849999999985
0
LINE
8
BLACK
6
CONTINUOUS
10
21.5553889999999981
20
-101.6738849999999985
11
21.4601509999999998
21
-101.2929329999999908
0
LINE
8
BLACK
6
CONTINUOUS
10
21.4601509999999998
20
-101.2929329999999908
11
21.4601509999999998
21
-100.8167419999999908
0
LINE
8
BLACK
6
CONTINUOUS
10
21.4601509999999998
20
-100.8167419999999908
11
21.5553889999999981
21
-100.4357899999999972
0
LINE
8
BLACK
6
CONTINUOUS
10
21.5553889999999981
20
-100.4357899999999972
11
21.6506270000000001
21
-100.2453139999999934
0
LINE
8
BLACK
6
CONTINUOUS
10
21.6506270000000001
20
-100.2453139999999934
11
21.7458649999999984
21
-100.1500759999999985
0
LINE
8
BLACK
6
CONTINUOUS
10
21.7458649999999984
20
-100.1500759999999985
11
21.9363409999999988
21
-100.0548379999999895
0
LINE
8
BLACK
6
CONTINUOUS
10
23.4601509999999998
20
-101.8643610000000024
11
23.5553889999999981
21
-101.9595999999999947
0
LINE
8
BLACK
6
CONTINUOUS
10
23.5553889999999981
20
-101.9595999999999947
11
23.4601509999999998
21
-102.0548379999999895
0
LINE
8
BLACK
6
CONTINUOUS
10
23.4601509999999998
20
-102.0548379999999895
11
23.3649129999999978
21
-101.9595999999999947
0
LINE
8
BLACK
6
CONTINUOUS
10
23.3649129999999978
20
-101.9595999999999947
11
23.4601509999999998
21
-101.8643610000000024
0
LINE
8
BLACK
6
CONTINUOUS
10
23.4601509999999998
20
-101.8643610000000024
11
23.4601509999999998
21
-102.0548379999999895
0
LINE
8
BLACK
6
CONTINUOUS
10
24.7934839999999994
20
-100.0548379999999895
11
24.9839609999999972
21
-100.0548379999999895
0
LINE
8
BLACK
6
CONTINUOUS
10
24.9839609999999972
20
-100.0548379999999895
11
25.1744369999999975
21
-100.1500759999999985
0
LINE
8
BLACK
6
CONTINUOUS
10
25.1744369999999975
20
-100.1500759999999985
11
25.2696749999999994
21
-100.2453139999999934
0
LINE
8
BLACK
6
CONTINUOUS
10
25.2696749999999994
20
-100.2453139999999934
11
25.3649129999999978
21
-100.4357899999999972
0
LINE
8
BLACK
6
CONTINUOUS
10
25.3649129999999978
20
-100.4357899999999972
11
25.4601509999999998
21
-100.8167419999999908
0
LINE
8
BLACK
6
CONTINUOUS
10
25.4601509999999998
20
-100.8167419999999908
11
25.4601509999999998
21
-101.2929329999999908
0
LINE
8
BLACK
6
CONTINUOUS
10
25.4601509999999998
20
-101.2929329999999908
11
25.3649129999999978
21
-101.6738849999999985
0
LINE
8
BLACK
6
CONTINUOUS
10
25.3649129999999978
20
-101.6738849999999985
11
25.2696749999999994
21
-101.8643610000000024
0
LINE
8
BLACK
6
CONTINUOUS
10
25.2696749999999994
20
-101.8643610000000024
11
25.1744369999999975
21
-101.9595999999999947
0
LINE
8
BLACK
6
CONTINUOUS
10
25.1744369999999975
20
-101.9595999999999947
11
24.9839609999999972
21
-102.0548379999999895
0
LINE
8
BLACK
6
CONTINUOUS
10
24.9839609999999972
20
-102.0548379999999895
11
24.7934839999999994
21
-102.0548379999999895
0
LINE
8
BLACK
6
CONTINUOUS
10
24.7934839999999994
20
-102.0548379999999895
11
24.6030079999999991
21
-101.9595999999999947
0
LINE
8
BLACK
6
CONTINUOUS
10
24.6030079999999991
20
-101.9595999999999947
11
24.5077699999999972
21
-101.8643610000000024
0
LINE
8
BLACK
6
CONTINUOUS
10
24.5077699999999972
20
-101.8643610000000024
11
24.4125319999999988
21
-101.6738849999999985
0
LINE
8
BLACK
6
CONTINUOUS
10
24.4125319999999988
20
-101.6738849999999985
11
24.3172940000000004
21
-101.2929329999999908
0
LINE
8
BLACK
6
CONTINUOUS
10
24.3172940000000004
20
-101.2929329999999908
11
24.3172940000000004
21
-100.8167419999999908
0
LINE
8
BLACK
6
CONTINUOUS
10
24.3172940000000004
20
-100.8167419999999908
11
24.4125319999999988
21
-100.4357899999999972
0
LINE
8
BLACK
6
CONTINUOUS
10
24.4125319999999988
20
-100.4357899999999972
11
24.5077699999999972
21
-100.2453139999999934
0
LINE
8
BLACK
6
CONTINUOUS
10
24.5077699999999972
20
-100.2453139999999934
11
24.6030079999999991
21
-100.1500759999999985
0
LINE
8
BLACK
6
CONTINUOUS
10
24.6030079999999991
20
-100.1500759999999985
11
24.7934839999999994
21
-100.0548379999999895
0
LINE
8
BLACK
6
CONTINUOUS
10
27.1744369999999975
20
-100.7215039999999959
11
27.1744369999999975
21
-102.0548379999999895
0
LINE
8
BLACK
6
CONTINUOUS
10
26.6982459999999975
20
-99.9595999999999947
11
26.2220559999999985
21
-101.3881709999999998
0
LINE
8
BLACK
6
CONTINUOUS
10
26.2220559999999985
20
-101.3881709999999998
11
27.4601509999999998
21
-101.3881709999999998
0
LINE
8
BLACK
6
CONTINUOUS
10
28.6030079999999991
20
-100.0548379999999895
11
28.7934850000000004
21
-100.0548379999999895
0
LINE
8
BLACK
6
CONTINUOUS
10
28.7934850000000004
20
-100.0548379999999895
11
28.9839609999999972
21
-100.1500759999999985
0
LINE
8
BLACK
6
CONTINUOUS
10
28.9839609999999972
20
-100.1500759999999985
11
29.0791989999999991
21
-100.2453139999999934
0
LINE
8
BLACK
6
CONTINUOUS
10
29.0791989999999991
20
-100.2453139999999934
11
29.1744369999999975
21
-100.4357899999999972
0
LINE
8
BLACK
6
CONTINUOUS
10
29.1744369999999975
20
-100.4357899999999972
11
29.2696749999999994
21
-100.8167419999999908
0
LINE
8
BLACK
6
CONTINUOUS
10
29.2696749999999994
20
-100.8167419999999908
11
29.2696749999999994
21
-101.2929329999999908
0
LINE
8
BLACK
6
CONTINUOUS
10
29.2696749999999994
20
-101.2929329999999908
11
29.1744369999999975
21
-101.6738849999999985
0
LINE
8
BLACK
6
CONTINUOUS
10
29.1744369999999975
20
-101.6738849999999985
11
29.0791989999999991
21
-101.8643610000000024
0
LINE
8
BLACK
6
CONTINUOUS
10
29.0791989999999991
20
-101.8643610000000024
11
28.9839609999999972
21
-101.9595999999999947
0
LINE
8
BLACK
6
CONTINUOUS
10
28.9839609999999972
20
-101.9595999999999947
11
28.7934850000000004
21
-102.0548379999999895
0
LINE
8
BLACK
6
CONTINUOUS
10
28.7934850000000004
20
-102.0548379999999895
11
28.6030079999999991
21
-102.0548379999999895
0
LINE
8
BLACK
6
CONTINUOUS
10
28.6030079999999991
20
-102.0548379999999895
11
28.4125319999999988
21
-101.9595999999999947
0
LINE
8
BLACK
6
CONTINUOUS
10
28.4125319999999988
20
-101.9595999999999947
11
28.3172940000000004
21
-101.8643610000000024
0
LINE
8
BLACK
6
CONTINUOUS
10
28.3172940000000004
20
-101.8643610000000024
11
28.2220559999999985
21
-101.6738849999999985
0
LINE
8
BLACK
6
CONTINUOUS
10
28.2220559999999985
20
-101.6738849999999985
11
28.1268180000000001
21
-101.2929329999999908
0
LINE
8
BLACK
6
CONTINUOUS
10
28.1268180000000001
20
-101.2929329999999908
11
28.1268180000000001
21
-100.8167419999999908
0
LINE
8
BLACK
6
CONTINUOUS
10
28.1268180000000001
20
-100.8167419999999908
11
28.2220559999999985
21
-100.4357899999999972
0
LINE
8
BLACK
6
CONTINUOUS
10
28.2220559999999985
20
-100.4357899999999972
11
28.3172940000000004
21
-100.2453139999999934
0
LINE
8
BLACK
6
CONTINUOUS
10
28.3172940000000004
20
-100.2453139999999934
11
28.4125319999999988
21
-100.1500759999999985
0
LINE
8
BLACK
6
CONTINUOUS
10
28.4125319999999988
20
-100.1500759999999985
11
28.6030079999999991
21
-100.0548379999999895
0
LINE
8
BLACK
6
CONTINUOUS
10
30.2220559999999985
20
-102.0548379999999895
11
30.6030079999999991
21
-102.0548379999999895
0
LINE
8
BLACK
6
CONTINUOUS
10
30.6030079999999991
20
-102.0548379999999895
11
30.7934849999999969
21
-101.9595999999999947
0
LINE
8
BLACK
6
CONTINUOUS
10
30.7934849999999969
20
-101.9595999999999947
11
30.8887229999999988
21
-101.8643610000000024
0
LINE
8
BLACK
6
CONTINUOUS
10
30.8887229999999988
20
-101.8643610000000024
11
31.0791989999999991
21
-101.5786469999999895
0
LINE
8
BLACK
6
CONTINUOUS
10
31.0791989999999991
20
-101.5786469999999895
11
31.1744369999999975
21
-101.197694999999996
0
LINE
8
BLACK
6
CONTINUOUS
10
31.1744369999999975
20
-101.197694999999996
11
31.1744369999999975
21
-100.4357899999999972
0
LINE
8
BLACK
6
CONTINUOUS
10
31.1744369999999975
20
-100.4357899999999972
11
31.0791989999999991
21
-100.2453139999999934
0
LINE
8
BLACK
6
CONTINUOUS
10
31.0791989999999991
20
-100.2453139999999934
11
30.9839609999999972
21
-100.1500759999999985
0
LINE
8
BLACK
6
CONTINUOUS
10
30.9839609999999972
20
-100.1500759999999985
11
30.7934849999999969
21
-100.0548379999999895
0
LINE
8
BLACK
6
CONTINUOUS
10
30.7934849999999969
20
-100.0548379999999895
11
30.4125319999999988
21
-100.0548379999999895
0
LINE
8
BLACK
6
CONTINUOUS
10
30.4125319999999988
20
-100.0548379999999895
11
30.2220559999999985
21
-100.1500759999999985
0
LINE
8
BLACK
6
CONTINUOUS
10
30.2220559999999985
20
-100.1500759999999985
11
30.1268180000000001
21
-100.2453139999999934
0
LINE
8
BLACK
6
CONTINUOUS
10
30.1268180000000001
20
-100.2453139999999934
11
30.0315799999999982
21
-100.4357899999999972
0
LINE
8
BLACK
6
CONTINUOUS
10
30.0315799999999982
20
-100.4357899999999972
11
30.0315799999999982
21
-100.9119799999999998
0
LINE
8
BLACK
6
CONTINUOUS
10
30.0315799999999982
20
-100.9119799999999998
11
30.1268180000000001
21
-101.1024570000000011
0
LINE
8
BLACK
6
CONTINUOUS
10
30.1268180000000001
20
-101.1024570000000011
11
30.2220559999999985
21
-101.197694999999996
0
LINE
8
BLACK
6
CONTINUOUS
10
30.2220559999999985
20
-101.197694999999996
11
30.4125319999999988
21
-101.2929329999999908
0
LINE
8
BLACK
6
CONTINUOUS
10
30.4125319999999988
20
-101.2929329999999908
11
30.7934849999999969
21
-101.2929329999999908
0
LINE
8
BLACK
6
CONTINUOUS
10
30.7934849999999969
20
-101.2929329999999908
11
30.9839609999999972
21
-101.197694999999996
0
LINE
8
BLACK
6
CONTINUOUS
10
30.9839609999999972
20
-101.197694999999996
11
31.0791989999999991
21
-101.1024570000000011
0
LINE
8
BLACK
6
CONTINUOUS
10
31.0791989999999991
20
-101.1024570000000011
11
31.1744369999999975
21
-100.9119799999999998
0
LINE
8
BLACK
6
CONTINUOUS
10
31.9363419999999998
20
-100.0548379999999895
11
31.9363419999999998
21
-100.4357899999999972
0
LINE
8
BLACK
6
CONTINUOUS
10
32.6982470000000021
20
-100.0548379999999895
11
32.6982470000000021
21
-100.4357899999999972
0
LINE
8
BLACK
6
CONTINUOUS
10
35.650628999999995
20
-102.8167419999999908
11
35.5553899999999956
21
-102.7215039999999959
0
LINE
8
BLACK
6
CONTINUOUS
10
35.5553899999999956
20
-102.7215039999999959
11
35.3649139999999989
21
-102.4357899999999972
0
LINE
8
BLACK
6
CONTINUOUS
10
35.3649139999999989
20
-102.4357899999999972
11
35.2696759999999969
21
-102.2453139999999934
0
LINE
8
BLACK
6
CONTINUOUS
10
35.2696759999999969
20
-102.2453139999999934
11
35.174437999999995
21
-101.9595999999999947
0
LINE
8
BLACK
6
CONTINUOUS
10
35.174437999999995
20
-101.9595999999999947
11
35.0792000000000002
21
-101.4834089999999946
0
LINE
8
BLACK
6
CONTINUOUS
10
35.0792000000000002
20
-101.4834089999999946
11
35.0792000000000002
21
-101.1024570000000011
0
LINE
8
BLACK
6
CONTINUOUS
10
35.0792000000000002
20
-101.1024570000000011
11
35.174437999999995
21
-100.6262660000000011
0
LINE
8
BLACK
6
CONTINUOUS
10
35.174437999999995
20
-100.6262660000000011
11
35.2696759999999969
21
-100.3405520000000024
0
LINE
8
BLACK
6
CONTINUOUS
10
35.2696759999999969
20
-100.3405520000000024
11
35.3649139999999989
21
-100.1500759999999985
0
LINE
8
BLACK
6
CONTINUOUS
10
35.3649139999999989
20
-100.1500759999999985
11
35.5553899999999956
21
-99.8643610000000024
0
LINE
8
BLACK
6
CONTINUOUS
10
35.5553899999999956
20
-99.8643610000000024
11
35.650628999999995
21
-99.7691229999999933
0
LINE
8
BLACK
6
CONTINUOUS
10
36.7934849999999969
20
-100.0548379999999895
11
36.9839619999999982
21
-100.0548379999999895
0
LINE
8
BLACK
6
CONTINUOUS
10
36.9839619999999982
20
-100.0548379999999895
11
37.174437999999995
21
-100.1500759999999985
0
LINE
8
BLACK
6
CONTINUOUS
10
37.174437999999995
20
-100.1500759999999985
11
37.2696759999999969
21
-100.2453139999999934
0
LINE
8
BLACK
6
CONTINUOUS
10
37.2696759999999969
20
-100.2453139999999934
11
37.3649139999999989
21
-100.4357899999999972
0
LINE
8
BLACK
6
CONTINUOUS
10
37.3649139999999989
20
-100.4357899999999972
11
37.4601520000000008
21
-100.8167419999999908
0
LINE
8
BLACK
6
CONTINUOUS
10
37.4601520000000008
20
-100.8167419999999908
11
37.4601520000000008
21
-101.2929329999999908
0
LINE
8
BLACK
6
CONTINUOUS
10
37.4601520000000008
20
-101.2929329999999908
11
37.3649139999999989
21
-101.6738849999999985
0
LINE
8
BLACK
6
CONTINUOUS
10
37.3649139999999989
20
-101.6738849999999985
11
37.2696759999999969
21
-101.8643610000000024
0
LINE
8
BLACK
6
CONTINUOUS
10
37.2696759999999969
20
-101.8643610000000024
11
37.174437999999995
21
-101.9595999999999947
0
LINE
8
BLACK
6
CONTINUOUS
10
37.174437999999995
20
-101.9595999999999947
11
36.9839619999999982
21
-102.0548379999999895
0
LINE
8
BLACK
6
CONTINUOUS
10
36.9839619999999982
20
-102.0548379999999895
11
36.7934849999999969
21
-102.0548379999999895
0
LINE
8
BLACK
6
CONTINUOUS
10
36.7934849999999969
20
-102.0548379999999895
11
36.6030090000000001
21
-101.9595999999999947
0
LINE
8
BLACK
6
CONTINUOUS
10
36.6030090000000001
20
-101.9595999999999947
11
36.5077709999999982
21
-101.8643610000000024
0
LINE
8
BLACK
6
CONTINUOUS
10
36.5077709999999982
20
-101.8643610000000024
11
36.4125329999999963
21
-101.6738849999999985
0
LINE
8
BLACK
6
CONTINUOUS
10
36.4125329999999963
20
-101.6738849999999985
11
36.3172950000000014
21
-101.2929329999999908
0
LINE
8
BLACK
6
CONTINUOUS
10
36.3172950000000014
20
-101.2929329999999908
11
36.3172950000000014
21
-100.8167419999999908
0
LINE
8
BLACK
6
CONTINUOUS
10
36.3172950000000014
20
-100.8167419999999908
11
36.4125329999999963
21
-100.4357899999999972
0
LINE
8
BLACK
6
CONTINUOUS
10
36.4125329999999963
20
-100.4357899999999972
11
36.5077709999999982
21
-100.2453139999999934
0
LINE
8
BLACK
6
CONTINUOUS
10
36.5077709999999982
20
-100.2453139999999934
11
36.6030090000000001
21
-100.1500759999999985
0
LINE
8
BLACK
6
CONTINUOUS
10
36.6030090000000001
20
-100.1500759999999985
11
36.7934849999999969
21
-100.0548379999999895
0
LINE
8
BLACK
6
CONTINUOUS
10
39.8411049999999989
20
-102.0548379999999895
11
39.8411049999999989
21
-100.0548379999999895
0
LINE
8
BLACK
6
CONTINUOUS
10
40.6982479999999995
20
-102.0548379999999895
11
40.6982479999999995
21
-101.0072189999999921
0
LINE
8
BLACK
6
CONTINUOUS
10
40.6982479999999995
20
-101.0072189999999921
11
40.6030099999999976
21
-100.8167419999999908
0
LINE
8
BLACK
6
CONTINUOUS
10
40.6030099999999976
20
-100.8167419999999908
11
40.4125340000000008
21
-100.7215039999999959
0
LINE
8
BLACK
6
CONTINUOUS
10
40.4125340000000008
20
-100.7215039999999959
11
40.1268189999999976
21
-100.7215039999999959
0
LINE
8
BLACK
6
CONTINUOUS
10
40.1268189999999976
20
-100.7215039999999959
11
39.9363430000000008
21
-100.8167419999999908
0
LINE
8
BLACK
6
CONTINUOUS
10
39.9363430000000008
20
-100.8167419999999908
11
39.8411049999999989
21
-100.9119799999999998
0
LINE
8
BLACK
6
CONTINUOUS
10
41.9363430000000008
20
-102.0548379999999895
11
41.7458669999999969
21
-101.9595999999999947
0
LINE
8
BLACK
6
CONTINUOUS
10
41.7458669999999969
20
-101.9595999999999947
11
41.650628999999995
21
-101.8643610000000024
0
LINE
8
BLACK
6
CONTINUOUS
10
41.650628999999995
20
-101.8643610000000024
11
41.5553910000000002
21
-101.6738849999999985
0
LINE
8
BLACK
6
CONTINUOUS
10
41.5553910000000002
20
-101.6738849999999985
11
41.5553910000000002
21
-101.1024570000000011
0
LINE
8
BLACK
6
CONTINUOUS
10
41.5553910000000002
20
-101.1024570000000011
11
41.650628999999995
21
-100.9119799999999998
0
LINE
8
BLACK
6
CONTINUOUS
10
41.650628999999995
20
-100.9119799999999998
11
41.7458669999999969
21
-100.8167419999999908
0
LINE
8
BLACK
6
CONTINUOUS
10
41.7458669999999969
20
-100.8167419999999908
11
41.9363430000000008
21
-100.7215039999999959
0
LINE
8
BLACK
6
CONTINUOUS
10
41.9363430000000008
20
-100.7215039999999959
11
42.222057999999997
21
-100.7215039999999959
0
LINE
8
BLACK
6
CONTINUOUS
10
42.222057999999997
20
-100.7215039999999959
11
42.4125340000000008
21
-100.8167419999999908
0
LINE
8
BLACK
6
CONTINUOUS
10
42.4125340000000008
20
-100.8167419999999908
11
42.5077719999999957
21
-100.9119799999999998
0
LINE
8
BLACK
6
CONTINUOUS
10
42.5077719999999957
20
-100.9119799999999998
11
42.6030099999999976
21
-101.1024570000000011
0
LINE
8
BLACK
6
CONTINUOUS
10
42.6030099999999976
20
-101.1024570000000011
11
42.6030099999999976
21
-101.6738849999999985
0
LINE
8
BLACK
6
CONTINUOUS
10
42.6030099999999976
20
-101.6738849999999985
11
42.5077719999999957
21
-101.8643610000000024
0
LINE
8
BLACK
6
CONTINUOUS
10
42.5077719999999957
20
-101.8643610000000024
11
42.4125340000000008
21
-101.9595999999999947
0
LINE
8
BLACK
6
CONTINUOUS
10
42.4125340000000008
20
-101.9595999999999947
11
42.222057999999997
21
-102.0548379999999895
0
LINE
8
BLACK
6
CONTINUOUS
10
42.222057999999997
20
-102.0548379999999895
11
41.9363430000000008
21
-102.0548379999999895
0
LINE
8
BLACK
6
CONTINUOUS
10
43.7458669999999969
20
-102.0548379999999895
11
43.5553910000000002
21
-101.9595999999999947
0
LINE
8
BLACK
6
CONTINUOUS
10
43.5553910000000002
20
-101.9595999999999947
11
43.4601529999999983
21
-101.7691229999999933
0
LINE
8
BLACK
6
CONTINUOUS
10
43.4601529999999983
20
-101.7691229999999933
11
43.4601529999999983
21
-100.0548379999999895
0
LINE
8
BLACK
6
CONTINUOUS
10
45.2696770000000015
20
-101.9595999999999947
11
45.0792009999999976
21
-102.0548379999999895
0
LINE
8
BLACK
6
CONTINUOUS
10
45.0792009999999976
20
-102.0548379999999895
11
44.6982479999999995
21
-102.0548379999999895
0
LINE
8
BLACK
6
CONTINUOUS
10
44.6982479999999995
20
-102.0548379999999895
11
44.5077719999999957
21
-101.9595999999999947
0
LINE
8
BLACK
6
CONTINUOUS
10
44.5077719999999957
20
-101.9595999999999947
11
44.4125340000000008
21
-101.7691229999999933
0
LINE
8
BLACK
6
CONTINUOUS
10
44.4125340000000008
20
-101.7691229999999933
11
44.4125340000000008
21
-101.0072189999999921
0
LINE
8
BLACK
6
CONTINUOUS
10
44.4125340000000008
20
-101.0072189999999921
11
44.5077719999999957
21
-100.8167419999999908
0
LINE
8
BLACK
6
CONTINUOUS
10
44.5077719999999957
20
-100.8167419999999908
11
44.6982479999999995
21
-100.7215039999999959
0
LINE
8
BLACK
6
CONTINUOUS
10
44.6982479999999995
20
-100.7215039999999959
11
45.0792009999999976
21
-100.7215039999999959
0
LINE
8
BLACK
6
CONTINUOUS
10
45.0792009999999976
20
-100.7215039999999959
11
45.2696770000000015
21
-100.8167419999999908
0
LINE
8
BLACK
6
CONTINUOUS
10
45.2696770000000015
20
-100.8167419999999908
11
45.3649149999999963
21
-101.0072189999999921
0
LINE
8
BLACK
6
CONTINUOUS
10
45.3649149999999963
20
-101.0072189999999921
11
45.3649149999999963
21
-101.197694999999996
0
LINE
8
BLACK
6
CONTINUOUS
10
45.3649149999999963
20
-101.197694999999996
11
44.4125340000000008
21
-101.3881709999999998
0
LINE
8
BLACK
6
CONTINUOUS
10
46.126819999999995
20
-101.9595999999999947
11
46.3172959999999989
21
-102.0548379999999895
0
LINE
8
BLACK
6
CONTINUOUS
10
46.3172959999999989
20
-102.0548379999999895
11
46.6982479999999995
21
-102.0548379999999895
0
LINE
8
BLACK
6
CONTINUOUS
10
46.6982479999999995
20
-102.0548379999999895
11
46.8887250000000009
21
-101.9595999999999947
0
LINE
8
BLACK
6
CONTINUOUS
10
46.8887250000000009
20
-101.9595999999999947
11
46.9839629999999957
21
-101.7691229999999933
0
LINE
8
BLACK
6
CONTINUOUS
10
46.9839629999999957
20
-101.7691229999999933
11
46.9839629999999957
21
-101.6738849999999985
0
LINE
8
BLACK
6
CONTINUOUS
10
46.9839629999999957
20
-101.6738849999999985
11
46.8887250000000009
21
-101.4834089999999946
0
LINE
8
BLACK
6
CONTINUOUS
10
46.8887250000000009
20
-101.4834089999999946
11
46.6982479999999995
21
-101.3881709999999998
0
LINE
8
BLACK
6
CONTINUOUS
10
46.6982479999999995
20
-101.3881709999999998
11
46.4125340000000008
21
-101.3881709999999998
0
LINE
8
BLACK
6
CONTINUOUS
10
46.4125340000000008
20
-101.3881709999999998
11
46.222057999999997
21
-101.2929329999999908
0
LINE
8
BLACK
6
CONTINUOUS
10
46.222057999999997
20
-101.2929329999999908
11
46.126819999999995
21
-101.1024570000000011
0
LINE
8
BLACK
6
CONTINUOUS
10
46.126819999999995
20
-101.1024570000000011
11
46.126819999999995
21
-101.0072189999999921
0
LINE
8
BLACK
6
CONTINUOUS
10
46.126819999999995
20
-101.0072189999999921
11
46.222057999999997
21
-100.8167419999999908
0
LINE
8
BLACK
6
CONTINUOUS
10
46.222057999999997
20
-100.8167419999999908
11
46.4125340000000008
21
-100.7215039999999959
0
LINE
8
BLACK
6
CONTINUOUS
10
46.4125340000000008
20
-100.7215039999999959
11
46.6982479999999995
21
-100.7215039999999959
0
LINE
8
BLACK
6
CONTINUOUS
10
46.6982479999999995
20
-100.7215039999999959
11
46.8887250000000009
21
-100.8167419999999908
0
LINE
8
BLACK
6
CONTINUOUS
10
49.3649160000000009
20
-101.2929329999999908
11
50.8887259999999984
21
-101.2929329999999908
0
LINE
8
BLACK
6
CONTINUOUS
10
50.1268209999999996
20
-102.0548379999999895
11
50.1268209999999996
21
-100.5310279999999921
0
LINE
8
BLACK
6
CONTINUOUS
10
53.6506299999999996
20
-100.9119799999999998
11
53.4601539999999957
21
-100.8167419999999908
0
LINE
8
BLACK
6
CONTINUOUS
10
53.4601539999999957
20
-100.8167419999999908
11
53.3649160000000009
21
-100.7215039999999959
0
LINE
8
BLACK
6
CONTINUOUS
10
53.3649160000000009
20
-100.7215039999999959
11
53.269677999999999
21
-100.5310279999999921
0
LINE
8
BLACK
6
CONTINUOUS
10
53.269677999999999
20
-100.5310279999999921
11
53.269677999999999
21
-100.4357899999999972
0
LINE
8
BLACK
6
CONTINUOUS
10
53.269677999999999
20
-100.4357899999999972
11
53.3649160000000009
21
-100.2453139999999934
0
LINE
8
BLACK
6
CONTINUOUS
10
53.3649160000000009
20
-100.2453139999999934
11
53.4601539999999957
21
-100.1500759999999985
0
LINE
8
BLACK
6
CONTINUOUS
10
53.4601539999999957
20
-100.1500759999999985
11
53.6506299999999996
21
-100.0548379999999895
0
LINE
8
BLACK
6
CONTINUOUS
10
53.6506299999999996
20
-100.0548379999999895
11
54.0315829999999977
21
-100.0548379999999895
0
LINE
8
BLACK
6
CONTINUOUS
10
54.0315829999999977
20
-100.0548379999999895
11
54.2220589999999945
21
-100.1500759999999985
0
LINE
8
BLACK
6
CONTINUOUS
10
54.2220589999999945
20
-100.1500759999999985
11
54.3172969999999964
21
-100.2453139999999934
0
LINE
8
BLACK
6
CONTINUOUS
10
54.3172969999999964
20
-100.2453139999999934
11
54.4125349999999983
21
-100.4357899999999972
0
LINE
8
BLACK
6
CONTINUOUS
10
54.4125349999999983
20
-100.4357899999999972
11
54.4125349999999983
21
-100.5310279999999921
0
LINE
8
BLACK
6
CONTINUOUS
10
54.4125349999999983
20
-100.5310279999999921
11
54.3172969999999964
21
-100.7215039999999959
0
LINE
8
BLACK
6
CONTINUOUS
10
54.3172969999999964
20
-100.7215039999999959
11
54.2220589999999945
21
-100.8167419999999908
0
LINE
8
BLACK
6
CONTINUOUS
10
54.2220589999999945
20
-100.8167419999999908
11
54.0315829999999977
21
-100.9119799999999998
0
LINE
8
BLACK
6
CONTINUOUS
10
54.0315829999999977
20
-100.9119799999999998
11
53.6506299999999996
21
-100.9119799999999998
0
LINE
8
BLACK
6
CONTINUOUS
10
53.6506299999999996
20
-100.9119799999999998
11
53.4601539999999957
21
-101.0072189999999921
0
LINE
8
BLACK
6
CONTINUOUS
10
53.4601539999999957
20
-101.0072189999999921
11
53.3649160000000009
21
-101.1024570000000011
0
LINE
8
BLACK
6
CONTINUOUS
10
53.3649160000000009
20
-101.1024570000000011
11
53.269677999999999
21
-101.2929329999999908
0
LINE
8
BLACK
6
CONTINUOUS
10
53.269677999999999
20
-101.2929329999999908
11
53.269677999999999
21
-101.6738849999999985
0
LINE
8
BLACK
6
CONTINUOUS
10
53.269677999999999
20
-101.6738849999999985
11
53.3649160000000009
21
-101.8643610000000024
0
LINE
8
BLACK
6
CONTINUOUS
10
53.3649160000000009
20
-101.8643610000000024
11
53.4601539999999957
21
-101.9595999999999947
0
LINE
8
BLACK
6
CONTINUOUS
10
53.4601539999999957
20
-101.9595999999999947
11
53.6506299999999996
21
-102.0548379999999895
0
LINE
8
BLACK
6
CONTINUOUS
10
53.6506299999999996
20
-102.0548379999999895
11
54.0315829999999977
21
-102.0548379999999895
0
LINE
8
BLACK
6
CONTINUOUS
10
54.0315829999999977
20
-102.0548379999999895
11
54.2220589999999945
21
-101.9595999999999947
0
LINE
8
BLACK
6
CONTINUOUS
10
54.2220589999999945
20
-101.9595999999999947
11
54.3172969999999964
21
-101.8643610000000024
0
LINE
8
BLACK
6
CONTINUOUS
10
54.3172969999999964
20
-101.8643610000000024
11
54.4125349999999983
21
-101.6738849999999985
0
LINE
8
BLACK
6
CONTINUOUS
10
54.4125349999999983
20
-101.6738849999999985
11
54.4125349999999983
21
-101.2929329999999908
0
LINE
8
BLACK
6
CONTINUOUS
10
54.4125349999999983
20
-101.2929329999999908
11
54.3172969999999964
21
-101.1024570000000011
0
LINE
8
BLACK
6
CONTINUOUS
10
54.3172969999999964
20
-101.1024570000000011
11
54.2220589999999945
21
-101.0072189999999921
0
LINE
8
BLACK
6
CONTINUOUS
10
54.2220589999999945
20
-101.0072189999999921
11
54.0315829999999977
21
-100.9119799999999998
0
LINE
8
BLACK
6
CONTINUOUS
10
56.6982499999999945
20
-101.9595999999999947
11
56.8887259999999984
21
-102.0548379999999895
0
LINE
8
BLACK
6
CONTINUOUS
10
56.8887259999999984
20
-102.0548379999999895
11
57.269677999999999
21
-102.0548379999999895
0
LINE
8
BLACK
6
CONTINUOUS
10
57.269677999999999
20
-102.0548379999999895
11
57.4601550000000003
21
-101.9595999999999947
0
LINE
8
BLACK
6
CONTINUOUS
10
57.4601550000000003
20
-101.9595999999999947
11
57.5553929999999951
21
-101.7691229999999933
0
LINE
8
BLACK
6
CONTINUOUS
10
57.5553929999999951
20
-101.7691229999999933
11
57.5553929999999951
21
-101.6738849999999985
0
LINE
8
BLACK
6
CONTINUOUS
10
57.5553929999999951
20
-101.6738849999999985
11
57.4601550000000003
21
-101.4834089999999946
0
LINE
8
BLACK
6
CONTINUOUS
10
57.4601550000000003
20
-101.4834089999999946
11
57.269677999999999
21
-101.3881709999999998
0
LINE
8
BLACK
6
CONTINUOUS
10
57.269677999999999
20
-101.3881709999999998
11
56.9839640000000003
21
-101.3881709999999998
0
LINE
8
BLACK
6
CONTINUOUS
10
56.9839640000000003
20
-101.3881709999999998
11
56.7934879999999964
21
-101.2929329999999908
0
LINE
8
BLACK
6
CONTINUOUS
10
56.7934879999999964
20
-101.2929329999999908
11
56.6982499999999945
21
-101.1024570000000011
0
LINE
8
BLACK
6
CONTINUOUS
10
56.6982499999999945
20
-101.1024570000000011
11
56.6982499999999945
21
-101.0072189999999921
0
LINE
8
BLACK
6
CONTINUOUS
10
56.6982499999999945
20
-101.0072189999999921
11
56.7934879999999964
21
-100.8167419999999908
0
LINE
8
BLACK
6
CONTINUOUS
10
56.7934879999999964
20
-100.8167419999999908
11
56.9839640000000003
21
-100.7215039999999959
0
LINE
8
BLACK
6
CONTINUOUS
10
56.9839640000000003
20
-100.7215039999999959
11
57.269677999999999
21
-100.7215039999999959
0
LINE
8
BLACK
6
CONTINUOUS
10
57.269677999999999
20
-100.7215039999999959
11
57.4601550000000003
21
-100.8167419999999908
0
LINE
8
BLACK
6
CONTINUOUS
10
58.6982499999999945
20
-102.0548379999999895
11
58.5077739999999977
21
-101.9595999999999947
0
LINE
8
BLACK
6
CONTINUOUS
10
58.5077739999999977
20
-101.9595999999999947
11
58.4125359999999958
21
-101.7691229999999933
0
LINE
8
BLACK
6
CONTINUOUS
10
58.4125359999999958
20
-101.7691229999999933
11
58.4125359999999958
21
-100.0548379999999895
0
LINE
8
BLACK
6
CONTINUOUS
10
59.745868999999999
20
-102.0548379999999895
11
59.5553929999999951
21
-101.9595999999999947
0
LINE
8
BLACK
6
CONTINUOUS
10
59.5553929999999951
20
-101.9595999999999947
11
59.4601550000000003
21
-101.8643610000000024
0
LINE
8
BLACK
6
CONTINUOUS
10
59.4601550000000003
20
-101.8643610000000024
11
59.3649169999999984
21
-101.6738849999999985
0
LINE
8
BLACK
6
CONTINUOUS
10
59.3649169999999984
20
-101.6738849999999985
11
59.3649169999999984
21
-101.1024570000000011
0
LINE
8
BLACK
6
CONTINUOUS
10
59.3649169999999984
20
-101.1024570000000011
11
59.4601550000000003
21
-100.9119799999999998
0
LINE
8
BLACK
6
CONTINUOUS
10
59.4601550000000003
20
-100.9119799999999998
11
59.5553929999999951
21
-100.8167419999999908
0
LINE
8
BLACK
6
CONTINUOUS
10
59.5553929999999951
20
-100.8167419999999908
11
59.745868999999999
21
-100.7215039999999959
0
LINE
8
BLACK
6
CONTINUOUS
10
59.745868999999999
20
-100.7215039999999959
11
60.0315839999999952
21
-100.7215039999999959
0
LINE
8
BLACK
6
CONTINUOUS
10
60.0315839999999952
20
-100.7215039999999959
11
60.222059999999999
21
-100.8167419999999908
0
LINE
8
BLACK
6
CONTINUOUS
10
60.222059999999999
20
-100.8167419999999908
11
60.3172979999999939
21
-100.9119799999999998
0
LINE
8
BLACK
6
CONTINUOUS
10
60.3172979999999939
20
-100.9119799999999998
11
60.4125359999999958
21
-101.1024570000000011
0
LINE
8
BLACK
6
CONTINUOUS
10
60.4125359999999958
20
-101.1024570000000011
11
60.4125359999999958
21
-101.6738849999999985
0
LINE
8
BLACK
6
CONTINUOUS
10
60.4125359999999958
20
-101.6738849999999985
11
60.3172979999999939
21
-101.8643610000000024
0
LINE
8
BLACK
6
CONTINUOUS
10
60.3172979999999939
20
-101.8643610000000024
11
60.222059999999999
21
-101.9595999999999947
0
LINE
8
BLACK
6
CONTINUOUS
10
60.222059999999999
20
-101.9595999999999947
11
60.0315839999999952
21
-102.0548379999999895
0
LINE
8
BLACK
6
CONTINUOUS
10
60.0315839999999952
20
-102.0548379999999895
11
59.745868999999999
21
-102.0548379999999895
0
LINE
8
BLACK
6
CONTINUOUS
10
60.9839649999999978
20
-100.7215039999999959
11
61.745868999999999
21
-100.7215039999999959
0
LINE
8
BLACK
6
CONTINUOUS
10
61.2696789999999964
20
-100.0548379999999895
11
61.2696789999999964
21
-101.7691229999999933
0
LINE
8
BLACK
6
CONTINUOUS
10
61.2696789999999964
20
-101.7691229999999933
11
61.3649169999999984
21
-101.9595999999999947
0
LINE
8
BLACK
6
CONTINUOUS
10
61.3649169999999984
20
-101.9595999999999947
11
61.5553929999999951
21
-102.0548379999999895
0
LINE
8
BLACK
6
CONTINUOUS
10
61.5553929999999951
20
-102.0548379999999895
11
61.745868999999999
21
-102.0548379999999895
0
LINE
8
BLACK
6
CONTINUOUS
10
62.3172979999999939
20
-101.9595999999999947
11
62.5077739999999977
21
-102.0548379999999895
0
LINE
8
BLACK
6
CONTINUOUS
10
62.5077739999999977
20
-102.0548379999999895
11
62.8887259999999984
21
-102.0548379999999895
0
LINE
8
BLACK
6
CONTINUOUS
10
62.8887259999999984
20
-102.0548379999999895
11
63.0792029999999997
21
-101.9595999999999947
0
LINE
8
BLACK
6
CONTINUOUS
10
63.0792029999999997
20
-101.9595999999999947
11
63.1744409999999945
21
-101.7691229999999933
0
LINE
8
BLACK
6
CONTINUOUS
10
63.1744409999999945
20
-101.7691229999999933
11
63.1744409999999945
21
-101.6738849999999985
0
LINE
8
BLACK
6
CONTINUOUS
10
63.1744409999999945
20
-101.6738849999999985
11
63.0792029999999997
21
-101.4834089999999946
0
LINE
8
BLACK
6
CONTINUOUS
10
63.0792029999999997
20
-101.4834089999999946
11
62.8887259999999984
21
-101.3881709999999998
0
LINE
8
BLACK
6
CONTINUOUS
10
62.8887259999999984
20
-101.3881709999999998
11
62.6030119999999997
21
-101.3881709999999998
0
LINE
8
BLACK
6
CONTINUOUS
10
62.6030119999999997
20
-101.3881709999999998
11
62.4125359999999958
21
-101.2929329999999908
0
LINE
8
BLACK
6
CONTINUOUS
10
62.4125359999999958
20
-101.2929329999999908
11
62.3172979999999939
21
-101.1024570000000011
0
LINE
8
BLACK
6
CONTINUOUS
10
62.3172979999999939
20
-101.1024570000000011
11
62.3172979999999939
21
-101.0072189999999921
0
LINE
8
BLACK
6
CONTINUOUS
10
62.3172979999999939
20
-101.0072189999999921
11
62.4125359999999958
21
-100.8167419999999908
0
LINE
8
BLACK
6
CONTINUOUS
10
62.4125359999999958
20
-100.8167419999999908
11
62.6030119999999997
21
-100.7215039999999959
0
LINE
8
BLACK
6
CONTINUOUS
10
62.6030119999999997
20
-100.7215039999999959
11
62.8887259999999984
21
-100.7215039999999959
0
LINE
8
BLACK
6
CONTINUOUS
10
62.8887259999999984
20
-100.7215039999999959
11
63.0792029999999997
21
-100.8167419999999908
0
LINE
8
BLACK
6
CONTINUOUS
10
63.8411079999999984
20
-102.8167419999999908
11
63.9363460000000003
21
-102.7215039999999959
0
LINE
8
BLACK
6
CONTINUOUS
10
63.9363460000000003
20
-102.7215039999999959
11
64.12682199999999
21
-102.4357899999999972
0
LINE
8
BLACK
6
CONTINUOUS
10
64.12682199999999
20
-102.4357899999999972
11
64.222059999999999
21
-102.2453139999999934
0
LINE
8
BLACK
6
CONTINUOUS
10
64.222059999999999
20
-102.2453139999999934
11
64.3172979999999939
21
-101.9595999999999947
0
LINE
8
BLACK
6
CONTINUOUS
10
64.3172979999999939
20
-101.9595999999999947
11
64.4125360000000029
21
-101.4834089999999946
0
LINE
8
BLACK
6
CONTINUOUS
10
64.4125360000000029
20
-101.4834089999999946
11
64.4125360000000029
21
-101.1024570000000011
0
LINE
8
BLACK
6
CONTINUOUS
10
64.4125360000000029
20
-101.1024570000000011
11
64.3172979999999939
21
-100.6262660000000011
0
LINE
8
BLACK
6
CONTINUOUS
10
64.3172979999999939
20
-100.6262660000000011
11
64.222059999999999
21
-100.3405520000000024
0
LINE
8
BLACK
6
CONTINUOUS
10
64.222059999999999
20
-100.3405520000000024
11
64.12682199999999
21
-100.1500759999999985
0
LINE
8
BLACK
6
CONTINUOUS
10
64.12682199999999
20
-100.1500759999999985
11
63.9363460000000003
21
-99.8643610000000024
0
LINE
8
BLACK
6
CONTINUOUS
10
63.9363460000000003
20
-99.8643610000000024
11
63.8411079999999984
21
-99.7691229999999933
  0
ENDSEC
  0
EOF
