M48
; DRILL file {KiCad 9.0.5} date 2026-05-14T12:21:47-0300
; FORMAT={-:-/ absolute / metric / decimal}
; #@! TF.CreationDate,2026-05-14T12:21:47-03:00
; #@! TF.GenerationSoftware,Kicad,Pcbnew,9.0.5
; #@! TF.FileFunction,MixedPlating,1,2
FMAT,2
METRIC
; #@! TA.AperFunction,Plated,PTH,ComponentDrill
T1C0.950
; #@! TA.AperFunction,Plated,PTH,ComponentDrill
T2C1.000
; #@! TA.AperFunction,Plated,PTH,ComponentDrill
T3C1.040
; #@! TA.AperFunction,Plated,PTH,ComponentDrill
T4C1.300
; #@! TA.AperFunction,Plated,PTH,ComponentDrill
T5C1.400
%
G90
G05
T1
X88.0Y-25.0
X88.0Y-27.5
X88.0Y-30.0
X88.0Y-38.1
X88.0Y-40.6
X88.0Y-43.1
X88.0Y-45.6
X88.0Y-48.1
X88.0Y-50.6
X88.0Y-53.1
X88.0Y-55.6
T2
X88.0Y-15.0
X88.0Y-17.5
X88.0Y-63.0
X88.0Y-65.5
T3
X38.5Y-3.53
X38.5Y-19.63
X65.06Y-38.05
X65.06Y-40.59
X65.06Y-43.13
X65.06Y-45.67
X65.06Y-48.21
X65.06Y-50.75
X65.14Y-57.85
X65.14Y-60.39
X65.14Y-62.93
X65.14Y-65.47
X65.14Y-68.01
X65.14Y-70.55
X75.53Y-3.53
X75.53Y-19.63
X80.26Y-38.05
X80.26Y-40.59
X80.26Y-43.13
X80.26Y-45.67
X80.26Y-48.21
X80.26Y-50.75
X80.34Y-57.85
X80.34Y-60.39
X80.34Y-62.93
X80.34Y-65.47
X80.34Y-68.01
X80.34Y-70.55
T4
X53.617Y-38.36
X53.617Y-43.36
X53.8Y-50.43
X53.8Y-55.43
X53.867Y-63.105
X53.867Y-68.185
X54.06Y-28.17
X75.9Y-28.17
T5
X81.13Y-21.79
X81.13Y-31.95
M30
