%TF.GenerationSoftware,KiCad,Pcbnew,9.0.5*%
%TF.CreationDate,2026-05-14T12:12:46-03:00*%
%TF.ProjectId,CubeSat_EPS_ADCS,43756265-5361-4745-9f45-50535f414443,rev?*%
%TF.SameCoordinates,Original*%
%TF.FileFunction,Copper,L2,Bot*%
%TF.FilePolarity,Positive*%
%FSLAX46Y46*%
G04 Gerber Fmt 4.6, Leading zero omitted, Abs format (unit mm)*
G04 Created by KiCad (PCBNEW 9.0.5) date 2026-05-14 12:12:46*
%MOMM*%
%LPD*%
G01*
G04 APERTURE LIST*
G04 Aperture macros list*
%AMRoundRect*
0 Rectangle with rounded corners*
0 $1 Rounding radius*
0 $2 $3 $4 $5 $6 $7 $8 $9 X,Y pos of 4 corners*
0 Add a 4 corners polygon primitive as box body*
4,1,4,$2,$3,$4,$5,$6,$7,$8,$9,$2,$3,0*
0 Add four circle primitives for the rounded corners*
1,1,$1+$1,$2,$3*
1,1,$1+$1,$4,$5*
1,1,$1+$1,$6,$7*
1,1,$1+$1,$8,$9*
0 Add four rect primitives between the rounded corners*
20,1,$1+$1,$2,$3,$4,$5,0*
20,1,$1+$1,$4,$5,$6,$7,0*
20,1,$1+$1,$6,$7,$8,$9,0*
20,1,$1+$1,$8,$9,$2,$3,0*%
G04 Aperture macros list end*
%TA.AperFunction,ComponentPad*%
%ADD10C,2.000000*%
%TD*%
%TA.AperFunction,ComponentPad*%
%ADD11C,2.040000*%
%TD*%
%TA.AperFunction,ComponentPad*%
%ADD12RoundRect,0.250000X1.050000X-1.050000X1.050000X1.050000X-1.050000X1.050000X-1.050000X-1.050000X0*%
%TD*%
%TA.AperFunction,ComponentPad*%
%ADD13C,2.600000*%
%TD*%
%TA.AperFunction,ComponentPad*%
%ADD14RoundRect,0.250000X-0.750000X0.600000X-0.750000X-0.600000X0.750000X-0.600000X0.750000X0.600000X0*%
%TD*%
%TA.AperFunction,ComponentPad*%
%ADD15O,2.000000X1.700000*%
%TD*%
%TA.AperFunction,ComponentPad*%
%ADD16RoundRect,0.250000X-0.725000X0.600000X-0.725000X-0.600000X0.725000X-0.600000X0.725000X0.600000X0*%
%TD*%
%TA.AperFunction,ComponentPad*%
%ADD17O,1.950000X1.700000*%
%TD*%
%TA.AperFunction,ComponentPad*%
%ADD18RoundRect,0.250001X-1.149999X1.149999X-1.149999X-1.149999X1.149999X-1.149999X1.149999X1.149999X0*%
%TD*%
%TA.AperFunction,ComponentPad*%
%ADD19C,2.800000*%
%TD*%
%TA.AperFunction,Conductor*%
%ADD20C,1.500000*%
%TD*%
%TA.AperFunction,Conductor*%
%ADD21C,2.000000*%
%TD*%
%TA.AperFunction,Conductor*%
%ADD22C,0.500000*%
%TD*%
G04 APERTURE END LIST*
D10*
%TO.P,U1,1,nSLEEP*%
%TO.N,unconnected-(U1-nSLEEP-Pad1)*%
X65060000Y-50750000D03*
D11*
%TO.P,U1,2,OUT1*%
%TO.N,VCC_M1*%
X65060000Y-48210000D03*
D10*
%TO.P,U1,3,OUT2*%
%TO.N,GND_M1*%
X65060000Y-45670000D03*
%TO.P,U1,4,OUT3*%
%TO.N,VCC_M2*%
X65060000Y-43130000D03*
%TO.P,U1,5,OUT4*%
%TO.N,GND_M2*%
X65060000Y-40590000D03*
%TO.P,U1,6,nFAULT*%
%TO.N,unconnected-(U1-nFAULT-Pad6)*%
X65060000Y-38050000D03*
%TO.P,U1,7,IN4*%
%TO.N,M2_PWM2*%
X80260000Y-50750000D03*
%TO.P,U1,8,IN3*%
%TO.N,M2_PWM1*%
X80260000Y-48210000D03*
%TO.P,U1,9,VCC*%
%TO.N,VCC_8.4V_ADCS*%
X80260000Y-45670000D03*
%TO.P,U1,10,GND*%
%TO.N,GND*%
X80260000Y-43130000D03*
%TO.P,U1,11,IN2*%
%TO.N,M1_PWM2*%
X80260000Y-40590000D03*
%TO.P,U1,12,IN1*%
%TO.N,M1_PWM1*%
X80260000Y-38050000D03*
%TD*%
%TO.P,U2,1,nSLEEP*%
%TO.N,unconnected-(U2-nSLEEP-Pad1)*%
X65140000Y-70550000D03*
%TO.P,U2,2,OUT1*%
%TO.N,VCC_M3*%
X65140000Y-68010000D03*
%TO.P,U2,3,OUT2*%
%TO.N,GND_M3*%
X65140000Y-65470000D03*
%TO.P,U2,4,OUT3*%
%TO.N,unconnected-(U2-OUT3-Pad4)*%
X65140000Y-62930000D03*
%TO.P,U2,5,OUT4*%
%TO.N,unconnected-(U2-OUT4-Pad5)*%
X65140000Y-60390000D03*
%TO.P,U2,6,nFAULT*%
%TO.N,unconnected-(U2-nFAULT-Pad6)*%
X65140000Y-57850000D03*
%TO.P,U2,7,IN4*%
%TO.N,unconnected-(U2-IN4-Pad7)*%
X80340000Y-70550000D03*
%TO.P,U2,8,IN3*%
%TO.N,unconnected-(U2-IN3-Pad8)*%
X80340000Y-68010000D03*
%TO.P,U2,9,VCC*%
%TO.N,VCC_8.4V_ADCS*%
X80340000Y-65470000D03*
%TO.P,U2,10,GND*%
%TO.N,GND*%
X80340000Y-62930000D03*
%TO.P,U2,11,IN2*%
%TO.N,M3_PWM2*%
X80340000Y-60390000D03*
%TO.P,U2,12,IN1*%
%TO.N,M3_PWM1*%
X80340000Y-57850000D03*
%TD*%
D12*
%TO.P,J7,1,Pin_1*%
%TO.N,VCC_M3*%
X53867500Y-68185000D03*
D13*
%TO.P,J7,2,Pin_2*%
%TO.N,GND_M3*%
X53867500Y-63105000D03*
%TD*%
%TO.P,F1,1*%
%TO.N,Net-(U4-Vout)*%
X54060000Y-28170000D03*
%TO.P,F1,2*%
%TO.N,VCC_5V*%
X75900000Y-28170000D03*
%TD*%
D14*
%TO.P,J1,1,Pin_1*%
%TO.N,VCC_8.4V_EPS*%
X88000000Y-15000000D03*
D15*
%TO.P,J1,2,Pin_2*%
%TO.N,GND*%
X88000000Y-17500000D03*
%TD*%
D16*
%TO.P,J2,1,Pin_1*%
%TO.N,VCC_8.4V_EPS*%
X88000000Y-25000000D03*
D17*
%TO.P,J2,2,Pin_2*%
%TO.N,VCC_5V*%
X88000000Y-27500000D03*
%TO.P,J2,3,Pin_3*%
%TO.N,GND*%
X88000000Y-30000000D03*
%TD*%
D12*
%TO.P,J6,1,Pin_1*%
%TO.N,VCC_M2*%
X53617500Y-43360000D03*
D13*
%TO.P,J6,2,Pin_2*%
%TO.N,GND_M2*%
X53617500Y-38360000D03*
%TD*%
D12*
%TO.P,J5,1,Pin_1*%
%TO.N,VCC_M1*%
X53800000Y-55430000D03*
D13*
%TO.P,J5,2,Pin_2*%
%TO.N,GND_M1*%
X53800000Y-50430000D03*
%TD*%
D18*
%TO.P,D1,1,K*%
%TO.N,VCC_5V*%
X81130000Y-21790000D03*
D19*
%TO.P,D1,2,A*%
%TO.N,GND*%
X81130000Y-31950000D03*
%TD*%
D13*
%TO.P,U4,1,Vin*%
%TO.N,VCC_8.4V_EPS*%
X75530000Y-3530000D03*
%TO.P,U4,2,GND*%
%TO.N,GND*%
X75530000Y-19630000D03*
%TO.P,U4,3,Vout*%
%TO.N,Net-(U4-Vout)*%
X38500000Y-3530000D03*
%TO.P,U4,4,GND*%
%TO.N,GND*%
X38500000Y-19630000D03*
%TD*%
D14*
%TO.P,J4,1,Pin_1*%
%TO.N,GND*%
X88000000Y-63000000D03*
D15*
%TO.P,J4,2,Pin_2*%
%TO.N,VCC_8.4V_ADCS*%
X88000000Y-65500000D03*
%TD*%
D16*
%TO.P,J3,1,Pin_1*%
%TO.N,M1_PWM1*%
X88000000Y-38100000D03*
D17*
%TO.P,J3,2,Pin_2*%
%TO.N,M1_PWM2*%
X88000000Y-40600000D03*
%TO.P,J3,3,Pin_3*%
%TO.N,GND*%
X88000000Y-43100000D03*
%TO.P,J3,4,Pin_4*%
%TO.N,M2_PWM1*%
X88000000Y-45600000D03*
%TO.P,J3,5,Pin_5*%
%TO.N,M2_PWM2*%
X88000000Y-48100000D03*
%TO.P,J3,6,Pin_6*%
%TO.N,GND*%
X88000000Y-50600000D03*
%TO.P,J3,7,Pin_7*%
%TO.N,M3_PWM1*%
X88000000Y-53100000D03*
%TO.P,J3,8,Pin_8*%
%TO.N,M3_PWM2*%
X88000000Y-55600000D03*
%TD*%
D20*
%TO.N,VCC_M2*%
X64980000Y-43200000D02*
X53760000Y-43200000D01*
%TO.N,GND_M2*%
X64940000Y-40710000D02*
X65060000Y-40590000D01*
X53617500Y-38360000D02*
X60100000Y-38360000D01*
X62450000Y-40710000D02*
X64940000Y-40710000D01*
X60100000Y-38360000D02*
X62450000Y-40710000D01*
%TO.N,VCC_M3*%
X65160000Y-68110000D02*
X53837500Y-68110000D01*
%TO.N,GND_M3*%
X60425000Y-65500000D02*
X58115000Y-63190000D01*
X58115000Y-63190000D02*
X53757500Y-63190000D01*
X65090000Y-65500000D02*
X60425000Y-65500000D01*
%TO.N,M2_PWM1*%
X85370000Y-45600000D02*
X82690000Y-48280000D01*
X88000000Y-45600000D02*
X85370000Y-45600000D01*
X82690000Y-48280000D02*
X80280000Y-48280000D01*
X80280000Y-48280000D02*
X80230000Y-48330000D01*
%TO.N,VCC_M1*%
X64940000Y-48330000D02*
X65060000Y-48210000D01*
X62890000Y-48330000D02*
X64940000Y-48330000D01*
X55790000Y-55430000D02*
X62890000Y-48330000D01*
X53800000Y-55430000D02*
X55790000Y-55430000D01*
%TO.N,GND_M1*%
X65030000Y-45790000D02*
X60620000Y-45790000D01*
X60620000Y-45790000D02*
X55970000Y-50440000D01*
X55970000Y-50440000D02*
X53700000Y-50440000D01*
%TO.N,GND*%
X90749000Y-44729000D02*
X90749000Y-48741000D01*
D21*
X38520000Y-19650000D02*
X38500000Y-19630000D01*
X88000000Y-63000000D02*
X80410000Y-63000000D01*
D20*
X90590000Y-60410000D02*
X88000000Y-63000000D01*
D21*
X86080000Y-31920000D02*
X81160000Y-31920000D01*
D20*
X88000000Y-50600000D02*
X89049000Y-50600000D01*
X88890000Y-50600000D02*
X88000000Y-50600000D01*
D21*
X88000000Y-30000000D02*
X86080000Y-31920000D01*
X74040000Y-31950000D02*
X71570000Y-29480000D01*
X80410000Y-63000000D02*
X80340000Y-62930000D01*
X71570000Y-23740000D02*
X77810000Y-17500000D01*
D20*
X88000000Y-30000000D02*
X90749000Y-32749000D01*
D21*
X75510000Y-19650000D02*
X38520000Y-19650000D01*
D20*
X90749000Y-41551000D02*
X89170000Y-43130000D01*
X88000000Y-43100000D02*
X89120000Y-43100000D01*
X89120000Y-43100000D02*
X90749000Y-44729000D01*
D21*
X81130000Y-31950000D02*
X74040000Y-31950000D01*
D20*
X89049000Y-50600000D02*
X90590000Y-52141000D01*
X90590000Y-52141000D02*
X90590000Y-60410000D01*
D21*
X75530000Y-19630000D02*
X75510000Y-19650000D01*
X77810000Y-17500000D02*
X88000000Y-17500000D01*
X71570000Y-29480000D02*
X71570000Y-23740000D01*
X81160000Y-31920000D02*
X81130000Y-31950000D01*
D20*
X90749000Y-32749000D02*
X90749000Y-41551000D01*
X90749000Y-48741000D02*
X88890000Y-50600000D01*
X89170000Y-43130000D02*
X80260000Y-43130000D01*
%TO.N,M1_PWM2*%
X88000000Y-40600000D02*
X87950000Y-40650000D01*
X87950000Y-40650000D02*
X80320000Y-40650000D01*
X80320000Y-40650000D02*
X80260000Y-40590000D01*
%TO.N,M1_PWM1*%
X80310000Y-38100000D02*
X80260000Y-38050000D01*
X88000000Y-38100000D02*
X80310000Y-38100000D01*
%TO.N,M3_PWM1*%
X85400000Y-53100000D02*
X88250000Y-53100000D01*
X80340000Y-57850000D02*
X80650000Y-57850000D01*
X80650000Y-57850000D02*
X85400000Y-53100000D01*
%TO.N,M3_PWM2*%
X80350000Y-60380000D02*
X80340000Y-60390000D01*
X83230000Y-60380000D02*
X80350000Y-60380000D01*
X88010000Y-55600000D02*
X83230000Y-60380000D01*
%TO.N,M2_PWM2*%
X88000000Y-48100000D02*
X87010000Y-48100000D01*
X84300000Y-50810000D02*
X84300000Y-50820000D01*
X84300000Y-50820000D02*
X80280000Y-50820000D01*
X80280000Y-50820000D02*
X80230000Y-50870000D01*
X87010000Y-48100000D02*
X84300000Y-50810000D01*
D21*
%TO.N,VCC_5V*%
X75920000Y-27000000D02*
X81130000Y-21790000D01*
X81130000Y-22340000D02*
X86290000Y-27500000D01*
X75900000Y-28170000D02*
X75920000Y-28150000D01*
X75920000Y-28150000D02*
X75920000Y-27000000D01*
D20*
X75910000Y-28110000D02*
X75910000Y-28050000D01*
D21*
X86290000Y-27500000D02*
X88000000Y-27500000D01*
X81130000Y-21790000D02*
X81130000Y-22340000D01*
%TO.N,Net-(U4-Vout)*%
X38500000Y-3580000D02*
X32990000Y-9090000D01*
X39980000Y-28170000D02*
X54060000Y-28170000D01*
X38500000Y-3540000D02*
X38500000Y-3580000D01*
X32990000Y-21180000D02*
X39980000Y-28170000D01*
X32990000Y-9090000D02*
X32990000Y-21180000D01*
D20*
%TO.N,VCC_8.4V_EPS*%
X89130000Y-15000000D02*
X88000000Y-15000000D01*
D21*
X76460000Y-3460000D02*
X88000000Y-15000000D01*
D20*
X90570000Y-16440000D02*
X89130000Y-15000000D01*
D21*
X75530000Y-3530000D02*
X75600000Y-3460000D01*
D20*
X88220000Y-25000000D02*
X90570000Y-22650000D01*
D21*
X75600000Y-3460000D02*
X76460000Y-3460000D01*
D20*
X90570000Y-22650000D02*
X90570000Y-16440000D01*
X88000000Y-25000000D02*
X88220000Y-25000000D01*
D21*
%TO.N,VCC_8.4V_ADCS*%
X75000000Y-71070000D02*
X75000000Y-48530000D01*
X79230000Y-75300000D02*
X75000000Y-71070000D01*
X86180000Y-75300000D02*
X79230000Y-75300000D01*
X89940000Y-71540000D02*
X86180000Y-75300000D01*
X84080000Y-65500000D02*
X84050000Y-65470000D01*
X77860000Y-45670000D02*
X80260000Y-45670000D01*
D22*
X88090000Y-64910000D02*
X88050000Y-64910000D01*
D21*
X88000000Y-65500000D02*
X89940000Y-67440000D01*
X75000000Y-48530000D02*
X77860000Y-45670000D01*
X89940000Y-67440000D02*
X89940000Y-71540000D01*
X88000000Y-65500000D02*
X84080000Y-65500000D01*
D22*
X88050000Y-64910000D02*
X88000000Y-64860000D01*
D21*
X84050000Y-65470000D02*
X80340000Y-65470000D01*
%TD*%
M02*
