G04 #@! TF.GenerationSoftware,KiCad,Pcbnew,9.0.5*
G04 #@! TF.CreationDate,2026-05-14T12:21:42-03:00*
G04 #@! TF.ProjectId,CubeSat_EPS_ADCS,43756265-5361-4745-9f45-50535f414443,rev?*
G04 #@! TF.SameCoordinates,Original*
G04 #@! TF.FileFunction,Copper,L1,Top*
G04 #@! TF.FilePolarity,Positive*
%FSLAX46Y46*%
G04 Gerber Fmt 4.6, Leading zero omitted, Abs format (unit mm)*
G04 Created by KiCad (PCBNEW 9.0.5) date 2026-05-14 12:21:42*
%MOMM*%
%LPD*%
G01*
G04 APERTURE LIST*
G04 Aperture macros list*
%AMRoundRect*
0 Rectangle with rounded corners*
0 $1 Rounding radius*
0 $2 $3 $4 $5 $6 $7 $8 $9 X,Y pos of 4 corners*
0 Add a 4 corners polygon primitive as box body*
4,1,4,$2,$3,$4,$5,$6,$7,$8,$9,$2,$3,0*
0 Add four circle primitives for the rounded corners*
1,1,$1+$1,$2,$3*
1,1,$1+$1,$4,$5*
1,1,$1+$1,$6,$7*
1,1,$1+$1,$8,$9*
0 Add four rect primitives between the rounded corners*
20,1,$1+$1,$2,$3,$4,$5,0*
20,1,$1+$1,$4,$5,$6,$7,0*
20,1,$1+$1,$6,$7,$8,$9,0*
20,1,$1+$1,$8,$9,$2,$3,0*%
G04 Aperture macros list end*
G04 #@! TA.AperFunction,ComponentPad*
%ADD10C,2.000000*%
G04 #@! TD*
G04 #@! TA.AperFunction,ComponentPad*
%ADD11C,2.040000*%
G04 #@! TD*
G04 #@! TA.AperFunction,ComponentPad*
%ADD12RoundRect,0.250000X1.050000X-1.050000X1.050000X1.050000X-1.050000X1.050000X-1.050000X-1.050000X0*%
G04 #@! TD*
G04 #@! TA.AperFunction,ComponentPad*
%ADD13C,2.600000*%
G04 #@! TD*
G04 #@! TA.AperFunction,ComponentPad*
%ADD14RoundRect,0.250000X-0.750000X0.600000X-0.750000X-0.600000X0.750000X-0.600000X0.750000X0.600000X0*%
G04 #@! TD*
G04 #@! TA.AperFunction,ComponentPad*
%ADD15O,2.000000X1.700000*%
G04 #@! TD*
G04 #@! TA.AperFunction,ComponentPad*
%ADD16RoundRect,0.250000X-0.725000X0.600000X-0.725000X-0.600000X0.725000X-0.600000X0.725000X0.600000X0*%
G04 #@! TD*
G04 #@! TA.AperFunction,ComponentPad*
%ADD17O,1.950000X1.700000*%
G04 #@! TD*
G04 #@! TA.AperFunction,ComponentPad*
%ADD18RoundRect,0.250001X-1.149999X1.149999X-1.149999X-1.149999X1.149999X-1.149999X1.149999X1.149999X0*%
G04 #@! TD*
G04 #@! TA.AperFunction,ComponentPad*
%ADD19C,2.800000*%
G04 #@! TD*
G04 APERTURE END LIST*
D10*
G04 #@! TO.P,U1,1,nSLEEP*
G04 #@! TO.N,unconnected-(U1-nSLEEP-Pad1)*
X65060000Y-50750000D03*
D11*
G04 #@! TO.P,U1,2,OUT1*
G04 #@! TO.N,VCC_M1*
X65060000Y-48210000D03*
D10*
G04 #@! TO.P,U1,3,OUT2*
G04 #@! TO.N,GND_M1*
X65060000Y-45670000D03*
G04 #@! TO.P,U1,4,OUT3*
G04 #@! TO.N,VCC_M2*
X65060000Y-43130000D03*
G04 #@! TO.P,U1,5,OUT4*
G04 #@! TO.N,GND_M2*
X65060000Y-40590000D03*
G04 #@! TO.P,U1,6,nFAULT*
G04 #@! TO.N,unconnected-(U1-nFAULT-Pad6)*
X65060000Y-38050000D03*
G04 #@! TO.P,U1,7,IN4*
G04 #@! TO.N,M2_PWM2*
X80260000Y-50750000D03*
G04 #@! TO.P,U1,8,IN3*
G04 #@! TO.N,M2_PWM1*
X80260000Y-48210000D03*
G04 #@! TO.P,U1,9,VCC*
G04 #@! TO.N,VCC_8.4V_ADCS*
X80260000Y-45670000D03*
G04 #@! TO.P,U1,10,GND*
G04 #@! TO.N,GND*
X80260000Y-43130000D03*
G04 #@! TO.P,U1,11,IN2*
G04 #@! TO.N,M1_PWM2*
X80260000Y-40590000D03*
G04 #@! TO.P,U1,12,IN1*
G04 #@! TO.N,M1_PWM1*
X80260000Y-38050000D03*
G04 #@! TD*
G04 #@! TO.P,U2,1,nSLEEP*
G04 #@! TO.N,unconnected-(U2-nSLEEP-Pad1)*
X65140000Y-70550000D03*
G04 #@! TO.P,U2,2,OUT1*
G04 #@! TO.N,VCC_M3*
X65140000Y-68010000D03*
G04 #@! TO.P,U2,3,OUT2*
G04 #@! TO.N,GND_M3*
X65140000Y-65470000D03*
G04 #@! TO.P,U2,4,OUT3*
G04 #@! TO.N,unconnected-(U2-OUT3-Pad4)*
X65140000Y-62930000D03*
G04 #@! TO.P,U2,5,OUT4*
G04 #@! TO.N,unconnected-(U2-OUT4-Pad5)*
X65140000Y-60390000D03*
G04 #@! TO.P,U2,6,nFAULT*
G04 #@! TO.N,unconnected-(U2-nFAULT-Pad6)*
X65140000Y-57850000D03*
G04 #@! TO.P,U2,7,IN4*
G04 #@! TO.N,unconnected-(U2-IN4-Pad7)*
X80340000Y-70550000D03*
G04 #@! TO.P,U2,8,IN3*
G04 #@! TO.N,unconnected-(U2-IN3-Pad8)*
X80340000Y-68010000D03*
G04 #@! TO.P,U2,9,VCC*
G04 #@! TO.N,VCC_8.4V_ADCS*
X80340000Y-65470000D03*
G04 #@! TO.P,U2,10,GND*
G04 #@! TO.N,GND*
X80340000Y-62930000D03*
G04 #@! TO.P,U2,11,IN2*
G04 #@! TO.N,M3_PWM2*
X80340000Y-60390000D03*
G04 #@! TO.P,U2,12,IN1*
G04 #@! TO.N,M3_PWM1*
X80340000Y-57850000D03*
G04 #@! TD*
D12*
G04 #@! TO.P,J7,1,Pin_1*
G04 #@! TO.N,VCC_M3*
X53867500Y-68185000D03*
D13*
G04 #@! TO.P,J7,2,Pin_2*
G04 #@! TO.N,GND_M3*
X53867500Y-63105000D03*
G04 #@! TD*
G04 #@! TO.P,F1,1*
G04 #@! TO.N,Net-(U4-Vout)*
X54060000Y-28170000D03*
G04 #@! TO.P,F1,2*
G04 #@! TO.N,VCC_5V*
X75900000Y-28170000D03*
G04 #@! TD*
D14*
G04 #@! TO.P,J1,1,Pin_1*
G04 #@! TO.N,VCC_8.4V_EPS*
X88000000Y-15000000D03*
D15*
G04 #@! TO.P,J1,2,Pin_2*
G04 #@! TO.N,GND*
X88000000Y-17500000D03*
G04 #@! TD*
D16*
G04 #@! TO.P,J2,1,Pin_1*
G04 #@! TO.N,VCC_8.4V_EPS*
X88000000Y-25000000D03*
D17*
G04 #@! TO.P,J2,2,Pin_2*
G04 #@! TO.N,VCC_5V*
X88000000Y-27500000D03*
G04 #@! TO.P,J2,3,Pin_3*
G04 #@! TO.N,GND*
X88000000Y-30000000D03*
G04 #@! TD*
D12*
G04 #@! TO.P,J6,1,Pin_1*
G04 #@! TO.N,VCC_M2*
X53617500Y-43360000D03*
D13*
G04 #@! TO.P,J6,2,Pin_2*
G04 #@! TO.N,GND_M2*
X53617500Y-38360000D03*
G04 #@! TD*
D12*
G04 #@! TO.P,J5,1,Pin_1*
G04 #@! TO.N,VCC_M1*
X53800000Y-55430000D03*
D13*
G04 #@! TO.P,J5,2,Pin_2*
G04 #@! TO.N,GND_M1*
X53800000Y-50430000D03*
G04 #@! TD*
D18*
G04 #@! TO.P,D1,1,K*
G04 #@! TO.N,VCC_5V*
X81130000Y-21790000D03*
D19*
G04 #@! TO.P,D1,2,A*
G04 #@! TO.N,GND*
X81130000Y-31950000D03*
G04 #@! TD*
D13*
G04 #@! TO.P,U4,1,Vin*
G04 #@! TO.N,VCC_8.4V_EPS*
X75530000Y-3530000D03*
G04 #@! TO.P,U4,2,GND*
G04 #@! TO.N,GND*
X75530000Y-19630000D03*
G04 #@! TO.P,U4,3,Vout*
G04 #@! TO.N,Net-(U4-Vout)*
X38500000Y-3530000D03*
G04 #@! TO.P,U4,4,GND*
G04 #@! TO.N,GND*
X38500000Y-19630000D03*
G04 #@! TD*
D14*
G04 #@! TO.P,J4,1,Pin_1*
G04 #@! TO.N,GND*
X88000000Y-63000000D03*
D15*
G04 #@! TO.P,J4,2,Pin_2*
G04 #@! TO.N,VCC_8.4V_ADCS*
X88000000Y-65500000D03*
G04 #@! TD*
D16*
G04 #@! TO.P,J3,1,Pin_1*
G04 #@! TO.N,M1_PWM1*
X88000000Y-38100000D03*
D17*
G04 #@! TO.P,J3,2,Pin_2*
G04 #@! TO.N,M1_PWM2*
X88000000Y-40600000D03*
G04 #@! TO.P,J3,3,Pin_3*
G04 #@! TO.N,GND*
X88000000Y-43100000D03*
G04 #@! TO.P,J3,4,Pin_4*
G04 #@! TO.N,M2_PWM1*
X88000000Y-45600000D03*
G04 #@! TO.P,J3,5,Pin_5*
G04 #@! TO.N,M2_PWM2*
X88000000Y-48100000D03*
G04 #@! TO.P,J3,6,Pin_6*
G04 #@! TO.N,GND*
X88000000Y-50600000D03*
G04 #@! TO.P,J3,7,Pin_7*
G04 #@! TO.N,M3_PWM1*
X88000000Y-53100000D03*
G04 #@! TO.P,J3,8,Pin_8*
G04 #@! TO.N,M3_PWM2*
X88000000Y-55600000D03*
G04 #@! TD*
M02*
