M48
; DRILL file {KiCad 9.0.5} date 2026-05-18T10:37:42-0300
; FORMAT={-:-/ absolute / metric / decimal}
; #@! TF.CreationDate,2026-05-18T10:37:42-03:00
; #@! TF.GenerationSoftware,Kicad,Pcbnew,9.0.5
; #@! TF.FileFunction,MixedPlating,1,2
FMAT,2
METRIC
; #@! TA.AperFunction,Plated,PTH,ComponentDrill
T1C0.950
; #@! TA.AperFunction,Plated,PTH,ComponentDrill
T2C1.000
; #@! TA.AperFunction,Plated,PTH,ComponentDrill
T3C1.040
; #@! TA.AperFunction,Plated,PTH,ComponentDrill
T4C1.300
; #@! TA.AperFunction,Plated,PTH,ComponentDrill
T5C1.400
%
G90
G05
T1
X88.0Y-25.0
X88.0Y-27.5
X88.0Y-30.0
X88.0Y-38.1
X88.0Y-40.6
X88.0Y-43.1
X88.0Y-45.6
X88.0Y-48.1
X88.0Y-50.6
X88.0Y-53.1
X88.0Y-55.6
T2
X56.297Y-87.99
X58.797Y-87.99
X65.57Y-88.05
X68.07Y-88.05
X88.0Y-14.5
X88.0Y-17.0
T3
X38.5Y-3.53
X38.5Y-19.63
X65.06Y-38.05
X65.06Y-40.59
X65.06Y-43.13
X65.06Y-45.67
X65.06Y-48.21
X65.06Y-50.75
X65.16Y-57.09
X65.16Y-59.63
X65.16Y-62.17
X65.16Y-64.71
X65.16Y-67.25
X65.16Y-69.79
X75.53Y-3.53
X75.53Y-19.63
X80.26Y-38.05
X80.26Y-40.59
X80.26Y-43.13
X80.26Y-45.67
X80.26Y-48.21
X80.26Y-50.75
X80.36Y-57.09
X80.36Y-59.63
X80.36Y-62.17
X80.36Y-64.71
X80.36Y-67.25
X80.36Y-69.79
T4
X53.617Y-38.36
X53.617Y-43.36
X53.807Y-50.26
X53.807Y-55.26
X53.927Y-62.27
X53.927Y-67.35
X54.06Y-28.17
X75.9Y-28.17
T5
X81.13Y-21.79
X81.13Y-31.95
M30
